ply
format ascii 1.0
element vertex 1665
property float x
property float y
property float z
end_header
-3.635460 -28.167210 0.203360
-3.775084 -28.236916 0.203360
-4.138605 -28.327749 0.203360
-4.502125 -28.248862 0.203360
-4.581826 -28.167210 0.203360
-4.643957 -27.824937 0.203360
-4.502125 -27.578892 0.203360
-4.279262 -27.482664 0.203360
-4.138605 -27.450865 0.203360
-3.917263 -27.482664 0.203360
-3.775084 -27.549551 0.203360
-3.511557 -27.824937 0.203360
-3.635460 -28.167210 0.203360
-3.350874 -28.509483 0.469915
-3.411564 -28.536098 0.469915
-3.775084 -28.661840 0.469915
-4.138605 -28.728950 0.469915
-4.502125 -28.716604 0.469915
-4.865646 -28.589664 0.469915
-4.956177 -28.509483 0.469915
-5.202612 -28.167210 0.469915
-5.229166 -27.915748 0.469915
-5.233242 -27.824937 0.469915
-5.229166 -27.809531 0.469915
-5.049248 -27.482664 0.469915
-4.865646 -27.277781 0.469915
-4.592501 -27.140392 0.469915
-4.502125 -27.105055 0.469915
-4.138605 -27.082265 0.469915
-3.775084 -27.130394 0.469915
-3.731275 -27.140392 0.469915
-3.411564 -27.310282 0.469915
-3.167418 -27.482664 0.469915
-3.048043 -27.747396 0.469915
-3.016653 -27.824937 0.469915
-3.048043 -28.096907 0.469915
-3.056628 -28.167210 0.469915
-3.350874 -28.509483 0.469915
-3.207254 -28.851756 0.736470
-3.411564 -28.914198 0.736470
-3.775084 -28.985904 0.736470
-4.138605 -29.022294 0.736470
-4.502125 -29.018542 0.736470
-4.865646 -28.951988 0.736470
-5.075515 -28.851756 0.736470
-5.229166 -28.760992 0.736470
-5.441977 -28.509483 0.736470
-5.592687 -28.246684 0.736470
-5.617404 -28.167210 0.736470
-5.628075 -27.824937 0.736470
-5.592687 -27.685309 0.736470
-5.496201 -27.482664 0.736470
-5.240218 -27.140392 0.736470
-5.229166 -27.128148 0.736470
-4.865646 -26.916212 0.736470
-4.502125 -26.812159 0.736470
-4.138605 -26.798709 0.736470
-3.775084 -26.857702 0.736470
-3.411564 -26.976073 0.736470
-3.058977 -27.140392 0.736470
-3.048043 -27.152502 0.736470
-2.784822 -27.482664 0.736470
-2.686019 -27.824937 0.736470
-2.694329 -28.167210 0.736470
-2.822938 -28.509483 0.736470
-3.048043 -28.732925 0.736470
-3.207254 -28.851756 0.736470
-3.033340 -29.194028 1.003024
-3.048043 -29.199541 1.003024
-3.411564 -29.270817 1.003024
-3.775084 -29.294110 1.003024
-4.138605 -29.295066 1.003024
-4.502125 -29.278954 1.003024
-4.865646 -29.229978 1.003024
-4.972027 -29.194028 1.003024
-5.229166 -29.093989 1.003024
-5.573807 -28.851756 1.003024
-5.592687 -28.836478 1.003024
-5.816198 -28.509483 1.003024
-5.956207 -28.213330 1.003024
-5.969438 -28.167210 1.003024
-5.978168 -27.824937 1.003024
-5.956207 -27.735137 1.003024
-5.852262 -27.482664 1.003024
-5.626783 -27.140392 1.003024
-5.592687 -27.096316 1.003024
-5.229166 -26.801298 1.003024
-5.221762 -26.798119 1.003024
-4.865646 -26.654174 1.003024
-4.502125 -26.588317 1.003024
-4.138605 -26.582029 1.003024
-3.775084 -26.619159 1.003024
-3.411564 -26.693579 1.003024
-3.074469 -26.798119 1.003024
-3.048043 -26.816147 1.003024
-2.684523 -27.122639 1.003024
-2.667794 -27.140392 1.003024
-2.515287 -27.482664 1.003024
-2.450465 -27.824937 1.003024
-2.441072 -28.167210 1.003024
-2.489548 -28.509483 1.003024
-2.628303 -28.851756 1.003024
-2.684523 -28.914054 1.003024
-3.033340 -29.194028 1.003024
-2.868795 -29.536301 1.269579
-3.048043 -29.593636 1.269579
-3.411564 -29.626650 1.269579
-3.775084 -29.606044 1.269579
-4.138605 -29.569742 1.269579
-4.440532 -29.536301 1.269579
-4.502125 -29.527764 1.269579
-4.865646 -29.456076 1.269579
-5.229166 -29.343806 1.269579
-5.509737 -29.194028 1.269579
-5.592687 -29.147223 1.269579
-5.902050 -28.851756 1.269579
-5.956207 -28.794464 1.269579
-6.123129 -28.509483 1.269579
-6.257088 -28.167210 1.269579
-6.270016 -27.824937 1.269579
-6.151469 -27.482664 1.269579
-5.956207 -27.142891 1.269579
-5.953885 -27.140392 1.269579
-5.604892 -26.798119 1.269579
-5.592687 -26.785752 1.269579
-5.229166 -26.562440 1.269579
-4.944763 -26.455846 1.269579
-4.865646 -26.427912 1.269579
-4.502125 -26.375404 1.269579
-4.138605 -26.363803 1.269579
-3.775084 -26.379940 1.269579
-3.411564 -26.422901 1.269579
-3.248813 -26.455846 1.269579
-3.048043 -26.539049 1.269579
-2.684523 -26.755363 1.269579
-2.628551 -26.798119 1.269579
-2.399139 -27.140392 1.269579
-2.321002 -27.379553 1.269579
-2.293877 -27.482664 1.269579
-2.253249 -27.824937 1.269579
-2.236198 -28.167210 1.269579
-2.244025 -28.509483 1.269579
-2.297218 -28.851756 1.269579
-2.321002 -28.907837 1.269579
-2.465285 -29.194028 1.269579
-2.684523 -29.412019 1.269579
-2.868795 -29.536301 1.269579
-2.704754 -29.878574 1.536134
-3.048043 -29.974183 1.536134
-3.411564 -29.977674 1.536134
-3.775084 -29.921432 1.536134
-3.981670 -29.878574 1.536134
-4.138605 -29.834665 1.536134
-4.502125 -29.741807 1.536134
-4.865646 -29.660219 1.536134
-5.229166 -29.558630 1.536134
-5.275559 -29.536301 1.536134
-5.592687 -29.377025 1.536134
-5.827896 -29.194028 1.536134
-5.956207 -29.094129 1.536134
-6.157619 -28.851756 1.536134
-6.319728 -28.637685 1.536134
-6.387068 -28.509483 1.536134
-6.499770 -28.167210 1.536134
-6.511291 -27.824937 1.536134
-6.412436 -27.482664 1.536134
-6.319728 -27.305210 1.536134
-6.194636 -27.140392 1.536134
-5.956207 -26.857969 1.536134
-5.879780 -26.798119 1.536134
-5.592687 -26.560724 1.536134
-5.398810 -26.455846 1.536134
-5.229166 -26.360306 1.536134
-4.865646 -26.244012 1.536134
-4.502125 -26.179897 1.536134
-4.138605 -26.150334 1.536134
-3.775084 -26.149437 1.536134
-3.411564 -26.187324 1.536134
-3.048043 -26.282504 1.536134
-2.684523 -26.439866 1.536134
-2.656999 -26.455846 1.536134
-2.334166 -26.798119 1.536134
-2.321002 -26.826407 1.536134
-2.194246 -27.140392 1.536134
-2.124857 -27.482664 1.536134
-2.088385 -27.824937 1.536134
-2.063386 -28.167210 1.536134
-2.051392 -28.509483 1.536134
-2.073402 -28.851756 1.536134
-2.155838 -29.194028 1.536134
-2.320551 -29.536301 1.536134
-2.321002 -29.536790 1.536134
-2.684523 -29.867162 1.536134
-2.704754 -29.878574 1.536134
-2.647375 -30.220847 1.802688
-2.684523 -30.239837 1.802688
-3.048043 -30.327778 1.802688
-3.411564 -30.311388 1.802688
-3.775084 -30.231199 1.802688
-3.809482 -30.220847 1.802688
-4.138605 -30.087787 1.802688
-4.502125 -29.967244 1.802688
-4.818162 -29.878574 1.802688
-4.865646 -29.863020 1.802688
-5.229166 -29.730975 1.802688
-5.592687 -29.565880 1.802688
-5.633613 -29.536301 1.802688
-5.956207 -29.308710 1.802688
-6.066602 -29.194028 1.802688
-6.319728 -28.937096 1.802688
-6.379642 -28.851756 1.802688
-6.589196 -28.509483 1.802688
-6.683248 -28.276859 1.802688
-6.716118 -28.167210 1.802688
-6.727115 -27.824937 1.802688
-6.683248 -27.651578 1.802688
-6.623766 -27.482664 1.802688
-6.410746 -27.140392 1.802688
-6.319728 -27.016475 1.802688
-6.098140 -26.798119 1.802688
-5.956207 -26.650559 1.802688
-5.689102 -26.455846 1.802688
-5.592687 -26.377968 1.802688
-5.229166 -26.188288 1.802688
-5.007982 -26.113573 1.802688
-4.865646 -26.068806 1.802688
-4.502125 -26.005666 1.802688
-4.138605 -25.969065 1.802688
-3.775084 -25.954174 1.802688
-3.411564 -25.970577 1.802688
-3.048043 -26.034813 1.802688
-2.805786 -26.113573 1.802688
-2.684523 -26.187491 1.802688
-2.338054 -26.455846 1.802688
-2.321002 -26.481213 1.802688
-2.128616 -26.798119 1.802688
-2.014000 -27.140392 1.802688
-1.957482 -27.475081 1.802688
-1.956432 -27.482664 1.802688
-1.931431 -27.824937 1.802688
-1.908869 -28.167210 1.802688
-1.889496 -28.509483 1.802688
-1.889045 -28.851756 1.802688
-1.928334 -29.194028 1.802688
-1.957482 -29.283270 1.802688
-2.043077 -29.536301 1.802688
-2.250009 -29.878574 1.802688
-2.321002 -29.949150 1.802688
-2.647375 -30.220847 1.802688
-2.671049 -30.563119 2.069243
-2.684523 -30.569641 2.069243
-3.048043 -30.645627 2.069243
-3.411564 -30.617780 2.069243
-3.615237 -30.563119 2.069243
-3.775084 -30.503551 2.069243
-4.138605 -30.341140 2.069243
-4.444634 -30.220847 2.069243
-4.502125 -30.191982 2.069243
-4.865646 -30.033184 2.069243
-5.229166 -29.895192 2.069243
-5.263320 -29.878574 2.069243
-5.592687 -29.712010 2.069243
-5.850750 -29.536301 2.069243
-5.956207 -29.468252 2.069243
-6.247562 -29.194028 2.069243
-6.319728 -29.128483 2.069243
-6.533763 -28.851756 2.069243
-6.683248 -28.637649 2.069243
-6.751146 -28.509483 2.069243
-6.864365 -28.167210 2.069243
-6.878024 -27.824937 2.069243
-6.782109 -27.482664 2.069243
-6.683248 -27.295316 2.069243
-6.573823 -27.140392 2.069243
-6.319728 -26.829101 2.069243
-6.284187 -26.798119 2.069243
-5.956207 -26.494116 2.069243
-5.897360 -26.455846 2.069243
-5.592687 -26.231862 2.069243
-5.364000 -26.113573 2.069243
-5.229166 -26.041952 2.069243
-4.865646 -25.920752 2.069243
-4.502125 -25.835779 2.069243
-4.138605 -25.772313 2.069243
-4.128141 -25.771301 2.069243
-3.775084 -25.746626 2.069243
-3.411564 -25.749512 2.069243
-3.230226 -25.771301 2.069243
-3.048043 -25.810294 2.069243
-2.684523 -25.965717 2.069243
-2.431700 -26.113573 2.069243
-2.321002 -26.228327 2.069243
-2.121133 -26.455846 2.069243
-1.957482 -26.772233 2.069243
-1.945108 -26.798119 2.069243
-1.865097 -27.140392 2.069243
-1.824739 -27.482664 2.069243
-1.800165 -27.824937 2.069243
-1.775283 -28.167210 2.069243
-1.750393 -28.509483 2.069243
-1.740347 -28.851756 2.069243
-1.764317 -29.194028 2.069243
-1.838987 -29.536301 2.069243
-1.957482 -29.821548 2.069243
-1.980873 -29.878574 2.069243
-2.229039 -30.220847 2.069243
-2.321002 -30.304527 2.069243
-2.671049 -30.563119 2.069243
-2.929724 -30.905392 2.335798
-3.048043 -30.926373 2.335798
-3.267486 -30.905392 2.335798
-3.411564 -30.886614 2.335798
-3.775084 -30.747440 2.335798
-4.138605 -30.586280 2.335798
-4.190331 -30.563119 2.335798
-4.502125 -30.383534 2.335798
-4.854081 -30.220847 2.335798
-4.865646 -30.214407 2.335798
-5.229166 -30.027536 2.335798
-5.513159 -29.878574 2.335798
-5.592687 -29.836611 2.335798
-5.956207 -29.586942 2.335798
-6.008720 -29.536301 2.335798
-6.319728 -29.259547 2.335798
-6.373691 -29.194028 2.335798
-6.662336 -28.851756 2.335798
-6.683248 -28.823813 2.335798
-6.859215 -28.509483 2.335798
-6.983344 -28.167210 2.335798
-6.999414 -27.824937 2.335798
-6.895891 -27.482664 2.335798
-6.703319 -27.140392 2.335798
-6.683248 -27.111875 2.335798
-6.401806 -26.798119 2.335798
-6.319728 -26.703581 2.335798
-6.034707 -26.455846 2.335798
-5.956207 -26.377556 2.335798
-5.595354 -26.113573 2.335798
-5.592687 -26.111419 2.335798
-5.229166 -25.917599 2.335798
-4.865646 -25.772698 2.335798
-4.860725 -25.771301 2.335798
-4.502125 -25.688314 2.335798
-4.138605 -25.626397 2.335798
-3.775084 -25.586441 2.335798
-3.411564 -25.582315 2.335798
-3.048043 -25.633641 2.335798
-2.684523 -25.748800 2.335798
-2.635625 -25.771301 2.335798
-2.321002 -26.005730 2.335798
-2.191506 -26.113573 2.335798
-1.957482 -26.429089 2.335798
-1.938330 -26.455846 2.335798
-1.801607 -26.798119 2.335798
-1.722435 -27.140392 2.335798
-1.679942 -27.482664 2.335798
-1.654413 -27.824937 2.335798
-1.631287 -28.167210 2.335798
-1.609131 -28.509483 2.335798
-1.599418 -28.851756 2.335798
-1.618131 -29.194028 2.335798
-1.679791 -29.536301 2.335798
-1.796036 -29.878574 2.335798
-1.957482 -30.180113 2.335798
-1.978705 -30.220847 2.335798
-2.266835 -30.563119 2.335798
-2.321002 -30.608064 2.335798
-2.684523 -30.838224 2.335798
-2.929724 -30.905392 2.335798
-2.389456 -30.905392 2.602352
-2.684523 -31.066863 2.602352
-3.048043 -31.144742 2.602352
-3.411564 -31.097392 2.602352
-3.775084 -30.970655 2.602352
-3.920312 -30.905392 2.602352
-4.138605 -30.779192 2.602352
-4.502125 -30.580369 2.602352
-4.536549 -30.563119 2.602352
-4.865646 -30.355994 2.602352
-5.118089 -30.220847 2.602352
-5.229166 -30.153182 2.602352
-5.592687 -29.933100 2.602352
-5.665536 -29.878574 2.602352
-5.956207 -29.669881 2.602352
-6.095841 -29.536301 2.602352
-6.319728 -29.341333 2.602352
-6.444744 -29.194028 2.602352
-6.683248 -28.922519 2.602352
-6.731557 -28.851756 2.602352
-6.932103 -28.509483 2.602352
-7.046769 -28.209202 2.602352
-7.059992 -28.167210 2.602352
-7.074043 -27.824937 2.602352
-7.046769 -27.716328 2.602352
-6.973134 -27.482664 2.602352
-6.771309 -27.140392 2.602352
-6.683248 -27.019351 2.602352
-6.477365 -26.798119 2.602352
-6.319728 -26.622740 2.602352
-6.121913 -26.455846 2.602352
-5.956207 -26.294326 2.602352
-5.708086 -26.113573 2.602352
-5.592687 -26.019579 2.602352
-5.229166 -25.805798 2.602352
-5.150172 -25.771301 2.602352
-4.865646 -25.662034 2.602352
-4.502125 -25.557634 2.602352
-4.138605 -25.473948 2.602352
-3.855621 -25.429028 2.602352
-3.775084 -25.419603 2.602352
-3.411564 -25.410561 2.602352
-3.225642 -25.429028 2.602352
-3.048043 -25.457704 2.602352
-2.684523 -25.595583 2.602352
-2.361812 -25.771301 2.602352
-2.321002 -25.808090 2.602352
-2.009401 -26.113573 2.602352
-1.957482 -26.197006 2.602352
-1.795837 -26.455846 2.602352
-1.658635 -26.798119 2.602352
-1.593961 -27.061734 2.602352
-1.575570 -27.140392 2.602352
-1.533949 -27.482664 2.602352
-1.511630 -27.824937 2.602352
-1.498473 -28.167210 2.602352
-1.489406 -28.509483 2.602352
-1.488030 -28.851756 2.602352
-1.504724 -29.194028 2.602352
-1.552922 -29.536301 2.602352
-1.593961 -29.671969 2.602352
-1.651061 -29.878574 2.602352
-1.809233 -30.220847 2.602352
-1.957482 -30.439566 2.602352
-2.039859 -30.563119 2.602352
-2.321002 -30.850061 2.602352
-2.389456 -30.905392 2.602352
-2.644388 -31.247665 2.868907
-2.684523 -31.267070 2.868907
-3.048043 -31.332475 2.868907
-3.411564 -31.287860 2.868907
-3.529478 -31.247665 2.868907
-3.775084 -31.145335 2.868907
-4.138605 -30.957030 2.868907
-4.235916 -30.905392 2.868907
-4.502125 -30.724838 2.868907
-4.774427 -30.563119 2.868907
-4.865646 -30.494499 2.868907
-5.229166 -30.258043 2.868907
-5.286372 -30.220847 2.868907
-5.592687 -30.004748 2.868907
-5.749787 -29.878574 2.868907
-5.956207 -29.722002 2.868907
-6.145879 -29.536301 2.868907
-6.319728 -29.382963 2.868907
-6.480202 -29.194028 2.868907
-6.683248 -28.964047 2.868907
-6.760550 -28.851756 2.868907
-6.964602 -28.509483 2.868907
-7.046769 -28.296378 2.868907
-7.087779 -28.167210 2.868907
-7.102492 -27.824937 2.868907
-7.046769 -27.604578 2.868907
-7.008037 -27.482664 2.868907
-6.803393 -27.140392 2.868907
-6.683248 -26.976475 2.868907
-6.516584 -26.798119 2.868907
-6.319728 -26.579644 2.868907
-6.174193 -26.455846 2.868907
-5.956207 -26.240775 2.868907
-5.787261 -26.113573 2.868907
-5.592687 -25.948880 2.868907
-5.315886 -25.771301 2.868907
-5.229166 -25.718618 2.868907
-4.865646 -25.559611 2.868907
-4.502125 -25.431267 2.868907
-4.493934 -25.429028 2.868907
-4.138605 -25.356105 2.868907
-3.775084 -25.305810 2.868907
-3.411564 -25.292046 2.868907
-3.048043 -25.332103 2.868907
-2.704395 -25.429028 2.868907
-2.684523 -25.437930 2.868907
-2.321002 -25.668575 2.868907
-2.178954 -25.771301 2.868907
-1.957482 -26.015336 2.868907
-1.868011 -26.113573 2.868907
-1.662755 -26.455846 2.868907
-1.593961 -26.630072 2.868907
-1.525783 -26.798119 2.868907
-1.435266 -27.140392 2.868907
-1.377019 -27.482664 2.868907
-1.350222 -27.824937 2.868907
-1.348589 -28.167210 2.868907
-1.359546 -28.509483 2.868907
-1.376498 -28.851756 2.868907
-1.404251 -29.194028 2.868907
-1.454720 -29.536301 2.868907
-1.541974 -29.878574 2.868907
-1.593961 -29.995975 2.868907
-1.682706 -30.220847 2.868907
-1.882439 -30.563119 2.868907
-1.957482 -30.653621 2.868907
-2.168764 -30.905392 2.868907
-2.321002 -31.038241 2.868907
-2.644388 -31.247665 2.868907
-2.397984 -31.247665 3.135461
-2.684523 -31.401519 3.135461
-3.048043 -31.472204 3.135461
-3.411564 -31.421160 3.135461
-3.775084 -31.289231 3.135461
-3.861070 -31.247665 3.135461
-4.138605 -31.083895 3.135461
-4.440294 -30.905392 3.135461
-4.502125 -30.857839 3.135461
-4.865646 -30.604621 3.135461
-4.931749 -30.563119 3.135461
-5.229166 -30.333178 3.135461
-5.381542 -30.220847 3.135461
-5.592687 -30.052606 3.135461
-5.790842 -29.878574 3.135461
-5.956207 -29.742567 3.135461
-6.156227 -29.536301 3.135461
-6.319728 -29.385400 3.135461
-6.477850 -29.194028 3.135461
-6.683248 -28.955732 3.135461
-6.753789 -28.851756 3.135461
-6.954778 -28.509483 3.135461
-7.046769 -28.268253 3.135461
-7.078671 -28.167210 3.135461
-7.093494 -27.824937 3.135461
-7.046769 -27.637589 3.135461
-6.998559 -27.482664 3.135461
-6.797964 -27.140392 3.135461
-6.683248 -26.980969 3.135461
-6.517279 -26.798119 3.135461
-6.319728 -26.572257 3.135461
-6.188986 -26.455846 3.135461
-5.956207 -26.215404 3.135461
-5.829735 -26.113573 3.135461
-5.592687 -25.899513 3.135461
-5.409951 -25.771301 3.135461
-5.229166 -25.651961 3.135461
-4.865646 -25.470017 3.135461
-4.763099 -25.429028 3.135461
-4.502125 -25.348738 3.135461
-4.138605 -25.262355 3.135461
-3.775084 -25.202741 3.135461
-3.411564 -25.184231 3.135461
-3.048043 -25.226277 3.135461
-2.684523 -25.338699 3.135461
-2.491460 -25.429028 3.135461
-2.321002 -25.548738 3.135461
-2.039369 -25.771301 3.135461
-1.957482 -25.869671 3.135461
-1.749974 -26.113573 3.135461
-1.593961 -26.375323 3.135461
-1.543184 -26.455846 3.135461
-1.391729 -26.798119 3.135461
-1.270443 -27.140392 3.135461
-1.230441 -27.310714 3.135461
-1.190188 -27.482664 3.135461
-1.160899 -27.824937 3.135461
-1.178218 -28.167210 3.135461
-1.217995 -28.509483 3.135461
-1.230441 -28.595401 3.135461
-1.264542 -28.851756 3.135461
-1.313374 -29.194028 3.135461
-1.373891 -29.536301 3.135461
-1.461566 -29.878574 3.135461
-1.591335 -30.220847 3.135461
-1.593961 -30.225159 3.135461
-1.777172 -30.563119 3.135461
-1.957482 -30.809500 3.135461
-2.028057 -30.905392 3.135461
-2.321002 -31.191076 3.135461
-2.397984 -31.247665 3.135461
-2.267104 -31.247665 3.402016
-2.321002 -31.291890 3.402016
-2.684523 -31.501358 3.402016
-3.048043 -31.576614 3.402016
-3.411564 -31.521303 3.402016
-3.775084 -31.379155 3.402016
-4.034472 -31.247665 3.402016
-4.138605 -31.182430 3.402016
-4.502125 -30.946477 3.402016
-4.569592 -30.905392 3.402016
-4.865646 -30.673726 3.402016
-5.023385 -30.563119 3.402016
-5.229166 -30.383955 3.402016
-5.426427 -30.220847 3.402016
-5.592687 -30.071632 3.402016
-5.791564 -29.878574 3.402016
-5.956207 -29.728848 3.402016
-6.129225 -29.536301 3.402016
-6.319728 -29.346828 3.402016
-6.439329 -29.194028 3.402016
-6.683248 -28.895940 3.402016
-6.712139 -28.851756 3.402016
-6.903938 -28.509483 3.402016
-7.029737 -28.167210 3.402016
-7.046769 -27.843400 3.402016
-7.047563 -27.824937 3.402016
-7.046769 -27.821637 3.402016
-6.946523 -27.482664 3.402016
-6.756580 -27.140392 3.402016
-6.683248 -27.033852 3.402016
-6.482157 -26.798119 3.402016
-6.319728 -26.600764 3.402016
-6.169641 -26.455846 3.402016
-5.956207 -26.217979 3.402016
-5.838412 -26.113573 3.402016
-5.592687 -25.872166 3.402016
-5.462842 -25.771301 3.402016
-5.229166 -25.603075 3.402016
-4.917509 -25.429028 3.402016
-4.865646 -25.406081 3.402016
-4.502125 -25.282439 3.402016
-4.138605 -25.185775 3.402016
-3.775084 -25.118446 3.402016
-3.411564 -25.095882 3.402016
-3.048043 -25.138731 3.402016
-2.684523 -25.257588 3.402016
-2.341254 -25.429028 3.402016
-2.321002 -25.444126 3.402016
-1.957482 -25.749350 3.402016
-1.931688 -25.771301 3.402016
-1.647450 -26.113573 3.402016
-1.593961 -26.204244 3.402016
-1.431651 -26.455846 3.402016
-1.248364 -26.798119 3.402016
-1.230441 -26.842111 3.402016
-1.092263 -27.140392 3.402016
-0.969566 -27.482664 3.402016
-0.929166 -27.824937 3.402016
-0.982589 -28.167210 3.402016
-1.075164 -28.509483 3.402016
-1.160716 -28.851756 3.402016
-1.230441 -29.179800 3.402016
-1.233038 -29.194028 3.402016
-1.310219 -29.536301 3.402016
-1.404247 -29.878574 3.402016
-1.532390 -30.220847 3.402016
-1.593961 -30.330706 3.402016
-1.709452 -30.563119 3.402016
-1.941011 -30.905392 3.402016
-1.957482 -30.923505 3.402016
-2.267104 -31.247665 3.402016
-2.841939 -31.589938 3.668571
-3.048043 -31.625683 3.668571
-3.322858 -31.589938 3.668571
-3.411564 -31.576843 3.668571
-3.775084 -31.429607 3.668571
-4.124576 -31.247665 3.668571
-4.138605 -31.238599 3.668571
-4.502125 -30.988495 3.668571
-4.630898 -30.905392 3.668571
-4.865646 -30.709501 3.668571
-5.058711 -30.563119 3.668571
-5.229166 -30.401148 3.668571
-5.427516 -30.220847 3.668571
-5.592687 -30.055807 3.668571
-5.757709 -29.878574 3.668571
-5.956207 -29.676597 3.668571
-6.070972 -29.536301 3.668571
-6.319728 -29.262974 3.668571
-6.369669 -29.194028 3.668571
-6.624096 -28.851756 3.668571
-6.683248 -28.763181 3.668571
-6.816593 -28.509483 3.668571
-6.932573 -28.167210 3.668571
-6.949563 -27.824937 3.668571
-6.857609 -27.482664 3.668571
-6.683923 -27.140392 3.668571
-6.683248 -27.139339 3.668571
-6.418332 -26.798119 3.668571
-6.319728 -26.667089 3.668571
-6.124268 -26.455846 3.668571
-5.956207 -26.248835 3.668571
-5.820552 -26.113573 3.668571
-5.592687 -25.867488 3.668571
-5.481177 -25.771301 3.668571
-5.229166 -25.574412 3.668571
-4.989865 -25.429028 3.668571
-4.865646 -25.369863 3.668571
-4.502125 -25.236343 3.668571
-4.138605 -25.132286 3.668571
-3.905708 -25.086755 3.668571
-3.775084 -25.066666 3.668571
-3.411564 -25.048011 3.668571
-3.048043 -25.079398 3.668571
-3.017227 -25.086755 3.668571
-2.684523 -25.197768 3.668571
-2.321002 -25.384915 3.668571
-2.249579 -25.429028 3.668571
-1.957482 -25.679586 3.668571
-1.851838 -25.771301 3.668571
-1.593961 -26.076632 3.668571
-1.560694 -26.113573 3.668571
-1.323782 -26.455846 3.668571
-1.230441 -26.615956 3.668571
-1.105177 -26.798119 3.668571
-0.881682 -27.140392 3.668571
-0.866920 -27.171490 3.668571
-0.682912 -27.482664 3.668571
-0.622975 -27.824937 3.668571
-0.745439 -28.167210 3.668571
-0.866920 -28.393686 3.668571
-0.914678 -28.509483 3.668571
-1.058162 -28.851756 3.668571
-1.167740 -29.194028 3.668571
-1.230441 -29.404712 3.668571
-1.263668 -29.536301 3.668571
-1.369150 -29.878574 3.668571
-1.501193 -30.220847 3.668571
-1.593961 -30.391921 3.668571
-1.676433 -30.563119 3.668571
-1.903072 -30.905392 3.668571
-1.957482 -30.967473 3.668571
-2.215403 -31.247665 3.668571
-2.321002 -31.337377 3.668571
-2.684523 -31.554889 3.668571
-2.841939 -31.589938 3.668571
-2.843348 -31.589938 3.935125
-3.048043 -31.626436 3.935125
-3.336895 -31.589938 3.935125
-3.411564 -31.579279 3.935125
-3.775084 -31.432900 3.935125
-4.129466 -31.247665 3.935125
-4.138605 -31.241768 3.935125
-4.502125 -30.989128 3.935125
-4.628931 -30.905392 3.935125
-4.865646 -30.703298 3.935125
-5.043062 -30.563119 3.935125
-5.229166 -30.377391 3.935125
-5.390327 -30.220847 3.935125
-5.592687 -30.000373 3.935125
-5.696203 -29.878574 3.935125
-5.956207 -29.581729 3.935125
-5.989742 -29.536301 3.935125
-6.261409 -29.194028 3.935125
-6.319728 -29.123796 3.935125
-6.498877 -28.851756 3.935125
-6.683248 -28.544441 3.935125
-6.700309 -28.509483 3.935125
-6.804840 -28.167210 3.935125
-6.821195 -27.824937 3.935125
-6.741110 -27.482664 3.935125
-6.683248 -27.356172 3.935125
-6.562124 -27.140392 3.935125
-6.336114 -26.798119 3.935125
-6.319728 -26.773718 3.935125
-6.063669 -26.455846 3.935125
-5.956207 -26.307333 3.935125
-5.785552 -26.113573 3.935125
-5.592687 -25.884799 3.935125
-5.473288 -25.771301 3.935125
-5.229166 -25.567036 3.935125
-5.015745 -25.429028 3.935125
-4.865646 -25.353501 3.935125
-4.502125 -25.213150 3.935125
-4.138605 -25.105307 3.935125
-4.044791 -25.086755 3.935125
-3.775084 -25.044116 3.935125
-3.411564 -25.024122 3.935125
-3.048043 -25.054758 3.935125
-2.915326 -25.086755 3.935125
-2.684523 -25.162943 3.935125
-2.321002 -25.349048 3.935125
-2.191935 -25.429028 3.935125
-1.957482 -25.627193 3.935125
-1.790801 -25.771301 3.935125
-1.593961 -25.998772 3.935125
-1.487877 -26.113573 3.935125
-1.230441 -26.451341 3.935125
-1.226533 -26.455846 3.935125
-0.959925 -26.798119 3.935125
-0.866920 -26.923677 3.935125
-0.638860 -27.140392 3.935125
-0.503400 -27.294691 3.935125
-0.242166 -27.482664 3.935125
-0.139880 -27.750229 3.935125
-0.107571 -27.824937 3.935125
-0.139880 -27.847912 3.935125
-0.443186 -28.167210 3.935125
-0.503400 -28.212340 3.935125
-0.752470 -28.509483 3.935125
-0.866920 -28.667816 3.935125
-0.962605 -28.851756 3.935125
-1.113179 -29.194028 3.935125
-1.230441 -29.522900 3.935125
-1.234434 -29.536301 3.935125
-1.355632 -29.878574 3.935125
-1.496989 -30.220847 3.935125
-1.593961 -30.395880 3.935125
-1.676962 -30.563119 3.935125
-1.905708 -30.905392 3.935125
-1.957482 -30.964543 3.935125
-2.218733 -31.247665 3.935125
-2.321002 -31.334956 3.935125
-2.684523 -31.553825 3.935125
-2.843348 -31.589938 3.935125
-2.279018 -31.247665 4.201680
-2.321002 -31.282578 4.201680
-2.684523 -31.495909 4.201680
-3.048043 -31.575953 4.201680
-3.411564 -31.525726 4.201680
-3.775084 -31.385939 4.201680
-4.044644 -31.247665 4.201680
-4.138605 -31.189139 4.201680
-4.502125 -30.945309 4.201680
-4.563325 -30.905392 4.201680
-4.865646 -30.652565 4.201680
-4.978516 -30.563119 4.201680
-5.229166 -30.311382 4.201680
-5.319373 -30.220847 4.201680
-5.592687 -29.905478 4.201680
-5.613985 -29.878574 4.201680
-5.878549 -29.536301 4.201680
-5.956207 -29.441190 4.201680
-6.126903 -29.194028 4.201680
-6.319728 -28.923685 4.201680
-6.361921 -28.851756 4.201680
-6.535962 -28.509483 4.201680
-6.652355 -28.167210 4.201680
-6.673643 -27.824937 4.201680
-6.591608 -27.482664 4.201680
-6.435151 -27.140392 4.201680
-6.319728 -26.935015 4.201680
-6.228529 -26.798119 4.201680
-5.998853 -26.455846 4.201680
-5.956207 -26.389526 4.201680
-5.742767 -26.113573 4.201680
-5.592687 -25.920537 4.201680
-5.447592 -25.771301 4.201680
-5.229166 -25.579426 4.201680
-5.004691 -25.429028 4.201680
-4.865646 -25.356620 4.201680
-4.502125 -25.212570 4.201680
-4.138605 -25.104367 4.201680
-4.048747 -25.086755 4.201680
-3.775084 -25.042744 4.201680
-3.411564 -25.021966 4.201680
-3.048043 -25.051161 4.201680
-2.896706 -25.086755 4.201680
-2.684523 -25.153099 4.201680
-2.321002 -25.332262 4.201680
-2.161497 -25.429028 4.201680
-1.957482 -25.593978 4.201680
-1.747429 -25.771301 4.201680
-1.593961 -25.941073 4.201680
-1.429262 -26.113573 4.201680
-1.230441 -26.363345 4.201680
-1.145332 -26.455846 4.201680
-0.866920 -26.771408 4.201680
-0.835366 -26.798119 4.201680
-0.503400 -27.075657 4.201680
-0.365980 -27.140392 4.201680
-0.139880 -27.267839 4.201680
0.223641 -27.376343 4.201680
0.587161 -27.442416 4.201680
0.822761 -27.482664 4.201680
0.950682 -27.569384 4.201680
1.266596 -27.824937 4.201680
0.950682 -27.904163 4.201680
0.587161 -27.987554 4.201680
0.223641 -28.084102 4.201680
0.014890 -28.167210 4.201680
-0.139880 -28.208819 4.201680
-0.503400 -28.405948 4.201680
-0.603246 -28.509483 4.201680
-0.866920 -28.814270 4.201680
-0.888360 -28.851756 4.201680
-1.074072 -29.194028 4.201680
-1.222670 -29.536301 4.201680
-1.230441 -29.552875 4.201680
-1.362989 -29.878574 4.201680
-1.519335 -30.220847 4.201680
-1.593961 -30.346385 4.201680
-1.711190 -30.563119 4.201680
-1.949931 -30.905392 4.201680
-1.957482 -30.913729 4.201680
-2.279018 -31.247665 4.201680
-2.433463 -31.247665 4.468235
-2.684523 -31.386166 4.468235
-3.048043 -31.463986 4.468235
-3.411564 -31.420422 4.468235
-3.775084 -31.291583 4.468235
-3.864173 -31.247665 4.468235
-4.138605 -31.087776 4.468235
-4.428437 -30.905392 4.468235
-4.502125 -30.847561 4.468235
-4.865222 -30.563119 4.468235
-4.865646 -30.562704 4.468235
-5.218042 -30.220847 4.468235
-5.229166 -30.208159 4.468235
-5.507738 -29.878574 4.468235
-5.592687 -29.771506 4.468235
-5.760934 -29.536301 4.468235
-5.956207 -29.264788 4.468235
-5.999943 -29.194028 4.468235
-6.205950 -28.851756 4.468235
-6.319728 -28.636302 4.468235
-6.376368 -28.509483 4.468235
-6.476156 -28.167210 4.468235
-6.499646 -27.824937 4.468235
-6.440703 -27.482664 4.468235
-6.319728 -27.145144 4.468235
-6.317760 -27.140392 4.468235
-6.132628 -26.798119 4.468235
-5.956207 -26.487845 4.468235
-5.935080 -26.455846 4.468235
-5.699613 -26.113573 4.468235
-5.592687 -25.967861 4.468235
-5.411224 -25.771301 4.468235
-5.229166 -25.607305 4.468235
-4.964908 -25.429028 4.468235
-4.865646 -25.376594 4.468235
-4.502125 -25.231291 4.468235
-4.138605 -25.125191 4.468235
-3.936758 -25.086755 4.468235
-3.775084 -25.060591 4.468235
-3.411564 -25.039537 4.468235
-3.048043 -25.066854 4.468235
-2.958575 -25.086755 4.468235
-2.684523 -25.164902 4.468235
-2.321002 -25.333202 4.468235
-2.156422 -25.429028 4.468235
-1.957482 -25.579481 4.468235
-1.721780 -25.771301 4.468235
-1.593961 -25.905310 4.468235
-1.388849 -26.113573 4.468235
-1.230441 -26.306259 4.468235
-1.088678 -26.455846 4.468235
-0.866920 -26.702884 4.468235
-0.748042 -26.798119 4.468235
-0.503400 -26.994272 4.468235
-0.139880 -27.134665 4.468235
-0.113458 -27.140392 4.468235
0.223641 -27.228259 4.468235
0.587161 -27.281233 4.468235
0.950682 -27.327573 4.468235
1.314202 -27.378634 4.468235
1.677723 -27.436241 4.468235
1.938925 -27.482664 4.468235
2.041243 -27.558089 4.468235
2.373857 -27.824937 4.468235
2.041243 -27.925013 4.468235
1.677723 -28.022267 4.468235
1.314202 -28.105594 4.468235
0.982642 -28.167210 4.468235
0.950682 -28.170586 4.468235
0.587161 -28.198742 4.468235
0.223641 -28.232069 4.468235
-0.139880 -28.302290 4.468235
-0.503400 -28.497417 4.468235
-0.515475 -28.509483 4.468235
-0.845791 -28.851756 4.468235
-0.866920 -28.878119 4.468235
-1.055168 -29.194028 4.468235
-1.228251 -29.536301 4.468235
-1.230441 -29.540392 4.468235
-1.390111 -29.878574 4.468235
-1.567632 -30.220847 4.468235
-1.593961 -30.260716 4.468235
-1.779986 -30.563119 4.468235
-1.957482 -30.793338 4.468235
-2.047717 -30.905392 4.468235
-2.321002 -31.167501 4.468235
-2.433463 -31.247665 4.468235
2.404764 -27.970109 4.734789
2.041243 -28.071437 4.734789
1.677723 -28.157025 4.734789
1.616918 -28.167210 4.734789
1.314202 -28.194065 4.734789
0.950682 -28.216458 4.734789
0.587161 -28.231011 4.734789
0.223641 -28.248087 4.734789
-0.139880 -28.303356 4.734789
-0.503400 -28.494609 4.734789
-0.517377 -28.509483 4.734789
-0.842899 -28.851756 4.734789
-0.866920 -28.880667 4.734789
-1.059476 -29.194028 4.734789
-1.230441 -29.494904 4.734789
-1.250605 -29.536301 4.734789
-1.435382 -29.878574 4.734789
-1.593961 -30.139666 4.734789
-1.641083 -30.220847 4.734789
-1.884210 -30.563119 4.734789
-1.957482 -30.646710 4.734789
-2.201070 -30.905392 4.734789
-2.321002 -31.007985 4.734789
-2.684523 -31.232946 4.734789
-2.741147 -31.247665 4.734789
-3.048043 -31.309867 4.734789
-3.411564 -31.273760 4.734789
-3.490028 -31.247665 4.734789
-3.775084 -31.140218 4.734789
-4.138605 -30.952020 4.734789
-4.218885 -30.905392 4.734789
-4.502125 -30.708081 4.734789
-4.703688 -30.563119 4.734789
-4.865646 -30.421777 4.734789
-5.087059 -30.220847 4.734789
-5.229166 -30.069137 4.734789
-5.393997 -29.878574 4.734789
-5.592687 -29.623659 4.734789
-5.653082 -29.536301 4.734789
-5.878311 -29.194028 4.734789
-5.956207 -29.066103 4.734789
-6.071768 -28.851756 4.734789
-6.227340 -28.509483 4.734789
-6.319728 -28.203387 4.734789
-6.329455 -28.167210 4.734789
-6.357464 -27.824937 4.734789
-6.319728 -27.505407 4.734789
-6.316773 -27.482664 4.734789
-6.208416 -27.140392 4.734789
-6.059287 -26.798119 4.734789
-5.956207 -26.592334 4.734789
-5.878122 -26.455846 4.734789
-5.660165 -26.113573 4.734789
-5.592687 -26.018921 4.734789
-5.368745 -25.771301 4.734789
-5.229166 -25.645309 4.734789
-4.902337 -25.429028 4.734789
-4.865646 -25.409702 4.734789
-4.502125 -25.264503 4.734789
-4.138605 -25.161720 4.734789
-3.775084 -25.095738 4.734789
-3.634982 -25.086755 4.734789
-3.411564 -25.073730 4.734789
-3.220175 -25.086755 4.734789
-3.048043 -25.101069 4.734789
-2.684523 -25.193761 4.734789
-2.321002 -25.349856 4.734789
-2.177385 -25.429028 4.734789
-1.957482 -25.582529 4.734789
-1.715663 -25.771301 4.734789
-1.593961 -25.892150 4.734789
-1.370888 -26.113573 4.734789
-1.230441 -26.281817 4.734789
-1.065998 -26.455846 4.734789
-0.866920 -26.683350 4.734789
-0.727154 -26.798119 4.734789
-0.503400 -26.985829 4.734789
-0.139880 -27.127480 4.734789
-0.066277 -27.140392 4.734789
0.223641 -27.201627 4.734789
0.587161 -27.237389 4.734789
0.950682 -27.269390 4.734789
1.314202 -27.309779 4.734789
1.677723 -27.359815 4.734789
2.041243 -27.417784 4.734789
2.404764 -27.481606 4.734789
2.404764 -27.968596 5.001344
2.041243 -28.063596 5.001344
1.677723 -28.137559 5.001344
1.445951 -28.167210 5.001344
1.314202 -28.176042 5.001344
0.950682 -28.185328 5.001344
0.587161 -28.181995 5.001344
0.223641 -28.177142 5.001344
-0.139880 -28.211530 5.001344
-0.503400 -28.396120 5.001344
-0.596433 -28.509483 5.001344
-0.866920 -28.827240 5.001344
-0.880354 -28.851756 5.001344
-1.087777 -29.194028 5.001344
-1.230441 -29.427301 5.001344
-1.288861 -29.536301 5.001344
-1.497118 -29.878574 5.001344
-1.593961 -30.016046 5.001344
-1.737399 -30.220847 5.001344
-1.957482 -30.483398 5.001344
-2.031378 -30.563119 5.001344
-2.321002 -30.821537 5.001344
-2.450235 -30.905392 5.001344
-2.684523 -31.029904 5.001344
-3.048043 -31.110547 5.001344
-3.411564 -31.078193 5.001344
-3.775084 -30.962753 5.001344
-3.898723 -30.905392 5.001344
-4.138605 -30.781498 5.001344
-4.497060 -30.563119 5.001344
-4.502125 -30.559655 5.001344
-4.865646 -30.280547 5.001344
-4.936704 -30.220847 5.001344
-5.229166 -29.933820 5.001344
-5.279091 -29.878574 5.001344
-5.553141 -29.536301 5.001344
-5.592687 -29.481642 5.001344
-5.778688 -29.194028 5.001344
-5.956207 -28.876489 5.001344
-5.968782 -28.851756 5.001344
-6.113866 -28.509483 5.001344
-6.210038 -28.167210 5.001344
-6.245970 -27.824937 5.001344
-6.218629 -27.482664 5.001344
-6.134726 -27.140392 5.001344
-6.007029 -26.798119 5.001344
-5.956207 -26.687060 5.001344
-5.836999 -26.455846 5.001344
-5.624510 -26.113573 5.001344
-5.592687 -26.068915 5.001344
-5.321107 -25.771301 5.001344
-5.229166 -25.689714 5.001344
-4.865646 -25.455300 5.001344
-4.808789 -25.429028 5.001344
-4.502125 -25.308273 5.001344
-4.138605 -25.208984 5.001344
-3.775084 -25.147209 5.001344
-3.411564 -25.125363 5.001344
-3.048043 -25.152016 5.001344
-2.684523 -25.236482 5.001344
-2.321002 -25.381430 5.001344
-2.229132 -25.429028 5.001344
-1.957482 -25.603225 5.001344
-1.733319 -25.771301 5.001344
-1.593961 -25.903211 5.001344
-1.379695 -26.113573 5.001344
-1.230441 -26.292984 5.001344
-1.081333 -26.455846 5.001344
-0.866920 -26.716598 5.001344
-0.776087 -26.798119 5.001344
-0.503400 -27.054905 5.001344
-0.312657 -27.140392 5.001344
-0.139880 -27.236289 5.001344
0.223641 -27.294923 5.001344
0.587161 -27.304040 5.001344
0.950682 -27.314739 5.001344
1.314202 -27.339700 5.001344
1.677723 -27.378986 5.001344
2.041243 -27.429636 5.001344
2.367330 -27.482664 5.001344
2.404764 -27.506689 5.001344
-3.035696 -30.905392 5.267899
-3.048043 -30.907757 5.267899
-3.082774 -30.905392 5.267899
-3.411564 -30.882813 5.267899
-3.775084 -30.777691 5.267899
-4.138605 -30.616995 5.267899
-4.237270 -30.563119 5.267899
-4.502125 -30.407977 5.267899
-4.769078 -30.220847 5.267899
-4.865646 -30.146949 5.267899
-5.161554 -29.878574 5.267899
-5.229166 -29.809833 5.267899
-5.461391 -29.536301 5.267899
-5.592687 -29.356470 5.267899
-5.698807 -29.194028 5.267899
-5.888484 -28.851756 5.267899
-5.956207 -28.694910 5.267899
-6.033399 -28.509483 5.267899
-6.129808 -28.167210 5.267899
-6.170996 -27.824937 5.267899
-6.155260 -27.482664 5.267899
-6.085859 -27.140392 5.267899
-5.969573 -26.798119 5.267899
-5.956207 -26.767374 5.267899
-5.805273 -26.455846 5.267899
-5.592687 -26.118927 5.267899
-5.588546 -26.113573 5.267899
-5.265141 -25.771301 5.267899
-5.229166 -25.740344 5.267899
-4.865646 -25.509444 5.267899
-4.678973 -25.429028 5.267899
-4.502125 -25.361487 5.267899
-4.138605 -25.265257 5.267899
-3.775084 -25.207610 5.267899
-3.411564 -25.188536 5.267899
-3.048043 -25.214298 5.267899
-2.684523 -25.293261 5.267899
-2.323336 -25.429028 5.267899
-2.321002 -25.430066 5.267899
-1.957482 -25.644595 5.267899
-1.782400 -25.771301 5.267899
-1.593961 -25.943070 5.267899
-1.420467 -26.113573 5.267899
-1.230441 -26.346856 5.267899
-1.135833 -26.455846 5.267899
-0.878868 -26.798119 5.267899
-0.866920 -26.818474 5.267899
-0.584822 -27.140392 5.267899
-0.503400 -27.271338 5.267899
-0.187459 -27.482664 5.267899
-0.139880 -27.641929 5.267899
0.223641 -27.708300 5.267899
0.587161 -27.489453 5.267899
0.602610 -27.482664 5.267899
0.950682 -27.460603 5.267899
1.314202 -27.461827 5.267899
1.636217 -27.482664 5.267899
1.677723 -27.492407 5.267899
2.041243 -27.651735 5.267899
2.364765 -27.824937 5.267899
2.041243 -27.904641 5.267899
1.677723 -27.965604 5.267899
1.314202 -27.991423 5.267899
0.950682 -27.976272 5.267899
0.587161 -27.921417 5.267899
0.223641 -27.852621 5.267899
-0.139880 -27.862395 5.267899
-0.468704 -28.167210 5.267899
-0.503400 -28.188954 5.267899
-0.724231 -28.509483 5.267899
-0.866920 -28.699640 5.267899
-0.942796 -28.851756 5.267899
-1.139738 -29.194028 5.267899
-1.230441 -29.337457 5.267899
-1.342963 -29.536301 5.267899
-1.574519 -29.878574 5.267899
-1.593961 -29.903181 5.267899
-1.853796 -30.220847 5.267899
-1.957482 -30.327044 5.267899
-2.225429 -30.563119 5.267899
-2.321002 -30.635266 5.267899
-2.684523 -30.827942 5.267899
-3.035696 -30.905392 5.267899
-2.500120 -30.563119 5.534453
-2.684523 -30.647406 5.534453
-3.048043 -30.721167 5.534453
-3.411564 -30.704872 5.534453
-3.775084 -30.616133 5.534453
-3.907531 -30.563119 5.534453
-4.138605 -30.472870 5.534453
-4.502125 -30.278387 5.534453
-4.590432 -30.220847 5.534453
-4.865646 -30.029435 5.534453
-5.041985 -29.878574 5.534453
-5.229166 -29.699372 5.534453
-5.373864 -29.536301 5.534453
-5.592687 -29.243995 5.534453
-5.626318 -29.194028 5.534453
-5.824727 -28.851756 5.534453
-5.956207 -28.542907 5.534453
-5.970323 -28.509483 5.534453
-6.071606 -28.167210 5.534453
-6.118548 -27.824937 5.534453
-6.110812 -27.482664 5.534453
-6.049761 -27.140392 5.534453
-5.956207 -26.850999 5.534453
-5.938260 -26.798119 5.534453
-5.774486 -26.455846 5.534453
-5.592687 -26.175494 5.534453
-5.543102 -26.113573 5.534453
-5.229166 -25.800564 5.534453
-5.188291 -25.771301 5.534453
-4.865646 -25.571520 5.534453
-4.508538 -25.429028 5.534453
-4.502125 -25.426668 5.534453
-4.138605 -25.332853 5.534453
-3.775084 -25.279377 5.534453
-3.411564 -25.264168 5.534453
-3.048043 -25.291520 5.534453
-2.684523 -25.368797 5.534453
-2.510779 -25.429028 5.534453
-2.321002 -25.504995 5.534453
-1.957482 -25.714015 5.534453
-1.875908 -25.771301 5.534453
-1.593961 -26.021506 5.534453
-1.501347 -26.113573 5.534453
-1.232341 -26.455846 5.534453
-1.230441 -26.458988 5.534453
-0.999370 -26.798119 5.534453
-0.866920 -27.058566 5.534453
-0.808425 -27.140392 5.534453
-0.648558 -27.482664 5.534453
-0.617673 -27.824937 5.534453
-0.713535 -28.167210 5.534453
-0.866920 -28.473969 5.534453
-0.877860 -28.509483 5.534453
-1.029731 -28.851756 5.534453
-1.215763 -29.194028 5.534453
-1.230441 -29.217209 5.534453
-1.414166 -29.536301 5.534453
-1.593961 -29.783897 5.534453
-1.665531 -29.878574 5.534453
-1.957482 -30.190936 5.534453
-1.991172 -30.220847 5.534453
-2.321002 -30.472537 5.534453
-2.500120 -30.563119 5.534453
-3.023165 -30.563119 5.801008
-3.048043 -30.567736 5.801008
-3.198114 -30.563119 5.801008
-3.411564 -30.557436 5.801008
-3.775084 -30.483156 5.801008
-4.138605 -30.351553 5.801008
-4.392132 -30.220847 5.801008
-4.502125 -30.165037 5.801008
-4.865646 -29.919227 5.801008
-4.915083 -29.878574 5.801008
-5.229166 -29.591596 5.801008
-5.280210 -29.536301 5.801008
-5.552533 -29.194028 5.801008
-5.592687 -29.131861 5.801008
-5.763506 -28.851756 5.801008
-5.915289 -28.509483 5.801008
-5.956207 -28.371370 5.801008
-6.020153 -28.167210 5.801008
-6.073489 -27.824937 5.801008
-6.071661 -27.482664 5.801008
-6.014925 -27.140392 5.801008
-5.956207 -26.954543 5.801008
-5.904870 -26.798119 5.801008
-5.735348 -26.455846 5.801008
-5.592687 -26.244554 5.801008
-5.482491 -26.113573 5.801008
-5.229166 -25.873215 5.801008
-5.076142 -25.771301 5.801008
-4.865646 -25.647036 5.801008
-4.502125 -25.504878 5.801008
-4.183289 -25.429028 5.801008
-4.138605 -25.418154 5.801008
-3.775084 -25.369433 5.801008
-3.411564 -25.360034 5.801008
-3.048043 -25.392578 5.801008
-2.874430 -25.429028 5.801008
-2.684523 -25.471910 5.801008
-2.321002 -25.610651 5.801008
-2.038443 -25.771301 5.801008
-1.957482 -25.827533 5.801008
-1.634303 -26.113573 5.801008
-1.593961 -26.160830 5.801008
-1.360991 -26.455846 5.801008
-1.230441 -26.687133 5.801008
-1.161935 -26.798119 5.801008
-1.003112 -27.140392 5.801008
-0.911593 -27.482664 5.801008
-0.886799 -27.824937 5.801008
-0.922030 -28.167210 5.801008
-1.008905 -28.509483 5.801008
-1.141429 -28.851756 5.801008
-1.230441 -29.025708 5.801008
-1.303592 -29.194028 5.801008
-1.505565 -29.536301 5.801008
-1.593961 -29.654299 5.801008
-1.772533 -29.878574 5.801008
-1.957482 -30.062852 5.801008
-2.156001 -30.220847 5.801008
-2.321002 -30.334310 5.801008
-2.684523 -30.498589 5.801008
-3.023165 -30.563119 5.801008
-2.350210 -30.220847 6.067563
-2.684523 -30.372041 6.067563
-3.048043 -30.444029 6.067563
-3.411564 -30.439131 6.067563
-3.775084 -30.369441 6.067563
-4.138605 -30.238133 6.067563
-4.172857 -30.220847 6.067563
-4.502125 -30.060503 6.067563
-4.771158 -29.878574 6.067563
-4.865646 -29.811885 6.067563
-5.173443 -29.536301 6.067563
-5.229166 -29.479050 6.067563
-5.470406 -29.194028 6.067563
-5.592687 -29.009932 6.067563
-5.693119 -28.851756 6.067563
-5.856799 -28.509483 6.067563
-5.956207 -28.187215 6.067563
-5.962888 -28.167210 6.067563
-6.023569 -27.824937 6.067563
-6.026374 -27.482664 6.067563
-5.970873 -27.140392 6.067563
-5.956207 -27.093862 6.067563
-5.859997 -26.798119 6.067563
-5.677974 -26.455846 6.067563
-5.592687 -26.335439 6.067563
-5.394511 -26.113573 6.067563
-5.229166 -25.964961 6.067563
-4.914200 -25.771301 6.067563
-4.865646 -25.744146 6.067563
-4.502125 -25.602350 6.067563
-4.138605 -25.520654 6.067563
-3.775084 -25.482870 6.067563
-3.411564 -25.483164 6.067563
-3.048043 -25.523451 6.067563
-2.684523 -25.612897 6.067563
-2.321002 -25.767415 6.067563
-2.313845 -25.771301 6.067563
-1.957482 -26.008182 6.067563
-1.837746 -26.113573 6.067563
-1.593961 -26.403194 6.067563
-1.554059 -26.455846 6.067563
-1.352583 -26.798119 6.067563
-1.230441 -27.125397 6.067563
-1.223991 -27.140392 6.067563
-1.123951 -27.482664 6.067563
-1.084082 -27.824937 6.067563
-1.099670 -28.167210 6.067563
-1.166465 -28.509483 6.067563
-1.230441 -28.697301 6.067563
-1.271730 -28.851756 6.067563
-1.412915 -29.194028 6.067563
-1.593961 -29.494361 6.067563
-1.619484 -29.536301 6.067563
-1.901344 -29.878574 6.067563
-1.957482 -29.932518 6.067563
-2.321002 -30.206370 6.067563
-2.350210 -30.220847 6.067563
-2.623943 -30.220847 6.334117
-2.684523 -30.246955 6.334117
-3.048043 -30.326285 6.334117
-3.411564 -30.325638 6.334117
-3.775084 -30.256086 6.334117
-3.871316 -30.220847 6.334117
-4.138605 -30.132999 6.334117
-4.502125 -29.948015 6.334117
-4.605120 -29.878574 6.334117
-4.865646 -29.697347 6.334117
-5.048295 -29.536301 6.334117
-5.229166 -29.354498 6.334117
-5.369001 -29.194028 6.334117
-5.592687 -28.867778 6.334117
-5.603324 -28.851756 6.334117
-5.783918 -28.509483 6.334117
-5.898841 -28.167210 6.334117
-5.956207 -27.835514 6.334117
-5.958307 -27.824937 6.334117
-5.964859 -27.482664 6.334117
-5.956207 -27.427860 6.334117
-5.912465 -27.140392 6.334117
-5.793987 -26.798119 6.334117
-5.592687 -26.458226 6.334117
-5.590992 -26.455846 6.334117
-5.262736 -26.113573 6.334117
-5.229166 -26.085151 6.334117
-4.865646 -25.862779 6.334117
-4.612659 -25.771301 6.334117
-4.502125 -25.730961 6.334117
-4.138605 -25.654019 6.334117
-3.775084 -25.626326 6.334117
-3.411564 -25.641858 6.334117
-3.048043 -25.703093 6.334117
-2.822321 -25.771301 6.334117
-2.684523 -25.815032 6.334117
-2.321002 -25.995589 6.334117
-2.155656 -26.113573 6.334117
-1.957482 -26.294126 6.334117
-1.814712 -26.455846 6.334117
-1.604918 -26.798119 6.334117
-1.593961 -26.822615 6.334117
-1.446934 -27.140392 6.334117
-1.349640 -27.482664 6.334117
-1.301218 -27.824937 6.334117
-1.294972 -28.167210 6.334117
-1.330370 -28.509483 6.334117
-1.412586 -28.851756 6.334117
-1.553368 -29.194028 6.334117
-1.593961 -29.264437 6.334117
-1.751929 -29.536301 6.334117
-1.957482 -29.779642 6.334117
-2.060235 -29.878574 6.334117
-2.321002 -30.078004 6.334117
-2.623943 -30.220847 6.334117
-2.257992 -29.878574 6.600672
-2.321002 -29.926907 6.600672
-2.684523 -30.117255 6.600672
-3.048043 -30.200167 6.600672
-3.411564 -30.203850 6.600672
-3.775084 -30.142364 6.600672
-4.138605 -30.016988 6.600672
-4.396282 -29.878574 6.600672
-4.502125 -29.823412 6.600672
-4.865646 -29.560898 6.600672
-4.893738 -29.536301 6.600672
-5.229166 -29.204681 6.600672
-5.238703 -29.194028 6.600672
-5.498215 -28.851756 6.600672
-5.592687 -28.678893 6.600672
-5.687291 -28.509483 6.600672
-5.815117 -28.167210 6.600672
-5.880686 -27.824937 6.600672
-5.887340 -27.482664 6.600672
-5.830103 -27.140392 6.600672
-5.695457 -26.798119 6.600672
-5.592687 -26.632752 6.600672
-5.457939 -26.455846 6.600672
-5.229166 -26.236974 6.600672
-5.037082 -26.113573 6.600672
-4.865646 -26.015102 6.600672
-4.502125 -25.887840 6.600672
-4.138605 -25.828380 6.600672
-3.775084 -25.819298 6.600672
-3.411564 -25.855141 6.600672
-3.048043 -25.941247 6.600672
-2.684523 -26.097511 6.600672
-2.656071 -26.113573 6.600672
-2.321002 -26.334605 6.600672
-2.188968 -26.455846 6.600672
-1.957482 -26.742461 6.600672
-1.918311 -26.798119 6.600672
-1.730228 -27.140392 6.600672
-1.615530 -27.482664 6.600672
-1.593961 -27.586770 6.600672
-1.536602 -27.824937 6.600672
-1.504320 -28.167210 6.600672
-1.522558 -28.509483 6.600672
-1.593961 -28.843168 6.600672
-1.595525 -28.851756 6.600672
-1.714292 -29.194028 6.600672
-1.920629 -29.536301 6.600672
-1.957482 -29.581308 6.600672
-2.257992 -29.878574 6.600672
-2.537224 -29.878574 6.867227
-2.684523 -29.960075 6.867227
-3.048043 -30.063194 6.867227
-3.411564 -30.074917 6.867227
-3.775084 -30.011861 6.867227
-4.128984 -29.878574 6.867227
-4.138605 -29.875257 6.867227
-4.502125 -29.681244 6.867227
-4.697997 -29.536301 6.867227
-4.865646 -29.403293 6.867227
-5.081394 -29.194028 6.867227
-5.229166 -29.020420 6.867227
-5.361868 -28.851756 6.867227
-5.560654 -28.509483 6.867227
-5.592687 -28.426739 6.867227
-5.700759 -28.167210 6.867227
-5.773602 -27.824937 6.867227
-5.778937 -27.482664 6.867227
-5.709972 -27.140392 6.867227
-5.592687 -26.881650 6.867227
-5.548520 -26.798119 6.867227
-5.252621 -26.455846 6.867227
-5.229166 -26.435094 6.867227
-4.865646 -26.209989 6.867227
-4.561977 -26.113573 6.867227
-4.502125 -26.094487 6.867227
-4.138605 -26.046867 6.867227
-3.775084 -26.062664 6.867227
-3.529393 -26.113573 6.867227
-3.411564 -26.135956 6.867227
-3.048043 -26.262119 6.867227
-2.720577 -26.455846 6.867227
-2.684523 -26.479630 6.867227
-2.336450 -26.798119 6.867227
-2.321002 -26.816442 6.867227
-2.084269 -27.140392 6.867227
-1.957482 -27.408723 6.867227
-1.921969 -27.482664 6.867227
-1.806590 -27.824937 6.867227
-1.749351 -28.167210 6.867227
-1.743881 -28.509483 6.867227
-1.794526 -28.851756 6.867227
-1.916570 -29.194028 6.867227
-1.957482 -29.266067 6.867227
-2.130015 -29.536301 6.867227
-2.321002 -29.731099 6.867227
-2.537224 -29.878574 6.867227
-3.030398 -29.878574 7.133781
-3.048043 -29.884169 7.133781
-3.411564 -29.908747 7.133781
-3.577257 -29.878574 7.133781
-3.775084 -29.847370 7.133781
-4.138605 -29.714714 7.133781
-4.443489 -29.536301 7.133781
-4.502125 -29.501360 7.133781
-4.865646 -29.206243 7.133781
-4.878339 -29.194028 7.133781
-5.182351 -28.851756 7.133781
-5.229166 -28.781639 7.133781
-5.404568 -28.509483 7.133781
-5.547284 -28.167210 7.133781
-5.592687 -27.950531 7.133781
-5.622420 -27.824937 7.133781
-5.622558 -27.482664 7.133781
-5.592687 -27.359849 7.133781
-5.533876 -27.140392 7.133781
-5.322869 -26.798119 7.133781
-5.229166 -26.700469 7.133781
-4.865646 -26.460101 7.133781
-4.852964 -26.455846 7.133781
-4.502125 -26.347390 7.133781
-4.138605 -26.322896 7.133781
-3.775084 -26.370803 7.133781
-3.517245 -26.455846 7.133781
-3.411564 -26.489094 7.133781
-3.048043 -26.677049 7.133781
-2.886883 -26.798119 7.133781
-2.684523 -26.975712 7.133781
-2.533891 -27.140392 7.133781
-2.321002 -27.457880 7.133781
-2.305287 -27.482664 7.133781
-2.142888 -27.824937 7.133781
-2.051828 -28.167210 7.133781
-2.020424 -28.509483 7.133781
-2.052227 -28.851756 7.133781
-2.165861 -29.194028 7.133781
-2.321002 -29.434513 7.133781
-2.407982 -29.536301 7.133781
-2.684523 -29.751215 7.133781
-3.030398 -29.878574 7.133781
-2.836715 -29.536301 7.400336
-3.048043 -29.642191 7.400336
-3.411564 -29.694606 7.400336
-3.775084 -29.642392 7.400336
-4.044497 -29.536301 7.400336
-4.138605 -29.500412 7.400336
-4.502125 -29.275441 7.400336
-4.600900 -29.194028 7.400336
-4.865646 -28.944332 7.400336
-4.949873 -28.851756 7.400336
-5.189138 -28.509483 7.400336
-5.229166 -28.421959 7.400336
-5.346516 -28.167210 7.400336
-5.418961 -27.824937 7.400336
-5.400337 -27.482664 7.400336
-5.263446 -27.140392 7.400336
-5.229166 -27.094051 7.400336
-4.883480 -26.798119 7.400336
-4.865646 -26.787461 7.400336
-4.502125 -26.678848 7.400336
-4.138605 -26.677924 7.400336
-3.775084 -26.765444 7.400336
-3.704717 -26.798119 7.400336
-3.411564 -26.934680 7.400336
-3.126603 -27.140392 7.400336
-3.048043 -27.206376 7.400336
-2.790411 -27.482664 7.400336
-2.684523 -27.637558 7.400336
-2.565874 -27.824937 7.400336
-2.427273 -28.167210 7.400336
-2.363399 -28.509483 7.400336
-2.378758 -28.851756 7.400336
-2.501309 -29.194028 7.400336
-2.684523 -29.425485 7.400336
-2.836715 -29.536301 7.400336
-3.020846 -29.194028 7.666891
-3.048043 -29.218904 7.666891
-3.411564 -29.364606 7.666891
-3.775084 -29.341661 7.666891
-4.138605 -29.204331 7.666891
-4.154470 -29.194028 7.666891
-4.502125 -28.946417 7.666891
-4.602689 -28.851756 7.666891
-4.865646 -28.535962 7.666891
-4.885177 -28.509483 7.666891
-5.044958 -28.167210 7.666891
-5.100569 -27.824937 7.666891
-5.016064 -27.482664 7.666891
-4.865646 -27.298977 7.666891
-4.535739 -27.140392 7.666891
-4.502125 -27.130116 7.666891
-4.273050 -27.140392 7.666891
-4.138605 -27.146352 7.666891
-3.775084 -27.281292 7.666891
-3.465371 -27.482664 7.666891
-3.411564 -27.524642 7.666891
-3.130496 -27.824937 7.666891
-3.048043 -27.951581 7.666891
-2.923977 -28.167210 7.666891
-2.823710 -28.509483 7.666891
-2.835433 -28.851756 7.666891
-3.020846 -29.194028 7.666891
-3.686135 -28.509483 7.933445
-3.775084 -28.626020 7.933445
-4.138605 -28.566223 7.933445
-4.202507 -28.509483 7.933445
-4.354879 -28.167210 7.933445
-4.138605 -27.999980 7.933445
-3.794841 -28.167210 7.933445
-3.775084 -28.196250 7.933445
-3.686135 -28.509483 7.933445
