ply
format ascii 1.0
element vertex 1633
property float x
property float y
property float z
end_header
-3.621116 -28.167210 0.203360
-3.775084 -28.243669 0.203360
-4.138605 -28.330458 0.203360
-4.502125 -28.247990 0.203360
-4.580214 -28.167210 0.203360
-4.640862 -27.824937 0.203360
-4.502125 -27.584595 0.203360
-4.266145 -27.482664 0.203360
-4.138605 -27.453751 0.203360
-3.936417 -27.482664 0.203360
-3.775084 -27.556535 0.203360
-3.509823 -27.824937 0.203360
-3.621116 -28.167210 0.203360
-3.291415 -28.509483 0.469915
-3.411564 -28.561477 0.469915
-3.775084 -28.678663 0.469915
-4.138605 -28.738333 0.469915
-4.502125 -28.720988 0.469915
-4.865646 -28.591096 0.469915
-4.957264 -28.509483 0.469915
-5.202354 -28.167210 0.469915
-5.229166 -27.910468 0.469915
-5.232971 -27.824937 0.469915
-5.229166 -27.810546 0.469915
-5.048912 -27.482664 0.469915
-4.865646 -27.277776 0.469915
-4.593132 -27.140392 0.469915
-4.502125 -27.104711 0.469915
-4.138605 -27.081829 0.469915
-3.775084 -27.130557 0.469915
-3.732945 -27.140392 0.469915
-3.411564 -27.311836 0.469915
-3.170650 -27.482664 0.469915
-3.048043 -27.728037 0.469915
-3.004759 -27.824937 0.469915
-3.021601 -28.167210 0.469915
-3.048043 -28.208279 0.469915
-3.291415 -28.509483 0.469915
-3.080704 -28.851756 0.736470
-3.411564 -28.947553 0.736470
-3.775084 -29.007071 0.736470
-4.138605 -29.034397 0.736470
-4.502125 -29.024942 0.736470
-4.865646 -28.955052 0.736470
-5.079827 -28.851756 0.736470
-5.229166 -28.762707 0.736470
-5.442638 -28.509483 0.736470
-5.592687 -28.247021 0.736470
-5.617469 -28.167210 0.736470
-5.628097 -27.824937 0.736470
-5.592687 -27.685088 0.736470
-5.496461 -27.482664 0.736470
-5.240855 -27.140392 0.736470
-5.229166 -27.127417 0.736470
-4.865646 -26.914548 0.736470
-4.502125 -26.809572 0.736470
-4.189201 -26.798119 0.736470
-4.138605 -26.796680 0.736470
-4.121210 -26.798119 0.736470
-3.775084 -26.856028 0.736470
-3.411564 -26.978717 0.736470
-3.079549 -27.140392 0.736470
-3.048043 -27.174988 0.736470
-2.803230 -27.482664 0.736470
-2.684523 -27.813134 0.736470
-2.681099 -27.824937 0.736470
-2.659387 -28.167210 0.736470
-2.684523 -28.287485 0.736470
-2.745208 -28.509483 0.736470
-3.048043 -28.827403 0.736470
-3.080704 -28.851756 0.736470
-2.889097 -29.194028 1.003024
-3.048043 -29.250728 1.003024
-3.411564 -29.307775 1.003024
-3.775084 -29.317375 1.003024
-4.138605 -29.308608 1.003024
-4.502125 -29.286472 1.003024
-4.865646 -29.233961 1.003024
-4.982121 -29.194028 1.003024
-5.229166 -29.096529 1.003024
-5.575471 -28.851756 1.003024
-5.592687 -28.837752 1.003024
-5.816580 -28.509483 1.003024
-5.956207 -28.213626 1.003024
-5.969511 -28.167210 1.003024
-5.978235 -27.824937 1.003024
-5.956207 -27.734776 1.003024
-5.852561 -27.482664 1.003024
-5.627368 -27.140392 1.003024
-5.592687 -27.095484 1.003024
-5.229166 -26.799333 1.003024
-5.226351 -26.798119 1.003024
-4.865646 -26.651587 1.003024
-4.502125 -26.584773 1.003024
-4.138605 -26.578265 1.003024
-3.775084 -26.617186 1.003024
-3.411564 -26.697417 1.003024
-3.114404 -26.798119 1.003024
-3.048043 -26.846266 1.003024
-2.724827 -27.140392 1.003024
-2.684523 -27.214622 1.003024
-2.561482 -27.482664 1.003024
-2.468484 -27.824937 1.003024
-2.415832 -28.167210 1.003024
-2.421492 -28.509483 1.003024
-2.533731 -28.851756 1.003024
-2.684523 -29.029285 1.003024
-2.889097 -29.194028 1.003024
-2.682087 -29.536301 1.269579
-2.684523 -29.537616 1.269579
-3.048043 -29.644851 1.269579
-3.411564 -29.663389 1.269579
-3.775084 -29.629561 1.269579
-4.138605 -29.583842 1.269579
-4.502125 -29.538712 1.269579
-4.515705 -29.536301 1.269579
-4.865646 -29.462305 1.269579
-5.229166 -29.346878 1.269579
-5.513313 -29.194028 1.269579
-5.592687 -29.148907 1.269579
-5.902866 -28.851756 1.269579
-5.956207 -28.795174 1.269579
-6.123340 -28.509483 1.269579
-6.257176 -28.167210 1.269579
-6.270108 -27.824937 1.269579
-6.151692 -27.482664 1.269579
-5.956207 -27.142067 1.269579
-5.954654 -27.140392 1.269579
-5.606222 -26.798119 1.269579
-5.592687 -26.784372 1.269579
-5.229166 -26.559816 1.269579
-4.953302 -26.455846 1.269579
-4.865646 -26.424717 1.269579
-4.502125 -26.371430 1.269579
-4.138605 -26.359946 1.269579
-3.775084 -26.378344 1.269579
-3.411564 -26.427621 1.269579
-3.290129 -26.455846 1.269579
-3.048043 -26.570220 1.269579
-2.714985 -26.798119 1.269579
-2.684523 -26.841244 1.269579
-2.506578 -27.140392 1.269579
-2.385288 -27.482664 1.269579
-2.321002 -27.721769 1.269579
-2.299170 -27.824937 1.269579
-2.236710 -28.167210 1.269579
-2.198328 -28.509483 1.269579
-2.219156 -28.851756 1.269579
-2.321002 -29.150086 1.269579
-2.339800 -29.194028 1.269579
-2.682087 -29.536301 1.269579
-2.586225 -29.878574 1.536134
-2.684523 -29.928560 1.536134
-3.048043 -30.019806 1.536134
-3.411564 -30.010828 1.536134
-3.775084 -29.943416 1.536134
-4.065667 -29.878574 1.536134
-4.138605 -29.856550 1.536134
-4.502125 -29.753866 1.536134
-4.865646 -29.666779 1.536134
-5.229166 -29.562121 1.536134
-5.282338 -29.536301 1.536134
-5.592687 -29.379034 1.536134
-5.829553 -29.194028 1.536134
-5.956207 -29.095056 1.536134
-6.158061 -28.851756 1.536134
-6.319728 -28.637972 1.536134
-6.387173 -28.509483 1.536134
-6.499816 -28.167210 1.536134
-6.511348 -27.824937 1.536134
-6.412580 -27.482664 1.536134
-6.319728 -27.304769 1.536134
-6.195155 -27.140392 1.536134
-5.956207 -26.856861 1.536134
-5.881406 -26.798119 1.536134
-5.592687 -26.558615 1.536134
-5.403607 -26.455846 1.536134
-5.229166 -26.357105 1.536134
-4.865646 -26.239350 1.536134
-4.502125 -26.174054 1.536134
-4.138605 -26.144672 1.536134
-3.775084 -26.147430 1.536134
-3.411564 -26.195707 1.536134
-3.048043 -26.311417 1.536134
-2.769202 -26.455846 1.536134
-2.684523 -26.545310 1.536134
-2.490203 -26.798119 1.536134
-2.348056 -27.140392 1.536134
-2.321002 -27.243005 1.536134
-2.267115 -27.482664 1.536134
-2.191367 -27.824937 1.536134
-2.103552 -28.167210 1.536134
-2.023789 -28.509483 1.536134
-1.993910 -28.851756 1.536134
-2.052947 -29.194028 1.536134
-2.221130 -29.536301 1.536134
-2.321002 -29.643926 1.536134
-2.586225 -29.878574 1.536134
-2.550286 -30.220847 1.802688
-2.684523 -30.285959 1.802688
-3.048043 -30.364895 1.802688
-3.411564 -30.338979 1.802688
-3.775084 -30.250343 1.802688
-3.869256 -30.220847 1.802688
-4.138605 -30.107211 1.802688
-4.502125 -29.978672 1.802688
-4.846185 -29.878574 1.802688
-4.865646 -29.871955 1.802688
-5.229166 -29.735589 1.802688
-5.592687 -29.568197 1.802688
-5.636623 -29.536301 1.802688
-5.956207 -29.309839 1.802688
-6.067466 -29.194028 1.802688
-6.319728 -28.937508 1.802688
-6.379879 -28.851756 1.802688
-6.589282 -28.509483 1.802688
-6.683248 -28.276924 1.802688
-6.716127 -28.167210 1.802688
-6.727137 -27.824937 1.802688
-6.683248 -27.651368 1.802688
-6.623903 -27.482664 1.802688
-6.411094 -27.140392 1.802688
-6.319728 -27.015851 1.802688
-6.099198 -26.798119 1.802688
-5.956207 -26.649126 1.802688
-5.691989 -26.455846 1.802688
-5.592687 -26.375329 1.802688
-5.229166 -26.183939 1.802688
-5.022415 -26.113573 1.802688
-4.865646 -26.063890 1.802688
-4.502125 -26.000021 1.802688
-4.138605 -25.964057 1.802688
-3.775084 -25.952783 1.802688
-3.411564 -25.978221 1.802688
-3.048043 -26.059763 1.802688
-2.911824 -26.113573 1.802688
-2.684523 -26.285680 1.802688
-2.511962 -26.455846 1.802688
-2.333256 -26.798119 1.802688
-2.321002 -26.845262 1.802688
-2.252741 -27.140392 1.802688
-2.190950 -27.482664 1.802688
-2.109383 -27.824937 1.802688
-1.996693 -28.167210 1.802688
-1.957482 -28.275562 1.802688
-1.897629 -28.509483 1.802688
-1.839255 -28.851756 1.802688
-1.844787 -29.194028 1.802688
-1.934317 -29.536301 1.802688
-1.957482 -29.574368 1.802688
-2.153025 -29.878574 1.802688
-2.321002 -30.039750 1.802688
-2.550286 -30.220847 1.802688
-2.592756 -30.563119 2.069243
-2.684523 -30.605457 2.069243
-3.048043 -30.674145 2.069243
-3.411564 -30.639526 2.069243
-3.685206 -30.563119 2.069243
-3.775084 -30.528189 2.069243
-4.138605 -30.357290 2.069243
-4.475440 -30.220847 2.069243
-4.502125 -30.207007 2.069243
-4.865646 -30.041624 2.069243
-5.229166 -29.899908 2.069243
-5.272543 -29.878574 2.069243
-5.592687 -29.714876 2.069243
-5.853510 -29.536301 2.069243
-5.956207 -29.469674 2.069243
-6.248356 -29.194028 2.069243
-6.319728 -29.129060 2.069243
-6.533987 -28.851756 2.069243
-6.683248 -28.637784 2.069243
-6.751188 -28.509483 2.069243
-6.864370 -28.167210 2.069243
-6.878044 -27.824937 2.069243
-6.782205 -27.482664 2.069243
-6.683248 -27.294989 2.069243
-6.574192 -27.140392 2.069243
-6.319728 -26.828190 2.069243
-6.285316 -26.798119 2.069243
-5.956207 -26.492216 2.069243
-5.900526 -26.455846 2.069243
-5.592687 -26.228446 2.069243
-5.372063 -26.113573 2.069243
-5.229166 -26.037153 2.069243
-4.865646 -25.914354 2.069243
-4.502125 -25.828344 2.069243
-4.167416 -25.771301 2.069243
-4.138605 -25.767546 2.069243
-3.775084 -25.745538 2.069243
-3.411564 -25.755944 2.069243
-3.311943 -25.771301 2.069243
-3.048043 -25.845349 2.069243
-2.684523 -26.041581 2.069243
-2.587937 -26.113573 2.069243
-2.344802 -26.455846 2.069243
-2.321002 -26.529402 2.069243
-2.242674 -26.798119 2.069243
-2.192201 -27.140392 2.069243
-2.141792 -27.482664 2.069243
-2.054960 -27.824937 2.069243
-1.957482 -28.073215 2.069243
-1.928249 -28.167210 2.069243
-1.807855 -28.509483 2.069243
-1.713916 -28.851756 2.069243
-1.684686 -29.194028 2.069243
-1.740533 -29.536301 2.069243
-1.885123 -29.878574 2.069243
-1.957482 -29.974984 2.069243
-2.144974 -30.220847 2.069243
-2.321002 -30.373445 2.069243
-2.592756 -30.563119 2.069243
-2.791644 -30.905392 2.335798
-3.048043 -30.947734 2.335798
-3.411564 -30.909370 2.335798
-3.424511 -30.905392 2.335798
-3.775084 -30.765633 2.335798
-4.138605 -30.599070 2.335798
-4.217431 -30.563119 2.335798
-4.502125 -30.395776 2.335798
-4.865646 -30.223642 2.335798
-4.871797 -30.220847 2.335798
-5.229166 -30.033110 2.335798
-5.520378 -29.878574 2.335798
-5.592687 -29.839967 2.335798
-5.956207 -29.588515 2.335798
-6.010209 -29.536301 2.335798
-6.319728 -29.260196 2.335798
-6.374160 -29.194028 2.335798
-6.662520 -28.851756 2.335798
-6.683248 -28.824031 2.335798
-6.859253 -28.509483 2.335798
-6.983339 -28.167210 2.335798
-6.999425 -27.824937 2.335798
-6.895994 -27.482664 2.335798
-6.703589 -27.140392 2.335798
-6.683248 -27.111464 2.335798
-6.402612 -26.798119 2.335798
-6.319728 -26.702477 2.335798
-6.036795 -26.455846 2.335798
-5.956207 -26.375211 2.335798
-5.600288 -26.113573 2.335798
-5.592687 -26.107401 2.335798
-5.229166 -25.911616 2.335798
-4.880235 -25.771301 2.335798
-4.865646 -25.766178 2.335798
-4.502125 -25.681751 2.335798
-4.138605 -25.621033 2.335798
-3.775084 -25.585331 2.335798
-3.411564 -25.590858 2.335798
-3.048043 -25.660558 2.335798
-2.769039 -25.771301 2.335798
-2.684523 -25.833565 2.335798
-2.402753 -26.113573 2.335798
-2.321002 -26.281517 2.335798
-2.245208 -26.455846 2.335798
-2.184188 -26.798119 2.335798
-2.156400 -27.140392 2.335798
-2.115482 -27.482664 2.335798
-2.025012 -27.824937 2.335798
-1.957482 -27.978452 2.335798
-1.888432 -28.167210 2.335798
-1.739439 -28.509483 2.335798
-1.612793 -28.851756 2.335798
-1.593961 -28.948899 2.335798
-1.560337 -29.194028 2.335798
-1.582725 -29.536301 2.335798
-1.593961 -29.569504 2.335798
-1.697382 -29.878574 2.335798
-1.895084 -30.220847 2.335798
-1.957482 -30.290980 2.335798
-2.201275 -30.563119 2.335798
-2.321002 -30.657826 2.335798
-2.684523 -30.878372 2.335798
-2.791644 -30.905392 2.335798
-2.324707 -30.905392 2.602352
-2.684523 -31.094072 2.602352
-3.048043 -31.166240 2.602352
-3.411564 -31.114481 2.602352
-3.775084 -30.983874 2.602352
-3.947315 -30.905392 2.602352
-4.138605 -30.793035 2.602352
-4.502125 -30.589798 2.602352
-4.554619 -30.563119 2.602352
-4.865646 -30.364313 2.602352
-5.129789 -30.220847 2.602352
-5.229166 -30.159384 2.602352
-5.592687 -29.936382 2.602352
-5.669490 -29.878574 2.602352
-5.956207 -29.671591 2.602352
-6.097233 -29.536301 2.602352
-6.319728 -29.342053 2.602352
-6.445195 -29.194028 2.602352
-6.683248 -28.922740 2.602352
-6.731681 -28.851756 2.602352
-6.932137 -28.509483 2.602352
-7.046769 -28.209186 2.602352
-7.059985 -28.167210 2.602352
-7.074056 -27.824937 2.602352
-7.046769 -27.716200 2.602352
-6.973250 -27.482664 2.602352
-6.771622 -27.140392 2.602352
-6.683248 -27.018784 2.602352
-6.478267 -26.798119 2.602352
-6.319728 -26.621360 2.602352
-6.124204 -26.455846 2.602352
-5.956207 -26.291473 2.602352
-5.713334 -26.113573 2.602352
-5.592687 -26.014733 2.602352
-5.229166 -25.798539 2.602352
-5.167245 -25.771301 2.602352
-4.865646 -25.654649 2.602352
-4.502125 -25.549792 2.602352
-4.138605 -25.467471 2.602352
-3.872768 -25.429028 2.602352
-3.775084 -25.418611 2.602352
-3.411564 -25.417081 2.602352
-3.321648 -25.429028 2.602352
-3.048043 -25.490037 2.602352
-2.684523 -25.667867 2.602352
-2.538176 -25.771301 2.602352
-2.321002 -26.054610 2.602352
-2.281575 -26.113573 2.602352
-2.179765 -26.455846 2.602352
-2.147881 -26.798119 2.602352
-2.137644 -27.140392 2.602352
-2.104470 -27.482664 2.602352
-2.012749 -27.824937 2.602352
-1.957482 -27.942830 2.602352
-1.865751 -28.167210 2.602352
-1.692828 -28.509483 2.602352
-1.593961 -28.720318 2.602352
-1.547923 -28.851756 2.602352
-1.474025 -29.194028 2.602352
-1.473897 -29.536301 2.602352
-1.554703 -29.878574 2.602352
-1.593961 -29.953906 2.602352
-1.724151 -30.220847 2.602352
-1.957482 -30.546859 2.602352
-1.969014 -30.563119 2.602352
-2.321002 -30.902564 2.602352
-2.324707 -30.905392 2.602352
-2.604150 -31.247665 2.868907
-2.684523 -31.285431 2.868907
-3.048043 -31.347059 2.868907
-3.411564 -31.299747 2.868907
-3.562625 -31.247665 2.868907
-3.775084 -31.157968 2.868907
-4.138605 -30.966551 2.868907
-4.252682 -30.905392 2.868907
-4.502125 -30.734187 2.868907
-4.786720 -30.563119 2.868907
-4.865646 -30.502951 2.868907
-5.229166 -30.263014 2.868907
-5.293484 -30.220847 2.868907
-5.592687 -30.008004 2.868907
-5.752991 -29.878574 2.868907
-5.956207 -29.723682 2.868907
-6.147078 -29.536301 2.868907
-6.319728 -29.383671 2.868907
-6.480606 -29.194028 2.868907
-6.683248 -28.964279 2.868907
-6.760668 -28.851756 2.868907
-6.964637 -28.509483 2.868907
-7.046769 -28.296408 2.868907
-7.087784 -28.167210 2.868907
-7.102524 -27.824937 2.868907
-7.046769 -27.604264 2.868907
-7.008184 -27.482664 2.868907
-6.803768 -27.140392 2.868907
-6.683248 -26.975750 2.868907
-6.517608 -26.798119 2.868907
-6.319728 -26.577973 2.868907
-6.176693 -26.455846 2.868907
-5.956207 -26.237384 2.868907
-5.792735 -26.113573 2.868907
-5.592687 -25.943170 2.868907
-5.326843 -25.771301 2.868907
-5.229166 -25.711512 2.868907
-4.865646 -25.551047 2.868907
-4.520305 -25.429028 2.868907
-4.502125 -25.424046 2.868907
-4.138605 -25.351133 2.868907
-3.775084 -25.305068 2.868907
-3.411564 -25.300029 2.868907
-3.048043 -25.356332 2.868907
-2.840633 -25.429028 2.868907
-2.684523 -25.521826 2.868907
-2.391795 -25.771301 2.868907
-2.321002 -25.890640 2.868907
-2.204489 -26.113573 2.868907
-2.134854 -26.455846 2.868907
-2.124274 -26.798119 2.868907
-2.126359 -27.140392 2.868907
-2.099109 -27.482664 2.868907
-2.008879 -27.824937 2.868907
-1.957482 -27.932831 2.868907
-1.855330 -28.167210 2.868907
-1.665394 -28.509483 2.868907
-1.593961 -28.640497 2.868907
-1.504170 -28.851756 2.868907
-1.408743 -29.194028 2.868907
-1.390594 -29.536301 2.868907
-1.454728 -29.878574 2.868907
-1.593961 -30.210967 2.868907
-1.597769 -30.220847 2.868907
-1.819508 -30.563119 2.868907
-1.957482 -30.719986 2.868907
-2.122176 -30.905392 2.868907
-2.321002 -31.071463 2.868907
-2.604150 -31.247665 2.868907
-2.362311 -31.247665 3.135461
-2.684523 -31.416195 3.135461
-3.048043 -31.483942 3.135461
-3.411564 -31.430898 3.135461
-3.775084 -31.297199 3.135461
-3.876893 -31.247665 3.135461
-4.138605 -31.091946 3.135461
-4.451333 -30.905392 3.135461
-4.502125 -30.865943 3.135461
-4.865646 -30.609869 3.135461
-4.939530 -30.563119 3.135461
-5.229166 -30.337358 3.135461
-5.386175 -30.220847 3.135461
-5.592687 -30.055300 3.135461
-5.793049 -29.878574 3.135461
-5.956207 -29.743925 3.135461
-6.157100 -29.536301 3.135461
-6.319728 -29.385967 3.135461
-6.478162 -29.194028 3.135461
-6.683248 -28.955927 3.135461
-6.753890 -28.851756 3.135461
-6.954822 -28.509483 3.135461
-7.046769 -28.268336 3.135461
-7.078696 -28.167210 3.135461
-7.093559 -27.824937 3.135461
-7.046769 -27.637131 3.135461
-6.998772 -27.482664 3.135461
-6.798435 -27.140392 3.135461
-6.683248 -26.980077 3.135461
-6.518475 -26.798119 3.135461
-6.319728 -26.570272 3.135461
-6.191733 -26.455846 3.135461
-5.956207 -26.211440 3.135461
-5.835403 -26.113573 3.135461
-5.592687 -25.892926 3.135461
-5.420657 -25.771301 3.135461
-5.229166 -25.643933 3.135461
-4.865646 -25.460379 3.135461
-4.787026 -25.429028 3.135461
-4.502125 -25.341618 3.135461
-4.138605 -25.257113 3.135461
-3.775084 -25.202148 3.135461
-3.411564 -25.193168 3.135461
-3.048043 -25.253409 3.135461
-2.684523 -25.398037 3.135461
-2.632074 -25.429028 3.135461
-2.321002 -25.737951 3.135461
-2.292565 -25.771301 3.135461
-2.147598 -26.113573 3.135461
-2.100187 -26.455846 3.135461
-2.103055 -26.798119 3.135461
-2.112039 -27.140392 3.135461
-2.088671 -27.482664 3.135461
-2.002666 -27.824937 3.135461
-1.957482 -27.923143 3.135461
-1.849502 -28.167210 3.135461
-1.651985 -28.509483 3.135461
-1.593961 -28.608333 3.135461
-1.476913 -28.851756 3.135461
-1.365002 -29.194028 3.135461
-1.333576 -29.536301 3.135461
-1.386017 -29.878574 3.135461
-1.515966 -30.220847 3.135461
-1.593961 -30.344109 3.135461
-1.718529 -30.563119 3.135461
-1.957482 -30.869499 3.135461
-1.985471 -30.905392 3.135461
-2.321002 -31.218411 3.135461
-2.362311 -31.247665 3.135461
-2.249803 -31.247665 3.402016
-2.321002 -31.304586 3.402016
-2.684523 -31.510055 3.402016
-3.048043 -31.583844 3.402016
-3.411564 -31.527476 3.402016
-3.775084 -31.384193 3.402016
-4.043273 -31.247665 3.402016
-4.138605 -31.187564 3.402016
-4.502125 -30.950035 3.402016
-4.575071 -30.905392 3.402016
-4.865646 -30.676707 3.402016
-5.026834 -30.563119 3.402016
-5.229166 -30.386142 3.402016
-5.428258 -30.220847 3.402016
-5.592687 -30.072892 3.402016
-5.792352 -29.878574 3.402016
-5.956207 -29.729418 3.402016
-6.129526 -29.536301 3.402016
-6.319728 -29.347066 3.402016
-6.439453 -29.194028 3.402016
-6.683248 -28.896045 3.402016
-6.712201 -28.851756 3.402016
-6.903996 -28.509483 3.402016
-7.029815 -28.167210 3.402016
-7.046769 -27.846152 3.402016
-7.047685 -27.824937 3.402016
-7.046769 -27.821124 3.402016
-6.946851 -27.482664 3.402016
-6.757199 -27.140392 3.402016
-6.683248 -27.032770 3.402016
-6.483594 -26.798119 3.402016
-6.319728 -26.598422 3.402016
-6.172690 -26.455846 3.402016
-5.956207 -26.213400 3.402016
-5.844272 -26.113573 3.402016
-5.592687 -25.864724 3.402016
-5.473294 -25.771301 3.402016
-5.229166 -25.594260 3.402016
-4.934989 -25.429028 3.402016
-4.865646 -25.398188 3.402016
-4.502125 -25.274997 3.402016
-4.138605 -25.180392 3.402016
-3.775084 -25.117882 3.402016
-3.411564 -25.105129 3.402016
-3.048043 -25.167220 3.402016
-2.684523 -25.321623 3.402016
-2.517884 -25.429028 3.402016
-2.321002 -25.646873 3.402016
-2.225621 -25.771301 3.402016
-2.100440 -26.113573 3.402016
-2.065315 -26.455846 3.402016
-2.073694 -26.798119 3.402016
-2.084067 -27.140392 3.402016
-2.062411 -27.482664 3.402016
-1.983161 -27.824937 3.402016
-1.957482 -27.886303 3.402016
-1.838388 -28.167210 3.402016
-1.645297 -28.509483 3.402016
-1.593961 -28.596994 3.402016
-1.463972 -28.851756 3.402016
-1.342769 -29.194028 3.402016
-1.303770 -29.536301 3.402016
-1.349442 -29.878574 3.402016
-1.471439 -30.220847 3.402016
-1.593961 -30.431520 3.402016
-1.662062 -30.563119 3.402016
-1.912059 -30.905392 3.402016
-1.957482 -30.952920 3.402016
-2.249803 -31.247665 3.402016
-2.842293 -31.589938 3.668571
-3.048043 -31.625831 3.668571
-3.326559 -31.589938 3.668571
-3.411564 -31.577454 3.668571
-3.775084 -31.429929 3.668571
-4.124918 -31.247665 3.668571
-4.138605 -31.238791 3.668571
-4.502125 -30.988032 3.668571
-4.629995 -30.905392 3.668571
-4.865646 -30.708410 3.668571
-5.057052 -30.563119 3.668571
-5.229166 -30.399614 3.668571
-5.425696 -30.220847 3.668571
-5.592687 -30.054351 3.668571
-5.756344 -29.878574 3.668571
-5.956207 -29.675710 3.668571
-6.070280 -29.536301 3.668571
-6.319728 -29.262638 3.668571
-6.369439 -29.194028 3.668571
-6.624044 -28.851756 3.668571
-6.683248 -28.763191 3.668571
-6.816656 -28.509483 3.668571
-6.932729 -28.167210 3.668571
-6.949851 -27.824937 3.668571
-6.858120 -27.482664 3.668571
-6.684766 -27.140392 3.668571
-6.683248 -27.138021 3.668571
-6.420098 -26.798119 3.668571
-6.319728 -26.664311 3.668571
-6.127679 -26.455846 3.668571
-5.956207 -26.243571 3.668571
-5.826611 -26.113573 3.668571
-5.592687 -25.859253 3.668571
-5.491403 -25.771301 3.668571
-5.229166 -25.565021 3.668571
-5.006380 -25.429028 3.668571
-4.865646 -25.361708 3.668571
-4.502125 -25.228825 3.668571
-4.138605 -25.126946 3.668571
-3.917250 -25.086755 3.668571
-3.775084 -25.066465 3.668571
-3.411564 -25.055300 3.668571
-3.150143 -25.086755 3.668571
-3.048043 -25.105044 3.668571
-2.684523 -25.262772 3.668571
-2.437832 -25.429028 3.668571
-2.321002 -25.564650 3.668571
-2.170487 -25.771301 3.668571
-2.052882 -26.113573 3.668571
-2.020101 -26.455846 3.668571
-2.026273 -26.798119 3.668571
-2.032945 -27.140392 3.668571
-2.011202 -27.482664 3.668571
-1.957482 -27.748346 3.668571
-1.940726 -27.824937 3.668571
-1.811026 -28.167210 3.668571
-1.636394 -28.509483 3.668571
-1.593961 -28.588586 3.668571
-1.461751 -28.851756 3.668571
-1.341909 -29.194028 3.668571
-1.303000 -29.536301 3.668571
-1.347428 -29.878574 3.668571
-1.466116 -30.220847 3.668571
-1.593961 -30.448953 3.668571
-1.650350 -30.563119 3.668571
-1.891121 -30.905392 3.668571
-1.957482 -30.977764 3.668571
-2.212631 -31.247665 3.668571
-2.321002 -31.338073 3.668571
-2.684523 -31.554493 3.668571
-2.842293 -31.589938 3.668571
-2.897946 -31.589938 3.935125
-3.048043 -31.617596 3.935125
-3.275196 -31.589938 3.935125
-3.411564 -31.571075 3.935125
-3.775084 -31.425817 3.935125
-4.117471 -31.247665 3.935125
-4.138605 -31.234055 3.935125
-4.502125 -30.982369 3.935125
-4.619114 -30.905392 3.935125
-4.865646 -30.695793 3.935125
-5.034246 -30.563119 3.935125
-5.229166 -30.369946 3.935125
-5.383245 -30.220847 3.935125
-5.592687 -29.994563 3.935125
-5.691578 -29.878574 3.935125
-5.956207 -29.578532 3.935125
-5.987455 -29.536301 3.935125
-6.260111 -29.194028 3.935125
-6.319728 -29.122622 3.935125
-6.498495 -28.851756 3.935125
-6.683248 -28.544506 3.935125
-6.700359 -28.509483 3.935125
-6.805104 -28.167210 3.935125
-6.821689 -27.824937 3.935125
-6.741904 -27.482664 3.935125
-6.683248 -27.354111 3.935125
-6.563682 -27.140392 3.935125
-6.338318 -26.798119 3.935125
-6.319728 -26.770340 3.935125
-6.067508 -26.455846 3.935125
-5.956207 -26.301255 3.935125
-5.791837 -26.113573 3.935125
-5.592687 -25.875856 3.935125
-5.483339 -25.771301 3.935125
-5.229166 -25.557327 3.935125
-5.031476 -25.429028 3.935125
-4.865646 -25.345304 3.935125
-4.502125 -25.205809 3.935125
-4.138605 -25.100225 3.935125
-4.065190 -25.086755 3.935125
-3.775084 -25.044242 3.935125
-3.411564 -25.031674 3.935125
-3.048043 -25.075259 3.935125
-3.008469 -25.086755 3.935125
-2.684523 -25.224749 3.935125
-2.380619 -25.429028 3.935125
-2.321002 -25.496674 3.935125
-2.117987 -25.771301 3.935125
-1.995557 -26.113573 3.935125
-1.957482 -26.439887 3.935125
-1.955625 -26.455846 3.935125
-1.952823 -26.798119 3.935125
-1.952048 -27.140392 3.935125
-1.927943 -27.482664 3.935125
-1.864948 -27.824937 3.935125
-1.757892 -28.167210 3.935125
-1.616136 -28.509483 3.935125
-1.593961 -28.560800 3.935125
-1.465092 -28.851756 3.935125
-1.362168 -29.194028 3.935125
-1.334244 -29.536301 3.935125
-1.384424 -29.878574 3.935125
-1.504688 -30.220847 3.935125
-1.593961 -30.377253 3.935125
-1.686547 -30.563119 3.935125
-1.922148 -30.905392 3.935125
-1.957482 -30.944375 3.935125
-2.239407 -31.247665 3.935125
-2.321002 -31.316982 3.935125
-2.684523 -31.539268 3.935125
-2.897946 -31.589938 3.935125
-2.340048 -31.247665 4.201680
-2.684523 -31.458758 4.201680
-3.048043 -31.548014 4.201680
-3.411564 -31.503431 4.201680
-3.775084 -31.367448 4.201680
-4.011616 -31.247665 4.201680
-4.138605 -31.169412 4.201680
-4.502125 -30.929361 4.201680
-4.539281 -30.905392 4.201680
-4.865646 -30.635963 4.201680
-4.958612 -30.563119 4.201680
-5.229166 -30.295742 4.201680
-5.304502 -30.220847 4.201680
-5.592687 -29.893638 4.201680
-5.604697 -29.878574 4.201680
-5.872010 -29.536301 4.201680
-5.956207 -29.434922 4.201680
-6.123856 -29.194028 4.201680
-6.319728 -28.921820 4.201680
-6.360992 -28.851756 4.201680
-6.535837 -28.509483 4.201680
-6.652872 -28.167210 4.201680
-6.674655 -27.824937 4.201680
-6.593131 -27.482664 4.201680
-6.437285 -27.140392 4.201680
-6.319728 -26.930354 4.201680
-6.232048 -26.798119 4.201680
-6.003220 -26.455846 4.201680
-5.956207 -26.382384 4.201680
-5.749353 -26.113573 4.201680
-5.592687 -25.910936 4.201680
-5.457579 -25.771301 4.201680
-5.229166 -25.569620 4.201680
-5.019840 -25.429028 4.201680
-4.865646 -25.348536 4.201680
-4.502125 -25.205581 4.201680
-4.138605 -25.099684 4.201680
-4.067785 -25.086755 4.201680
-3.775084 -25.042953 4.201680
-3.411564 -25.029118 4.201680
-3.048043 -25.070104 4.201680
-2.988399 -25.086755 4.201680
-2.684523 -25.207502 4.201680
-2.337589 -25.429028 4.201680
-2.321002 -25.446149 4.201680
-2.060226 -25.771301 4.201680
-1.957482 -26.020581 4.201680
-1.920596 -26.113573 4.201680
-1.862078 -26.455846 4.201680
-1.842335 -26.798119 4.201680
-1.829658 -27.140392 4.201680
-1.803267 -27.482664 4.201680
-1.752468 -27.824937 4.201680
-1.675080 -28.167210 4.201680
-1.593961 -28.455639 4.201680
-1.575343 -28.509483 4.201680
-1.467468 -28.851756 4.201680
-1.402584 -29.194028 4.201680
-1.401083 -29.536301 4.201680
-1.466728 -29.878574 4.201680
-1.593961 -30.218940 4.201680
-1.594573 -30.220847 4.201680
-1.776418 -30.563119 4.201680
-1.957482 -30.820648 4.201680
-2.015506 -30.905392 4.201680
-2.321002 -31.231687 4.201680
-2.340048 -31.247665 4.201680
-2.573268 -31.247665 4.468235
-2.684523 -31.313841 4.468235
-3.048043 -31.408364 4.468235
-3.411564 -31.376449 4.468235
-3.775084 -31.256256 4.468235
-3.792961 -31.247665 4.468235
-4.138605 -31.051203 4.468235
-4.376842 -30.905392 4.468235
-4.502125 -30.810118 4.468235
-4.826887 -30.563119 4.468235
-4.865646 -30.526609 4.468235
-5.189950 -30.220847 4.468235
-5.229166 -30.177949 4.468235
-5.488410 -29.878574 4.468235
-5.592687 -29.751726 4.468235
-5.749556 -29.536301 4.468235
-5.956207 -29.255615 4.468235
-5.994702 -29.194028 4.468235
-6.203362 -28.851756 4.468235
-6.319728 -28.634465 4.468235
-6.375979 -28.509483 4.468235
-6.476793 -28.167210 4.468235
-6.501096 -27.824937 4.468235
-6.442878 -27.482664 4.468235
-6.320973 -27.140392 4.468235
-6.319728 -27.137759 4.468235
-6.136848 -26.798119 4.468235
-5.956207 -26.478773 4.468235
-5.941138 -26.455846 4.468235
-5.706654 -26.113573 4.468235
-5.592687 -25.957551 4.468235
-5.421354 -25.771301 4.468235
-5.229166 -25.597482 4.468235
-4.979786 -25.429028 4.468235
-4.865646 -25.368639 4.468235
-4.502125 -25.224657 4.468235
-4.138605 -25.120846 4.468235
-3.948140 -25.086755 4.468235
-3.775084 -25.060456 4.468235
-3.411564 -25.045399 4.468235
-3.048043 -25.082422 4.468235
-3.031129 -25.086755 4.468235
-2.684523 -25.208024 4.468235
-2.321002 -25.417974 4.468235
-2.305520 -25.429028 4.468235
-1.991840 -25.771301 4.468235
-1.957482 -25.837675 4.468235
-1.820987 -26.113573 4.468235
-1.735355 -26.455846 4.468235
-1.695316 -26.798119 4.468235
-1.671295 -27.140392 4.468235
-1.645762 -27.482664 4.468235
-1.611443 -27.824937 4.468235
-1.593961 -27.967370 4.468235
-1.559713 -28.167210 4.468235
-1.501779 -28.509483 4.468235
-1.462594 -28.851756 4.468235
-1.460328 -29.194028 4.468235
-1.505706 -29.536301 4.468235
-1.593961 -29.850401 4.468235
-1.600584 -29.878574 4.468235
-1.739226 -30.220847 4.468235
-1.927323 -30.563119 4.468235
-1.957482 -30.602695 4.468235
-2.181703 -30.905392 4.468235
-2.321002 -31.046916 4.468235
-2.573268 -31.247665 4.468235
-2.453044 -30.905392 4.734789
-2.684523 -31.074862 4.734789
-3.048043 -31.204771 4.734789
-3.411564 -31.186692 4.734789
-3.775084 -31.066386 4.734789
-4.113360 -30.905392 4.734789
-4.138605 -30.891322 4.734789
-4.502125 -30.652493 4.734789
-4.632559 -30.563119 4.734789
-4.865646 -30.371854 4.734789
-5.039243 -30.220847 4.734789
-5.229166 -30.029536 4.734789
-5.364061 -29.878574 4.734789
-5.592687 -29.598250 4.734789
-5.636505 -29.536301 4.734789
-5.868672 -29.194028 4.734789
-5.956207 -29.054936 4.734789
-6.067712 -28.851756 4.734789
-6.226273 -28.509483 4.734789
-6.319728 -28.206248 4.734789
-6.330377 -28.167210 4.734789
-6.359543 -27.824937 4.734789
-6.320115 -27.482664 4.734789
-6.319728 -27.481316 4.734789
-6.212652 -27.140392 4.734789
-6.064373 -26.798119 4.734789
-5.956207 -26.581140 4.734789
-5.884813 -26.455846 4.734789
-5.667896 -26.113573 4.734789
-5.592687 -26.007722 4.734789
-5.379343 -25.771301 4.734789
-5.229166 -25.635359 4.734789
-4.917446 -25.429028 4.734789
-4.865646 -25.401719 4.734789
-4.502125 -25.258013 4.734789
-4.138605 -25.157399 4.734789
-3.775084 -25.094583 4.734789
-3.619833 -25.086755 4.734789
-3.411564 -25.077236 4.734789
-3.298866 -25.086755 4.734789
-3.048043 -25.113700 4.734789
-2.684523 -25.222519 4.734789
-2.321002 -25.404994 4.734789
-2.282578 -25.429028 4.734789
-1.957482 -25.725495 4.734789
-1.911967 -25.771301 4.734789
-1.696872 -26.113573 4.734789
-1.593961 -26.414162 4.734789
-1.578136 -26.455846 4.734789
-1.502557 -26.798119 4.734789
-1.455789 -27.140392 4.734789
-1.423056 -27.482664 4.734789
-1.399860 -27.824937 4.734789
-1.390258 -28.167210 4.734789
-1.403331 -28.509483 4.734789
-1.448361 -28.851756 4.734789
-1.529728 -29.194028 4.734789
-1.593961 -29.379284 4.734789
-1.637362 -29.536301 4.734789
-1.769674 -29.878574 4.734789
-1.938531 -30.220847 4.734789
-1.957482 -30.249656 4.734789
-2.151201 -30.563119 4.734789
-2.321002 -30.770684 4.734789
-2.453044 -30.905392 4.734789
-2.984419 -30.905392 5.001344
-3.048043 -30.927872 5.001344
-3.411564 -30.938670 5.001344
-3.549380 -30.905392 5.001344
-3.775084 -30.846646 5.001344
-4.138605 -30.685016 5.001344
-4.360291 -30.563119 5.001344
-4.502125 -30.477568 5.001344
-4.863726 -30.220847 5.001344
-4.865646 -30.219362 5.001344
-5.229166 -29.887854 5.001344
-5.237894 -29.878574 5.001344
-5.529163 -29.536301 5.001344
-5.592687 -29.453621 5.001344
-5.766108 -29.194028 5.001344
-5.956207 -28.866291 5.001344
-5.963753 -28.851756 5.001344
-6.112434 -28.509483 5.001344
-6.211190 -28.167210 5.001344
-6.248866 -27.824937 5.001344
-6.222775 -27.482664 5.001344
-6.139914 -27.140392 5.001344
-6.013174 -26.798119 5.001344
-5.956207 -26.673116 5.001344
-5.844555 -26.455846 5.001344
-5.633218 -26.113573 5.001344
-5.592687 -26.056578 5.001344
-5.332591 -25.771301 5.001344
-5.229166 -25.679367 5.001344
-4.865646 -25.446259 5.001344
-4.828055 -25.429028 5.001344
-4.502125 -25.301555 5.001344
-4.138605 -25.204204 5.001344
-3.775084 -25.144810 5.001344
-3.411564 -25.126062 5.001344
-3.048043 -25.157291 5.001344
-2.684523 -25.249015 5.001344
-2.321002 -25.403931 5.001344
-2.273875 -25.429028 5.001344
-1.957482 -25.661675 5.001344
-1.825368 -25.771301 5.001344
-1.593961 -26.063819 5.001344
-1.553585 -26.113573 5.001344
-1.370622 -26.455846 5.001344
-1.258752 -26.798119 5.001344
-1.230441 -26.954086 5.001344
-1.172647 -27.140392 5.001344
-1.115177 -27.482664 5.001344
-1.123350 -27.824937 5.001344
-1.211191 -28.167210 5.001344
-1.230441 -28.207408 5.001344
-1.303010 -28.509483 5.001344
-1.431122 -28.851756 5.001344
-1.593961 -29.175494 5.001344
-1.600869 -29.194028 5.001344
-1.762242 -29.536301 5.001344
-1.957482 -29.874930 5.001344
-1.959406 -29.878574 5.001344
-2.173303 -30.220847 5.001344
-2.321002 -30.413948 5.001344
-2.453496 -30.563119 5.001344
-2.684523 -30.762350 5.001344
-2.984419 -30.905392 5.001344
2.404764 -27.874343 5.267899
2.041243 -27.876812 5.267899
1.677723 -27.906273 5.267899
1.314202 -27.967895 5.267899
0.950682 -28.058942 5.267899
0.587161 -28.158537 5.267899
0.517960 -28.167210 5.267899
0.223641 -28.192115 5.267899
-0.139880 -28.167579 5.267899
-0.142334 -28.167210 5.267899
-0.503400 -28.036629 5.267899
-0.866920 -28.080856 5.267899
-0.920025 -28.167210 5.267899
-1.230441 -28.506432 5.267899
-1.231689 -28.509483 5.267899
-1.425072 -28.851756 5.267899
-1.593961 -29.085030 5.267899
-1.651032 -29.194028 5.267899
-1.874717 -29.536301 5.267899
-1.957482 -29.644934 5.267899
-2.123415 -29.878574 5.267899
-2.321002 -30.116418 5.267899
-2.421608 -30.220847 5.267899
-2.684523 -30.454757 5.267899
-2.885470 -30.563119 5.267899
-3.048043 -30.636280 5.267899
-3.411564 -30.680416 5.267899
-3.775084 -30.624834 5.267899
-3.952171 -30.563119 5.267899
-4.138605 -30.499121 5.267899
-4.502125 -30.317291 5.267899
-4.655094 -30.220847 5.267899
-4.865646 -30.079647 5.267899
-5.104675 -29.878574 5.267899
-5.229166 -29.763458 5.267899
-5.432118 -29.536301 5.267899
-5.592687 -29.329740 5.267899
-5.684433 -29.194028 5.267899
-5.882368 -28.851756 5.267899
-5.956207 -28.687415 5.267899
-6.032181 -28.509483 5.267899
-6.131498 -28.167210 5.267899
-6.174670 -27.824937 5.267899
-6.160379 -27.482664 5.267899
-6.092170 -27.140392 5.267899
-5.976961 -26.798119 5.267899
-5.956207 -26.750222 5.267899
-5.813926 -26.455846 5.267899
-5.598927 -26.113573 5.267899
-5.592687 -26.105006 5.267899
-5.277992 -25.771301 5.267899
-5.229166 -25.729254 5.267899
-4.865646 -25.500188 5.267899
-4.699338 -25.429028 5.267899
-4.502125 -25.354108 5.267899
-4.138605 -25.259513 5.267899
-3.775084 -25.203370 5.267899
-3.411564 -25.185413 5.267899
-3.048043 -25.211488 5.267899
-2.684523 -25.289001 5.267899
-2.321002 -25.419647 5.267899
-2.299902 -25.429028 5.267899
-1.957482 -25.629502 5.267899
-1.749270 -25.771301 5.267899
-1.593961 -25.924140 5.267899
-1.398508 -26.113573 5.267899
-1.230441 -26.354567 5.267899
-1.142959 -26.455846 5.267899
-0.907701 -26.798119 5.267899
-0.866920 -26.882291 5.267899
-0.503400 -27.131437 5.267899
-0.438731 -27.140392 5.267899
-0.139880 -27.185752 5.267899
0.223641 -27.230461 5.267899
0.587161 -27.299809 5.267899
0.950682 -27.375384 5.267899
1.314202 -27.439527 5.267899
1.669803 -27.482664 5.267899
1.677723 -27.487698 5.267899
2.041243 -27.622215 5.267899
2.404764 -27.647518 5.267899
2.404764 -27.879364 5.534453
2.041243 -27.925208 5.534453
1.677723 -28.001707 5.534453
1.314202 -28.111843 5.534453
1.150207 -28.167210 5.534453
0.950682 -28.207660 5.534453
0.587161 -28.274987 5.534453
0.223641 -28.313167 5.534453
-0.139880 -28.292062 5.534453
-0.503400 -28.225529 5.534453
-0.866920 -28.239814 5.534453
-1.190422 -28.509483 5.534453
-1.230441 -28.537359 5.534453
-1.445427 -28.851756 5.534453
-1.593961 -29.024426 5.534453
-1.698775 -29.194028 5.534453
-1.957482 -29.521473 5.534453
-1.968293 -29.536301 5.534453
-2.263292 -29.878574 5.534453
-2.321002 -29.936890 5.534453
-2.659120 -30.220847 5.534453
-2.684523 -30.239912 5.534453
-3.048043 -30.420806 5.534453
-3.411564 -30.482146 5.534453
-3.775084 -30.451583 5.534453
-4.138605 -30.349896 5.534453
-4.424900 -30.220847 5.534453
-4.502125 -30.187019 5.534453
-4.865646 -29.963682 5.534453
-4.973191 -29.878574 5.534453
-5.229166 -29.656070 5.534453
-5.341046 -29.536301 5.534453
-5.592687 -29.220535 5.534453
-5.611155 -29.194028 5.534453
-5.818553 -28.851756 5.534453
-5.956207 -28.540846 5.534453
-5.969797 -28.509483 5.534453
-6.074187 -28.167210 5.534453
-6.123243 -27.824937 5.534453
-6.117070 -27.482664 5.534453
-6.057337 -27.140392 5.534453
-5.956207 -26.825512 5.534453
-5.946959 -26.798119 5.534453
-5.784453 -26.455846 5.534453
-5.592687 -26.159953 5.534453
-5.555492 -26.113573 5.534453
-5.229166 -25.788469 5.534453
-5.205088 -25.771301 5.534453
-4.865646 -25.561623 5.534453
-4.531641 -25.429028 5.534453
-4.502125 -25.418202 5.534453
-4.138605 -25.325710 5.534453
-3.775084 -25.272865 5.534453
-3.411564 -25.256843 5.534453
-3.048043 -25.280438 5.534453
-2.684523 -25.348056 5.534453
-2.413978 -25.429028 5.534453
-2.321002 -25.462963 5.534453
-1.957482 -25.636465 5.534453
-1.717382 -25.771301 5.534453
-1.593961 -25.867833 5.534453
-1.280478 -26.113573 5.534453
-1.230441 -26.170612 5.534453
-0.917235 -26.455846 5.534453
-0.866920 -26.514997 5.534453
-0.503400 -26.760712 5.534453
-0.415352 -26.798119 5.534453
-0.139880 -26.906655 5.534453
0.223641 -27.012274 5.534453
0.587161 -27.106298 5.534453
0.711560 -27.140392 5.534453
0.950682 -27.225398 5.534453
1.314202 -27.340432 5.534453
1.677723 -27.425448 5.534453
2.039669 -27.482664 5.534453
2.041243 -27.483866 5.534453
2.404764 -27.659280 5.534453
-2.923151 -30.220847 5.801008
-3.048043 -30.276469 5.801008
-3.411564 -30.344281 5.801008
-3.775084 -30.324151 5.801008
-4.138605 -30.230803 5.801008
-4.161980 -30.220847 5.801008
-4.502125 -30.082951 5.801008
-4.835396 -29.878574 5.801008
-4.865646 -29.859455 5.801008
-5.229166 -29.552917 5.801008
-5.245287 -29.536301 5.801008
-5.537540 -29.194028 5.801008
-5.592687 -29.113416 5.801008
-5.757832 -28.851756 5.801008
-5.915462 -28.509483 5.801008
-5.956207 -28.377193 5.801008
-6.023875 -28.167210 5.801008
-6.079379 -27.824937 5.801008
-6.079191 -27.482664 5.801008
-6.023899 -27.140392 5.801008
-5.956207 -26.924906 5.801008
-5.914787 -26.798119 5.801008
-5.746861 -26.455846 5.801008
-5.592687 -26.227542 5.801008
-5.496607 -26.113573 5.801008
-5.229166 -25.860161 5.801008
-5.095212 -25.771301 5.801008
-4.865646 -25.636100 5.801008
-4.502125 -25.495723 5.801008
-4.220196 -25.429028 5.801008
-4.138605 -25.409259 5.801008
-3.775084 -25.360374 5.801008
-3.411564 -25.348364 5.801008
-3.048043 -25.373310 5.801008
-2.724156 -25.429028 5.801008
-2.684523 -25.436626 5.801008
-2.321002 -25.542610 5.801008
-1.957482 -25.692881 5.801008
-1.788840 -25.771301 5.801008
-1.593961 -25.894775 5.801008
-1.258385 -26.113573 5.801008
-1.230441 -26.140004 5.801008
-0.866920 -26.417990 5.801008
-0.805578 -26.455846 5.801008
-0.503400 -26.650443 5.801008
-0.139880 -26.788901 5.801008
-0.117729 -26.798119 5.801008
0.223641 -26.931789 5.801008
0.587161 -27.055298 5.801008
0.855298 -27.140392 5.801008
0.950682 -27.180091 5.801008
1.314202 -27.330421 5.801008
1.677723 -27.444810 5.801008
1.833779 -27.482664 5.801008
2.041243 -27.706067 5.801008
2.205793 -27.824937 5.801008
2.041243 -27.864592 5.801008
1.677723 -27.980268 5.801008
1.314202 -28.121566 5.801008
1.193083 -28.167210 5.801008
0.950682 -28.220864 5.801008
0.587161 -28.285947 5.801008
0.223641 -28.309184 5.801008
-0.139880 -28.266338 5.801008
-0.503400 -28.184139 5.801008
-0.866920 -28.187933 5.801008
-1.230441 -28.467347 5.801008
-1.253462 -28.509483 5.801008
-1.502516 -28.851756 5.801008
-1.593961 -28.952257 5.801008
-1.752888 -29.194028 5.801008
-1.957482 -29.435612 5.801008
-2.037532 -29.536301 5.801008
-2.321002 -29.827003 5.801008
-2.381009 -29.878574 5.801008
-2.684523 -30.109633 5.801008
-2.923151 -30.220847 5.801008
-3.319888 -30.220847 6.067563
-3.411564 -30.237050 6.067563
-3.728627 -30.220847 6.067563
-3.775084 -30.218891 6.067563
-4.138605 -30.136738 6.067563
-4.502125 -29.985759 6.067563
-4.679064 -29.878574 6.067563
-4.865646 -29.763032 6.067563
-5.137091 -29.536301 6.067563
-5.229166 -29.449143 6.067563
-5.455198 -29.194028 6.067563
-5.592687 -28.997613 6.067563
-5.688285 -28.851756 6.067563
-5.857791 -28.509483 6.067563
-5.956207 -28.201484 6.067563
-5.967956 -28.167210 6.067563
-6.030815 -27.824937 6.067563
-6.035328 -27.482664 6.067563
-5.981418 -27.140392 6.067563
-5.956207 -27.060015 6.067563
-5.871337 -26.798119 6.067563
-5.691339 -26.455846 6.067563
-5.592687 -26.316668 6.067563
-5.410847 -26.113573 6.067563
-5.229166 -25.950554 6.067563
-4.936514 -25.771301 6.067563
-4.865646 -25.731759 6.067563
-4.502125 -25.592005 6.067563
-4.138605 -25.511210 6.067563
-3.775084 -25.472706 6.067563
-3.411564 -25.469325 6.067563
-3.048043 -25.500008 6.067563
-2.684523 -25.567596 6.067563
-2.321002 -25.675151 6.067563
-2.063966 -25.771301 6.067563
-1.957482 -25.823098 6.067563
-1.593961 -26.022086 6.067563
-1.427988 -26.113573 6.067563
-1.230441 -26.273602 6.067563
-0.950075 -26.455846 6.067563
-0.866920 -26.533687 6.067563
-0.503400 -26.726216 6.067563
-0.291664 -26.798119 6.067563
-0.139880 -26.850790 6.067563
0.223641 -26.979675 6.067563
0.587161 -27.099984 6.067563
0.696050 -27.140392 6.067563
0.950682 -27.265565 6.067563
1.314202 -27.426063 6.067563
1.461537 -27.482664 6.067563
1.657719 -27.824937 6.067563
1.314202 -27.976696 6.067563
0.950682 -28.122697 6.067563
0.759235 -28.167210 6.067563
0.587161 -28.192017 6.067563
0.223641 -28.186187 6.067563
0.120474 -28.167210 6.067563
-0.139880 -28.080642 6.067563
-0.503400 -27.935469 6.067563
-0.866920 -27.930015 6.067563
-1.095989 -28.167210 6.067563
-1.230441 -28.274464 6.067563
-1.355229 -28.509483 6.067563
-1.593961 -28.840900 6.067563
-1.599263 -28.851756 6.067563
-1.822924 -29.194028 6.067563
-1.957482 -29.351154 6.067563
-2.108929 -29.536301 6.067563
-2.321002 -29.744118 6.067563
-2.489370 -29.878574 6.067563
-2.684523 -30.016181 6.067563
-3.048043 -30.174456 6.067563
-3.319888 -30.220847 6.067563
-2.607543 -29.878574 6.334117
-2.684523 -29.930308 6.334117
-3.048043 -30.090111 6.334117
-3.411564 -30.150257 6.334117
-3.775084 -30.132183 6.334117
-4.138605 -30.044385 6.334117
-4.502125 -29.881291 6.334117
-4.506566 -29.878574 6.334117
-4.865646 -29.656058 6.334117
-5.010104 -29.536301 6.334117
-5.229166 -29.331543 6.334117
-5.354013 -29.194028 6.334117
-5.592687 -28.861874 6.334117
-5.599601 -28.851756 6.334117
-5.785946 -28.509483 6.334117
-5.904281 -28.167210 6.334117
-5.956207 -27.878244 6.334117
-5.967128 -27.824937 6.334117
-5.975466 -27.482664 6.334117
-5.956207 -27.358532 6.334117
-5.923550 -27.140392 6.334117
-5.807069 -26.798119 6.334117
-5.606687 -26.455846 6.334117
-5.592687 -26.437121 6.334117
-5.282017 -26.113573 6.334117
-5.229166 -26.068913 6.334117
-4.865646 -25.850127 6.334117
-4.646135 -25.771301 6.334117
-4.502125 -25.719017 6.334117
-4.138605 -25.643179 6.334117
-3.775084 -25.614777 6.334117
-3.411564 -25.626170 6.334117
-3.048043 -25.675915 6.334117
-2.684523 -25.765950 6.334117
-2.666443 -25.771301 6.334117
-2.321002 -25.893147 6.334117
-1.957482 -26.077786 6.334117
-1.887943 -26.113573 6.334117
-1.593961 -26.346062 6.334117
-1.447052 -26.455846 6.334117
-1.230441 -26.766458 6.334117
-1.194691 -26.798119 6.334117
-1.036014 -27.140392 6.334117
-1.087465 -27.482664 6.334117
-1.230441 -27.748449 6.334117
-1.244303 -27.824937 6.334117
-1.356181 -28.167210 6.334117
-1.518704 -28.509483 6.334117
-1.593961 -28.624132 6.334117
-1.695633 -28.851756 6.334117
-1.918469 -29.194028 6.334117
-1.957482 -29.241021 6.334117
-2.195298 -29.536301 6.334117
-2.321002 -29.658152 6.334117
-2.607543 -29.878574 6.334117
0.680427 -27.824937 6.334117
0.587161 -27.841249 6.334117
0.452929 -27.824937 6.334117
0.223641 -27.719420 6.334117
-0.057158 -27.482664 6.334117
0.223641 -27.339790 6.334117
0.587161 -27.414179 6.334117
0.753568 -27.482664 6.334117
0.680427 -27.824937 6.334117
-2.773486 -29.878574 6.600672
-3.048043 -29.998937 6.600672
-3.411564 -30.059724 6.600672
-3.775084 -30.037341 6.600672
-4.138605 -29.939242 6.600672
-4.267896 -29.878574 6.600672
-4.502125 -29.774177 6.600672
-4.854372 -29.536301 6.600672
-4.865646 -29.528159 6.600672
-5.224650 -29.194028 6.600672
-5.229166 -29.188922 6.600672
-5.495381 -28.851756 6.600672
-5.592687 -28.680464 6.600672
-5.690636 -28.509483 6.600672
-5.821790 -28.167210 6.600672
-5.889616 -27.824937 6.600672
-5.898164 -27.482664 6.600672
-5.842935 -27.140392 6.600672
-5.710798 -26.798119 6.600672
-5.592687 -26.608048 6.600672
-5.476521 -26.455846 6.600672
-5.229166 -26.219691 6.600672
-5.063082 -26.113573 6.600672
-4.865646 -26.000664 6.600672
-4.502125 -25.876067 6.600672
-4.138605 -25.817966 6.600672
-3.775084 -25.808675 6.600672
-3.411564 -25.841528 6.600672
-3.048043 -25.918530 6.600672
-2.684523 -26.050753 6.600672
-2.549729 -26.113573 6.600672
-2.321002 -26.246654 6.600672
-2.049529 -26.455846 6.600672
-1.957482 -26.565928 6.600672
-1.767361 -26.798119 6.600672
-1.632474 -27.140392 6.600672
-1.593961 -27.381953 6.600672
-1.571808 -27.482664 6.600672
-1.567791 -27.824937 6.600672
-1.593961 -27.963744 6.600672
-1.615223 -28.167210 6.600672
-1.695690 -28.509483 6.600672
-1.832805 -28.851756 6.600672
-1.957482 -29.058343 6.600672
-2.031911 -29.194028 6.600672
-2.309727 -29.536301 6.600672
-2.321002 -29.547405 6.600672
-2.684523 -29.835927 6.600672
-2.773486 -29.878574 6.600672
-3.033142 -29.878574 6.867227
-3.048043 -29.884833 6.867227
-3.411564 -29.948850 6.867227
-3.775084 -29.920995 6.867227
-3.914557 -29.878574 6.867227
-4.138605 -29.817678 6.867227
-4.502125 -29.641778 6.867227
-4.654547 -29.536301 6.867227
-4.865646 -29.381339 6.867227
-5.067352 -29.194028 6.867227
-5.229166 -29.013084 6.867227
-5.359950 -28.851756 6.867227
-5.564949 -28.509483 6.867227
-5.592687 -28.440178 6.867227
-5.709105 -28.167210 6.867227
-5.784252 -27.824937 6.867227
-5.791706 -27.482664 6.867227
-5.725187 -27.140392 6.867227
-5.592687 -26.847336 6.867227
-5.566666 -26.798119 6.867227
-5.275186 -26.455846 6.867227
-5.229166 -26.415223 6.867227
-4.865646 -26.194955 6.867227
-4.605905 -26.113573 6.867227
-4.502125 -26.080862 6.867227
-4.138605 -26.035428 6.867227
-3.775084 -26.052173 6.867227
-3.478299 -26.113573 6.867227
-3.411564 -26.126460 6.867227
-3.048043 -26.249376 6.867227
-2.691009 -26.455846 6.867227
-2.684523 -26.460242 6.867227
-2.321002 -26.789054 6.867227
-2.312443 -26.798119 6.867227
-2.074273 -27.140392 6.867227
-1.957482 -27.465312 6.867227
-1.950411 -27.482664 6.867227
-1.870548 -27.824937 6.867227
-1.858611 -28.167210 6.867227
-1.907202 -28.509483 6.867227
-1.957482 -28.660759 6.867227
-2.010136 -28.851756 6.867227
-2.179292 -29.194028 6.867227
-2.321002 -29.380122 6.867227
-2.463939 -29.536301 6.867227
-2.684523 -29.715474 6.867227
-3.033142 -29.878574 6.867227
-2.681997 -29.536301 7.133781
-2.684523 -29.538428 7.133781
-3.048043 -29.740150 7.133781
-3.411564 -29.808612 7.133781
-3.775084 -29.780654 7.133781
-4.138605 -29.669637 7.133781
-4.387608 -29.536301 7.133781
-4.502125 -29.474581 7.133781
-4.865078 -29.194028 7.133781
-4.865646 -29.193522 7.133781
-5.181765 -28.851756 7.133781
-5.229166 -28.783479 7.133781
-5.410265 -28.509483 7.133781
-5.556671 -28.167210 7.133781
-5.592687 -28.001081 7.133781
-5.635548 -27.824937 7.133781
-5.638130 -27.482664 7.133781
-5.592687 -27.293978 7.133781
-5.551828 -27.140392 7.133781
-5.345170 -26.798119 7.133781
-5.229166 -26.677446 7.133781
-4.890122 -26.455846 7.133781
-4.865646 -26.442601 7.133781
-4.502125 -26.333811 7.133781
-4.138605 -26.312507 7.133781
-3.775084 -26.363349 7.133781
-3.502529 -26.455846 7.133781
-3.411564 -26.485822 7.133781
-3.048043 -26.680006 7.133781
-2.893724 -26.798119 7.133781
-2.684523 -26.994698 7.133781
-2.556476 -27.140392 7.133781
-2.349485 -27.482664 7.133781
-2.321002 -27.556208 7.133781
-2.211768 -27.824937 7.133781
-2.147297 -28.167210 7.133781
-2.148952 -28.509483 7.133781
-2.221305 -28.851756 7.133781
-2.321002 -29.070487 7.133781
-2.382543 -29.194028 7.133781
-2.681997 -29.536301 7.133781
-3.088083 -29.536301 7.400336
-3.411564 -29.617923 7.400336
-3.775084 -29.592554 7.400336
-3.938779 -29.536301 7.400336
-4.138605 -29.470626 7.400336
-4.502125 -29.260751 7.400336
-4.586513 -29.194028 7.400336
-4.865646 -28.942753 7.400336
-4.950774 -28.851756 7.400336
-5.197052 -28.509483 7.400336
-5.229166 -28.441502 7.400336
-5.358431 -28.167210 7.400336
-5.433904 -27.824937 7.400336
-5.418633 -27.482664 7.400336
-5.286215 -27.140392 7.400336
-5.229166 -27.063305 7.400336
-4.917354 -26.798119 7.400336
-4.865646 -26.767432 7.400336
-4.502125 -26.664205 7.400336
-4.138605 -26.667909 7.400336
-3.775084 -26.760767 7.400336
-3.697655 -26.798119 7.400336
-3.411564 -26.938810 7.400336
-3.145001 -27.140392 7.400336
-3.048043 -27.228163 7.400336
-2.825110 -27.482664 7.400336
-2.684523 -27.713539 7.400336
-2.620250 -27.824937 7.400336
-2.500352 -28.167210 7.400336
-2.460090 -28.509483 7.400336
-2.504028 -28.851756 7.400336
-2.660400 -29.194028 7.400336
-2.684523 -29.225136 7.400336
-3.048043 -29.523592 7.400336
-3.088083 -29.536301 7.400336
-3.158978 -29.194028 7.666891
-3.411564 -29.312190 7.666891
-3.775084 -29.313426 7.666891
-4.132262 -29.194028 7.666891
-4.138605 -29.191775 7.666891
-4.502125 -28.946771 7.666891
-4.606250 -28.851756 7.666891
-4.865646 -28.550594 7.666891
-4.896624 -28.509483 7.666891
-5.061178 -28.167210 7.666891
-5.121738 -27.824937 7.666891
-5.043471 -27.482664 7.666891
-4.865646 -27.266023 7.666891
-4.597648 -27.140392 7.666891
-4.502125 -27.111952 7.666891
-4.138605 -27.134131 7.666891
-4.122275 -27.140392 7.666891
-3.775084 -27.277360 7.666891
-3.474679 -27.482664 7.666891
-3.411564 -27.535266 7.666891
-3.156195 -27.824937 7.666891
-3.048043 -28.006799 7.666891
-2.962961 -28.167210 7.666891
-2.880214 -28.509483 7.666891
-2.912180 -28.851756 7.666891
-3.048043 -29.096507 7.666891
-3.158978 -29.194028 7.666891
-3.675767 -28.509483 7.933445
-3.775084 -28.642987 7.933445
-4.138605 -28.591330 7.933445
-4.235016 -28.509483 7.933445
-4.425405 -28.167210 7.933445
-4.138605 -27.951761 7.933445
-3.775084 -28.155694 7.933445
-3.765016 -28.167210 7.933445
-3.675767 -28.509483 7.933445
