ply
format ascii 1.0
element vertex 1606
property float x
property float y
property float z
end_header
-3.627640 -28.167210 0.203360
-3.775084 -28.247551 0.203360
-4.138605 -28.343651 0.203360
-4.502125 -28.263551 0.203360
-4.595873 -28.167210 0.203360
-4.658311 -27.824937 0.203360
-4.502125 -27.552941 0.203360
-4.336093 -27.482664 0.203360
-4.138605 -27.438883 0.203360
-3.862212 -27.482664 0.203360
-3.775084 -27.528044 0.203360
-3.514445 -27.824937 0.203360
-3.627640 -28.167210 0.203360
-3.392880 -28.509483 0.469915
-3.411564 -28.518952 0.469915
-3.775084 -28.661739 0.469915
-4.138605 -28.735034 0.469915
-4.502125 -28.723374 0.469915
-4.865646 -28.595033 0.469915
-4.961864 -28.509483 0.469915
-5.208500 -28.167210 0.469915
-5.229166 -27.971647 0.469915
-5.235756 -27.824937 0.469915
-5.229166 -27.799953 0.469915
-5.055051 -27.482664 0.469915
-4.865646 -27.270577 0.469915
-4.606728 -27.140392 0.469915
-4.502125 -27.099479 0.469915
-4.138605 -27.077607 0.469915
-3.775084 -27.130939 0.469915
-3.738283 -27.140392 0.469915
-3.411564 -27.338001 0.469915
-3.234248 -27.482664 0.469915
-3.099307 -27.824937 0.469915
-3.134707 -28.167210 0.469915
-3.392880 -28.509483 0.469915
-3.292324 -28.851756 0.736470
-3.411564 -28.895483 0.736470
-3.775084 -28.982819 0.736470
-4.138605 -29.025383 0.736470
-4.502125 -29.022944 0.736470
-4.865646 -28.955713 0.736470
-5.082267 -28.851756 0.736470
-5.229166 -28.764701 0.736470
-5.444444 -28.509483 0.736470
-5.592687 -28.250482 0.736470
-5.618546 -28.167210 0.736470
-5.629249 -27.824937 0.736470
-5.592687 -27.680367 0.736470
-5.498787 -27.482664 0.736470
-5.243020 -27.140392 0.736470
-5.229166 -27.125000 0.736470
-4.865646 -26.911624 0.736470
-4.502125 -26.806900 0.736470
-4.202388 -26.798119 0.736470
-4.138605 -26.796666 0.736470
-4.122929 -26.798119 0.736470
-3.775084 -26.864282 0.736470
-3.411564 -27.005735 0.736470
-3.169695 -27.140392 0.736470
-3.048043 -27.306986 0.736470
-2.937528 -27.482664 0.736470
-2.859072 -27.824937 0.736470
-2.861077 -28.167210 0.736470
-2.956461 -28.509483 0.736470
-3.048043 -28.623798 0.736470
-3.292324 -28.851756 0.736470
-3.168800 -29.194028 1.003024
-3.411564 -29.255002 1.003024
-3.775084 -29.291292 1.003024
-4.138605 -29.297511 1.003024
-4.502125 -29.282680 1.003024
-4.865646 -29.233267 1.003024
-4.981014 -29.194028 1.003024
-5.229166 -29.097028 1.003024
-5.576698 -28.851756 1.003024
-5.592687 -28.838782 1.003024
-5.817282 -28.509483 1.003024
-5.956207 -28.215242 1.003024
-5.969973 -28.167210 1.003024
-5.978727 -27.824937 1.003024
-5.956207 -27.732706 1.003024
-5.853452 -27.482664 1.003024
-5.628258 -27.140392 1.003024
-5.592687 -27.094303 1.003024
-5.229508 -26.798119 1.003024
-5.229166 -26.797845 1.003024
-4.865646 -26.650450 1.003024
-4.502125 -26.584611 1.003024
-4.138605 -26.581144 1.003024
-3.775084 -26.627122 1.003024
-3.411564 -26.720889 1.003024
-3.210553 -26.798119 1.003024
-3.048043 -26.942358 1.003024
-2.871511 -27.140392 1.003024
-2.748233 -27.482664 1.003024
-2.700385 -27.824937 1.003024
-2.684523 -28.092550 1.003024
-2.680664 -28.167210 1.003024
-2.684523 -28.294418 1.003024
-2.692049 -28.509483 1.003024
-2.796473 -28.851756 1.003024
-3.048043 -29.116325 1.003024
-3.168800 -29.194028 1.003024
-2.974975 -29.536301 1.269579
-3.048043 -29.564935 1.269579
-3.411564 -29.616699 1.269579
-3.775084 -29.605446 1.269579
-4.138605 -29.572814 1.269579
-4.481168 -29.536301 1.269579
-4.502125 -29.533512 1.269579
-4.865646 -29.460608 1.269579
-5.229166 -29.346816 1.269579
-5.513779 -29.194028 1.269579
-5.592687 -29.149325 1.269579
-5.903337 -28.851756 1.269579
-5.956207 -28.795722 1.269579
-6.123628 -28.509483 1.269579
-6.257502 -28.167210 1.269579
-6.270459 -27.824937 1.269579
-6.152053 -27.482664 1.269579
-5.956207 -27.141310 1.269579
-5.955355 -27.140392 1.269579
-5.606882 -26.798119 1.269579
-5.592687 -26.783694 1.269579
-5.229166 -26.559054 1.269579
-4.954489 -26.455846 1.269579
-4.865646 -26.424371 1.269579
-4.502125 -26.372221 1.269579
-4.138605 -26.363429 1.269579
-3.775084 -26.387120 1.269579
-3.411564 -26.445445 1.269579
-3.371562 -26.455846 1.269579
-3.048043 -26.637554 1.269579
-2.850161 -26.798119 1.269579
-2.684523 -27.136093 1.269579
-2.682743 -27.140392 1.269579
-2.634315 -27.482664 1.269579
-2.610795 -27.824937 1.269579
-2.578642 -28.167210 1.269579
-2.540802 -28.509483 1.269579
-2.535593 -28.851756 1.269579
-2.622534 -29.194028 1.269579
-2.684523 -29.274906 1.269579
-2.974975 -29.536301 1.269579
-2.812253 -29.878574 1.536134
-3.048043 -29.958006 1.536134
-3.411564 -29.974499 1.536134
-3.775084 -29.923956 1.536134
-4.001273 -29.878574 1.536134
-4.138605 -29.841373 1.536134
-4.502125 -29.747831 1.536134
-4.865646 -29.664919 1.536134
-5.229166 -29.561874 1.536134
-5.281899 -29.536301 1.536134
-5.592687 -29.379260 1.536134
-5.829817 -29.194028 1.536134
-5.956207 -29.095354 1.536134
-6.158249 -28.851756 1.536134
-6.319728 -28.638263 1.536134
-6.387312 -28.509483 1.536134
-6.499957 -28.167210 1.536134
-6.511499 -27.824937 1.536134
-6.412746 -27.482664 1.536134
-6.319728 -27.304411 1.536134
-6.195427 -27.140392 1.536134
-5.956207 -26.856454 1.536134
-5.881905 -26.798119 1.536134
-5.592687 -26.558131 1.536134
-5.404349 -26.455846 1.536134
-5.229166 -26.356696 1.536134
-4.865646 -26.239398 1.536134
-4.502125 -26.175495 1.536134
-4.138605 -26.149342 1.536134
-3.775084 -26.158606 1.536134
-3.411564 -26.218959 1.536134
-3.048043 -26.355101 1.536134
-2.876389 -26.455846 1.536134
-2.684523 -26.721869 1.536134
-2.639676 -26.798119 1.536134
-2.577669 -27.140392 1.536134
-2.572609 -27.482664 1.536134
-2.565488 -27.824937 1.536134
-2.522790 -28.167210 1.536134
-2.445659 -28.509483 1.536134
-2.371318 -28.851756 1.536134
-2.359965 -29.194028 1.536134
-2.472592 -29.536301 1.536134
-2.684523 -29.783691 1.536134
-2.812253 -29.878574 1.536134
-2.697603 -30.220847 1.802688
-3.048043 -30.321633 1.802688
-3.411564 -30.313789 1.802688
-3.775084 -30.236651 1.802688
-3.827977 -30.220847 1.802688
-4.138605 -30.095790 1.802688
-4.502125 -29.973791 1.802688
-4.839147 -29.878574 1.802688
-4.865646 -29.869852 1.802688
-5.229166 -29.735267 1.802688
-5.592687 -29.568387 1.802688
-5.636847 -29.536301 1.802688
-5.956207 -29.310072 1.802688
-6.067621 -29.194028 1.802688
-6.319728 -28.937683 1.802688
-6.379982 -28.851756 1.802688
-6.589377 -28.509483 1.802688
-6.683248 -28.277195 1.802688
-6.716205 -28.167210 1.802688
-6.727219 -27.824937 1.802688
-6.683248 -27.651019 1.802688
-6.624023 -27.482664 1.802688
-6.411223 -27.140392 1.802688
-6.319728 -27.015647 1.802688
-6.099410 -26.798119 1.802688
-5.956207 -26.648847 1.802688
-5.692372 -26.455846 1.802688
-5.592687 -26.374972 1.802688
-5.229166 -26.183622 1.802688
-5.022502 -26.113573 1.802688
-4.865646 -26.064035 1.802688
-4.502125 -26.001364 1.802688
-4.138605 -25.967819 1.802688
-3.775084 -25.960845 1.802688
-3.411564 -25.993415 1.802688
-3.048043 -26.086013 1.802688
-2.983795 -26.113573 1.802688
-2.684523 -26.383697 1.802688
-2.622793 -26.455846 1.802688
-2.518904 -26.798119 1.802688
-2.517491 -27.140392 1.802688
-2.548879 -27.482664 1.802688
-2.556848 -27.824937 1.802688
-2.507708 -28.167210 1.802688
-2.400508 -28.509483 1.802688
-2.321002 -28.713714 1.802688
-2.279048 -28.851756 1.802688
-2.207621 -29.194028 1.802688
-2.221025 -29.536301 1.802688
-2.321002 -29.803813 1.802688
-2.352643 -29.878574 1.802688
-2.684523 -30.213218 1.802688
-2.697603 -30.220847 1.802688
-2.706859 -30.563119 2.069243
-3.048043 -30.645790 2.069243
-3.411564 -30.623664 2.069243
-3.642569 -30.563119 2.069243
-3.775084 -30.514484 2.069243
-4.138605 -30.349971 2.069243
-4.465481 -30.220847 2.069243
-4.502125 -30.202342 2.069243
-4.865646 -30.040000 2.069243
-5.229166 -29.899751 2.069243
-5.272244 -29.878574 2.069243
-5.592687 -29.715122 2.069243
-5.853769 -29.536301 2.069243
-5.956207 -29.469925 2.069243
-6.248494 -29.194028 2.069243
-6.319728 -29.129216 2.069243
-6.534049 -28.851756 2.069243
-6.683248 -28.637900 2.069243
-6.751239 -28.509483 2.069243
-6.864419 -28.167210 2.069243
-6.878097 -27.824937 2.069243
-6.782265 -27.482664 2.069243
-6.683248 -27.294854 2.069243
-6.574278 -27.140392 2.069243
-6.319728 -26.828032 2.069243
-6.285488 -26.798119 2.069243
-5.956207 -26.491978 2.069243
-5.900863 -26.455846 2.069243
-5.592687 -26.228120 2.069243
-5.372541 -26.113573 2.069243
-5.229166 -26.036892 2.069243
-4.865646 -25.914549 2.069243
-4.502125 -25.829650 2.069243
-4.150106 -25.771301 2.069243
-4.138605 -25.769846 2.069243
-3.775084 -25.750415 2.069243
-3.411564 -25.764774 2.069243
-3.372288 -25.771301 2.069243
-3.048043 -25.873819 2.069243
-2.684523 -26.093265 2.069243
-2.659735 -26.113573 2.069243
-2.477333 -26.455846 2.069243
-2.445358 -26.798119 2.069243
-2.492533 -27.140392 2.069243
-2.553861 -27.482664 2.069243
-2.575722 -27.824937 2.069243
-2.524393 -28.167210 2.069243
-2.396485 -28.509483 2.069243
-2.321002 -28.654769 2.069243
-2.237537 -28.851756 2.069243
-2.113144 -29.194028 2.069243
-2.066684 -29.536301 2.069243
-2.125966 -29.878574 2.069243
-2.299901 -30.220847 2.069243
-2.321002 -30.242955 2.069243
-2.684523 -30.553300 2.069243
-2.706859 -30.563119 2.069243
-2.925972 -30.905392 2.335798
-3.048043 -30.929922 2.335798
-3.345033 -30.905392 2.335798
-3.411564 -30.897806 2.335798
-3.775084 -30.758068 2.335798
-4.138605 -30.595423 2.335798
-4.210133 -30.563119 2.335798
-4.502125 -30.393061 2.335798
-4.865646 -30.222946 2.335798
-4.870276 -30.220847 2.335798
-5.229166 -30.033103 2.335798
-5.520764 -29.878574 2.335798
-5.592687 -29.840334 2.335798
-5.956207 -29.588779 2.335798
-6.010415 -29.536301 2.335798
-6.319728 -29.260328 2.335798
-6.374236 -29.194028 2.335798
-6.662574 -28.851756 2.335798
-6.683248 -28.824113 2.335798
-6.859277 -28.509483 2.335798
-6.983372 -28.167210 2.335798
-6.999463 -27.824937 2.335798
-6.896027 -27.482664 2.335798
-6.703635 -27.140392 2.335798
-6.683248 -27.111393 2.335798
-6.402678 -26.798119 2.335798
-6.319728 -26.702371 2.335798
-6.036941 -26.455846 2.335798
-5.956207 -26.375013 2.335798
-5.600683 -26.113573 2.335798
-5.592687 -26.107073 2.335798
-5.229166 -25.911319 2.335798
-4.880386 -25.771301 2.335798
-4.865646 -25.766133 2.335798
-4.502125 -25.682579 2.335798
-4.138605 -25.623428 2.335798
-3.775084 -25.590275 2.335798
-3.411564 -25.599937 2.335798
-3.048043 -25.676391 2.335798
-2.821966 -25.771301 2.335798
-2.684523 -25.887764 2.335798
-2.485411 -26.113573 2.335798
-2.382278 -26.455846 2.335798
-2.406320 -26.798119 2.335798
-2.491408 -27.140392 2.335798
-2.576597 -27.482664 2.335798
-2.611169 -27.824937 2.335798
-2.561857 -28.167210 2.335798
-2.422586 -28.509483 2.335798
-2.321002 -28.678397 2.335798
-2.232420 -28.851756 2.335798
-2.063634 -29.194028 2.335798
-1.966084 -29.536301 2.335798
-1.970995 -29.878574 2.335798
-2.087503 -30.220847 2.335798
-2.314772 -30.563119 2.335798
-2.321002 -30.568871 2.335798
-2.684523 -30.827347 2.335798
-2.925972 -30.905392 2.335798
-2.427124 -30.905392 2.602352
-2.684523 -31.060241 2.602352
-3.048043 -31.150018 2.602352
-3.411564 -31.106826 2.602352
-3.775084 -30.980528 2.602352
-3.941891 -30.905392 2.602352
-4.138605 -30.790789 2.602352
-4.502125 -30.589127 2.602352
-4.553419 -30.563119 2.602352
-4.865646 -30.364051 2.602352
-5.129912 -30.220847 2.602352
-5.229166 -30.159769 2.602352
-5.592687 -29.936806 2.602352
-5.669893 -29.878574 2.602352
-5.956207 -29.671867 2.602352
-6.097339 -29.536301 2.602352
-6.319728 -29.342164 2.602352
-6.445211 -29.194028 2.602352
-6.683248 -28.922775 2.602352
-6.731691 -28.851756 2.602352
-6.932137 -28.509483 2.602352
-7.046769 -28.209238 2.602352
-7.060000 -28.167210 2.602352
-7.074072 -27.824937 2.602352
-7.046769 -27.716127 2.602352
-6.973262 -27.482664 2.602352
-6.771631 -27.140392 2.602352
-6.683248 -27.018755 2.602352
-6.478273 -26.798119 2.602352
-6.319728 -26.621303 2.602352
-6.124253 -26.455846 2.602352
-5.956207 -26.291322 2.602352
-5.713576 -26.113573 2.602352
-5.592687 -26.014430 2.602352
-5.229166 -25.798104 2.602352
-5.168096 -25.771301 2.602352
-4.865646 -25.654566 2.602352
-4.502125 -25.550403 2.602352
-4.138605 -25.469209 2.602352
-3.852562 -25.429028 2.602352
-3.775084 -25.421043 2.602352
-3.411564 -25.421635 2.602352
-3.358441 -25.429028 2.602352
-3.048043 -25.503981 2.602352
-2.684523 -25.694689 2.602352
-2.581942 -25.771301 2.602352
-2.365046 -26.113573 2.602352
-2.322360 -26.455846 2.602352
-2.388813 -26.798119 2.602352
-2.502132 -27.140392 2.602352
-2.605337 -27.482664 2.602352
-2.651302 -27.824937 2.602352
-2.608012 -28.167210 2.602352
-2.466694 -28.509483 2.602352
-2.321002 -28.737324 2.602352
-2.256279 -28.851756 2.602352
-2.052427 -29.194028 2.602352
-1.957482 -29.413698 2.602352
-1.915622 -29.536301 2.602352
-1.878578 -29.878574 2.602352
-1.941299 -30.220847 2.602352
-1.957482 -30.251700 2.602352
-2.116292 -30.563119 2.602352
-2.321002 -30.805065 2.602352
-2.427124 -30.905392 2.602352
-2.655910 -31.247665 2.868907
-2.684523 -31.262551 2.868907
-3.048043 -31.336885 2.868907
-3.411564 -31.296095 2.868907
-3.555255 -31.247665 2.868907
-3.775084 -31.156451 2.868907
-4.138605 -30.966524 2.868907
-4.252935 -30.905392 2.868907
-4.502125 -30.734471 2.868907
-4.787607 -30.563119 2.868907
-4.865646 -30.503731 2.868907
-5.229166 -30.263670 2.868907
-5.294307 -30.220847 2.868907
-5.592687 -30.008490 2.868907
-5.753229 -29.878574 2.868907
-5.956207 -29.723921 2.868907
-6.147065 -29.536301 2.868907
-6.319728 -29.383721 2.868907
-6.480547 -29.194028 2.868907
-6.683248 -28.964261 2.868907
-6.760634 -28.851756 2.868907
-6.964606 -28.509483 2.868907
-7.046769 -28.296385 2.868907
-7.087775 -28.167210 2.868907
-7.102515 -27.824937 2.868907
-7.046769 -27.604287 2.868907
-7.008167 -27.482664 2.868907
-6.803732 -27.140392 2.868907
-6.683248 -26.975781 2.868907
-6.517538 -26.798119 2.868907
-6.319728 -26.577995 2.868907
-6.176622 -26.455846 2.868907
-5.956207 -26.237318 2.868907
-5.792810 -26.113573 2.868907
-5.592687 -25.942913 2.868907
-5.327385 -25.771301 2.868907
-5.229166 -25.711117 2.868907
-4.865646 -25.550814 2.868907
-4.520243 -25.429028 2.868907
-4.502125 -25.424081 2.868907
-4.138605 -25.352045 2.868907
-3.775084 -25.307275 2.868907
-3.411564 -25.304166 2.868907
-3.048043 -25.363420 2.868907
-2.865332 -25.429028 2.868907
-2.684523 -25.545094 2.868907
-2.436344 -25.771301 2.868907
-2.321002 -26.026120 2.868907
-2.285395 -26.113573 2.868907
-2.285976 -26.455846 2.868907
-2.321002 -26.590070 2.868907
-2.380088 -26.798119 2.868907
-2.512489 -27.140392 2.868907
-2.627876 -27.482664 2.868907
-2.683647 -27.824937 2.868907
-2.650045 -28.167210 2.868907
-2.515918 -28.509483 2.868907
-2.321002 -28.815435 2.868907
-2.299679 -28.851756 2.868907
-2.071640 -29.194028 2.868907
-1.957482 -29.406314 2.868907
-1.900044 -29.536301 2.868907
-1.826591 -29.878574 2.868907
-1.854682 -30.220847 2.868907
-1.957482 -30.496363 2.868907
-1.981293 -30.563119 2.868907
-2.218984 -30.905392 2.868907
-2.321002 -31.004193 2.868907
-2.655910 -31.247665 2.868907
-2.436908 -31.247665 3.135461
-2.684523 -31.393237 3.135461
-3.048043 -31.475089 3.135461
-3.411564 -31.428300 3.135461
-3.775084 -31.297501 3.135461
-3.878105 -31.247665 3.135461
-4.138605 -31.093013 3.135461
-4.453810 -30.905392 3.135461
-4.502125 -30.867847 3.135461
-4.865646 -30.611150 3.135461
-4.941330 -30.563119 3.135461
-5.229166 -30.338252 3.135461
-5.386855 -30.220847 3.135461
-5.592687 -30.055776 3.135461
-5.793060 -29.878574 3.135461
-5.956207 -29.744028 3.135461
-6.156903 -29.536301 3.135461
-6.319728 -29.385888 3.135461
-6.477991 -29.194028 3.135461
-6.683248 -28.955816 3.135461
-6.753795 -28.851756 3.135461
-6.954736 -28.509483 3.135461
-7.046769 -28.268201 3.135461
-7.078652 -28.167210 3.135461
-7.093515 -27.824937 3.135461
-7.046769 -27.637303 3.135461
-6.998700 -27.482664 3.135461
-6.798332 -27.140392 3.135461
-6.683248 -26.980206 3.135461
-6.518291 -26.798119 3.135461
-6.319728 -26.570432 3.135461
-6.191487 -26.455846 3.135461
-5.956207 -26.211537 3.135461
-5.835254 -26.113573 3.135461
-5.592687 -25.892782 3.135461
-5.420954 -25.771301 3.135461
-5.229166 -25.643585 3.135461
-4.865646 -25.459917 3.135461
-4.788053 -25.429028 3.135461
-4.502125 -25.341624 3.135461
-4.138605 -25.257797 3.135461
-3.775084 -25.203754 3.135461
-3.411564 -25.196219 3.135461
-3.048043 -25.259060 3.135461
-2.684523 -25.407611 3.135461
-2.648723 -25.429028 3.135461
-2.330607 -25.771301 3.135461
-2.321002 -25.800604 3.135461
-2.227924 -26.113573 3.135461
-2.255460 -26.455846 3.135461
-2.321002 -26.660139 3.135461
-2.367600 -26.798119 3.135461
-2.510126 -27.140392 3.135461
-2.631774 -27.482664 3.135461
-2.684523 -27.766314 3.135461
-2.695571 -27.824937 3.135461
-2.684523 -28.005103 3.135461
-2.674707 -28.167210 3.135461
-2.556718 -28.509483 3.135461
-2.351561 -28.851756 3.135461
-2.321002 -28.891375 3.135461
-2.112457 -29.194028 3.135461
-1.957482 -29.453088 3.135461
-1.914750 -29.536301 3.135461
-1.809900 -29.878574 3.135461
-1.808395 -30.220847 3.135461
-1.904496 -30.563119 3.135461
-1.957482 -30.653576 3.135461
-2.102864 -30.905392 3.135461
-2.321002 -31.148752 3.135461
-2.436908 -31.247665 3.135461
-2.316020 -31.247665 3.402016
-2.321002 -31.252163 3.402016
-2.684523 -31.487263 3.402016
-3.048043 -31.576550 3.402016
-3.411564 -31.526078 3.402016
-3.775084 -31.385084 3.402016
-4.046764 -31.247665 3.402016
-4.138605 -31.189887 3.402016
-4.502125 -30.952097 3.402016
-4.578268 -30.905392 3.402016
-4.865646 -30.678387 3.402016
-5.028617 -30.563119 3.402016
-5.229166 -30.387196 3.402016
-5.428693 -30.220847 3.402016
-5.592687 -30.073184 3.402016
-5.792006 -29.878574 3.402016
-5.956207 -29.729221 3.402016
-6.129048 -29.536301 3.402016
-6.319728 -29.346752 3.402016
-6.439117 -29.194028 3.402016
-6.683248 -28.895777 3.402016
-6.712018 -28.851756 3.402016
-6.903814 -28.509483 3.402016
-7.029685 -28.167210 3.402016
-7.046769 -27.843888 3.402016
-7.047587 -27.824937 3.402016
-7.046769 -27.821532 3.402016
-6.946680 -27.482664 3.402016
-6.756995 -27.140392 3.402016
-6.683248 -27.033061 3.402016
-6.483235 -26.798119 3.402016
-6.319728 -26.598817 3.402016
-6.172180 -26.455846 3.402016
-5.956207 -26.213791 3.402016
-5.843796 -26.113573 3.402016
-5.592687 -25.864819 3.402016
-5.473253 -25.771301 3.402016
-5.229166 -25.594041 3.402016
-4.935753 -25.429028 3.402016
-4.865646 -25.397839 3.402016
-4.502125 -25.274982 3.402016
-4.138605 -25.180765 3.402016
-3.775084 -25.118663 3.402016
-3.411564 -25.106638 3.402016
-3.048043 -25.170612 3.402016
-2.684523 -25.328408 3.402016
-2.529755 -25.429028 3.402016
-2.321002 -25.681647 3.402016
-2.256735 -25.771301 3.402016
-2.176173 -26.113573 3.402016
-2.218958 -26.455846 3.402016
-2.321002 -26.747389 3.402016
-2.339046 -26.798119 3.402016
-2.482919 -27.140392 3.402016
-2.604991 -27.482664 3.402016
-2.674446 -27.824937 3.402016
-2.669086 -28.167210 3.402016
-2.575394 -28.509483 3.402016
-2.396069 -28.851756 3.402016
-2.321002 -28.958015 3.402016
-2.164709 -29.194028 3.402016
-1.957482 -29.532765 3.402016
-1.955530 -29.536301 3.402016
-1.825541 -29.878574 3.402016
-1.799450 -30.220847 3.402016
-1.872326 -30.563119 3.402016
-1.957482 -30.732612 3.402016
-2.042111 -30.905392 3.402016
-2.316020 -31.247665 3.402016
-2.901493 -31.589938 3.668571
-3.048043 -31.619618 3.668571
-3.309923 -31.589938 3.668571
-3.411564 -31.576701 3.668571
-3.775084 -31.431139 3.668571
-4.129770 -31.247665 3.668571
-4.138605 -31.241950 3.668571
-4.502125 -30.990320 3.668571
-4.633196 -30.905392 3.668571
-4.865646 -30.710266 3.668571
-5.058645 -30.563119 3.668571
-5.229166 -30.400548 3.668571
-5.425713 -30.220847 3.668571
-5.592687 -30.054162 3.668571
-5.755506 -29.878574 3.668571
-5.956207 -29.674971 3.668571
-6.069428 -29.536301 3.668571
-6.319728 -29.261930 3.668571
-6.368880 -29.194028 3.668571
-6.623532 -28.851756 3.668571
-6.683248 -28.762561 3.668571
-6.816324 -28.509483 3.668571
-6.932435 -28.167210 3.668571
-6.949561 -27.824937 3.668571
-6.857786 -27.482664 3.668571
-6.684412 -27.140392 3.668571
-6.683248 -27.138574 3.668571
-6.419487 -26.798119 3.668571
-6.319728 -26.665092 3.668571
-6.126804 -26.455846 3.668571
-5.956207 -26.244457 3.668571
-5.825694 -26.113573 3.668571
-5.592687 -25.859781 3.668571
-5.490888 -25.771301 3.668571
-5.229166 -25.565080 3.668571
-5.006632 -25.429028 3.668571
-4.865646 -25.361562 3.668571
-4.502125 -25.228873 3.668571
-4.138605 -25.127081 3.668571
-3.916409 -25.086755 3.668571
-3.775084 -25.066705 3.668571
-3.411564 -25.055774 3.668571
-3.152780 -25.086755 3.668571
-3.048043 -25.105859 3.668571
-2.684523 -25.265739 3.668571
-2.442587 -25.429028 3.668571
-2.321002 -25.583226 3.668571
-2.192327 -25.771301 3.668571
-2.118820 -26.113573 3.668571
-2.164422 -26.455846 3.668571
-2.282146 -26.798119 3.668571
-2.321002 -26.890691 3.668571
-2.420167 -27.140392 3.668571
-2.537456 -27.482664 3.668571
-2.610657 -27.824937 3.668571
-2.622340 -28.167210 3.668571
-2.559517 -28.509483 3.668571
-2.418690 -28.851756 3.668571
-2.321002 -29.015862 3.668571
-2.216318 -29.194028 3.668571
-2.013827 -29.536301 3.668571
-1.957482 -29.662527 3.668571
-1.871058 -29.878574 3.668571
-1.826459 -30.220847 3.668571
-1.881310 -30.563119 3.668571
-1.957482 -30.732217 3.668571
-2.032797 -30.905392 3.668571
-2.287090 -31.247665 3.668571
-2.321002 -31.280073 3.668571
-2.684523 -31.530683 3.668571
-2.901493 -31.589938 3.668571
-2.953000 -31.589938 3.935125
-3.048043 -31.610363 3.935125
-3.243059 -31.589938 3.935125
-3.411564 -31.569709 3.935125
-3.775084 -31.426768 3.935125
-4.122052 -31.247665 3.935125
-4.138605 -31.237034 3.935125
-4.502125 -30.984545 3.935125
-4.622091 -30.905392 3.935125
-4.865646 -30.697388 3.935125
-5.035436 -30.563119 3.935125
-5.229166 -30.370320 3.935125
-5.382712 -30.220847 3.935125
-5.592687 -29.993521 3.935125
-5.690205 -29.878574 3.935125
-5.956207 -29.576951 3.935125
-5.986200 -29.536301 3.935125
-6.258747 -29.194028 3.935125
-6.319728 -29.121230 3.935125
-6.497564 -28.851756 3.935125
-6.683248 -28.543413 3.935125
-6.699824 -28.509483 3.935125
-6.804571 -28.167210 3.935125
-6.821152 -27.824937 3.935125
-6.741336 -27.482664 3.935125
-6.683248 -27.355386 3.935125
-6.562775 -27.140392 3.935125
-6.337381 -26.798119 3.935125
-6.319728 -26.771732 3.935125
-6.066190 -26.455846 3.935125
-5.956207 -26.302901 3.935125
-5.790387 -26.113573 3.935125
-5.592687 -25.877060 3.935125
-5.482218 -25.771301 3.935125
-5.229166 -25.557859 3.935125
-5.031022 -25.429028 3.935125
-4.865646 -25.345491 3.935125
-4.502125 -25.206078 3.935125
-4.138605 -25.100348 3.935125
-4.064740 -25.086755 3.935125
-3.775084 -25.044431 3.935125
-3.411564 -25.031721 3.935125
-3.048043 -25.074439 3.935125
-3.004688 -25.086755 3.935125
-2.684523 -25.223463 3.935125
-2.375620 -25.429028 3.935125
-2.321002 -25.495721 3.935125
-2.126164 -25.771301 3.935125
-2.044879 -26.113573 3.935125
-2.080640 -26.455846 3.935125
-2.185159 -26.798119 3.935125
-2.314532 -27.140392 3.935125
-2.321002 -27.158569 3.935125
-2.423790 -27.482664 3.935125
-2.499189 -27.824937 3.935125
-2.528532 -28.167210 3.935125
-2.500546 -28.509483 3.935125
-2.407764 -28.851756 3.935125
-2.321002 -29.047663 3.935125
-2.253502 -29.194028 3.935125
-2.078930 -29.536301 3.935125
-1.957482 -29.841941 3.935125
-1.943717 -29.878574 3.935125
-1.889309 -30.220847 3.935125
-1.932311 -30.563119 3.935125
-1.957482 -30.621616 3.935125
-2.074386 -30.905392 3.935125
-2.317549 -31.247665 3.935125
-2.321002 -31.251062 3.935125
-2.684523 -31.511767 3.935125
-2.953000 -31.589938 3.935125
-2.438883 -31.247665 4.201680
-2.684523 -31.424404 4.201680
-3.048043 -31.535853 4.201680
-3.411564 -31.500010 4.201680
-3.775084 -31.367549 4.201680
-4.013892 -31.247665 4.201680
-4.138605 -31.171106 4.201680
-4.502125 -30.931130 4.201680
-4.541912 -30.905392 4.201680
-4.865646 -30.636908 4.201680
-4.959333 -30.563119 4.201680
-5.229166 -30.295211 4.201680
-5.303480 -30.220847 4.201680
-5.592687 -29.891481 4.201680
-5.602918 -29.878574 4.201680
-5.869362 -29.536301 4.201680
-5.956207 -29.432147 4.201680
-6.121714 -29.194028 4.201680
-6.319728 -28.919543 4.201680
-6.359630 -28.851756 4.201680
-6.534527 -28.509483 4.201680
-6.651749 -28.167210 4.201680
-6.673563 -27.824937 4.201680
-6.591867 -27.482664 4.201680
-6.435877 -27.140392 4.201680
-6.319728 -26.932919 4.201680
-6.230132 -26.798119 4.201680
-6.001425 -26.455846 4.201680
-5.956207 -26.385080 4.201680
-5.747335 -26.113573 4.201680
-5.592687 -25.913036 4.201680
-5.455761 -25.771301 4.201680
-5.229166 -25.570809 4.201680
-5.018498 -25.429028 4.201680
-4.865646 -25.349188 4.201680
-4.502125 -25.206244 4.201680
-4.138605 -25.100071 4.201680
-4.066173 -25.086755 4.201680
-3.775084 -25.043145 4.201680
-3.411564 -25.028751 4.201680
-3.048043 -25.068075 4.201680
-2.978738 -25.086755 4.201680
-2.684523 -25.202113 4.201680
-2.321002 -25.428209 4.201680
-2.319905 -25.429028 4.201680
-2.049188 -25.771301 4.201680
-1.957482 -26.071483 4.201680
-1.944401 -26.113573 4.201680
-1.957482 -26.399005 4.201680
-1.959825 -26.455846 4.201680
-2.042968 -26.798119 4.201680
-2.152550 -27.140392 4.201680
-2.259768 -27.482664 4.201680
-2.321002 -27.722851 4.201680
-2.343407 -27.824937 4.201680
-2.389775 -28.167210 4.201680
-2.397098 -28.509483 4.201680
-2.356761 -28.851756 4.201680
-2.321002 -28.989604 4.201680
-2.262807 -29.194028 4.201680
-2.139112 -29.536301 4.201680
-2.033145 -29.878574 4.201680
-1.987634 -30.220847 4.201680
-2.029394 -30.563119 4.201680
-2.169268 -30.905392 4.201680
-2.321002 -31.117282 4.201680
-2.438883 -31.247665 4.201680
-2.651002 -31.247665 4.468235
-2.684523 -31.271042 4.468235
-3.048043 -31.390779 4.468235
-3.411564 -31.370326 4.468235
-3.775084 -31.255442 4.468235
-3.791414 -31.247665 4.468235
-4.138605 -31.051250 4.468235
-4.377586 -30.905392 4.468235
-4.502125 -30.810679 4.468235
-4.826957 -30.563119 4.468235
-4.865646 -30.526619 4.468235
-5.188232 -30.220847 4.468235
-5.229166 -30.176053 4.468235
-5.485225 -29.878574 4.468235
-5.592687 -29.748025 4.468235
-5.746187 -29.536301 4.468235
-5.956207 -29.251571 4.468235
-5.992089 -29.194028 4.468235
-6.200725 -28.851756 4.468235
-6.319728 -28.630347 4.468235
-6.374115 -28.509483 4.468235
-6.474956 -28.167210 4.468235
-6.499268 -27.824937 4.468235
-6.440987 -27.482664 4.468235
-6.319728 -27.142294 4.468235
-6.318942 -27.140392 4.468235
-6.134316 -26.798119 4.468235
-5.956207 -26.482974 4.468235
-5.938351 -26.455846 4.468235
-5.704094 -26.113573 4.468235
-5.592687 -25.960643 4.468235
-5.418814 -25.771301 4.468235
-5.229166 -25.599424 4.468235
-4.977437 -25.429028 4.468235
-4.865646 -25.369842 4.468235
-4.502125 -25.225826 4.468235
-4.138605 -25.121685 4.468235
-3.945654 -25.086755 4.468235
-3.775084 -25.060683 4.468235
-3.411564 -25.044620 4.468235
-3.048043 -25.079132 4.468235
-3.016706 -25.086755 4.468235
-2.684523 -25.199045 4.468235
-2.321002 -25.398355 4.468235
-2.274882 -25.429028 4.468235
-1.957482 -25.768502 4.468235
-1.954970 -25.771301 4.468235
-1.802962 -26.113573 4.468235
-1.776623 -26.455846 4.468235
-1.837553 -26.798119 4.468235
-1.947914 -27.140392 4.468235
-1.957482 -27.165507 4.468235
-2.044851 -27.482664 4.468235
-2.131333 -27.824937 4.468235
-2.201512 -28.167210 4.468235
-2.247415 -28.509483 4.468235
-2.260240 -28.851756 4.468235
-2.235407 -29.194028 4.468235
-2.182208 -29.536301 4.468235
-2.129012 -29.878574 4.468235
-2.114659 -30.220847 4.468235
-2.172443 -30.563119 4.468235
-2.321002 -30.902597 4.468235
-2.322432 -30.905392 4.468235
-2.651002 -31.247665 4.468235
2.404764 -27.890489 4.734789
2.157072 -27.824937 4.734789
2.404764 -27.642676 4.734789
-2.586903 -30.905392 4.734789
-2.684523 -30.996518 4.734789
-3.048043 -31.173848 4.734789
-3.411564 -31.174832 4.734789
-3.775084 -31.061897 4.734789
-4.110883 -30.905392 4.734789
-4.138605 -30.890207 4.734789
-4.502125 -30.651773 4.734789
-4.631256 -30.563119 4.734789
-4.865646 -30.370504 4.734789
-5.036796 -30.220847 4.734789
-5.229166 -30.026736 4.734789
-5.360721 -29.878574 4.734789
-5.592687 -29.593841 4.734789
-5.633170 -29.536301 4.734789
-5.864994 -29.194028 4.734789
-5.956207 -29.049587 4.734789
-6.064611 -28.851756 4.734789
-6.223340 -28.509483 4.734789
-6.319728 -28.197701 4.734789
-6.328041 -28.167210 4.734789
-6.357175 -27.824937 4.734789
-6.319728 -27.500266 4.734789
-6.317486 -27.482664 4.734789
-6.209714 -27.140392 4.734789
-6.061402 -26.798119 4.734789
-5.956207 -26.586830 4.734789
-5.881515 -26.455846 4.734789
-5.664863 -26.113573 4.734789
-5.592687 -26.011724 4.734789
-5.376117 -25.771301 4.734789
-5.229166 -25.638025 4.734789
-4.914060 -25.429028 4.734789
-4.865646 -25.403485 4.734789
-4.502125 -25.259696 4.734789
-4.138605 -25.158714 4.734789
-3.775084 -25.094943 4.734789
-3.627215 -25.086755 4.734789
-3.411564 -25.076017 4.734789
-3.270483 -25.086755 4.734789
-3.048043 -25.108574 4.734789
-2.684523 -25.210597 4.734789
-2.321002 -25.379301 4.734789
-2.233673 -25.429028 4.734789
-1.957482 -25.664387 4.734789
-1.839296 -25.771301 4.734789
-1.625537 -26.113573 4.734789
-1.593961 -26.254476 4.734789
-1.539318 -26.455846 4.734789
-1.564256 -26.798119 4.734789
-1.593961 -26.882367 4.734789
-1.653206 -27.140392 4.734789
-1.761061 -27.482664 4.734789
-1.879846 -27.824937 4.734789
-1.957482 -28.048486 4.734789
-1.986107 -28.167210 4.734789
-2.062150 -28.509483 4.734789
-2.126068 -28.851756 4.734789
-2.172032 -29.194028 4.734789
-2.199377 -29.536301 4.734789
-2.220647 -29.878574 4.734789
-2.263317 -30.220847 4.734789
-2.321002 -30.421569 4.734789
-2.365949 -30.563119 4.734789
-2.586903 -30.905392 4.734789
2.404764 -27.948080 5.001344
2.041243 -27.879793 5.001344
1.677723 -27.842863 5.001344
1.314202 -27.850872 5.001344
0.950682 -27.905957 5.001344
0.587161 -27.972977 5.001344
0.223641 -27.956954 5.001344
-0.037552 -27.824937 5.001344
0.005556 -27.482664 5.001344
0.223641 -27.451817 5.001344
0.578452 -27.482664 5.001344
0.587161 -27.484759 5.001344
0.950682 -27.658577 5.001344
1.314202 -27.770185 5.001344
1.677723 -27.784475 5.001344
2.041243 -27.693197 5.001344
2.404764 -27.517137 5.001344
-3.199731 -30.905392 5.001344
-3.411564 -30.923882 5.001344
-3.496679 -30.905392 5.001344
-3.775084 -30.839976 5.001344
-4.138605 -30.682649 5.001344
-4.357543 -30.563119 5.001344
-4.502125 -30.476664 5.001344
-4.862504 -30.220847 5.001344
-4.865646 -30.218427 5.001344
-5.229166 -29.885513 5.001344
-5.235648 -29.878574 5.001344
-5.525845 -29.536301 5.001344
-5.592687 -29.449382 5.001344
-5.762626 -29.194028 5.001344
-5.956207 -28.860416 5.001344
-5.960691 -28.851756 5.001344
-6.109245 -28.509483 5.001344
-6.208093 -28.167210 5.001344
-6.245817 -27.824937 5.001344
-6.219638 -27.482664 5.001344
-6.136653 -27.140392 5.001344
-6.009922 -26.798119 5.001344
-5.956207 -26.680080 5.001344
-5.840951 -26.455846 5.001344
-5.629787 -26.113573 5.001344
-5.592687 -26.061279 5.001344
-5.328745 -25.771301 5.001344
-5.229166 -25.682638 5.001344
-4.865646 -25.448830 5.001344
-4.822535 -25.429028 5.001344
-4.502125 -25.303678 5.001344
-4.138605 -25.205896 5.001344
-3.775084 -25.145458 5.001344
-3.411564 -25.124510 5.001344
-3.048043 -25.151422 5.001344
-2.684523 -25.234784 5.001344
-2.321002 -25.373894 5.001344
-2.204659 -25.429028 5.001344
-1.957482 -25.592792 5.001344
-1.710938 -25.771301 5.001344
-1.593961 -25.906456 5.001344
-1.403009 -26.113573 5.001344
-1.230441 -26.440157 5.001344
-1.219909 -26.455846 5.001344
-1.119496 -26.798119 5.001344
-1.182487 -27.140392 5.001344
-1.230441 -27.190033 5.001344
-1.352169 -27.482664 5.001344
-1.566657 -27.824937 5.001344
-1.593961 -27.861196 5.001344
-1.708297 -28.167210 5.001344
-1.846627 -28.509483 5.001344
-1.957482 -28.775684 5.001344
-1.980859 -28.851756 5.001344
-2.084733 -29.194028 5.001344
-2.189566 -29.536301 5.001344
-2.298023 -29.878574 5.001344
-2.321002 -29.943027 5.001344
-2.427497 -30.220847 5.001344
-2.622102 -30.563119 5.001344
-2.684523 -30.636594 5.001344
-3.048043 -30.885971 5.001344
-3.199731 -30.905392 5.001344
2.404764 -27.871508 5.267899
2.041243 -27.829225 5.267899
1.677723 -27.834554 5.267899
1.314202 -27.908467 5.267899
0.950682 -28.057237 5.267899
0.712981 -28.167210 5.267899
0.587161 -28.199213 5.267899
0.223641 -28.249984 5.267899
-0.139880 -28.211744 5.267899
-0.268525 -28.167210 5.267899
-0.503400 -28.027061 5.267899
-0.866920 -27.873923 5.267899
-1.230441 -27.973999 5.267899
-1.370454 -28.167210 5.267899
-1.593961 -28.426970 5.267899
-1.631021 -28.509483 5.267899
-1.806351 -28.851756 5.267899
-1.957482 -29.115405 5.267899
-1.993024 -29.194028 5.267899
-2.161347 -29.536301 5.267899
-2.321002 -29.821277 5.267899
-2.355314 -29.878574 5.267899
-2.589679 -30.220847 5.267899
-2.684523 -30.332582 5.267899
-2.995960 -30.563119 5.267899
-3.048043 -30.592699 5.267899
-3.411564 -30.664564 5.267899
-3.775084 -30.620485 5.267899
-3.945062 -30.563119 5.267899
-4.138605 -30.498959 5.267899
-4.502125 -30.318141 5.267899
-4.655856 -30.220847 5.267899
-4.865646 -30.079956 5.267899
-5.103676 -29.878574 5.267899
-5.229166 -29.762234 5.267899
-5.429872 -29.536301 5.267899
-5.592687 -29.326310 5.267899
-5.681686 -29.194028 5.267899
-5.879366 -28.851756 5.267899
-5.956207 -28.680695 5.267899
-6.029115 -28.509483 5.267899
-6.128357 -28.167210 5.267899
-6.171491 -27.824937 5.267899
-6.157106 -27.482664 5.267899
-6.088778 -27.140392 5.267899
-5.973528 -26.798119 5.267899
-5.956207 -26.758090 5.267899
-5.810136 -26.455846 5.267899
-5.595150 -26.113573 5.267899
-5.592687 -26.110185 5.267899
-5.273585 -25.771301 5.267899
-5.229166 -25.732994 5.267899
-4.865646 -25.503238 5.267899
-4.692649 -25.429028 5.267899
-4.502125 -25.356571 5.267899
-4.138605 -25.261448 5.267899
-3.775084 -25.204136 5.267899
-3.411564 -25.183720 5.267899
-3.048043 -25.204883 5.267899
-2.684523 -25.272971 5.267899
-2.321002 -25.386710 5.267899
-2.211704 -25.429028 5.267899
-1.957482 -25.558944 5.267899
-1.593961 -25.770502 5.267899
-1.592629 -25.771301 5.267899
-1.230441 -26.073174 5.267899
-1.181181 -26.113573 5.267899
-0.866920 -26.442782 5.267899
-0.852931 -26.455846 5.267899
-0.503400 -26.779583 5.267899
-0.477429 -26.798119 5.267899
-0.139880 -27.007856 5.267899
0.193653 -27.140392 5.267899
0.223641 -27.153113 5.267899
0.587161 -27.326578 5.267899
0.950682 -27.450404 5.267899
1.081794 -27.482664 5.267899
1.314202 -27.660690 5.267899
1.677723 -27.805285 5.267899
2.041243 -27.815757 5.267899
2.404764 -27.721958 5.267899
-2.756341 -30.220847 5.534453
-3.048043 -30.395687 5.534453
-3.411564 -30.476473 5.534453
-3.775084 -30.453154 5.534453
-4.138605 -30.353646 5.534453
-4.432880 -30.220847 5.534453
-4.502125 -30.190549 5.534453
-4.865646 -29.965900 5.534453
-4.975080 -29.878574 5.534453
-5.229166 -29.656163 5.534453
-5.340365 -29.536301 5.534453
-5.592687 -29.218008 5.534453
-5.609304 -29.194028 5.534453
-5.816046 -28.851756 5.534453
-5.956207 -28.534425 5.534453
-5.966977 -28.509483 5.534453
-6.071164 -28.167210 5.534453
-6.120096 -27.824937 5.534453
-6.113781 -27.482664 5.534453
-6.053882 -27.140392 5.534453
-5.956207 -26.836088 5.534453
-5.943378 -26.798119 5.534453
-5.780509 -26.455846 5.534453
-5.592687 -26.165619 5.534453
-5.550972 -26.113573 5.534453
-5.229166 -25.792595 5.534453
-5.199332 -25.771301 5.534453
-4.865646 -25.565011 5.534453
-4.524152 -25.429028 5.534453
-4.502125 -25.420934 5.534453
-4.138605 -25.327788 5.534453
-3.775084 -25.273622 5.534453
-3.411564 -25.254880 5.534453
-3.048043 -25.273066 5.534453
-2.684523 -25.330493 5.534453
-2.321002 -25.424680 5.534453
-2.307053 -25.429028 5.534453
-1.957482 -25.566534 5.534453
-1.593961 -25.736690 5.534453
-1.524529 -25.771301 5.534453
-1.230441 -25.967438 5.534453
-1.019317 -26.113573 5.534453
-0.866920 -26.247034 5.534453
-0.615772 -26.455846 5.534453
-0.503400 -26.553280 5.534453
-0.172547 -26.798119 5.534453
-0.139880 -26.820589 5.534453
0.223641 -27.060047 5.534453
0.367545 -27.140392 5.534453
0.587161 -27.281864 5.534453
0.950682 -27.467527 5.534453
0.988933 -27.482664 5.534453
1.268682 -27.824937 5.534453
0.950682 -28.025783 5.534453
0.741746 -28.167210 5.534453
0.587161 -28.222879 5.534453
0.223641 -28.314219 5.534453
-0.139880 -28.323810 5.534453
-0.503400 -28.248254 5.534453
-0.866920 -28.186825 5.534453
-1.230441 -28.308266 5.534453
-1.397315 -28.509483 5.534453
-1.593961 -28.712160 5.534453
-1.672647 -28.851756 5.534453
-1.902718 -29.194028 5.534453
-1.957482 -29.267027 5.534453
-2.130072 -29.536301 5.534453
-2.321002 -29.787965 5.534453
-2.397387 -29.878574 5.534453
-2.684523 -30.172479 5.534453
-2.756341 -30.220847 5.534453
-2.941732 -30.220847 5.801008
-3.048043 -30.272991 5.801008
-3.411564 -30.349765 5.801008
-3.775084 -30.332267 5.801008
-4.138605 -30.238871 5.801008
-4.180376 -30.220847 5.801008
-4.502125 -30.088705 5.801008
-4.841181 -29.878574 5.801008
-4.865646 -29.862959 5.801008
-5.229166 -29.554045 5.801008
-5.246249 -29.536301 5.801008
-5.536524 -29.194028 5.801008
-5.592687 -29.111503 5.801008
-5.755822 -28.851756 5.801008
-5.913066 -28.509483 5.801008
-5.956207 -28.368962 5.801008
-6.020973 -28.167210 5.801008
-6.076276 -27.824937 5.801008
-6.075889 -27.482664 5.801008
-6.020369 -27.140392 5.801008
-5.956207 -26.936076 5.801008
-5.911108 -26.798119 5.801008
-5.742730 -26.455846 5.801008
-5.592687 -26.233410 5.801008
-5.491720 -26.113573 5.801008
-5.229166 -25.864547 5.801008
-5.088769 -25.771301 5.801008
-4.865646 -25.639764 5.801008
-4.502125 -25.498655 5.801008
-4.210611 -25.429028 5.801008
-4.138605 -25.411440 5.801008
-3.775084 -25.361052 5.801008
-3.411564 -25.346029 5.801008
-3.048043 -25.365051 5.801008
-2.684523 -25.417409 5.801008
-2.628159 -25.429028 5.801008
-2.321002 -25.503554 5.801008
-1.957482 -25.622878 5.801008
-1.593961 -25.764237 5.801008
-1.577162 -25.771301 5.801008
-1.230441 -25.962148 5.801008
-0.982359 -26.113573 5.801008
-0.866920 -26.202893 5.801008
-0.545855 -26.455846 5.801008
-0.503400 -26.492287 5.801008
-0.139880 -26.789333 5.801008
-0.129503 -26.798119 5.801008
0.223641 -27.077122 5.801008
0.312676 -27.140392 5.801008
0.587161 -27.369256 5.801008
0.746170 -27.482664 5.801008
0.903342 -27.824937 5.801008
0.587161 -28.114298 5.801008
0.499240 -28.167210 5.801008
0.223641 -28.257609 5.801008
-0.139880 -28.295018 5.801008
-0.503400 -28.261283 5.801008
-0.866920 -28.254579 5.801008
-1.230441 -28.429883 5.801008
-1.290217 -28.509483 5.801008
-1.593961 -28.836549 5.801008
-1.602661 -28.851756 5.801008
-1.842837 -29.194028 5.801008
-1.957482 -29.329806 5.801008
-2.112416 -29.536301 5.801008
-2.321002 -29.767194 5.801008
-2.437332 -29.878574 5.801008
-2.684523 -30.085963 5.801008
-2.941732 -30.220847 5.801008
-3.244215 -30.220847 6.067563
-3.411564 -30.251553 6.067563
-3.775084 -30.232027 6.067563
-3.817380 -30.220847 6.067563
-4.138605 -30.146360 6.067563
-4.502125 -29.993125 6.067563
-4.688557 -29.878574 6.067563
-4.865646 -29.767289 6.067563
-5.139497 -29.536301 6.067563
-5.229166 -29.450597 6.067563
-5.454905 -29.194028 6.067563
-5.592687 -28.995900 6.067563
-5.686670 -28.851756 6.067563
-5.855583 -28.509483 6.067563
-5.956207 -28.193259 6.067563
-5.965100 -28.167210 6.067563
-6.027696 -27.824937 6.067563
-6.031953 -27.482664 6.067563
-5.977748 -27.140392 6.067563
-5.956207 -27.071711 6.067563
-5.867495 -26.798119 6.067563
-5.686936 -26.455846 6.067563
-5.592687 -26.322762 6.067563
-5.405509 -26.113573 6.067563
-5.229166 -25.955205 6.067563
-4.929351 -25.771301 6.067563
-4.865646 -25.735712 6.067563
-4.502125 -25.595172 6.067563
-4.138605 -25.513414 6.067563
-3.775084 -25.473319 6.067563
-3.411564 -25.466898 6.067563
-3.048043 -25.491554 6.067563
-2.684523 -25.547421 6.067563
-2.321002 -25.633840 6.067563
-1.957482 -25.744731 6.067563
-1.873992 -25.771301 6.067563
-1.593961 -25.889887 6.067563
-1.230441 -26.065653 6.067563
-1.144232 -26.113573 6.067563
-0.866920 -26.311337 6.067563
-0.682413 -26.455846 6.067563
-0.503400 -26.614801 6.067563
-0.301523 -26.798119 6.067563
-0.139880 -26.948986 6.067563
0.067892 -27.140392 6.067563
0.223641 -27.312804 6.067563
0.374743 -27.482664 6.067563
0.416919 -27.824937 6.067563
0.223641 -27.979878 6.067563
-0.139880 -28.091090 6.067563
-0.503400 -28.093318 6.067563
-0.866920 -28.149071 6.067563
-0.888088 -28.167210 6.067563
-1.230441 -28.386867 6.067563
-1.310398 -28.509483 6.067563
-1.593961 -28.845565 6.067563
-1.597328 -28.851756 6.067563
-1.836150 -29.194028 6.067563
-1.957482 -29.332227 6.067563
-2.122332 -29.536301 6.067563
-2.321002 -29.736173 6.067563
-2.490950 -29.878574 6.067563
-2.684523 -30.021045 6.067563
-3.048043 -30.185711 6.067563
-3.244215 -30.220847 6.067563
-2.574879 -29.878574 6.334117
-2.684523 -29.952815 6.334117
-3.048043 -30.110175 6.334117
-3.411564 -30.167411 6.334117
-3.775084 -30.146197 6.334117
-4.138605 -30.055369 6.334117
-4.502125 -29.889509 6.334117
-4.519715 -29.878574 6.334117
-4.865646 -29.660510 6.334117
-5.013916 -29.536301 6.334117
-5.229166 -29.332904 6.334117
-5.354343 -29.194028 6.334117
-5.592687 -28.859936 6.334117
-5.598247 -28.851756 6.334117
-5.783836 -28.509483 6.334117
-5.901769 -28.167210 6.334117
-5.956207 -27.862648 6.334117
-5.963893 -27.824937 6.334117
-5.971920 -27.482664 6.334117
-5.956207 -27.381601 6.334117
-5.920000 -27.140392 6.334117
-5.802958 -26.798119 6.334117
-5.601879 -26.455846 6.334117
-5.592687 -26.443542 6.334117
-5.276073 -26.113573 6.334117
-5.229166 -26.073902 6.334117
-4.865646 -25.854023 6.334117
-4.636181 -25.771301 6.334117
-4.502125 -25.722459 6.334117
-4.138605 -25.645573 6.334117
-3.775084 -25.615453 6.334117
-3.411564 -25.623517 6.334117
-3.048043 -25.666487 6.334117
-2.684523 -25.742998 6.334117
-2.573234 -25.771301 6.334117
-2.321002 -25.847160 6.334117
-1.957482 -25.986756 6.334117
-1.668672 -26.113573 6.334117
-1.593961 -26.162659 6.334117
-1.230441 -26.400479 6.334117
-1.147241 -26.455846 6.334117
-0.866920 -26.741326 6.334117
-0.807761 -26.798119 6.334117
-0.577951 -27.140392 6.334117
-0.597585 -27.482664 6.334117
-0.866920 -27.657565 6.334117
-0.960763 -27.824937 6.334117
-1.230441 -28.128086 6.334117
-1.245107 -28.167210 6.334117
-1.431930 -28.509483 6.334117
-1.593961 -28.729334 6.334117
-1.653861 -28.851756 6.334117
-1.886097 -29.194028 6.334117
-1.957482 -29.276471 6.334117
-2.170367 -29.536301 6.334117
-2.321002 -29.681556 6.334117
-2.574879 -29.878574 6.334117
-2.711852 -29.878574 6.600672
-3.048043 -30.023596 6.600672
-3.411564 -30.078962 6.600672
-3.775084 -30.052267 6.600672
-4.138605 -29.950595 6.600672
-4.288688 -29.878574 6.600672
-4.502125 -29.781110 6.600672
-4.859675 -29.536301 6.600672
-4.865646 -29.531925 6.600672
-5.225423 -29.194028 6.600672
-5.229166 -29.189756 6.600672
-5.494353 -28.851756 6.600672
-5.592687 -28.677555 6.600672
-5.688513 -28.509483 6.600672
-5.819179 -28.167210 6.600672
-5.886642 -27.824937 6.600672
-5.894805 -27.482664 6.600672
-5.839078 -27.140392 6.600672
-5.706267 -26.798119 6.600672
-5.592687 -26.615290 6.600672
-5.471028 -26.455846 6.600672
-5.229166 -26.224794 6.600672
-5.055338 -26.113573 6.600672
-4.865646 -26.004937 6.600672
-4.502125 -25.879373 6.600672
-4.138605 -25.820201 6.600672
-3.775084 -25.809236 6.600672
-3.411564 -25.838848 6.600672
-3.048043 -25.908954 6.600672
-2.684523 -26.025970 6.600672
-2.475822 -26.113573 6.600672
-2.321002 -26.193935 6.600672
-1.957482 -26.441361 6.600672
-1.936153 -26.455846 6.600672
-1.631367 -26.798119 6.600672
-1.593961 -26.888142 6.600672
-1.464027 -27.140392 6.600672
-1.407949 -27.482664 6.600672
-1.428063 -27.824937 6.600672
-1.507085 -28.167210 6.600672
-1.593961 -28.375057 6.600672
-1.628482 -28.509483 6.600672
-1.772370 -28.851756 6.600672
-1.957482 -29.140838 6.600672
-1.987929 -29.194028 6.600672
-2.265563 -29.536301 6.600672
-2.321002 -29.589571 6.600672
-2.684523 -29.865656 6.600672
-2.711852 -29.878574 6.600672
-2.969068 -29.878574 6.867227
-3.048043 -29.910840 6.867227
-3.411564 -29.968196 6.867227
-3.775084 -29.935552 6.867227
-3.955787 -29.878574 6.867227
-4.138605 -29.826928 6.867227
-4.502125 -29.647883 6.867227
-4.661272 -29.536301 6.867227
-4.865646 -29.384145 6.867227
-5.068621 -29.194028 6.867227
-5.229166 -29.012873 6.867227
-5.359002 -28.851756 6.867227
-5.562962 -28.509483 6.867227
-5.592687 -28.434775 6.867227
-5.706272 -28.167210 6.867227
-5.780992 -27.824937 6.867227
-5.787984 -27.482664 6.867227
-5.720857 -27.140392 6.867227
-5.592687 -26.857009 6.867227
-5.561544 -26.798119 6.867227
-5.268782 -26.455846 6.867227
-5.229166 -26.420852 6.867227
-4.865646 -26.199253 6.867227
-4.593614 -26.113573 6.867227
-4.502125 -26.084590 6.867227
-4.138605 -26.037941 6.867227
-3.775084 -26.052733 6.867227
-3.466296 -26.113573 6.867227
-3.411564 -26.123626 6.867227
-3.048043 -26.239276 6.867227
-2.684523 -26.433126 6.867227
-2.648610 -26.455846 6.867227
-2.321002 -26.725284 6.867227
-2.246005 -26.798119 6.867227
-2.010371 -27.140392 6.867227
-1.957482 -27.274277 6.867227
-1.864265 -27.482664 6.867227
-1.791730 -27.824937 6.867227
-1.785384 -28.167210 6.867227
-1.838756 -28.509483 6.867227
-1.957482 -28.843280 6.867227
-1.959953 -28.851756 6.867227
-2.130315 -29.194028 6.867227
-2.321002 -29.435322 6.867227
-2.416199 -29.536301 6.867227
-2.684523 -29.749134 6.867227
-2.969068 -29.878574 6.867227
-2.640367 -29.536301 7.133781
-2.684523 -29.572449 7.133781
-3.048043 -29.762599 7.133781
-3.411564 -29.824471 7.133781
-3.775084 -29.791920 7.133781
-4.138605 -29.677324 7.133781
-4.397495 -29.536301 7.133781
-4.502125 -29.478860 7.133781
-4.865646 -29.194950 7.133781
-4.866631 -29.194028 7.133781
-5.180824 -28.851756 7.133781
-5.229166 -28.781599 7.133781
-5.408090 -28.509483 7.133781
-5.553801 -28.167210 7.133781
-5.592687 -27.986662 7.133781
-5.631819 -27.824937 7.133781
-5.633838 -27.482664 7.133781
-5.592687 -27.312128 7.133781
-5.546920 -27.140392 7.133781
-5.339059 -26.798119 7.133781
-5.229166 -26.683752 7.133781
-4.881059 -26.455846 7.133781
-4.865646 -26.447490 7.133781
-4.502125 -26.337506 7.133781
-4.138605 -26.314924 7.133781
-3.775084 -26.363762 7.133781
-3.495498 -26.455846 7.133781
-3.411564 -26.482641 7.133781
-3.048043 -26.668824 7.133781
-2.872159 -26.798119 7.133781
-2.684523 -26.966509 7.133781
-2.523950 -27.140392 7.133781
-2.321002 -27.467698 7.133781
-2.311709 -27.482664 7.133781
-2.165766 -27.824937 7.133781
-2.101163 -28.167210 7.133781
-2.103244 -28.509483 7.133781
-2.176580 -28.851756 7.133781
-2.321002 -29.154476 7.133781
-2.341468 -29.194028 7.133781
-2.640367 -29.536301 7.133781
-3.035816 -29.536301 7.400336
-3.048043 -29.543107 7.400336
-3.411564 -29.630374 7.400336
-3.775084 -29.600966 7.400336
-3.958730 -29.536301 7.400336
-4.138605 -29.475622 7.400336
-4.502125 -29.262886 7.400336
-4.588444 -29.194028 7.400336
-4.865646 -28.942120 7.400336
-4.949672 -28.851756 7.400336
-5.194522 -28.509483 7.400336
-5.229166 -28.435661 7.400336
-5.355060 -28.167210 7.400336
-5.429850 -27.824937 7.400336
-5.413757 -27.482664 7.400336
-5.280180 -27.140392 7.400336
-5.229166 -27.071453 7.400336
-4.908227 -26.798119 7.400336
-4.865646 -26.772806 7.400336
-4.502125 -26.668152 7.400336
-4.138605 -26.670412 7.400336
-3.775084 -26.761120 7.400336
-3.696759 -26.798119 7.400336
-3.411564 -26.935198 7.400336
-3.133671 -27.140392 7.400336
-3.048043 -27.215861 7.400336
-2.807333 -27.482664 7.400336
-2.684523 -27.677760 7.400336
-2.596339 -27.824937 7.400336
-2.473492 -28.167210 7.400336
-2.431604 -28.509483 7.400336
-2.474979 -28.851756 7.400336
-2.631839 -29.194028 7.400336
-2.684523 -29.259982 7.400336
-3.035816 -29.536301 7.400336
-3.138887 -29.194028 7.666891
-3.411564 -29.319270 7.666891
-3.775084 -29.317270 7.666891
-4.136755 -29.194028 7.666891
-4.138605 -29.193358 7.666891
-4.502125 -28.945783 7.666891
-4.604501 -28.851756 7.666891
-4.865646 -28.546463 7.666891
-4.893381 -28.509483 7.666891
-5.056859 -28.167210 7.666891
-5.116230 -27.824937 7.666891
-5.036369 -27.482664 7.666891
-4.865646 -27.274580 7.666891
-4.581086 -27.140392 7.666891
-4.502125 -27.116731 7.666891
-4.138605 -27.137191 7.666891
-4.130128 -27.140392 7.666891
-3.775084 -27.278175 7.666891
-3.471143 -27.482664 7.666891
-3.411564 -27.531480 7.666891
-3.148150 -27.824937 7.666891
-3.048043 -27.990207 7.666891
-2.952192 -28.167210 7.666891
-2.867277 -28.509483 7.666891
-2.898523 -28.851756 7.666891
-3.048043 -29.115931 7.666891
-3.138887 -29.194028 7.666891
-3.681943 -28.509483 7.933445
-3.775084 -28.633765 7.933445
-4.138605 -28.583652 7.933445
-4.225373 -28.509483 7.933445
-4.406412 -28.167210 7.933445
-4.138605 -27.964831 7.933445
-3.775084 -28.161684 7.933445
-3.770209 -28.167210 7.933445
-3.681943 -28.509483 7.933445
