ply
format ascii 1.0
element vertex 1610
property float x
property float y
property float z
end_header
-3.618270 -28.167210 0.203360
-3.775084 -28.245699 0.203360
-4.138605 -28.332303 0.203360
-4.502125 -28.249224 0.203360
-4.581314 -28.167210 0.203360
-4.641854 -27.824937 0.203360
-4.502125 -27.582838 0.203360
-4.269772 -27.482664 0.203360
-4.138605 -27.452980 0.203360
-3.933047 -27.482664 0.203360
-3.775084 -27.555473 0.203360
-3.509924 -27.824937 0.203360
-3.618270 -28.167210 0.203360
-3.288827 -28.509483 0.469915
-3.411564 -28.563358 0.469915
-3.775084 -28.680833 0.469915
-4.138605 -28.739955 0.469915
-4.502125 -28.722001 0.469915
-4.865646 -28.591663 0.469915
-4.957834 -28.509483 0.469915
-5.202835 -28.167210 0.469915
-5.229166 -27.914956 0.469915
-5.233170 -27.824937 0.469915
-5.229166 -27.809787 0.469915
-5.049414 -27.482664 0.469915
-4.865646 -27.277119 0.469915
-4.594460 -27.140392 0.469915
-4.502125 -27.104184 0.469915
-4.138605 -27.081426 0.469915
-3.775084 -27.130834 0.469915
-3.734814 -27.140392 0.469915
-3.411564 -27.315362 0.469915
-3.179625 -27.482664 0.469915
-3.048043 -27.746499 0.469915
-3.013207 -27.824937 0.469915
-3.026056 -28.167210 0.469915
-3.048043 -28.202703 0.469915
-3.288827 -28.509483 0.469915
-3.075277 -28.851756 0.736470
-3.411564 -28.950325 0.736470
-3.775084 -29.009424 0.736470
-4.138605 -29.035993 0.736470
-4.502125 -29.025907 0.736470
-4.865646 -28.955592 0.736470
-5.080688 -28.851756 0.736470
-5.229166 -28.763118 0.736470
-5.442888 -28.509483 0.736470
-5.592687 -28.247361 0.736470
-5.617571 -28.167210 0.736470
-5.628206 -27.824937 0.736470
-5.592687 -27.684614 0.736470
-5.496729 -27.482664 0.736470
-5.241178 -27.140392 0.736470
-5.229166 -27.127053 0.736470
-4.865646 -26.913969 0.736470
-4.502125 -26.808881 0.736470
-4.199443 -26.798119 0.736470
-4.138605 -26.796437 0.736470
-4.118743 -26.798119 0.736470
-3.775084 -26.856936 0.736470
-3.411564 -26.982819 0.736470
-3.096588 -27.140392 0.736470
-3.048043 -27.194828 0.736470
-2.825092 -27.482664 0.736470
-2.702029 -27.824937 0.736470
-2.684523 -28.008692 0.736470
-2.672481 -28.167210 0.736470
-2.684523 -28.231738 0.736470
-2.752885 -28.509483 0.736470
-3.048043 -28.830937 0.736470
-3.075277 -28.851756 0.736470
-2.882390 -29.194028 1.003024
-3.048043 -29.254106 1.003024
-3.411564 -29.311185 1.003024
-3.775084 -29.319902 1.003024
-4.138605 -29.310236 1.003024
-4.502125 -29.287445 1.003024
-4.865646 -29.234511 1.003024
-4.983526 -29.194028 1.003024
-5.229166 -29.096917 1.003024
-5.575786 -28.851756 1.003024
-5.592687 -28.837999 1.003024
-5.816693 -28.509483 1.003024
-5.956207 -28.213806 1.003024
-5.969562 -28.167210 1.003024
-5.978293 -27.824937 1.003024
-5.956207 -27.734518 1.003024
-5.852704 -27.482664 1.003024
-5.627565 -27.140392 1.003024
-5.592687 -27.095212 1.003024
-5.229166 -26.798817 1.003024
-5.227548 -26.798119 1.003024
-4.865646 -26.651005 1.003024
-4.502125 -26.584144 1.003024
-4.138605 -26.578002 1.003024
-3.775084 -26.618241 1.003024
-3.411564 -26.701554 1.003024
-3.137088 -26.798119 1.003024
-3.048043 -26.865138 1.003024
-2.758124 -27.140392 1.003024
-2.684523 -27.279979 1.003024
-2.594492 -27.482664 1.003024
-2.501898 -27.824937 1.003024
-2.443928 -28.167210 1.003024
-2.439641 -28.509483 1.003024
-2.539871 -28.851756 1.003024
-2.684523 -29.029464 1.003024
-2.882390 -29.194028 1.003024
-2.676121 -29.536301 1.269579
-2.684523 -29.540905 1.269579
-3.048043 -29.649158 1.269579
-3.411564 -29.667077 1.269579
-3.775084 -29.632150 1.269579
-4.138605 -29.585486 1.269579
-4.502125 -29.539700 1.269579
-4.521174 -29.536301 1.269579
-4.865646 -29.463081 1.269579
-5.229166 -29.347276 1.269579
-5.513798 -29.194028 1.269579
-5.592687 -29.149143 1.269579
-5.903003 -28.851756 1.269579
-5.956207 -28.795301 1.269579
-6.123392 -28.509483 1.269579
-6.257217 -28.167210 1.269579
-6.270158 -27.824937 1.269579
-6.151772 -27.482664 1.269579
-5.956207 -27.141835 1.269579
-5.954869 -27.140392 1.269579
-5.606537 -26.798119 1.269579
-5.592687 -26.784045 1.269579
-5.229166 -26.559255 1.269579
-4.954956 -26.455846 1.269579
-4.865646 -26.424108 1.269579
-4.502125 -26.370829 1.269579
-4.138605 -26.359753 1.269579
-3.775084 -26.379402 1.269579
-3.411564 -26.431433 1.269579
-3.311426 -26.455846 1.269579
-3.048043 -26.586779 1.269579
-2.755201 -26.798119 1.269579
-2.684523 -26.903624 1.269579
-2.551697 -27.140392 1.269579
-2.437654 -27.482664 1.269579
-2.345154 -27.824937 1.269579
-2.321002 -27.917155 1.269579
-2.271536 -28.167210 1.269579
-2.223490 -28.509483 1.269579
-2.232598 -28.851756 1.269579
-2.321002 -29.135806 1.269579
-2.343932 -29.194028 1.269579
-2.676121 -29.536301 1.269579
-2.578724 -29.878574 1.536134
-2.684523 -29.932805 1.536134
-3.048043 -30.024206 1.536134
-3.411564 -30.014365 1.536134
-3.775084 -29.945884 1.536134
-4.074539 -29.878574 1.536134
-4.138605 -29.859080 1.536134
-4.502125 -29.755278 1.536134
-4.865646 -29.667554 1.536134
-5.229166 -29.562537 1.536134
-5.283140 -29.536301 1.536134
-5.592687 -29.379280 1.536134
-5.829765 -29.194028 1.536134
-5.956207 -29.095179 1.536134
-6.158127 -28.851756 1.536134
-6.319728 -28.638025 1.536134
-6.387196 -28.509483 1.536134
-6.499835 -28.167210 1.536134
-6.511374 -27.824937 1.536134
-6.412625 -27.482664 1.536134
-6.319728 -27.304649 1.536134
-6.195283 -27.140392 1.536134
-5.956207 -26.856610 1.536134
-5.881764 -26.798119 1.536134
-5.592687 -26.558173 1.536134
-5.404565 -26.455846 1.536134
-5.229166 -26.356476 1.536134
-4.865646 -26.238520 1.536134
-4.502125 -26.173217 1.536134
-4.138605 -26.144394 1.536134
-3.775084 -26.148968 1.536134
-3.411564 -26.201427 1.536134
-3.048043 -26.324971 1.536134
-2.809587 -26.455846 1.536134
-2.684523 -26.597209 1.536134
-2.541051 -26.798119 1.536134
-2.413274 -27.140392 1.536134
-2.326551 -27.482664 1.536134
-2.321002 -27.503722 1.536134
-2.250172 -27.824937 1.536134
-2.156588 -28.167210 1.536134
-2.064907 -28.509483 1.536134
-2.019409 -28.851756 1.536134
-2.063623 -29.194028 1.536134
-2.221222 -29.536301 1.536134
-2.321002 -29.646636 1.536134
-2.578724 -29.878574 1.536134
-2.541942 -30.220847 1.802688
-2.684523 -30.290179 1.802688
-3.048043 -30.368794 1.802688
-3.411564 -30.342043 1.802688
-3.775084 -30.252520 1.802688
-3.875765 -30.220847 1.802688
-4.138605 -30.109433 1.802688
-4.502125 -29.979981 1.802688
-4.849254 -29.878574 1.802688
-4.865646 -29.872975 1.802688
-5.229166 -29.736113 1.802688
-5.592687 -29.568461 1.802688
-5.636965 -29.536301 1.802688
-5.956207 -29.309970 1.802688
-6.067569 -29.194028 1.802688
-6.319728 -28.937561 1.802688
-6.379911 -28.851756 1.802688
-6.589298 -28.509483 1.802688
-6.683248 -28.276949 1.802688
-6.716134 -28.167210 1.802688
-6.727149 -27.824937 1.802688
-6.683248 -27.651293 1.802688
-6.623942 -27.482664 1.802688
-6.411175 -27.140392 1.802688
-6.319728 -27.015711 1.802688
-6.099421 -26.798119 1.802688
-5.956207 -26.648828 1.802688
-5.692563 -26.455846 1.802688
-5.592687 -26.374804 1.802688
-5.229166 -26.183115 1.802688
-5.024979 -26.113573 1.802688
-4.865646 -26.063037 1.802688
-4.502125 -25.999224 1.802688
-4.138605 -25.963803 1.802688
-3.775084 -25.954045 1.802688
-3.411564 -25.982741 1.802688
-3.048043 -26.070270 1.802688
-2.944467 -26.113573 1.802688
-2.684523 -26.324776 1.802688
-2.561310 -26.455846 1.802688
-2.403235 -26.798119 1.802688
-2.323217 -27.140392 1.802688
-2.321002 -27.152762 1.802688
-2.268362 -27.482664 1.802688
-2.188204 -27.824937 1.802688
-2.069820 -28.167210 1.802688
-1.957482 -28.453018 1.802688
-1.941421 -28.509483 1.802688
-1.868181 -28.851756 1.802688
-1.859567 -29.194028 1.802688
-1.938255 -29.536301 1.802688
-1.957482 -29.569217 1.802688
-2.150015 -29.878574 1.802688
-2.321002 -30.045034 1.802688
-2.541942 -30.220847 1.802688
-2.584661 -30.563119 2.069243
-2.684523 -30.609149 2.069243
-3.048043 -30.677317 2.069243
-3.411564 -30.642001 2.069243
-3.692813 -30.563119 2.069243
-3.775084 -30.530993 2.069243
-4.138605 -30.359118 2.069243
-4.478778 -30.220847 2.069243
-4.502125 -30.208693 2.069243
-4.865646 -30.042559 2.069243
-5.229166 -29.900423 2.069243
-5.273539 -29.878574 2.069243
-5.592687 -29.715186 2.069243
-5.853809 -29.536301 2.069243
-5.956207 -29.469828 2.069243
-6.248444 -29.194028 2.069243
-6.319728 -29.129124 2.069243
-6.534014 -28.851756 2.069243
-6.683248 -28.637802 2.069243
-6.751195 -28.509483 2.069243
-6.864375 -28.167210 2.069243
-6.878054 -27.824937 2.069243
-6.782231 -27.482664 2.069243
-6.683248 -27.294911 2.069243
-6.574273 -27.140392 2.069243
-6.319728 -26.828001 2.069243
-6.285548 -26.798119 2.069243
-5.956207 -26.491836 2.069243
-5.901149 -26.455846 2.069243
-5.592687 -26.227784 2.069243
-5.373566 -26.113573 2.069243
-5.229166 -26.036261 2.069243
-4.865646 -25.913253 2.069243
-4.502125 -25.827271 2.069243
-4.170047 -25.771301 2.069243
-4.138605 -25.767248 2.069243
-3.775084 -25.746453 2.069243
-3.411564 -25.759323 2.069243
-3.338737 -25.771301 2.069243
-3.048043 -25.859142 2.069243
-2.684523 -26.069468 2.069243
-2.629272 -26.113573 2.069243
-2.411368 -26.455846 2.069243
-2.321002 -26.780063 2.069243
-2.316494 -26.798119 2.069243
-2.279614 -27.140392 2.069243
-2.237539 -27.482664 2.069243
-2.153282 -27.824937 2.069243
-2.013146 -28.167210 2.069243
-1.957482 -28.276032 2.069243
-1.866603 -28.509483 2.069243
-1.753885 -28.851756 2.069243
-1.706418 -29.194028 2.069243
-1.748402 -29.536301 2.069243
-1.884483 -29.878574 2.069243
-1.957482 -29.978095 2.069243
-2.139748 -30.220847 2.069243
-2.321002 -30.378909 2.069243
-2.584661 -30.563119 2.069243
-2.774619 -30.905392 2.335798
-3.048043 -30.950208 2.335798
-3.411564 -30.911293 2.335798
-3.430716 -30.905392 2.335798
-3.775084 -30.767689 2.335798
-4.138605 -30.600492 2.335798
-4.220374 -30.563119 2.335798
-4.502125 -30.397114 2.335798
-4.865646 -30.224448 2.335798
-4.873555 -30.220847 2.335798
-5.229166 -30.033696 2.335798
-5.521119 -29.878574 2.335798
-5.592687 -29.840313 2.335798
-5.956207 -29.588676 2.335798
-6.010362 -29.536301 2.335798
-6.319728 -29.260262 2.335798
-6.374208 -29.194028 2.335798
-6.662539 -28.851756 2.335798
-6.683248 -28.824053 2.335798
-6.859257 -28.509483 2.335798
-6.983340 -28.167210 2.335798
-6.999432 -27.824937 2.335798
-6.896019 -27.482664 2.335798
-6.703646 -27.140392 2.335798
-6.683248 -27.111377 2.335798
-6.402773 -26.798119 2.335798
-6.319728 -26.702258 2.335798
-6.037199 -26.455846 2.335798
-5.956207 -26.374755 2.335798
-5.601224 -26.113573 2.335798
-5.592687 -26.106634 2.335798
-5.229166 -25.910513 2.335798
-4.883277 -25.771301 2.335798
-4.865646 -25.765104 2.335798
-4.502125 -25.680784 2.335798
-4.138605 -25.620640 2.335798
-3.775084 -25.586386 2.335798
-3.411564 -25.594927 2.335798
-3.048043 -25.670299 2.335798
-2.807762 -25.771301 2.335798
-2.684523 -25.869555 2.335798
-2.458829 -26.113573 2.335798
-2.321002 -26.439480 2.335798
-2.314862 -26.455846 2.335798
-2.272835 -26.798119 2.335798
-2.259298 -27.140392 2.335798
-2.227537 -27.482664 2.335798
-2.140846 -27.824937 2.335798
-1.983828 -28.167210 2.335798
-1.957482 -28.210849 2.335798
-1.813216 -28.509483 2.335798
-1.663536 -28.851756 2.335798
-1.593961 -29.132775 2.335798
-1.583027 -29.194028 2.335798
-1.591855 -29.536301 2.335798
-1.593961 -29.543053 2.335798
-1.697987 -29.878574 2.335798
-1.890947 -30.220847 2.335798
-1.957482 -30.296382 2.335798
-2.195307 -30.563119 2.335798
-2.321002 -30.662607 2.335798
-2.684523 -30.882846 2.335798
-2.774619 -30.905392 2.335798
-2.318208 -30.905392 2.602352
-2.321002 -30.907428 2.602352
-2.684523 -31.097328 2.602352
-3.048043 -31.168793 2.602352
-3.411564 -31.116448 2.602352
-3.775084 -30.985347 2.602352
-3.950238 -30.905392 2.602352
-4.138605 -30.794532 2.602352
-4.502125 -30.590790 2.602352
-4.556486 -30.563119 2.602352
-4.865646 -30.365166 2.602352
-5.130952 -30.220847 2.602352
-5.229166 -30.160002 2.602352
-5.592687 -29.936701 2.602352
-5.669872 -29.878574 2.602352
-5.956207 -29.671754 2.602352
-6.097365 -29.536301 2.602352
-6.319728 -29.342120 2.602352
-6.445237 -29.194028 2.602352
-6.683248 -28.922759 2.602352
-6.731691 -28.851756 2.602352
-6.932139 -28.509483 2.602352
-7.046769 -28.209185 2.602352
-7.059984 -28.167210 2.602352
-7.074061 -27.824937 2.602352
-7.046769 -27.716166 2.602352
-6.973275 -27.482664 2.602352
-6.771684 -27.140392 2.602352
-6.683248 -27.018673 2.602352
-6.478440 -26.798119 2.602352
-6.319728 -26.621094 2.602352
-6.124638 -26.455846 2.602352
-5.956207 -26.290929 2.602352
-5.714315 -26.113573 2.602352
-5.592687 -26.013820 2.602352
-5.229166 -25.797203 2.602352
-5.170324 -25.771301 2.602352
-4.865646 -25.653368 2.602352
-4.502125 -25.548602 2.602352
-4.138605 -25.466874 2.602352
-3.869342 -25.429028 2.602352
-3.775084 -25.419259 2.602352
-3.411564 -25.419882 2.602352
-3.347136 -25.429028 2.602352
-3.048043 -25.501064 2.602352
-2.684523 -25.691386 2.602352
-2.578663 -25.771301 2.602352
-2.343449 -26.113573 2.602352
-2.321002 -26.200365 2.602352
-2.261551 -26.455846 2.602352
-2.249195 -26.798119 2.602352
-2.253568 -27.140392 2.602352
-2.230127 -27.482664 2.602352
-2.143196 -27.824937 2.602352
-1.975623 -28.167210 2.602352
-1.957482 -28.194442 2.602352
-1.780733 -28.509483 2.602352
-1.598004 -28.851756 2.602352
-1.593961 -28.862435 2.602352
-1.500480 -29.194028 2.602352
-1.484103 -29.536301 2.602352
-1.555193 -29.878574 2.602352
-1.593961 -29.955488 2.602352
-1.719712 -30.220847 2.602352
-1.957482 -30.556007 2.602352
-1.962504 -30.563119 2.602352
-2.318208 -30.905392 2.602352
-2.598724 -31.247665 2.868907
-2.684523 -31.287819 2.868907
-3.048043 -31.348850 2.868907
-3.411564 -31.301112 2.868907
-3.566300 -31.247665 2.868907
-3.775084 -31.159339 2.868907
-4.138605 -30.967537 2.868907
-4.254382 -30.905392 2.868907
-4.502125 -30.735116 2.868907
-4.787892 -30.563119 2.868907
-4.865646 -30.503756 2.868907
-5.229166 -30.263468 2.868907
-5.294127 -30.220847 2.868907
-5.592687 -30.008289 2.868907
-5.753269 -29.878574 2.868907
-5.956207 -29.723824 2.868907
-6.147177 -29.536301 2.868907
-6.319728 -29.383727 2.868907
-6.480637 -29.194028 2.868907
-6.683248 -28.964294 2.868907
-6.760675 -28.851756 2.868907
-6.964637 -28.509483 2.868907
-7.046769 -28.296407 2.868907
-7.087784 -28.167210 2.868907
-7.102530 -27.824937 2.868907
-7.046769 -27.604203 2.868907
-7.008212 -27.482664 2.868907
-6.803837 -27.140392 2.868907
-6.683248 -26.975615 2.868907
-6.517796 -26.798119 2.868907
-6.319728 -26.577662 2.868907
-6.177152 -26.455846 2.868907
-5.956207 -26.236751 2.868907
-5.793739 -26.113573 2.868907
-5.592687 -25.942108 2.868907
-5.328830 -25.771301 2.868907
-5.229166 -25.710212 2.868907
-4.865646 -25.549551 2.868907
-4.524146 -25.429028 2.868907
-4.502125 -25.423001 2.868907
-4.138605 -25.350621 2.868907
-3.775084 -25.305754 2.868907
-3.411564 -25.303083 2.868907
-3.048043 -25.363807 2.868907
-2.871022 -25.429028 2.868907
-2.684523 -25.548139 2.868907
-2.441771 -25.771301 2.868907
-2.321002 -26.005829 2.868907
-2.272451 -26.113573 2.868907
-2.226532 -26.455846 2.868907
-2.235782 -26.798119 2.868907
-2.252638 -27.140392 2.868907
-2.235452 -27.482664 2.868907
-2.150619 -27.824937 2.868907
-1.979821 -28.167210 2.868907
-1.957482 -28.199331 2.868907
-1.765759 -28.509483 2.868907
-1.593961 -28.786345 2.868907
-1.561040 -28.851756 2.868907
-1.437262 -29.194028 2.868907
-1.399959 -29.536301 2.868907
-1.453675 -29.878574 2.868907
-1.592039 -30.220847 2.868907
-1.593961 -30.223563 2.868907
-1.813113 -30.563119 2.868907
-1.957482 -30.727128 2.868907
-2.116312 -30.905392 2.868907
-2.321002 -31.075702 2.868907
-2.598724 -31.247665 2.868907
-2.356607 -31.247665 3.135461
-2.684523 -31.418330 3.135461
-3.048043 -31.485454 3.135461
-3.411564 -31.432016 3.135461
-3.775084 -31.298027 3.135461
-3.878496 -31.247665 3.135461
-4.138605 -31.092719 3.135461
-4.452316 -30.905392 3.135461
-4.502125 -30.866659 3.135461
-4.865646 -30.610296 3.135461
-4.940150 -30.563119 3.135461
-5.229166 -30.337667 3.135461
-5.386506 -30.220847 3.135461
-5.592687 -30.055479 3.135461
-5.793188 -29.878574 3.135461
-5.956207 -29.744005 3.135461
-6.157146 -29.536301 3.135461
-6.319728 -29.385994 3.135461
-6.478174 -29.194028 3.135461
-6.683248 -28.955931 3.135461
-6.753892 -28.851756 3.135461
-6.954821 -28.509483 3.135461
-7.046769 -28.268336 3.135461
-7.078697 -28.167210 3.135461
-7.093568 -27.824937 3.135461
-7.046769 -27.637060 3.135461
-6.998806 -27.482664 3.135461
-6.798514 -27.140392 3.135461
-6.683248 -26.979922 3.135461
-6.518681 -26.798119 3.135461
-6.319728 -26.569919 3.135461
-6.192217 -26.455846 3.135461
-5.956207 -26.210723 3.135461
-5.836416 -26.113573 3.135461
-5.592687 -25.891723 3.135461
-5.422579 -25.771301 3.135461
-5.229166 -25.642477 3.135461
-4.865646 -25.458676 3.135461
-4.791193 -25.429028 3.135461
-4.502125 -25.340471 3.135461
-4.138605 -25.256511 3.135461
-3.775084 -25.202750 3.135461
-3.411564 -25.196186 3.135461
-3.048043 -25.261136 3.135461
-2.684523 -25.414426 3.135461
-2.661049 -25.429028 3.135461
-2.344916 -25.771301 3.135461
-2.321002 -25.831461 3.135461
-2.222416 -26.113573 3.135461
-2.199232 -26.455846 3.135461
-2.222130 -26.798119 3.135461
-2.245968 -27.140392 3.135461
-2.232758 -27.482664 3.135461
-2.152193 -27.824937 3.135461
-1.985996 -28.167210 3.135461
-1.957482 -28.208648 3.135461
-1.762450 -28.509483 3.135461
-1.593961 -28.758761 3.135461
-1.540054 -28.851756 3.135461
-1.393645 -29.194028 3.135461
-1.340025 -29.536301 3.135461
-1.381684 -29.878574 3.135461
-1.508161 -30.220847 3.135461
-1.593961 -30.356963 3.135461
-1.710846 -30.563119 3.135461
-1.957482 -30.877956 3.135461
-1.978990 -30.905392 3.135461
-2.321002 -31.222606 3.135461
-2.356607 -31.247665 3.135461
-2.245894 -31.247665 3.402016
-2.321002 -31.307372 3.402016
-2.684523 -31.511701 3.402016
-3.048043 -31.584893 3.402016
-3.411564 -31.528187 3.402016
-3.775084 -31.384666 3.402016
-4.043988 -31.247665 3.402016
-4.138605 -31.187951 3.402016
-4.502125 -30.950237 3.402016
-4.575366 -30.905392 3.402016
-4.865646 -30.676807 3.402016
-5.026918 -30.563119 3.402016
-5.229166 -30.386152 3.402016
-5.428227 -30.220847 3.402016
-5.592687 -30.072851 3.402016
-5.792293 -29.878574 3.402016
-5.956207 -29.729373 3.402016
-6.129483 -29.536301 3.402016
-6.319728 -29.347037 3.402016
-6.439431 -29.194028 3.402016
-6.683248 -28.896029 3.402016
-6.712191 -28.851756 3.402016
-6.903991 -28.509483 3.402016
-7.029817 -28.167210 3.402016
-7.046769 -27.846429 3.402016
-7.047698 -27.824937 3.402016
-7.046769 -27.821071 3.402016
-6.946894 -27.482664 3.402016
-6.757292 -27.140392 3.402016
-6.683248 -27.032602 3.402016
-6.483822 -26.798119 3.402016
-6.319728 -26.598035 3.402016
-6.173196 -26.455846 3.402016
-5.956207 -26.212608 3.402016
-5.845277 -26.113573 3.402016
-5.592687 -25.863401 3.402016
-5.475134 -25.771301 3.402016
-5.229166 -25.592681 3.402016
-4.938066 -25.429028 3.402016
-4.865646 -25.396793 3.402016
-4.502125 -25.273765 3.402016
-4.138605 -25.179672 3.402016
-3.775084 -25.118276 3.402016
-3.411564 -25.107788 3.402016
-3.048043 -25.174521 3.402016
-2.684523 -25.338017 3.402016
-2.550619 -25.429028 3.402016
-2.321002 -25.709600 3.402016
-2.278383 -25.771301 3.402016
-2.179347 -26.113573 3.402016
-2.168871 -26.455846 3.402016
-2.197479 -26.798119 3.402016
-2.222753 -27.140392 3.402016
-2.211079 -27.482664 3.402016
-2.136628 -27.824937 3.402016
-1.982800 -28.167210 3.402016
-1.957482 -28.206712 3.402016
-1.762652 -28.509483 3.402016
-1.593961 -28.753749 3.402016
-1.531932 -28.851756 3.402016
-1.369533 -29.194028 3.402016
-1.305323 -29.536301 3.402016
-1.340322 -29.878574 3.402016
-1.460427 -30.220847 3.402016
-1.593961 -30.449549 3.402016
-1.652814 -30.563119 3.402016
-1.905848 -30.905392 3.402016
-1.957482 -30.958985 3.402016
-2.245894 -31.247665 3.402016
-2.839502 -31.589938 3.668571
-3.048043 -31.626107 3.668571
-3.327570 -31.589938 3.668571
-3.411564 -31.577545 3.668571
-3.775084 -31.429849 3.668571
-4.124578 -31.247665 3.668571
-4.138605 -31.238563 3.668571
-4.502125 -30.987717 3.668571
-4.629496 -30.905392 3.668571
-4.865646 -30.707966 3.668571
-5.056482 -30.563119 3.668571
-5.229166 -30.399109 3.668571
-5.425182 -30.220847 3.668571
-5.592687 -30.053922 3.668571
-5.755983 -29.878574 3.668571
-5.956207 -29.675446 3.668571
-6.070086 -29.536301 3.668571
-6.319728 -29.262513 3.668571
-6.369354 -29.194028 3.668571
-6.623996 -28.851756 3.668571
-6.683248 -28.763138 3.668571
-6.816640 -28.509483 3.668571
-6.932731 -28.167210 3.668571
-6.949874 -27.824937 3.668571
-6.858177 -27.482664 3.668571
-6.684876 -27.140392 3.668571
-6.683248 -27.137848 3.668571
-6.420349 -26.798119 3.668571
-6.319728 -26.663898 3.668571
-6.128198 -26.455846 3.668571
-5.956207 -26.242724 3.668571
-5.827590 -26.113573 3.668571
-5.592687 -25.857849 3.668571
-5.493142 -25.771301 3.668571
-5.229166 -25.563373 3.668571
-5.009272 -25.429028 3.668571
-4.865646 -25.360273 3.668571
-4.502125 -25.227538 3.668571
-4.138605 -25.126101 3.668571
-3.918575 -25.086755 3.668571
-3.775084 -25.066595 3.668571
-3.411564 -25.056931 3.668571
-3.176216 -25.086755 3.668571
-3.048043 -25.111225 3.668571
-2.684523 -25.277629 3.668571
-2.471196 -25.429028 3.668571
-2.321002 -25.622395 3.668571
-2.223624 -25.771301 3.668571
-2.132501 -26.113573 3.668571
-2.124708 -26.455846 3.668571
-2.151287 -26.798119 3.668571
-2.172786 -27.140392 3.668571
-2.160442 -27.482664 3.668571
-2.093768 -27.824937 3.668571
-1.959457 -28.167210 3.668571
-1.957482 -28.170781 3.668571
-1.756121 -28.509483 3.668571
-1.593961 -28.757317 3.668571
-1.532572 -28.851756 3.668571
-1.364937 -29.194028 3.668571
-1.298188 -29.536301 3.668571
-1.332684 -29.878574 3.668571
-1.451656 -30.220847 3.668571
-1.593961 -30.471024 3.668571
-1.639815 -30.563119 3.668571
-1.884920 -30.905392 3.668571
-1.957482 -30.983607 3.668571
-2.209409 -31.247665 3.668571
-2.321002 -31.340127 3.668571
-2.684523 -31.555343 3.668571
-2.839502 -31.589938 3.668571
-2.900788 -31.589938 3.935125
-3.048043 -31.616955 3.935125
-3.269344 -31.589938 3.935125
-3.411564 -31.570197 3.935125
-3.775084 -31.424882 3.935125
-4.115645 -31.247665 3.935125
-4.138605 -31.232871 3.935125
-4.502125 -30.981267 3.935125
-4.617493 -30.905392 3.935125
-4.865646 -30.694519 3.935125
-5.032743 -30.563119 3.935125
-5.229166 -30.368652 3.935125
-5.382022 -30.220847 3.935125
-5.592687 -29.993529 3.935125
-5.690759 -29.878574 3.935125
-5.956207 -29.577925 3.935125
-5.987019 -29.536301 3.935125
-6.259826 -29.194028 3.935125
-6.319728 -29.122342 3.935125
-6.498375 -28.851756 3.935125
-6.683248 -28.544424 3.935125
-6.700323 -28.509483 3.935125
-6.805099 -28.167210 3.935125
-6.821717 -27.824937 3.935125
-6.741974 -27.482664 3.935125
-6.683248 -27.353907 3.935125
-6.563849 -27.140392 3.935125
-6.338591 -26.798119 3.935125
-6.319728 -26.769915 3.935125
-6.068030 -26.455846 3.935125
-5.956207 -26.300379 3.935125
-5.792771 -26.113573 3.935125
-5.592687 -25.874427 3.935125
-5.484961 -25.771301 3.935125
-5.229166 -25.555680 3.935125
-5.034185 -25.429028 3.935125
-4.865646 -25.343872 3.935125
-4.502125 -25.204503 3.935125
-4.138605 -25.099262 3.935125
-4.069553 -25.086755 3.935125
-3.775084 -25.044180 3.935125
-3.411564 -25.032850 3.935125
-3.048043 -25.078612 3.935125
-3.020749 -25.086755 3.935125
-2.684523 -25.236448 3.935125
-2.410884 -25.429028 3.935125
-2.321002 -25.541518 3.935125
-2.167511 -25.771301 3.935125
-2.071507 -26.113573 3.935125
-2.056730 -26.455846 3.935125
-2.074468 -26.798119 3.935125
-2.088220 -27.140392 3.935125
-2.074094 -27.482664 3.935125
-2.017137 -27.824937 3.935125
-1.957482 -28.018309 3.935125
-1.903550 -28.167210 3.935125
-1.731784 -28.509483 3.935125
-1.593961 -28.756481 3.935125
-1.535711 -28.851756 3.935125
-1.380118 -29.194028 3.935125
-1.322917 -29.536301 3.935125
-1.364737 -29.878574 3.935125
-1.487944 -30.220847 3.935125
-1.593961 -30.401229 3.935125
-1.675989 -30.563119 3.935125
-1.917129 -30.905392 3.935125
-1.957482 -30.949222 3.935125
-2.237912 -31.247665 3.935125
-2.321002 -31.317709 3.935125
-2.684523 -31.538823 3.935125
-2.900788 -31.589938 3.935125
-2.342741 -31.247665 4.201680
-2.684523 -31.456121 4.201680
-3.048043 -31.545392 4.201680
-3.411564 -31.500979 4.201680
-3.775084 -31.365186 4.201680
-4.007307 -31.247665 4.201680
-4.138605 -31.166777 4.201680
-4.502125 -30.927117 4.201680
-4.535847 -30.905392 4.201680
-4.865646 -30.633523 4.201680
-4.955637 -30.563119 4.201680
-5.229166 -30.293364 4.201680
-5.302214 -30.220847 4.201680
-5.592687 -29.891767 4.201680
-5.603217 -29.878574 4.201680
-5.870905 -29.536301 4.201680
-5.956207 -29.433834 4.201680
-6.123283 -29.194028 4.201680
-6.319728 -28.921374 4.201680
-6.360753 -28.851756 4.201680
-6.535711 -28.509483 4.201680
-6.652841 -28.167210 4.201680
-6.674693 -27.824937 4.201680
-6.593232 -27.482664 4.201680
-6.437469 -27.140392 4.201680
-6.319728 -26.929892 4.201680
-6.232407 -26.798119 4.201680
-6.003738 -26.455846 4.201680
-5.956207 -26.381503 4.201680
-5.750233 -26.113573 4.201680
-5.592687 -25.909540 4.201680
-5.459081 -25.771301 4.201680
-5.229166 -25.568042 4.201680
-5.022379 -25.429028 4.201680
-4.865646 -25.347145 4.201680
-4.502125 -25.204282 4.201680
-4.138605 -25.098607 4.201680
-4.073115 -25.086755 4.201680
-3.775084 -25.042574 4.201680
-3.411564 -25.029562 4.201680
-3.048043 -25.071934 4.201680
-2.995840 -25.086755 4.201680
-2.684523 -25.214597 4.201680
-2.360157 -25.429028 4.201680
-2.321002 -25.472864 4.201680
-2.100855 -25.771301 4.201680
-1.987279 -26.113573 4.201680
-1.957482 -26.453783 4.201680
-1.957301 -26.455846 4.201680
-1.957482 -26.468462 4.201680
-1.961746 -26.798119 4.201680
-1.966424 -27.140392 4.201680
-1.957482 -27.346990 4.201680
-1.950721 -27.482664 4.201680
-1.899012 -27.824937 4.201680
-1.807512 -28.167210 4.201680
-1.681182 -28.509483 4.201680
-1.593961 -28.727320 4.201680
-1.532746 -28.851756 4.201680
-1.415191 -29.194028 4.201680
-1.385817 -29.536301 4.201680
-1.445808 -29.878574 4.201680
-1.579380 -30.220847 4.201680
-1.593961 -30.243443 4.201680
-1.768771 -30.563119 4.201680
-1.957482 -30.824413 4.201680
-2.013790 -30.905392 4.201680
-2.321002 -31.229531 4.201680
-2.342741 -31.247665 4.201680
-2.583647 -31.247665 4.468235
-2.684523 -31.307501 4.468235
-3.048043 -31.402627 4.468235
-3.411564 -31.371469 4.468235
-3.775084 -31.251985 4.468235
-3.784091 -31.247665 4.468235
-4.138605 -31.046483 4.468235
-4.369770 -30.905392 4.468235
-4.502125 -30.805041 4.468235
-4.821309 -30.563119 4.468235
-4.865646 -30.521539 4.468235
-5.185725 -30.220847 4.468235
-5.229166 -30.173573 4.468235
-5.485434 -29.878574 4.468235
-5.592687 -29.748707 4.468235
-5.747725 -29.536301 4.468235
-5.956207 -29.254019 4.468235
-5.993762 -29.194028 4.468235
-6.202777 -28.851756 4.468235
-6.319728 -28.633811 4.468235
-6.375743 -28.509483 4.468235
-6.476694 -28.167210 4.468235
-6.501104 -27.824937 4.468235
-6.442980 -27.482664 4.468235
-6.321176 -27.140392 4.468235
-6.319728 -27.137328 4.468235
-6.137200 -26.798119 4.468235
-5.956207 -26.477851 4.468235
-5.941755 -26.455846 4.468235
-5.707488 -26.113573 4.468235
-5.592687 -25.956227 4.468235
-5.422754 -25.771301 4.468235
-5.229166 -25.596015 4.468235
-4.982207 -25.429028 4.468235
-4.865646 -25.367304 4.468235
-4.502125 -25.223364 4.468235
-4.138605 -25.119627 4.468235
-3.954404 -25.086755 4.468235
-3.775084 -25.059606 4.468235
-3.411564 -25.044805 4.468235
-3.048043 -25.082139 4.468235
-3.030053 -25.086755 4.468235
-2.684523 -25.209477 4.468235
-2.321002 -25.423508 4.468235
-2.313390 -25.429028 4.468235
-2.016472 -25.771301 4.468235
-1.957482 -25.905660 4.468235
-1.870123 -26.113573 4.468235
-1.811744 -26.455846 4.468235
-1.795767 -26.798119 4.468235
-1.788567 -27.140392 4.468235
-1.770578 -27.482664 4.468235
-1.733271 -27.824937 4.468235
-1.675691 -28.167210 4.468235
-1.603855 -28.509483 4.468235
-1.593961 -28.560049 4.468235
-1.514644 -28.851756 4.468235
-1.468977 -29.194028 4.468235
-1.493598 -29.536301 4.468235
-1.587765 -29.878574 4.468235
-1.593961 -29.890596 4.468235
-1.732316 -30.220847 4.468235
-1.928110 -30.563119 4.468235
-1.957482 -30.600349 4.468235
-2.187472 -30.905392 4.468235
-2.321002 -31.039321 4.468235
-2.583647 -31.247665 4.468235
2.404764 -27.881672 4.734789
2.193314 -27.824937 4.734789
2.404764 -27.668219 4.734789
-2.475400 -30.905392 4.734789
-2.684523 -31.058398 4.734789
-3.048043 -31.190979 4.734789
-3.411564 -31.175415 4.734789
-3.775084 -31.057122 4.734789
-4.096147 -30.905392 4.734789
-4.138605 -30.881904 4.734789
-4.502125 -30.645041 4.734789
-4.622377 -30.563119 4.734789
-4.865646 -30.364947 4.734789
-5.032189 -30.220847 4.734789
-5.229166 -30.023866 4.734789
-5.359539 -29.878574 4.734789
-5.592687 -29.594368 4.734789
-5.633880 -29.536301 4.734789
-5.866973 -29.194028 4.734789
-5.956207 -29.052861 4.734789
-6.066829 -28.851756 4.734789
-6.225797 -28.509483 4.734789
-6.319728 -28.205583 4.734789
-6.330215 -28.167210 4.734789
-6.359531 -27.824937 4.734789
-6.320229 -27.482664 4.734789
-6.319728 -27.480918 4.734789
-6.212881 -27.140392 4.734789
-6.064733 -26.798119 4.734789
-5.956207 -26.580215 4.734789
-5.885394 -26.455846 4.734789
-5.668707 -26.113573 4.734789
-5.592687 -26.006472 4.734789
-5.380681 -25.771301 4.734789
-5.229166 -25.634004 4.734789
-4.919847 -25.429028 4.734789
-4.865646 -25.400423 4.734789
-4.502125 -25.256693 4.734789
-4.138605 -25.155976 4.734789
-3.775084 -25.092871 4.734789
-3.656653 -25.086755 4.734789
-3.411564 -25.075301 4.734789
-3.272281 -25.086755 4.734789
-3.048043 -25.110375 4.734789
-2.684523 -25.217846 4.734789
-2.321002 -25.398690 4.734789
-2.271998 -25.429028 4.734789
-1.957482 -25.723177 4.734789
-1.910824 -25.771301 4.734789
-1.716141 -26.113573 4.734789
-1.625816 -26.455846 4.734789
-1.593961 -26.766929 4.734789
-1.590078 -26.798119 4.734789
-1.569753 -27.140392 4.734789
-1.549757 -27.482664 4.734789
-1.521692 -27.824937 4.734789
-1.489565 -28.167210 4.734789
-1.467996 -28.509483 4.734789
-1.478073 -28.851756 4.734789
-1.537355 -29.194028 4.734789
-1.593961 -29.362133 4.734789
-1.637893 -29.536301 4.734789
-1.773021 -29.878574 4.734789
-1.949841 -30.220847 4.734789
-1.957482 -30.231841 4.734789
-2.167109 -30.563119 4.734789
-2.321002 -30.747833 4.734789
-2.475400 -30.905392 4.734789
2.404764 -27.942623 5.001344
2.041243 -27.876815 5.001344
1.677723 -27.825609 5.001344
1.667961 -27.824937 5.001344
1.677723 -27.823500 5.001344
2.041243 -27.701990 5.001344
2.404764 -27.530533 5.001344
-3.051185 -30.905392 5.001344
-3.411564 -30.920923 5.001344
-3.477692 -30.905392 5.001344
-3.775084 -30.830172 5.001344
-4.138605 -30.672212 5.001344
-4.339485 -30.563119 5.001344
-4.502125 -30.466490 5.001344
-4.851969 -30.220847 5.001344
-4.865646 -30.210417 5.001344
-5.229166 -29.881258 5.001344
-5.231703 -29.878574 5.001344
-5.525303 -29.536301 5.001344
-5.592687 -29.449277 5.001344
-5.763910 -29.194028 5.001344
-5.956207 -28.864105 5.001344
-5.962635 -28.851756 5.001344
-6.111798 -28.509483 5.001344
-6.210909 -28.167210 5.001344
-6.248821 -27.824937 5.001344
-6.222890 -27.482664 5.001344
-6.140164 -27.140392 5.001344
-6.013569 -26.798119 5.001344
-5.956207 -26.672137 5.001344
-5.845141 -26.455846 5.001344
-5.634042 -26.113573 5.001344
-5.592687 -26.055370 5.001344
-5.333929 -25.771301 5.001344
-5.229166 -25.678090 5.001344
-4.865646 -25.444854 5.001344
-4.831176 -25.429028 5.001344
-4.502125 -25.300152 5.001344
-4.138605 -25.202500 5.001344
-3.775084 -25.142415 5.001344
-3.411564 -25.122267 5.001344
-3.048043 -25.150919 5.001344
-2.684523 -25.238273 5.001344
-2.321002 -25.386346 5.001344
-2.237434 -25.429028 5.001344
-1.957482 -25.631215 5.001344
-1.785978 -25.771301 5.001344
-1.593961 -26.025475 5.001344
-1.526265 -26.113573 5.001344
-1.370843 -26.455846 5.001344
-1.289426 -26.798119 5.001344
-1.250407 -27.140392 5.001344
-1.233844 -27.482664 5.001344
-1.233570 -27.824937 5.001344
-1.255927 -28.167210 5.001344
-1.316529 -28.509483 5.001344
-1.433304 -28.851756 5.001344
-1.593961 -29.158225 5.001344
-1.607034 -29.194028 5.001344
-1.775938 -29.536301 5.001344
-1.957482 -29.829412 5.001344
-1.984126 -29.878574 5.001344
-2.206127 -30.220847 5.001344
-2.321002 -30.367027 5.001344
-2.494828 -30.563119 5.001344
-2.684523 -30.727171 5.001344
-3.048043 -30.905208 5.001344
-3.051185 -30.905392 5.001344
2.404764 -27.870762 5.267899
2.041243 -27.835387 5.267899
1.677723 -27.832859 5.267899
1.314202 -27.880041 5.267899
0.950682 -27.991741 5.267899
0.587161 -28.164657 5.267899
0.579589 -28.167210 5.267899
0.223641 -28.234126 5.267899
-0.139880 -28.249890 5.267899
-0.503400 -28.191700 5.267899
-0.866920 -28.206039 5.267899
-1.159169 -28.509483 5.267899
-1.230441 -28.563295 5.267899
-1.403334 -28.851756 5.267899
-1.593961 -29.083832 5.267899
-1.655670 -29.194028 5.267899
-1.902451 -29.536301 5.267899
-1.957482 -29.601684 5.267899
-2.164524 -29.878574 5.267899
-2.321002 -30.059276 5.267899
-2.477753 -30.220847 5.267899
-2.684523 -30.404831 5.267899
-2.969066 -30.563119 5.267899
-3.048043 -30.599729 5.267899
-3.411564 -30.653045 5.267899
-3.775084 -30.604262 5.267899
-3.896901 -30.563119 5.267899
-4.138605 -30.483065 5.267899
-4.502125 -30.304971 5.267899
-4.637389 -30.220847 5.267899
-4.865646 -30.070356 5.267899
-5.095838 -29.878574 5.267899
-5.229166 -29.756785 5.267899
-5.427435 -29.536301 5.267899
-5.592687 -29.325428 5.267899
-5.681901 -29.194028 5.267899
-5.880982 -28.851756 5.267899
-5.956207 -28.685204 5.267899
-6.031477 -28.509483 5.267899
-6.131192 -28.167210 5.267899
-6.174634 -27.824937 5.267899
-6.160530 -27.482664 5.267899
-6.092476 -27.140392 5.267899
-5.977421 -26.798119 5.267899
-5.956207 -26.749122 5.267899
-5.814557 -26.455846 5.267899
-5.599805 -26.113573 5.267899
-5.592687 -26.103794 5.267899
-5.279400 -25.771301 5.267899
-5.229166 -25.728004 5.267899
-4.865646 -25.498834 5.267899
-4.702927 -25.429028 5.267899
-4.502125 -25.352564 5.267899
-4.138605 -25.257462 5.267899
-3.775084 -25.200225 5.267899
-3.411564 -25.180094 5.267899
-3.048043 -25.202122 5.267899
-2.684523 -25.272584 5.267899
-2.321002 -25.392007 5.267899
-2.230900 -25.429028 5.267899
-1.957482 -25.579119 5.267899
-1.658879 -25.771301 5.267899
-1.593961 -25.834205 5.267899
-1.307597 -26.113573 5.267899
-1.230441 -26.234732 5.267899
-1.065133 -26.455846 5.267899
-0.868787 -26.798119 5.267899
-0.866920 -26.803031 5.267899
-0.557468 -27.140392 5.267899
-0.503400 -27.194157 5.267899
-0.139880 -27.303152 5.267899
0.223641 -27.368936 5.267899
0.587161 -27.440928 5.267899
0.799567 -27.482664 5.267899
0.950682 -27.561029 5.267899
1.314202 -27.725820 5.267899
1.677723 -27.809091 5.267899
2.041243 -27.802476 5.267899
2.404764 -27.722689 5.267899
-2.739953 -30.220847 5.534453
-3.048043 -30.380753 5.534453
-3.411564 -30.452595 5.534453
-3.775084 -30.429624 5.534453
-4.138605 -30.333265 5.534453
-4.394565 -30.220847 5.534453
-4.502125 -30.175151 5.534453
-4.865646 -29.954521 5.534453
-4.962575 -29.878574 5.534453
-5.229166 -29.649717 5.534453
-5.335800 -29.536301 5.534453
-5.592687 -29.216533 5.534453
-5.608434 -29.194028 5.534453
-5.817090 -28.851756 5.534453
-5.956207 -28.539140 5.534453
-5.969099 -28.509483 5.534453
-6.073918 -28.167210 5.534453
-6.123262 -27.824937 5.534453
-6.117293 -27.482664 5.534453
-6.057725 -27.140392 5.534453
-5.956207 -26.823927 5.534453
-5.947502 -26.798119 5.534453
-5.785163 -26.455846 5.534453
-5.592687 -26.158678 5.534453
-5.556537 -26.113573 5.534453
-5.229166 -25.787207 5.534453
-5.206885 -25.771301 5.534453
-4.865646 -25.560259 5.534453
-4.536251 -25.429028 5.534453
-4.502125 -25.416470 5.534453
-4.138605 -25.323272 5.534453
-3.775084 -25.268946 5.534453
-3.411564 -25.250014 5.534453
-3.048043 -25.268199 5.534453
-2.684523 -25.326388 5.534453
-2.321002 -25.423180 5.534453
-2.302910 -25.429028 5.534453
-1.957482 -25.571670 5.534453
-1.593961 -25.755596 5.534453
-1.564835 -25.771301 5.534453
-1.230441 -26.021979 5.534453
-1.113465 -26.113573 5.534453
-0.866920 -26.366556 5.534453
-0.773900 -26.455846 5.534453
-0.503400 -26.722217 5.534453
-0.408313 -26.798119 5.534453
-0.139880 -26.986254 5.534453
0.175085 -27.140392 5.534453
0.223641 -27.165352 5.534453
0.587161 -27.357577 5.534453
0.904289 -27.482664 5.534453
0.950682 -27.532703 5.534453
1.250145 -27.824937 5.534453
0.950682 -27.991227 5.534453
0.686420 -28.167210 5.534453
0.587161 -28.203057 5.534453
0.223641 -28.307939 5.534453
-0.139880 -28.357804 5.534453
-0.503400 -28.342229 5.534453
-0.866920 -28.374659 5.534453
-1.044567 -28.509483 5.534453
-1.230441 -28.617683 5.534453
-1.410555 -28.851756 5.534453
-1.593961 -29.034456 5.534453
-1.703274 -29.194028 5.534453
-1.957482 -29.484078 5.534453
-1.998073 -29.536301 5.534453
-2.317488 -29.878574 5.534453
-2.321002 -29.881963 5.534453
-2.684523 -30.189886 5.534453
-2.739953 -30.220847 5.534453
-3.013178 -30.220847 5.801008
-3.048043 -30.236861 5.801008
-3.411564 -30.315120 5.801008
-3.775084 -30.302495 5.801008
-4.111797 -30.220847 5.801008
-4.138605 -30.215091 5.801008
-4.502125 -30.071797 5.801008
-4.822226 -29.878574 5.801008
-4.865646 -29.851646 5.801008
-5.229166 -29.547085 5.801008
-5.239694 -29.536301 5.801008
-5.534767 -29.194028 5.801008
-5.592687 -29.109987 5.801008
-5.756373 -28.851756 5.801008
-5.914840 -28.509483 5.801008
-5.956207 -28.375850 5.801008
-6.023684 -28.167210 5.801008
-6.079485 -27.824937 5.801008
-6.079509 -27.482664 5.801008
-6.024392 -27.140392 5.801008
-5.956207 -26.923100 5.801008
-5.915416 -26.798119 5.801008
-5.747682 -26.455846 5.801008
-5.592687 -26.226218 5.801008
-5.497780 -26.113573 5.801008
-5.229166 -25.858893 5.801008
-5.097310 -25.771301 5.801008
-4.865646 -25.634678 5.801008
-4.502125 -25.493929 5.801008
-4.230946 -25.429028 5.801008
-4.138605 -25.406409 5.801008
-3.775084 -25.355670 5.801008
-3.411564 -25.340034 5.801008
-3.048043 -25.358237 5.801008
-2.684523 -25.409825 5.801008
-2.591674 -25.429028 5.801008
-2.321002 -25.495256 5.801008
-1.957482 -25.616006 5.801008
-1.593961 -25.762221 5.801008
-1.573066 -25.771301 5.801008
-1.230441 -25.973436 5.801008
-1.016865 -26.113573 5.801008
-0.866920 -26.243656 5.801008
-0.622807 -26.455846 5.801008
-0.503400 -26.569629 5.801008
-0.236665 -26.798119 5.801008
-0.139880 -26.876488 5.801008
0.223641 -27.128663 5.801008
0.241263 -27.140392 5.801008
0.587161 -27.403717 5.801008
0.711506 -27.482664 5.801008
0.888171 -27.824937 5.801008
0.587161 -28.082462 5.801008
0.447407 -28.167210 5.801008
0.223641 -28.242650 5.801008
-0.139880 -28.293268 5.801008
-0.503400 -28.285264 5.801008
-0.866920 -28.327347 5.801008
-1.124131 -28.509483 5.801008
-1.230441 -28.568643 5.801008
-1.466219 -28.851756 5.801008
-1.593961 -28.971219 5.801008
-1.758938 -29.194028 5.801008
-1.957482 -29.404307 5.801008
-2.070260 -29.536301 5.801008
-2.321002 -29.779768 5.801008
-2.438658 -29.878574 5.801008
-2.684523 -30.063922 5.801008
-3.013178 -30.220847 5.801008
-2.548544 -29.878574 6.067563
-2.684523 -29.973649 6.067563
-3.048043 -30.141783 6.067563
-3.411564 -30.210710 6.067563
-3.775084 -30.201067 6.067563
-4.138605 -30.123369 6.067563
-4.502125 -29.975479 6.067563
-4.664411 -29.878574 6.067563
-4.865646 -29.756096 6.067563
-5.131126 -29.536301 6.067563
-5.229166 -29.444477 6.067563
-5.452348 -29.194028 6.067563
-5.592687 -28.994891 6.067563
-5.686874 -28.851756 6.067563
-5.857222 -28.509483 6.067563
-5.956207 -28.201115 6.067563
-5.967867 -28.167210 6.067563
-6.031028 -27.824937 6.067563
-6.035759 -27.482664 6.067563
-5.982034 -27.140392 6.067563
-5.956207 -27.057971 6.067563
-5.872076 -26.798119 6.067563
-5.692303 -26.455846 6.067563
-5.592687 -26.315255 6.067563
-5.412216 -26.113573 6.067563
-5.229166 -25.949233 6.067563
-4.939129 -25.771301 6.067563
-4.865646 -25.730238 6.067563
-4.502125 -25.590096 6.067563
-4.138605 -25.508346 6.067563
-3.775084 -25.467838 6.067563
-3.411564 -25.460477 6.067563
-3.048043 -25.483493 6.067563
-2.684523 -25.536901 6.067563
-2.321002 -25.620236 6.067563
-1.957482 -25.728171 6.067563
-1.820565 -25.771301 6.067563
-1.593961 -25.868835 6.067563
-1.230441 -26.047664 6.067563
-1.114352 -26.113573 6.067563
-0.866920 -26.302883 6.067563
-0.682922 -26.455846 6.067563
-0.503400 -26.629673 6.067563
-0.328206 -26.798119 6.067563
-0.139880 -26.980867 6.067563
0.033408 -27.140392 6.067563
0.223641 -27.344968 6.067563
0.352345 -27.482664 6.067563
0.382532 -27.824937 6.067563
0.223641 -27.940047 6.067563
-0.139880 -28.039630 6.067563
-0.503400 -28.046275 6.067563
-0.866920 -28.129519 6.067563
-0.903227 -28.167210 6.067563
-1.230441 -28.411023 6.067563
-1.289586 -28.509483 6.067563
-1.573108 -28.851756 6.067563
-1.593961 -28.871658 6.067563
-1.832320 -29.194028 6.067563
-1.957482 -29.325159 6.067563
-2.143646 -29.536301 6.067563
-2.321002 -29.701042 6.067563
-2.548544 -29.878574 6.067563
-2.666534 -29.878574 6.334117
-2.684523 -29.890592 6.334117
-3.048043 -30.059930 6.334117
-3.411564 -30.128154 6.334117
-3.775084 -30.115973 6.334117
-4.138605 -30.032257 6.334117
-4.488357 -29.878574 6.334117
-4.502125 -29.872803 6.334117
-4.865646 -29.650005 6.334117
-5.003871 -29.536301 6.334117
-5.229166 -29.327685 6.334117
-5.351133 -29.194028 6.334117
-5.592687 -28.859884 6.334117
-5.598261 -28.851756 6.334117
-5.785448 -28.509483 6.334117
-5.904277 -28.167210 6.334117
-5.956207 -27.879672 6.334117
-5.967466 -27.824937 6.334117
-5.976028 -27.482664 6.334117
-5.956207 -27.354559 6.334117
-5.924228 -27.140392 6.334117
-5.807944 -26.798119 6.334117
-5.607836 -26.455846 6.334117
-5.592687 -26.435577 6.334117
-5.283670 -26.113573 6.334117
-5.229166 -26.067492 6.334117
-4.865646 -25.848674 6.334117
-4.651161 -25.771301 6.334117
-4.502125 -25.716959 6.334117
-4.138605 -25.640100 6.334117
-3.775084 -25.609498 6.334117
-3.411564 -25.616404 6.334117
-3.048043 -25.657241 6.334117
-2.684523 -25.730251 6.334117
-2.518893 -25.771301 6.334117
-2.321002 -25.829842 6.334117
-1.957482 -25.961993 6.334117
-1.609065 -26.113573 6.334117
-1.593961 -26.123821 6.334117
-1.230441 -26.361258 6.334117
-1.092679 -26.455846 6.334117
-0.866920 -26.719244 6.334117
-0.793223 -26.798119 6.334117
-0.624880 -27.140392 6.334117
-0.757370 -27.482664 6.334117
-0.866920 -27.543507 6.334117
-1.032654 -27.824937 6.334117
-1.230441 -28.047971 6.334117
-1.275183 -28.167210 6.334117
-1.463654 -28.509483 6.334117
-1.593961 -28.679839 6.334117
-1.681820 -28.851756 6.334117
-1.932948 -29.194028 6.334117
-1.957482 -29.220597 6.334117
-2.231762 -29.536301 6.334117
-2.321002 -29.618526 6.334117
-2.666534 -29.878574 6.334117
-2.841996 -29.878574 6.600672
-3.048043 -29.970912 6.600672
-3.411564 -30.039477 6.600672
-3.775084 -30.022645 6.600672
-4.138605 -29.928302 6.600672
-4.246586 -29.878574 6.600672
-4.502125 -29.767151 6.600672
-4.847605 -29.536301 6.600672
-4.865646 -29.523433 6.600672
-5.221918 -29.194028 6.600672
-5.229166 -29.185895 6.600672
-5.494171 -28.851756 6.600672
-5.592687 -28.679202 6.600672
-5.690228 -28.509483 6.600672
-5.821872 -28.167210 6.600672
-5.890004 -27.824937 6.600672
-5.898773 -27.482664 6.600672
-5.843747 -27.140392 6.600672
-5.711851 -26.798119 6.600672
-5.592687 -26.606280 6.600672
-5.477926 -26.455846 6.600672
-5.229166 -26.218252 6.600672
-5.065536 -26.113573 6.600672
-4.865646 -25.999125 6.600672
-4.502125 -25.874202 6.600672
-4.138605 -25.815189 6.600672
-3.775084 -25.803889 6.600672
-3.411564 -25.832515 6.600672
-3.048043 -25.900660 6.600672
-2.684523 -26.014223 6.600672
-2.445471 -26.113573 6.600672
-2.321002 -26.178445 6.600672
-1.957482 -26.421043 6.600672
-1.906718 -26.455846 6.600672
-1.626978 -26.798119 6.600672
-1.593961 -26.890791 6.600672
-1.482817 -27.140392 6.600672
-1.442387 -27.482664 6.600672
-1.472251 -27.824937 6.600672
-1.560172 -28.167210 6.600672
-1.593961 -28.240833 6.600672
-1.669297 -28.509483 6.600672
-1.826071 -28.851756 6.600672
-1.957482 -29.045913 6.600672
-2.046457 -29.194028 6.600672
-2.321002 -29.510690 6.600672
-2.346783 -29.536301 6.600672
-2.684523 -29.802163 6.600672
-2.841996 -29.878574 6.600672
-3.141574 -29.878574 6.867227
-3.411564 -29.930190 6.867227
-3.775084 -29.907650 6.867227
-3.874001 -29.878574 6.867227
-4.138605 -29.809325 6.867227
-4.502125 -29.635804 6.867227
-4.647181 -29.536301 6.867227
-4.865646 -29.377602 6.867227
-5.064430 -29.194028 6.867227
-5.229166 -29.011006 6.867227
-5.358756 -28.851756 6.867227
-5.564671 -28.509483 6.867227
-5.592687 -28.439790 6.867227
-5.709301 -28.167210 6.867227
-5.784761 -27.824937 6.867227
-5.792458 -27.482664 6.867227
-5.726180 -27.140392 6.867227
-5.592687 -26.844941 6.867227
-5.567948 -26.798119 6.867227
-5.276954 -26.455846 6.867227
-5.229166 -26.413647 6.867227
-4.865646 -26.193479 6.867227
-4.611644 -26.113573 6.867227
-4.502125 -26.078919 6.867227
-4.138605 -26.032622 6.867227
-3.775084 -26.047320 6.867227
-3.439044 -26.113573 6.867227
-3.411564 -26.118640 6.867227
-3.048043 -26.233585 6.867227
-2.684523 -26.426882 6.867227
-2.638976 -26.455846 6.867227
-2.321002 -26.723851 6.867227
-2.246395 -26.798119 6.867227
-2.020642 -27.140392 6.867227
-1.957482 -27.316791 6.867227
-1.889846 -27.482664 6.867227
-1.825328 -27.824937 6.867227
-1.827219 -28.167210 6.867227
-1.890874 -28.509483 6.867227
-1.957482 -28.681159 6.867227
-2.011284 -28.851756 6.867227
-2.197343 -29.194028 6.867227
-2.321002 -29.347283 6.867227
-2.500234 -29.536301 6.867227
-2.684523 -29.683888 6.867227
-3.048043 -29.860351 6.867227
-3.141574 -29.878574 6.867227
-2.724424 -29.536301 7.133781
-3.048043 -29.717914 7.133781
-3.411564 -29.793256 7.133781
-3.775084 -29.770237 7.133781
-4.138605 -29.662512 7.133781
-4.377392 -29.536301 7.133781
-4.502125 -29.470072 7.133781
-4.861889 -29.194028 7.133781
-4.865646 -29.190710 7.133781
-5.180642 -28.851756 7.133781
-5.229166 -28.782228 7.133781
-5.410036 -28.509483 7.133781
-5.556973 -28.167210 7.133781
-5.592687 -28.003232 7.133781
-5.636233 -27.824937 7.133781
-5.639088 -27.482664 7.133781
-5.592687 -27.289672 7.133781
-5.553037 -27.140392 7.133781
-5.346791 -26.798119 7.133781
-5.229166 -26.675724 7.133781
-4.893015 -26.455846 7.133781
-4.865646 -26.441024 7.133781
-4.502125 -26.332133 7.133781
-4.138605 -26.310248 7.133781
-3.775084 -26.359591 7.133781
-3.485210 -26.455846 7.133781
-3.411564 -26.479646 7.133781
-3.048043 -26.667684 7.133781
-2.872968 -26.798119 7.133781
-2.684523 -26.971622 7.133781
-2.532498 -27.140392 7.133781
-2.328759 -27.482664 7.133781
-2.321002 -27.503046 7.133781
-2.191239 -27.824937 7.133781
-2.133627 -28.167210 7.133781
-2.144046 -28.509483 7.133781
-2.228089 -28.851756 7.133781
-2.321002 -29.039786 7.133781
-2.402729 -29.194028 7.133781
-2.684523 -29.507233 7.133781
-2.724424 -29.536301 7.133781
-3.154122 -29.536301 7.400336
-3.411564 -29.603991 7.400336
-3.775084 -29.583471 7.400336
-3.915822 -29.536301 7.400336
-4.138605 -29.465039 7.400336
-4.502125 -29.257441 7.400336
-4.582804 -29.194028 7.400336
-4.865646 -28.941151 7.400336
-4.949593 -28.851756 7.400336
-5.196936 -28.509483 7.400336
-5.229166 -28.441566 7.400336
-5.358869 -28.167210 7.400336
-5.434717 -27.824937 7.400336
-5.419787 -27.482664 7.400336
-5.287779 -27.140392 7.400336
-5.229166 -27.061163 7.400336
-4.920007 -26.798119 7.400336
-4.865646 -26.765849 7.400336
-4.502125 -26.662725 7.400336
-4.138605 -26.666188 7.400336
-3.775084 -26.758214 7.400336
-3.691552 -26.798119 7.400336
-3.411564 -26.934816 7.400336
-3.137365 -27.140392 7.400336
-3.048043 -27.220976 7.400336
-2.817233 -27.482664 7.400336
-2.684523 -27.701778 7.400336
-2.613389 -27.824937 7.400336
-2.496737 -28.167210 7.400336
-2.462095 -28.509483 7.400336
-2.514263 -28.851756 7.400336
-2.681764 -29.194028 7.400336
-2.684523 -29.197494 7.400336
-3.048043 -29.501508 7.400336
-3.154122 -29.536301 7.400336
-3.189296 -29.194028 7.666891
-3.411564 -29.299670 7.666891
-3.775084 -29.306103 7.666891
-4.118853 -29.194028 7.666891
-4.138605 -29.187192 7.666891
-4.502125 -28.944837 7.666891
-4.604650 -28.851756 7.666891
-4.865646 -28.550406 7.666891
-4.896582 -28.509483 7.666891
-5.061815 -28.167210 7.666891
-5.122921 -27.824937 7.666891
-5.045220 -27.482664 7.666891
-4.865646 -27.263805 7.666891
-4.602338 -27.140392 7.666891
-4.502125 -27.110571 7.666891
-4.138605 -27.132923 7.666891
-4.119094 -27.140392 7.666891
-3.775084 -27.276165 7.666891
-3.472845 -27.482664 7.666891
-3.411564 -27.533945 7.666891
-3.155612 -27.824937 7.666891
-3.048043 -28.008262 7.666891
-2.964570 -28.167210 7.666891
-2.885817 -28.509483 7.666891
-2.924245 -28.851756 7.666891
-3.048043 -29.069988 7.666891
-3.189296 -29.194028 7.666891
-3.682167 -28.509483 7.933445
-3.775084 -28.633954 7.933445
-4.138605 -28.589015 7.933445
-4.233370 -28.509483 7.933445
-4.427145 -28.167210 7.933445
-4.138605 -27.950875 7.933445
-3.775084 -28.157587 7.933445
-3.766748 -28.167210 7.933445
-3.682167 -28.509483 7.933445
