ply
format ascii 1.0
element vertex 1605
property float x
property float y
property float z
end_header
-3.630701 -28.167210 0.203360
-3.775084 -28.245836 0.203360
-4.138605 -28.342298 0.203360
-4.502125 -28.263286 0.203360
-4.596167 -28.167210 0.203360
-4.659795 -27.824937 0.203360
-4.502125 -27.549247 0.203360
-4.345167 -27.482664 0.203360
-4.138605 -27.436891 0.203360
-3.852999 -27.482664 0.203360
-3.775084 -27.523956 0.203360
-3.515124 -27.824937 0.203360
-3.630701 -28.167210 0.203360
-3.404246 -28.509483 0.469915
-3.411564 -28.513196 0.469915
-3.775084 -28.656811 0.469915
-4.138605 -28.731163 0.469915
-4.502125 -28.720808 0.469915
-4.865646 -28.593791 0.469915
-4.960864 -28.509483 0.469915
-5.208424 -28.167210 0.469915
-5.229166 -27.974109 0.469915
-5.235975 -27.824937 0.469915
-5.229166 -27.799075 0.469915
-5.055906 -27.482664 0.469915
-4.865646 -27.269367 0.469915
-4.609433 -27.140392 0.469915
-4.502125 -27.098387 0.469915
-4.138605 -27.076452 0.469915
-3.775084 -27.130302 0.469915
-3.736408 -27.140392 0.469915
-3.411564 -27.340234 0.469915
-3.240360 -27.482664 0.469915
-3.108053 -27.824937 0.469915
-3.144560 -28.167210 0.469915
-3.404246 -28.509483 0.469915
-3.313059 -28.851756 0.736470
-3.411564 -28.887774 0.736470
-3.775084 -28.976259 0.736470
-4.138605 -29.020288 0.736470
-4.502125 -29.019367 0.736470
-4.865646 -28.953530 0.736470
-5.078976 -28.851756 0.736470
-5.229166 -28.763192 0.736470
-5.443845 -28.509483 0.736470
-5.592687 -28.250105 0.736470
-5.618483 -28.167210 0.736470
-5.629334 -27.824937 0.736470
-5.592687 -27.679851 0.736470
-5.499168 -27.482664 0.736470
-5.243531 -27.140392 0.736470
-5.229166 -27.124423 0.736470
-4.865646 -26.910689 0.736470
-4.502125 -26.805639 0.736470
-4.238683 -26.798119 0.736470
-4.138605 -26.795897 0.736470
-4.115057 -26.798119 0.736470
-3.775084 -26.863975 0.736470
-3.411564 -27.008323 0.736470
-3.179814 -27.140392 0.736470
-3.048043 -27.325287 0.736470
-2.951843 -27.482664 0.736470
-2.875052 -27.824937 0.736470
-2.876735 -28.167210 0.736470
-2.971316 -28.509483 0.736470
-3.048043 -28.605573 0.736470
-3.313059 -28.851756 0.736470
-3.203084 -29.194028 1.003024
-3.411564 -29.245799 1.003024
-3.775084 -29.283472 1.003024
-4.138605 -29.291491 1.003024
-4.502125 -29.278373 1.003024
-4.865646 -29.230438 1.003024
-4.973623 -29.194028 1.003024
-5.229166 -29.094898 1.003024
-5.575144 -28.851756 1.003024
-5.592687 -28.837568 1.003024
-5.816932 -28.509483 1.003024
-5.956207 -28.214989 1.003024
-5.969919 -28.167210 1.003024
-5.978762 -27.824937 1.003024
-5.956207 -27.732493 1.003024
-5.853635 -27.482664 1.003024
-5.628537 -27.140392 1.003024
-5.592687 -27.093920 1.003024
-5.230218 -26.798119 1.003024
-5.229166 -26.797274 1.003024
-4.865646 -26.649610 1.003024
-4.502125 -26.583573 1.003024
-4.138605 -26.580226 1.003024
-3.775084 -26.627133 1.003024
-3.411564 -26.723434 1.003024
-3.222718 -26.798119 1.003024
-3.048043 -26.958032 1.003024
-2.891128 -27.140392 1.003024
-2.771285 -27.482664 1.003024
-2.723266 -27.824937 1.003024
-2.701279 -28.167210 1.003024
-2.711227 -28.509483 1.003024
-2.814640 -28.851756 1.003024
-3.048043 -29.095840 1.003024
-3.203084 -29.194028 1.003024
-2.999988 -29.536301 1.269579
-3.048043 -29.554751 1.269579
-3.411564 -29.606187 1.269579
-3.775084 -29.596526 1.269579
-4.138605 -29.565975 1.269579
-4.423949 -29.536301 1.269579
-4.502125 -29.526145 1.269579
-4.865646 -29.456040 1.269579
-5.229166 -29.344200 1.269579
-5.510562 -29.194028 1.269579
-5.592687 -29.147728 1.269579
-5.902530 -28.851756 1.269579
-5.956207 -28.794981 1.269579
-6.123421 -28.509483 1.269579
-6.257439 -28.167210 1.269579
-6.270486 -27.824937 1.269579
-6.152152 -27.482664 1.269579
-5.956207 -27.140997 1.269579
-5.955646 -27.140392 1.269579
-5.607294 -26.798119 1.269579
-5.592687 -26.783267 1.269579
-5.229166 -26.558326 1.269579
-4.956724 -26.455846 1.269579
-4.865646 -26.423543 1.269579
-4.502125 -26.371266 1.269579
-4.138605 -26.362647 1.269579
-3.775084 -26.387196 1.269579
-3.411564 -26.447665 1.269579
-3.381183 -26.455846 1.269579
-3.048043 -26.650326 1.269579
-2.873202 -26.798119 1.269579
-2.712183 -27.140392 1.269579
-2.684523 -27.319994 1.269579
-2.662172 -27.482664 1.269579
-2.637147 -27.824937 1.269579
-2.601651 -28.167210 1.269579
-2.559697 -28.509483 1.269579
-2.550370 -28.851756 1.269579
-2.634916 -29.194028 1.269579
-2.684523 -29.258298 1.269579
-2.999988 -29.536301 1.269579
-2.837333 -29.878574 1.536134
-3.048043 -29.947261 1.536134
-3.411564 -29.963081 1.536134
-3.775084 -29.914200 1.536134
-3.954815 -29.878574 1.536134
-4.138605 -29.829468 1.536134
-4.502125 -29.740039 1.536134
-4.865646 -29.659908 1.536134
-5.229166 -29.558801 1.536134
-5.275921 -29.536301 1.536134
-5.592687 -29.377310 1.536134
-5.828207 -29.194028 1.536134
-5.956207 -29.094384 1.536134
-6.157792 -28.851756 1.536134
-6.319728 -28.637915 1.536134
-6.387185 -28.509483 1.536134
-6.499917 -28.167210 1.536134
-6.511514 -27.824937 1.536134
-6.412805 -27.482664 1.536134
-6.319728 -27.304252 1.536134
-6.195598 -27.140392 1.536134
-5.956207 -26.856135 1.536134
-5.882361 -26.798119 1.536134
-5.592687 -26.557585 1.536134
-5.405546 -26.455846 1.536134
-5.229166 -26.355911 1.536134
-4.865646 -26.238302 1.536134
-4.502125 -26.174184 1.536134
-4.138605 -26.148212 1.536134
-3.775084 -26.158646 1.536134
-3.411564 -26.222176 1.536134
-3.048043 -26.364864 1.536134
-2.899609 -26.455846 1.536134
-2.684523 -26.770675 1.536134
-2.669318 -26.798119 1.536134
-2.612499 -27.140392 1.536134
-2.606874 -27.482664 1.536134
-2.595594 -27.824937 1.536134
-2.547488 -28.167210 1.536134
-2.464680 -28.509483 1.536134
-2.384541 -28.851756 1.536134
-2.368550 -29.194028 1.536134
-2.480426 -29.536301 1.536134
-2.684523 -29.769408 1.536134
-2.837333 -29.878574 1.536134
-2.720744 -30.220847 1.802688
-3.048043 -30.310947 1.802688
-3.411564 -30.302201 1.802688
-3.775084 -30.226513 1.802688
-3.794243 -30.220847 1.802688
-4.138605 -30.083963 1.802688
-4.502125 -29.965787 1.802688
-4.816263 -29.878574 1.802688
-4.865646 -29.862588 1.802688
-5.229166 -29.731063 1.802688
-5.592687 -29.566073 1.802688
-5.633863 -29.536301 1.802688
-5.956207 -29.308872 1.802688
-6.066724 -29.194028 1.802688
-6.319728 -28.937201 1.802688
-6.379706 -28.851756 1.802688
-6.589257 -28.509483 1.802688
-6.683248 -28.277050 1.802688
-6.716180 -28.167210 1.802688
-6.727229 -27.824937 1.802688
-6.683248 -27.650926 1.802688
-6.624080 -27.482664 1.802688
-6.411332 -27.140392 1.802688
-6.319728 -27.015466 1.802688
-6.099690 -26.798119 1.802688
-5.956207 -26.648484 1.802688
-5.693067 -26.455846 1.802688
-5.592687 -26.374342 1.802688
-5.229166 -26.182616 1.802688
-5.025779 -26.113573 1.802688
-4.865646 -26.062921 1.802688
-4.502125 -26.000115 1.802688
-4.138605 -25.966780 1.802688
-3.775084 -25.960781 1.802688
-3.411564 -25.995774 1.802688
-3.048043 -26.093176 1.802688
-3.002481 -26.113573 1.802688
-2.684523 -26.416644 1.802688
-2.652925 -26.455846 1.802688
-2.558694 -26.798119 1.802688
-2.559499 -27.140392 1.802688
-2.586590 -27.482664 1.802688
-2.586856 -27.824937 1.802688
-2.529652 -28.167210 1.802688
-2.414992 -28.509483 1.802688
-2.321002 -28.740254 1.802688
-2.285334 -28.851756 1.802688
-2.209036 -29.194028 1.802688
-2.220086 -29.536301 1.802688
-2.321002 -29.803068 1.802688
-2.353891 -29.878574 1.802688
-2.684523 -30.200839 1.802688
-2.720744 -30.220847 1.802688
-2.731813 -30.563119 2.069243
-3.048043 -30.635850 2.069243
-3.411564 -30.612621 2.069243
-3.600106 -30.563119 2.069243
-3.775084 -30.499118 2.069243
-4.138605 -30.338833 2.069243
-4.441387 -30.220847 2.069243
-4.502125 -30.190624 2.069243
-4.865646 -30.032797 2.069243
-5.229166 -29.895264 2.069243
-5.263465 -29.878574 2.069243
-5.592687 -29.712179 2.069243
-5.850924 -29.536301 2.069243
-5.956207 -29.468383 2.069243
-6.247629 -29.194028 2.069243
-6.319728 -29.128550 2.069243
-6.533784 -28.851756 2.069243
-6.683248 -28.637684 2.069243
-6.751162 -28.509483 2.069243
-6.864398 -28.167210 2.069243
-6.878109 -27.824937 2.069243
-6.782305 -27.482664 2.069243
-6.683248 -27.294744 2.069243
-6.574389 -27.140392 2.069243
-6.319728 -26.827799 2.069243
-6.285774 -26.798119 2.069243
-5.956207 -26.491530 2.069243
-5.901603 -26.455846 2.069243
-5.592687 -26.227339 2.069243
-5.374352 -26.113573 2.069243
-5.229166 -26.035811 2.069243
-4.865646 -25.913110 2.069243
-4.502125 -25.827981 2.069243
-4.157897 -25.771301 2.069243
-4.138605 -25.768875 2.069243
-3.775084 -25.750237 2.069243
-3.411564 -25.766422 2.069243
-3.383585 -25.771301 2.069243
-3.048043 -25.883314 2.069243
-2.686641 -26.113573 2.069243
-2.684523 -26.117004 2.069243
-2.518343 -26.455846 2.069243
-2.493504 -26.798119 2.069243
-2.538837 -27.140392 2.069243
-2.591087 -27.482664 2.069243
-2.600765 -27.824937 2.069243
-2.537950 -28.167210 2.069243
-2.400327 -28.509483 2.069243
-2.321002 -28.655938 2.069243
-2.234278 -28.851756 2.069243
-2.104926 -29.194028 2.069243
-2.055840 -29.536301 2.069243
-2.116726 -29.878574 2.069243
-2.296667 -30.220847 2.069243
-2.321002 -30.245682 2.069243
-2.684523 -30.543635 2.069243
-2.731813 -30.563119 2.069243
-2.965416 -30.905392 2.335798
-3.048043 -30.921053 2.335798
-3.224873 -30.905392 2.335798
-3.411564 -30.882725 2.335798
-3.775084 -30.745230 2.335798
-4.138605 -30.585283 2.335798
-4.188242 -30.563119 2.335798
-4.502125 -30.382748 2.335798
-4.853679 -30.220847 2.335798
-4.865646 -30.214213 2.335798
-5.229166 -30.027598 2.335798
-5.513370 -29.878574 2.335798
-5.592687 -29.836777 2.335798
-5.956207 -29.587045 2.335798
-6.008801 -29.536301 2.335798
-6.319728 -29.259583 2.335798
-6.373707 -29.194028 2.335798
-6.662331 -28.851756 2.335798
-6.683248 -28.823809 2.335798
-6.859208 -28.509483 2.335798
-6.983356 -28.167210 2.335798
-6.999477 -27.824937 2.335798
-6.896069 -27.482664 2.335798
-6.703712 -27.140392 2.335798
-6.683248 -27.111279 2.335798
-6.402872 -26.798119 2.335798
-6.319728 -26.702112 2.335798
-6.037412 -26.455846 2.335798
-5.956207 -26.374487 2.335798
-5.601766 -26.113573 2.335798
-5.592687 -26.106186 2.335798
-5.229166 -25.909990 2.335798
-4.884287 -25.771301 2.335798
-4.865646 -25.764755 2.335798
-4.502125 -25.681086 2.335798
-4.138605 -25.622164 2.335798
-3.775084 -25.589946 2.335798
-3.411564 -25.601861 2.335798
-3.048043 -25.682872 2.335798
-2.846691 -25.771301 2.335798
-2.684523 -25.917334 2.335798
-2.522733 -26.113573 2.335798
-2.432660 -26.455846 2.335798
-2.460350 -26.798119 2.335798
-2.538537 -27.140392 2.335798
-2.608927 -27.482664 2.335798
-2.625905 -27.824937 2.335798
-2.560712 -28.167210 2.335798
-2.408626 -28.509483 2.335798
-2.321002 -28.648328 2.335798
-2.212183 -28.851756 2.335798
-2.039337 -29.194028 2.335798
-1.957482 -29.468902 2.335798
-1.942122 -29.536301 2.335798
-1.948826 -29.878574 2.335798
-1.957482 -29.902366 2.335798
-2.071516 -30.220847 2.335798
-2.309456 -30.563119 2.335798
-2.321002 -30.573445 2.335798
-2.684523 -30.820871 2.335798
-2.965416 -30.905392 2.335798
-2.421629 -30.905392 2.602352
-2.684523 -31.056625 2.602352
-3.048043 -31.140308 2.602352
-3.411564 -31.095448 2.602352
-3.775084 -30.969898 2.602352
-3.919044 -30.905392 2.602352
-4.138605 -30.778616 2.602352
-4.502125 -30.580231 2.602352
-4.536290 -30.563119 2.602352
-4.865646 -30.355908 2.602352
-5.118098 -30.220847 2.602352
-5.229166 -30.153294 2.602352
-5.592687 -29.933225 2.602352
-5.665648 -29.878574 2.602352
-5.956207 -29.669949 2.602352
-6.095847 -29.536301 2.602352
-6.319728 -29.341341 2.602352
-6.444721 -29.194028 2.602352
-6.683248 -28.922493 2.602352
-6.731534 -28.851756 2.602352
-6.932080 -28.509483 2.602352
-7.046769 -28.209195 2.602352
-7.059991 -28.167210 2.602352
-7.074084 -27.824937 2.602352
-7.046769 -27.716060 2.602352
-6.973303 -27.482664 2.602352
-6.771710 -27.140392 2.602352
-6.683248 -27.018622 2.602352
-6.478474 -26.798119 2.602352
-6.319728 -26.621005 2.602352
-6.124744 -26.455846 2.602352
-5.956207 -26.290714 2.602352
-5.714695 -26.113573 2.602352
-5.592687 -26.013390 2.602352
-5.229166 -25.796524 2.602352
-5.171799 -25.771301 2.602352
-4.865646 -25.652918 2.602352
-4.502125 -25.548587 2.602352
-4.138605 -25.467621 2.602352
-3.857770 -25.429028 2.602352
-3.775084 -25.420687 2.602352
-3.411564 -25.422936 2.602352
-3.370051 -25.429028 2.602352
-3.048043 -25.511570 2.602352
-2.684523 -25.713041 2.602352
-2.610687 -25.771301 2.602352
-2.412086 -26.113573 2.602352
-2.380179 -26.455846 2.602352
-2.445913 -26.798119 2.602352
-2.546465 -27.140392 2.602352
-2.628417 -27.482664 2.602352
-2.650509 -27.824937 2.602352
-2.585777 -28.167210 2.602352
-2.427237 -28.509483 2.602352
-2.321002 -28.665439 2.602352
-2.209776 -28.851756 2.602352
-2.003579 -29.194028 2.602352
-1.957482 -29.296965 2.602352
-1.872638 -29.536301 2.602352
-1.841068 -29.878574 2.602352
-1.912058 -30.220847 2.602352
-1.957482 -30.304353 2.602352
-2.096812 -30.563119 2.602352
-2.321002 -30.815868 2.602352
-2.421629 -30.905392 2.602352
-2.657532 -31.247665 2.868907
-2.684523 -31.261111 2.868907
-3.048043 -31.330109 2.868907
-3.411564 -31.287225 2.868907
-3.528255 -31.247665 2.868907
-3.775084 -31.145128 2.868907
-4.138605 -30.957130 2.868907
-4.236140 -30.905392 2.868907
-4.502125 -30.724876 2.868907
-4.774566 -30.563119 2.868907
-4.865646 -30.494614 2.868907
-5.229166 -30.258145 2.868907
-5.286480 -30.220847 2.868907
-5.592687 -30.004799 2.868907
-5.749739 -29.878574 2.868907
-5.956207 -29.722001 2.868907
-6.145795 -29.536301 2.868907
-6.319728 -29.382919 2.868907
-6.480131 -29.194028 2.868907
-6.683248 -28.963989 2.868907
-6.760503 -28.851756 2.868907
-6.964562 -28.509483 2.868907
-7.046769 -28.296332 2.868907
-7.087770 -28.167210 2.868907
-7.102529 -27.824937 2.868907
-7.046769 -27.604198 2.868907
-7.008206 -27.482664 2.868907
-6.803809 -27.140392 2.868907
-6.683248 -26.975642 2.868907
-6.517736 -26.798119 2.868907
-6.319728 -26.577677 2.868907
-6.177110 -26.455846 2.868907
-5.956207 -26.236648 2.868907
-5.793908 -26.113573 2.868907
-5.592687 -25.941744 2.868907
-5.329654 -25.771301 2.868907
-5.229166 -25.709619 2.868907
-4.865646 -25.548927 2.868907
-4.525722 -25.429028 2.868907
-4.502125 -25.422582 2.868907
-4.138605 -25.350797 2.868907
-3.775084 -25.306856 2.868907
-3.411564 -25.305633 2.868907
-3.048043 -25.368658 2.868907
-2.887099 -25.429028 2.868907
-2.684523 -25.566860 2.868907
-2.474208 -25.771301 2.868907
-2.336759 -26.113573 2.868907
-2.346471 -26.455846 2.868907
-2.437431 -26.798119 2.868907
-2.550691 -27.140392 2.868907
-2.637922 -27.482664 2.868907
-2.662803 -27.824937 2.868907
-2.600889 -28.167210 2.868907
-2.443356 -28.509483 2.868907
-2.321002 -28.685326 2.868907
-2.216204 -28.851756 2.868907
-1.987751 -29.194028 2.868907
-1.957482 -29.248858 2.868907
-1.827534 -29.536301 2.868907
-1.764990 -29.878574 2.868907
-1.805956 -30.220847 2.868907
-1.944962 -30.563119 2.868907
-1.957482 -30.580150 2.868907
-2.199902 -30.905392 2.868907
-2.321002 -31.017214 2.868907
-2.657532 -31.247665 2.868907
-2.417731 -31.247665 3.135461
-2.684523 -31.395840 3.135461
-3.048043 -31.470307 3.135461
-3.411564 -31.420774 3.135461
-3.775084 -31.289509 3.135461
-3.861737 -31.247665 3.135461
-4.138605 -31.084183 3.135461
-4.440857 -30.905392 3.135461
-4.502125 -30.858219 3.135461
-4.865646 -30.604788 3.135461
-4.931955 -30.563119 3.135461
-5.229166 -30.333164 3.135461
-5.381384 -30.220847 3.135461
-5.592687 -30.052499 3.135461
-5.790581 -29.878574 3.135461
-5.956207 -29.742425 3.135461
-6.156009 -29.536301 3.135461
-6.319728 -29.385263 3.135461
-6.477709 -29.194028 3.135461
-6.683248 -28.955621 3.135461
-6.753709 -28.851756 3.135461
-6.954715 -28.509483 3.135461
-7.046769 -28.268175 3.135461
-7.078652 -28.167210 3.135461
-7.093527 -27.824937 3.135461
-7.046769 -27.637240 3.135461
-6.998731 -27.482664 3.135461
-6.798396 -27.140392 3.135461
-6.683248 -26.980088 3.135461
-6.518467 -26.798119 3.135461
-6.319728 -26.570129 3.135461
-6.191934 -26.455846 3.135461
-5.956207 -26.210856 3.135461
-5.836261 -26.113573 3.135461
-5.592687 -25.891547 3.135461
-5.423009 -25.771301 3.135461
-5.229166 -25.641981 3.135461
-4.865646 -25.457882 3.135461
-4.793182 -25.429028 3.135461
-4.502125 -25.340017 3.135461
-4.138605 -25.256454 3.135461
-3.775084 -25.203302 3.135461
-3.411564 -25.197814 3.135461
-3.048043 -25.264877 3.135461
-2.684523 -25.421520 3.135461
-2.672582 -25.429028 3.135461
-2.376528 -25.771301 3.135461
-2.321002 -25.969412 3.135461
-2.284916 -26.113573 3.135461
-2.318413 -26.455846 3.135461
-2.321002 -26.464755 3.135461
-2.422646 -26.798119 3.135461
-2.539523 -27.140392 3.135461
-2.625998 -27.482664 3.135461
-2.651210 -27.824937 3.135461
-2.593937 -28.167210 3.135461
-2.444218 -28.509483 3.135461
-2.321002 -28.691455 3.135461
-2.219605 -28.851756 3.135461
-1.981348 -29.194028 3.135461
-1.957482 -29.233015 3.135461
-1.799980 -29.536301 3.135461
-1.714371 -29.878574 3.135461
-1.732878 -30.220847 3.135461
-1.849492 -30.563119 3.135461
-1.957482 -30.734558 3.135461
-2.065750 -30.905392 3.135461
-2.321002 -31.171629 3.135461
-2.417731 -31.247665 3.135461
-2.284574 -31.247665 3.402016
-2.321002 -31.278572 3.402016
-2.684523 -31.496082 3.402016
-3.048043 -31.575241 3.402016
-3.411564 -31.521159 3.402016
-3.775084 -31.379415 3.402016
-4.035300 -31.247665 3.402016
-4.138605 -31.182887 3.402016
-4.502125 -30.946774 3.402016
-4.570028 -30.905392 3.402016
-4.865646 -30.673728 3.402016
-5.023236 -30.563119 3.402016
-5.229166 -30.383689 3.402016
-5.425906 -30.220847 3.402016
-5.592687 -30.071211 3.402016
-5.790980 -29.878574 3.402016
-5.956207 -29.728442 3.402016
-6.128795 -29.536301 3.402016
-6.319728 -29.346527 3.402016
-6.439076 -29.194028 3.402016
-6.683248 -28.895740 3.402016
-6.712007 -28.851756 3.402016
-6.903831 -28.509483 3.402016
-7.029689 -28.167210 3.402016
-7.046769 -27.843861 3.402016
-7.047586 -27.824937 3.402016
-7.046769 -27.821537 3.402016
-6.946688 -27.482664 3.402016
-6.757018 -27.140392 3.402016
-6.683248 -27.033014 3.402016
-6.483347 -26.798119 3.402016
-6.319728 -26.598601 3.402016
-6.172521 -26.455846 3.402016
-5.956207 -26.213198 3.402016
-5.844616 -26.113573 3.402016
-5.592687 -25.863645 3.402016
-5.474969 -25.771301 3.402016
-5.229166 -25.592463 3.402016
-4.939067 -25.429028 3.402016
-4.865646 -25.396309 3.402016
-4.502125 -25.273374 3.402016
-4.138605 -25.179433 3.402016
-3.775084 -25.118262 3.402016
-3.411564 -25.108373 3.402016
-3.048043 -25.176835 3.402016
-2.684523 -25.343646 3.402016
-2.560220 -25.429028 3.402016
-2.321002 -25.745277 3.402016
-2.304146 -25.771301 3.402016
-2.239264 -26.113573 3.402016
-2.284702 -26.455846 3.402016
-2.321002 -26.575479 3.402016
-2.389760 -26.798119 3.402016
-2.501723 -27.140392 3.402016
-2.581805 -27.482664 3.402016
-2.604898 -27.824937 3.402016
-2.553542 -28.167210 3.402016
-2.417567 -28.509483 3.402016
-2.321002 -28.663758 3.402016
-2.207518 -28.851756 3.402016
-1.973420 -29.194028 3.402016
-1.957482 -29.219443 3.402016
-1.782372 -29.536301 3.402016
-1.683131 -29.878574 3.402016
-1.687319 -30.220847 3.402016
-1.789422 -30.563119 3.402016
-1.957482 -30.861972 3.402016
-1.981925 -30.905392 3.402016
-2.284574 -31.247665 3.402016
-2.856476 -31.589938 3.668571
-3.048043 -31.624330 3.668571
-3.319676 -31.589938 3.668571
-3.411564 -31.576675 3.668571
-3.775084 -31.429659 3.668571
-4.125169 -31.247665 3.668571
-4.138605 -31.238972 3.668571
-4.502125 -30.988489 3.668571
-4.630801 -30.905392 3.668571
-4.865646 -30.709122 3.668571
-5.058024 -30.563119 3.668571
-5.229166 -30.400375 3.668571
-5.426445 -30.220847 3.668571
-5.592687 -30.054815 3.668571
-5.756644 -29.878574 3.668571
-5.956207 -29.675735 3.668571
-6.070222 -29.536301 3.668571
-6.319728 -29.262394 3.668571
-6.369243 -29.194028 3.668571
-6.623755 -28.851756 3.668571
-6.683248 -28.762766 3.668571
-6.816405 -28.509483 3.668571
-6.932454 -28.167210 3.668571
-6.949537 -27.824937 3.668571
-6.857734 -27.482664 3.668571
-6.684338 -27.140392 3.668571
-6.683248 -27.138689 3.668571
-6.419453 -26.798119 3.668571
-6.319728 -26.665101 3.668571
-6.126927 -26.455846 3.668571
-5.956207 -26.244139 3.668571
-5.826181 -26.113573 3.668571
-5.592687 -25.858888 3.668571
-5.492100 -25.771301 3.668571
-5.229166 -25.563737 3.668571
-5.009222 -25.429028 3.668571
-4.865646 -25.360202 3.668571
-4.502125 -25.227423 3.668571
-4.138605 -25.125913 3.668571
-3.919559 -25.086755 3.668571
-3.775084 -25.066549 3.668571
-3.411564 -25.057190 3.668571
-3.179233 -25.086755 3.668571
-3.048043 -25.112334 3.668571
-2.684523 -25.281604 3.668571
-2.478591 -25.429028 3.668571
-2.321002 -25.648482 3.668571
-2.245633 -25.771301 3.668571
-2.186987 -26.113573 3.668571
-2.231915 -26.455846 3.668571
-2.321002 -26.773216 3.668571
-2.327893 -26.798119 3.668571
-2.427383 -27.140392 3.668571
-2.496286 -27.482664 3.668571
-2.515139 -27.824937 3.668571
-2.470484 -28.167210 3.668571
-2.352947 -28.509483 3.668571
-2.321002 -28.568325 3.668571
-2.167815 -28.851756 3.668571
-1.957482 -29.186448 3.668571
-1.952775 -29.194028 3.668571
-1.766465 -29.536301 3.668571
-1.665462 -29.878574 3.668571
-1.664886 -30.220847 3.668571
-1.760996 -30.563119 3.668571
-1.944271 -30.905392 3.668571
-1.957482 -30.921612 3.668571
-2.234810 -31.247665 3.668571
-2.321002 -31.323468 3.668571
-2.684523 -31.549636 3.668571
-2.856476 -31.589938 3.668571
-2.860875 -31.589938 3.935125
-3.048043 -31.624478 3.935125
-3.329558 -31.589938 3.935125
-3.411564 -31.578513 3.935125
-3.775084 -31.432389 3.935125
-4.129083 -31.247665 3.935125
-4.138605 -31.241512 3.935125
-4.502125 -30.988529 3.935125
-4.627966 -30.905392 3.935125
-4.865646 -30.702191 3.935125
-5.041515 -30.563119 3.935125
-5.229166 -30.375739 3.935125
-5.388445 -30.220847 3.935125
-5.592687 -29.998462 3.935125
-5.694479 -29.878574 3.935125
-5.956207 -29.580138 3.935125
-5.988551 -29.536301 3.935125
-6.260351 -29.194028 3.935125
-6.319728 -29.122704 3.935125
-6.498239 -28.851756 3.935125
-6.683248 -28.543768 3.935125
-6.699985 -28.509483 3.935125
-6.804589 -28.167210 3.935125
-6.821051 -27.824937 3.935125
-6.741137 -27.482664 3.935125
-6.683248 -27.355883 3.935125
-6.562469 -27.140392 3.935125
-6.337055 -26.798119 3.935125
-6.319728 -26.772217 3.935125
-6.065913 -26.455846 3.935125
-5.956207 -26.303185 3.935125
-5.790335 -26.113573 3.935125
-5.592687 -25.876793 3.935125
-5.482702 -25.771301 3.935125
-5.229166 -25.557044 3.935125
-5.032651 -25.429028 3.935125
-4.865646 -25.344514 3.935125
-4.502125 -25.204983 3.935125
-4.138605 -25.099521 3.935125
-4.068221 -25.086755 3.935125
-3.775084 -25.044498 3.935125
-3.411564 -25.033349 3.935125
-3.048043 -25.079179 3.935125
-3.022526 -25.086755 3.935125
-2.684523 -25.239115 3.935125
-2.415947 -25.429028 3.935125
-2.321002 -25.556019 3.935125
-2.184438 -25.771301 3.935125
-2.117247 -26.113573 3.935125
-2.149372 -26.455846 3.935125
-2.227742 -26.798119 3.935125
-2.309553 -27.140392 3.935125
-2.321002 -27.208517 3.935125
-2.364413 -27.482664 3.935125
-2.377735 -27.824937 3.935125
-2.340201 -28.167210 3.935125
-2.321002 -28.237505 3.935125
-2.242838 -28.509483 3.935125
-2.090901 -28.851756 3.935125
-1.957482 -29.102994 3.935125
-1.907231 -29.194028 3.935125
-1.743718 -29.536301 3.935125
-1.655835 -29.878574 3.935125
-1.662254 -30.220847 3.935125
-1.762262 -30.563119 3.935125
-1.947725 -30.905392 3.935125
-1.957482 -30.917345 3.935125
-2.239043 -31.247665 3.935125
-2.321002 -31.319983 3.935125
-2.684523 -31.547678 3.935125
-2.860875 -31.589938 3.935125
-2.299470 -31.247665 4.201680
-2.321002 -31.266087 4.201680
-2.684523 -31.487734 4.201680
-3.048043 -31.572288 4.201680
-3.411564 -31.523589 4.201680
-3.775084 -31.384399 4.201680
-4.042183 -31.247665 4.201680
-4.138605 -31.187542 4.201680
-4.502125 -30.943763 4.201680
-4.560953 -30.905392 4.201680
-4.865646 -30.650328 4.201680
-4.975646 -30.563119 4.201680
-5.229166 -30.308457 4.201680
-5.316373 -30.220847 4.201680
-5.592687 -29.902282 4.201680
-5.611435 -29.878574 4.201680
-5.875992 -29.536301 4.201680
-5.956207 -29.438460 4.201680
-6.125115 -29.194028 4.201680
-6.319728 -28.921896 4.201680
-6.360890 -28.851756 4.201680
-6.535091 -28.509483 4.201680
-6.651728 -28.167210 4.201680
-6.673199 -27.824937 4.201680
-6.591304 -27.482664 4.201680
-6.435151 -27.140392 4.201680
-6.319728 -26.934371 4.201680
-6.229142 -26.798119 4.201680
-6.000497 -26.455846 4.201680
-5.956207 -26.386493 4.201680
-5.746475 -26.113573 4.201680
-5.592687 -25.913867 4.201680
-5.455231 -25.771301 4.201680
-5.229166 -25.570881 4.201680
-5.018843 -25.429028 4.201680
-4.865646 -25.348852 4.201680
-4.502125 -25.205723 4.201680
-4.138605 -25.099752 4.201680
-4.067011 -25.086755 4.201680
-3.775084 -25.043521 4.201680
-3.411564 -25.030585 4.201680
-3.048043 -25.072868 4.201680
-2.998779 -25.086755 4.201680
-2.684523 -25.216655 4.201680
-2.362985 -25.429028 4.201680
-2.321002 -25.478185 4.201680
-2.111357 -25.771301 4.201680
-2.020780 -26.113573 4.201680
-2.029339 -26.455846 4.201680
-2.083079 -26.798119 4.201680
-2.141877 -27.140392 4.201680
-2.181609 -27.482664 4.201680
-2.189601 -27.824937 4.201680
-2.158941 -28.167210 4.201680
-2.085983 -28.509483 4.201680
-1.973331 -28.851756 4.201680
-1.957482 -28.892197 4.201680
-1.827955 -29.194028 4.201680
-1.706520 -29.536301 4.201680
-1.649256 -29.878574 4.201680
-1.677099 -30.220847 4.201680
-1.792992 -30.563119 4.201680
-1.957482 -30.842928 4.201680
-1.994386 -30.905392 4.201680
-2.299470 -31.247665 4.201680
-2.460361 -31.247665 4.468235
-2.684523 -31.375201 4.468235
-3.048043 -31.457624 4.468235
-3.411564 -31.416215 4.468235
-3.775084 -31.288573 4.468235
-3.858269 -31.247665 4.468235
-4.138605 -31.084238 4.468235
-4.423295 -30.905392 4.468235
-4.502125 -30.843504 4.468235
-4.860415 -30.563119 4.468235
-4.865646 -30.558001 4.468235
-5.213311 -30.220847 4.468235
-5.229166 -30.202818 4.468235
-5.503219 -29.878574 4.468235
-5.592687 -29.766288 4.468235
-5.757225 -29.536301 4.468235
-5.956207 -29.260684 4.468235
-5.997420 -29.194028 4.468235
-6.203745 -28.851756 4.468235
-6.319728 -28.633031 4.468235
-6.374966 -28.509483 4.468235
-6.474938 -28.167210 4.468235
-6.498620 -27.824937 4.468235
-6.439887 -27.482664 4.468235
-6.319728 -27.146468 4.468235
-6.317213 -27.140392 4.468235
-6.132478 -26.798119 4.468235
-5.956207 -26.486394 4.468235
-5.936104 -26.455846 4.468235
-5.702121 -26.113573 4.468235
-5.592687 -25.963115 4.468235
-5.416937 -25.771301 4.468235
-5.229166 -25.600763 4.468235
-4.976103 -25.429028 4.468235
-4.865646 -25.370424 4.468235
-4.502125 -25.226095 4.468235
-4.138605 -25.122011 4.468235
-3.942020 -25.086755 4.468235
-3.775084 -25.061450 4.468235
-3.411564 -25.046636 4.468235
-3.048043 -25.083765 4.468235
-3.036282 -25.086755 4.468235
-2.684523 -25.211663 4.468235
-2.321002 -25.424246 4.468235
-2.314292 -25.429028 4.468235
-2.019581 -25.771301 4.468235
-1.957482 -25.930538 4.468235
-1.887868 -26.113573 4.468235
-1.859696 -26.455846 4.468235
-1.887054 -26.798119 4.468235
-1.929272 -27.140392 4.468235
-1.957482 -27.455575 4.468235
-1.959381 -27.482664 4.468235
-1.963394 -27.824937 4.468235
-1.957482 -27.920186 4.468235
-1.938572 -28.167210 4.468235
-1.881311 -28.509483 4.468235
-1.800337 -28.851756 4.468235
-1.713823 -29.194028 4.468235
-1.650789 -29.536301 4.468235
-1.642129 -29.878574 4.468235
-1.708146 -30.220847 4.468235
-1.854576 -30.563119 4.468235
-1.957482 -30.714170 4.468235
-2.089765 -30.905392 4.468235
-2.321002 -31.140752 4.468235
-2.460361 -31.247665 4.468235
2.404764 -27.893947 4.734789
2.128130 -27.824937 4.734789
2.404764 -27.637707 4.734789
-2.799064 -31.247665 4.734789
-3.048043 -31.300522 4.734789
-3.411564 -31.267153 4.734789
-3.470708 -31.247665 4.734789
-3.775084 -31.133369 4.734789
-4.138605 -30.946328 4.734789
-4.209280 -30.905392 4.734789
-4.502125 -30.701637 4.734789
-4.695211 -30.563119 4.734789
-4.865646 -30.414806 4.734789
-5.079716 -30.220847 4.734789
-5.229166 -30.061944 4.734789
-5.387863 -29.878574 4.734789
-5.592687 -29.616887 4.734789
-5.648405 -29.536301 4.734789
-5.874278 -29.194028 4.734789
-5.956207 -29.060274 4.734789
-6.068775 -28.851756 4.734789
-6.224836 -28.509483 4.734789
-6.319728 -28.196734 4.734789
-6.327680 -28.167210 4.734789
-6.355881 -27.824937 4.734789
-6.319728 -27.517122 4.734789
-6.315262 -27.482664 4.734789
-6.207047 -27.140392 4.734789
-6.058413 -26.798119 4.734789
-5.956207 -26.592987 4.734789
-5.878002 -26.455846 4.734789
-5.661474 -26.113573 4.734789
-5.592687 -26.016326 4.734789
-5.372547 -25.771301 4.734789
-5.229166 -25.640959 4.734789
-4.910607 -25.429028 4.734789
-4.865646 -25.405251 4.734789
-4.502125 -25.260948 4.734789
-4.138605 -25.159793 4.734789
-3.775084 -25.096375 4.734789
-3.592314 -25.086755 4.734789
-3.411564 -25.078181 4.734789
-3.305782 -25.086755 4.734789
-3.048043 -25.113647 4.734789
-2.684523 -25.220720 4.734789
-2.321002 -25.399459 4.734789
-2.272243 -25.429028 4.734789
-1.957482 -25.719701 4.734789
-1.906129 -25.771301 4.734789
-1.714588 -26.113573 4.734789
-1.640467 -26.455846 4.734789
-1.632110 -26.798119 4.734789
-1.648318 -27.140392 4.734789
-1.664103 -27.482664 4.734789
-1.667883 -27.824937 4.734789
-1.656389 -28.167210 4.734789
-1.631508 -28.509483 4.734789
-1.600125 -28.851756 4.734789
-1.593961 -28.940401 4.734789
-1.571429 -29.194028 4.734789
-1.577211 -29.536301 4.734789
-1.593961 -29.626154 4.734789
-1.633868 -29.878574 4.734789
-1.755427 -30.220847 4.734789
-1.949854 -30.563119 4.734789
-1.957482 -30.572405 4.734789
-2.240035 -30.905392 4.734789
-2.321002 -30.977163 4.734789
-2.684523 -31.215388 4.734789
-2.799064 -31.247665 4.734789
2.404764 -27.949213 5.001344
2.041243 -27.886364 5.001344
1.677723 -27.834899 5.001344
1.572829 -27.824937 5.001344
1.677723 -27.801220 5.001344
2.041243 -27.675006 5.001344
2.404764 -27.519465 5.001344
-2.499651 -30.905392 5.001344
-2.684523 -31.006838 5.001344
-3.048043 -31.094147 5.001344
-3.411564 -31.065710 5.001344
-3.775084 -30.952860 5.001344
-3.878159 -30.905392 5.001344
-4.138605 -30.771561 5.001344
-4.483177 -30.563119 5.001344
-4.502125 -30.550262 5.001344
-4.865646 -30.272065 5.001344
-4.926771 -30.220847 5.001344
-5.229166 -29.925507 5.001344
-5.271627 -29.878574 5.001344
-5.547174 -29.536301 5.001344
-5.592687 -29.473835 5.001344
-5.773930 -29.194028 5.001344
-5.956207 -28.869568 5.001344
-5.965272 -28.851756 5.001344
-6.110749 -28.509483 5.001344
-6.207353 -28.167210 5.001344
-6.243603 -27.824937 5.001344
-6.216453 -27.482664 5.001344
-6.132769 -27.140392 5.001344
-6.005544 -26.798119 5.001344
-5.956207 -26.689773 5.001344
-5.835968 -26.455846 5.001344
-5.624723 -26.113573 5.001344
-5.592687 -26.068319 5.001344
-5.323164 -25.771301 5.001344
-5.229166 -25.687394 5.001344
-4.865646 -25.452315 5.001344
-4.815178 -25.429028 5.001344
-4.502125 -25.306073 5.001344
-4.138605 -25.207814 5.001344
-3.775084 -25.147325 5.001344
-3.411564 -25.126951 5.001344
-3.048043 -25.155421 5.001344
-2.684523 -25.242168 5.001344
-2.321002 -25.388215 5.001344
-2.239453 -25.429028 5.001344
-1.957482 -25.627623 5.001344
-1.775666 -25.771301 5.001344
-1.593961 -26.003791 5.001344
-1.506064 -26.113573 5.001344
-1.350522 -26.455846 5.001344
-1.281817 -26.798119 5.001344
-1.264593 -27.140392 5.001344
-1.270076 -27.482664 5.001344
-1.281363 -27.824937 5.001344
-1.293270 -28.167210 5.001344
-1.309343 -28.509483 5.001344
-1.338824 -28.851756 5.001344
-1.394137 -29.194028 5.001344
-1.488333 -29.536301 5.001344
-1.593961 -29.784450 5.001344
-1.628695 -29.878574 5.001344
-1.820693 -30.220847 5.001344
-1.957482 -30.397425 5.001344
-2.090725 -30.563119 5.001344
-2.321002 -30.779167 5.001344
-2.499651 -30.905392 5.001344
2.404764 -27.869666 5.267899
2.041243 -27.833397 5.267899
1.698670 -27.824937 5.267899
2.041243 -27.806367 5.267899
2.404764 -27.726893 5.267899
-2.275743 -30.563119 5.267899
-2.321002 -30.597073 5.267899
-2.684523 -30.798807 5.267899
-3.048043 -30.886715 5.267899
-3.411564 -30.865996 5.267899
-3.775084 -30.763626 5.267899
-4.138605 -30.605324 5.267899
-4.216516 -30.563119 5.267899
-4.502125 -30.397365 5.267899
-4.755663 -30.220847 5.267899
-4.865646 -30.137510 5.267899
-5.152485 -29.878574 5.267899
-5.229166 -29.801255 5.267899
-5.454724 -29.536301 5.267899
-5.592687 -29.348467 5.267899
-5.693725 -29.194028 5.267899
-5.884427 -28.851756 5.267899
-5.956207 -28.686403 5.267899
-6.029976 -28.509483 5.267899
-6.126773 -28.167210 5.267899
-6.168254 -27.824937 5.267899
-6.152714 -27.482664 5.267899
-6.083515 -27.140392 5.267899
-5.967609 -26.798119 5.267899
-5.956207 -26.771779 5.267899
-5.803559 -26.455846 5.267899
-5.592687 -26.120006 5.267899
-5.587725 -26.113573 5.267899
-5.265712 -25.771301 5.267899
-5.229166 -25.739697 5.267899
-4.865646 -25.508212 5.267899
-4.682129 -25.429028 5.267899
-4.502125 -25.360239 5.267899
-4.138605 -25.264283 5.267899
-3.775084 -25.206461 5.267899
-3.411564 -25.185972 5.267899
-3.048043 -25.207729 5.267899
-2.684523 -25.277640 5.267899
-2.321002 -25.395649 5.267899
-2.238521 -25.429028 5.267899
-1.957482 -25.578924 5.267899
-1.649389 -25.771301 5.267899
-1.593961 -25.822200 5.267899
-1.280488 -26.113573 5.267899
-1.230441 -26.186841 5.267899
-1.018260 -26.455846 5.267899
-0.866920 -26.714912 5.267899
-0.796330 -26.798119 5.267899
-0.503400 -27.132754 5.267899
-0.488318 -27.140392 5.267899
-0.139880 -27.317046 5.267899
0.223641 -27.391362 5.267899
0.587161 -27.458393 5.267899
0.716411 -27.482664 5.267899
0.950682 -27.615200 5.267899
1.314202 -27.765050 5.267899
1.669113 -27.824937 5.267899
1.314202 -27.852772 5.267899
0.950682 -27.921386 5.267899
0.587161 -28.014122 5.267899
0.223641 -28.087474 5.267899
-0.139880 -28.095961 5.267899
-0.503400 -28.106961 5.267899
-0.567954 -28.167210 5.267899
-0.866920 -28.401375 5.267899
-0.908667 -28.509483 5.267899
-1.072153 -28.851756 5.267899
-1.230441 -29.148999 5.267899
-1.246349 -29.194028 5.267899
-1.414900 -29.536301 5.267899
-1.593961 -29.807112 5.267899
-1.636111 -29.878574 5.267899
-1.907709 -30.220847 5.267899
-1.957482 -30.270330 5.267899
-2.275743 -30.563119 5.267899
-2.557646 -30.563119 5.534453
-2.684523 -30.620532 5.534453
-3.048043 -30.698921 5.534453
-3.411564 -30.686847 5.534453
-3.775084 -30.601392 5.534453
-3.872092 -30.563119 5.534453
-4.138605 -30.460700 5.534453
-4.502125 -30.267761 5.534453
-4.574594 -30.220847 5.534453
-4.865646 -30.020244 5.534453
-5.031981 -29.878574 5.534453
-5.229166 -29.691150 5.534453
-5.366929 -29.536301 5.534453
-5.592687 -29.236242 5.534453
-5.621138 -29.194028 5.534453
-5.820558 -28.851756 5.534453
-5.956207 -28.534453 5.534453
-5.966766 -28.509483 5.534453
-6.068423 -28.167210 5.534453
-6.115633 -27.824937 5.534453
-6.108066 -27.482664 5.534453
-6.047163 -27.140392 5.534453
-5.956207 -26.858068 5.534453
-5.935893 -26.798119 5.534453
-5.772259 -26.455846 5.534453
-5.592687 -26.177871 5.534453
-5.541318 -26.113573 5.534453
-5.229166 -25.801268 5.534453
-5.187404 -25.771301 5.534453
-4.865646 -25.571516 5.534453
-4.510339 -25.429028 5.534453
-4.502125 -25.425992 5.534453
-4.138605 -25.331628 5.534453
-3.775084 -25.276461 5.534453
-3.411564 -25.256965 5.534453
-3.048043 -25.274769 5.534453
-2.684523 -25.332573 5.534453
-2.321002 -25.428809 5.534453
-2.320322 -25.429028 5.534453
-1.957482 -25.575367 5.534453
-1.593961 -25.755966 5.534453
-1.565220 -25.771301 5.534453
-1.230441 -26.012235 5.534453
-1.097851 -26.113573 5.534453
-0.866920 -26.340099 5.534453
-0.744109 -26.455846 5.534453
-0.503400 -26.694588 5.534453
-0.379171 -26.798119 5.534453
-0.139880 -26.982697 5.534453
0.142904 -27.140392 5.534453
0.223641 -27.190171 5.534453
0.587161 -27.390809 5.534453
0.812513 -27.482664 5.534453
0.950682 -27.652435 5.534453
1.119588 -27.824937 5.534453
0.950682 -27.904427 5.534453
0.587161 -28.115620 5.534453
0.488897 -28.167210 5.534453
0.223641 -28.251022 5.534453
-0.139880 -28.364550 5.534453
-0.465377 -28.509483 5.534453
-0.503400 -28.526303 5.534453
-0.866920 -28.827621 5.534453
-0.881762 -28.851756 5.534453
-1.134665 -29.194028 5.534453
-1.230441 -29.306203 5.534453
-1.382168 -29.536301 5.534453
-1.593961 -29.783655 5.534453
-1.668736 -29.878574 5.534453
-1.957482 -30.163175 5.534453
-2.022265 -30.220847 5.534453
-2.321002 -30.441118 5.534453
-2.557646 -30.563119 5.534453
-2.169646 -30.220847 5.801008
-2.321002 -30.316252 5.801008
-2.684523 -30.477722 5.801008
-3.048043 -30.549093 5.801008
-3.411564 -30.542005 5.801008
-3.775084 -30.470013 5.801008
-4.138605 -30.340164 5.801008
-4.372355 -30.220847 5.801008
-4.502125 -30.155852 5.801008
-4.865646 -29.910625 5.801008
-4.904773 -29.878574 5.801008
-5.229166 -29.583929 5.801008
-5.273236 -29.536301 5.801008
-5.547578 -29.194028 5.801008
-5.592687 -29.124539 5.801008
-5.759346 -28.851756 5.801008
-5.911938 -28.509483 5.801008
-5.956207 -28.360668 5.801008
-6.016903 -28.167210 5.801008
-6.070485 -27.824937 5.801008
-6.068790 -27.482664 5.801008
-6.012139 -27.140392 5.801008
-5.956207 -26.962855 5.801008
-5.902222 -26.798119 5.801008
-5.732712 -26.455846 5.801008
-5.592687 -26.247847 5.801008
-5.479955 -26.113573 5.801008
-5.229166 -25.874940 5.801008
-5.074028 -25.771301 5.801008
-4.865646 -25.647877 5.801008
-4.502125 -25.504807 5.801008
-4.189593 -25.429028 5.801008
-4.138605 -25.416401 5.801008
-3.775084 -25.364492 5.801008
-3.411564 -25.347993 5.801008
-3.048043 -25.365612 5.801008
-2.684523 -25.416929 5.801008
-2.625942 -25.429028 5.801008
-2.321002 -25.502048 5.801008
-1.957482 -25.622270 5.801008
-1.593961 -25.769301 5.801008
-1.589442 -25.771301 5.801008
-1.230441 -25.978907 5.801008
-1.025807 -26.113573 5.801008
-0.866920 -26.246741 5.801008
-0.625943 -26.455846 5.801008
-0.503400 -26.572845 5.801008
-0.250676 -26.798119 5.801008
-0.139880 -26.895737 5.801008
0.184522 -27.140392 5.801008
0.223641 -27.174661 5.801008
0.587161 -27.460900 5.801008
0.620259 -27.482664 5.801008
0.757866 -27.824937 5.801008
0.587161 -27.975150 5.801008
0.347100 -28.167210 5.801008
0.223641 -28.225237 5.801008
-0.139880 -28.385139 5.801008
-0.368075 -28.509483 5.801008
-0.503400 -28.578661 5.801008
-0.826489 -28.851756 5.801008
-0.866920 -28.884582 5.801008
-1.121956 -29.194028 5.801008
-1.230441 -29.305520 5.801008
-1.408143 -29.536301 5.801008
-1.593961 -29.724214 5.801008
-1.738487 -29.878574 5.801008
-1.957482 -30.064697 5.801008
-2.169646 -30.220847 5.801008
-2.362927 -30.220847 6.067563
-2.684523 -30.357548 6.067563
-3.048043 -30.429127 6.067563
-3.411564 -30.425870 6.067563
-3.775084 -30.357881 6.067563
-4.138605 -30.227889 6.067563
-4.152655 -30.220847 6.067563
-4.502125 -30.052233 6.067563
-4.760327 -29.878574 6.067563
-4.865646 -29.804814 6.067563
-5.166687 -29.536301 6.067563
-5.229166 -29.472471 6.067563
-5.465426 -29.194028 6.067563
-5.592687 -29.003176 6.067563
-5.688978 -28.851756 6.067563
-5.853418 -28.509483 6.067563
-5.956207 -28.177289 6.067563
-5.959578 -28.167210 6.067563
-6.020485 -27.824937 6.067563
-6.023388 -27.482664 6.067563
-5.967911 -27.140392 6.067563
-5.956207 -27.103175 6.067563
-5.857100 -26.798119 6.067563
-5.674969 -26.455846 6.067563
-5.592687 -26.339414 6.067563
-5.391360 -26.113573 6.067563
-5.229166 -25.967428 6.067563
-4.911419 -25.771301 6.067563
-4.865646 -25.745601 6.067563
-4.502125 -25.602641 6.067563
-4.138605 -25.518883 6.067563
-3.775084 -25.476894 6.067563
-3.411564 -25.468378 6.067563
-3.048043 -25.490399 6.067563
-2.684523 -25.542858 6.067563
-2.321002 -25.625523 6.067563
-1.957482 -25.734276 6.067563
-1.843589 -25.771301 6.067563
-1.593961 -25.876627 6.067563
-1.230441 -26.058786 6.067563
-1.137137 -26.113573 6.067563
-0.866920 -26.316530 6.067563
-0.701310 -26.455846 6.067563
-0.503400 -26.646280 6.067563
-0.349055 -26.798119 6.067563
-0.139880 -27.012609 6.067563
-0.009728 -27.140392 6.067563
0.223641 -27.418508 6.067563
0.279831 -27.482664 6.067563
0.314910 -27.824937 6.067563
0.223641 -27.922478 6.067563
-0.064002 -28.167210 6.067563
-0.139880 -28.207959 6.067563
-0.503400 -28.427085 6.067563
-0.583839 -28.509483 6.067563
-0.866920 -28.758026 6.067563
-0.929528 -28.851756 6.067563
-1.218132 -29.194028 6.067563
-1.230441 -29.206121 6.067563
-1.501100 -29.536301 6.067563
-1.593961 -29.624260 6.067563
-1.854111 -29.878574 6.067563
-1.957482 -29.959637 6.067563
-2.321002 -30.201240 6.067563
-2.362927 -30.220847 6.067563
-2.640554 -30.220847 6.334117
-2.684523 -30.238325 6.334117
-3.048043 -30.314861 6.334117
-3.411564 -30.314678 6.334117
-3.775084 -30.246143 6.334117
-3.844677 -30.220847 6.334117
-4.138605 -30.125169 6.334117
-4.502125 -29.940587 6.334117
-4.594441 -29.878574 6.334117
-4.865646 -29.690934 6.334117
-5.041516 -29.536301 6.334117
-5.229166 -29.348467 6.334117
-5.364014 -29.194028 6.334117
-5.592687 -28.861491 6.334117
-5.599159 -28.851756 6.334117
-5.780487 -28.509483 6.334117
-5.895860 -28.167210 6.334117
-5.955256 -27.824937 6.334117
-5.956207 -27.766967 6.334117
-5.961727 -27.482664 6.334117
-5.956207 -27.447602 6.334117
-5.909556 -27.140392 6.334117
-5.790822 -26.798119 6.334117
-5.592687 -26.463049 6.334117
-5.587564 -26.455846 6.334117
-5.259037 -26.113573 6.334117
-5.229166 -26.088225 6.334117
-4.865646 -25.864649 6.334117
-4.610056 -25.771301 6.334117
-4.502125 -25.731522 6.334117
-4.138605 -25.652090 6.334117
-3.775084 -25.619331 6.334117
-3.411564 -25.624145 6.334117
-3.048043 -25.662633 6.334117
-2.684523 -25.732890 6.334117
-2.526265 -25.771301 6.334117
-2.321002 -25.828474 6.334117
-1.957482 -25.954947 6.334117
-1.593961 -26.112452 6.334117
-1.591385 -26.113573 6.334117
-1.230441 -26.335124 6.334117
-1.057720 -26.455846 6.334117
-0.866920 -26.648050 6.334117
-0.719971 -26.798119 6.334117
-0.503400 -27.099651 6.334117
-0.473327 -27.140392 6.334117
-0.351165 -27.482664 6.334117
-0.449345 -27.824937 6.334117
-0.503400 -27.879088 6.334117
-0.682292 -28.167210 6.334117
-0.866920 -28.384577 6.334117
-0.923221 -28.509483 6.334117
-1.137455 -28.851756 6.334117
-1.230441 -28.965560 6.334117
-1.366787 -29.194028 6.334117
-1.593961 -29.462993 6.334117
-1.650183 -29.536301 6.334117
-1.957482 -29.828607 6.334117
-2.017746 -29.878574 6.334117
-2.321002 -30.082614 6.334117
-2.640554 -30.220847 6.334117
-2.229503 -29.878574 6.600672
-2.321002 -29.939896 6.600672
-2.684523 -30.113567 6.600672
-3.048043 -30.192608 6.600672
-3.411564 -30.196050 6.600672
-3.775084 -30.135070 6.600672
-4.138605 -30.010118 6.600672
-4.384424 -29.878574 6.600672
-4.502125 -29.817565 6.600672
-4.865646 -29.555000 6.600672
-4.887045 -29.536301 6.600672
-5.229166 -29.199067 6.600672
-5.233684 -29.194028 6.600672
-5.494407 -28.851756 6.600672
-5.592687 -28.672363 6.600672
-5.683757 -28.509483 6.600672
-5.812000 -28.167210 6.600672
-5.877747 -27.824937 6.600672
-5.884375 -27.482664 6.600672
-5.826937 -27.140392 6.600672
-5.691960 -26.798119 6.600672
-5.592687 -26.638178 6.600672
-5.453968 -26.455846 6.600672
-5.229166 -26.240439 6.600672
-5.032321 -26.113573 6.600672
-4.865646 -26.017500 6.600672
-4.502125 -25.888737 6.600672
-4.138605 -25.826779 6.600672
-3.775084 -25.812756 6.600672
-3.411564 -25.838129 6.600672
-3.048043 -25.901328 6.600672
-2.684523 -26.006221 6.600672
-2.410830 -26.113573 6.600672
-2.321002 -26.155295 6.600672
-1.957482 -26.357553 6.600672
-1.802366 -26.455846 6.600672
-1.593961 -26.660438 6.600672
-1.452842 -26.798119 6.600672
-1.262429 -27.140392 6.600672
-1.230441 -27.264104 6.600672
-1.154293 -27.482664 6.600672
-1.126799 -27.824937 6.600672
-1.172535 -28.167210 6.600672
-1.230441 -28.338956 6.600672
-1.263904 -28.509483 6.600672
-1.387544 -28.851756 6.600672
-1.588528 -29.194028 6.600672
-1.593961 -29.200782 6.600672
-1.839381 -29.536301 6.600672
-1.957482 -29.650972 6.600672
-2.229503 -29.878574 6.600672
-2.525849 -29.878574 6.867227
-2.684523 -29.959691 6.867227
-3.048043 -30.057545 6.867227
-3.411564 -30.068452 6.867227
-3.775084 -30.005567 6.867227
-4.113267 -29.878574 6.867227
-4.138605 -29.869876 6.867227
-4.502125 -29.675945 6.867227
-4.691197 -29.536301 6.867227
-4.865646 -29.398288 6.867227
-5.076584 -29.194028 6.867227
-5.229166 -29.015179 6.867227
-5.357916 -28.851756 6.867227
-5.557393 -28.509483 6.867227
-5.592687 -28.418495 6.867227
-5.697450 -28.167210 6.867227
-5.770434 -27.824937 6.867227
-5.775696 -27.482664 6.867227
-5.706462 -27.140392 6.867227
-5.592687 -26.889138 6.867227
-5.544602 -26.798119 6.867227
-5.248019 -26.455846 6.867227
-5.229166 -26.439141 6.867227
-4.865646 -26.212700 6.867227
-4.556866 -26.113573 6.867227
-4.502125 -26.095921 6.867227
-4.138605 -26.045707 6.867227
-3.775084 -26.056220 6.867227
-3.456506 -26.113573 6.867227
-3.411564 -26.121024 6.867227
-3.048043 -26.226153 6.867227
-2.684523 -26.397979 6.867227
-2.585341 -26.455846 6.867227
-2.321002 -26.646017 6.867227
-2.146420 -26.798119 6.867227
-1.957482 -27.040860 6.867227
-1.879168 -27.140392 6.867227
-1.702181 -27.482664 6.867227
-1.613578 -27.824937 6.867227
-1.593961 -28.024004 6.867227
-1.574987 -28.167210 6.867227
-1.593961 -28.420106 6.867227
-1.598396 -28.509483 6.867227
-1.672929 -28.851756 6.867227
-1.825632 -29.194028 6.867227
-1.957482 -29.376198 6.867227
-2.080128 -29.536301 6.867227
-2.321002 -29.751718 6.867227
-2.525849 -29.878574 6.867227
-3.043838 -29.878574 7.133781
-3.048043 -29.879844 7.133781
-3.411564 -29.903208 7.133781
-3.546367 -29.878574 7.133781
-3.775084 -29.842386 7.133781
-4.138605 -29.709893 7.133781
-4.435687 -29.536301 7.133781
-4.502125 -29.496796 7.133781
-4.865646 -29.201552 7.133781
-4.873472 -29.194028 7.133781
-5.178461 -28.851756 7.133781
-5.229166 -28.775933 7.133781
-5.401072 -28.509483 7.133781
-5.544082 -28.167210 7.133781
-5.592687 -27.935673 7.133781
-5.618938 -27.824937 7.133781
-5.618937 -27.482664 7.133781
-5.592687 -27.374603 7.133781
-5.529990 -27.140392 7.133781
-5.318240 -26.798119 7.133781
-5.229166 -26.705197 7.133781
-4.865646 -26.463332 7.133781
-4.843524 -26.455846 7.133781
-4.502125 -26.349359 7.133781
-4.138605 -26.322715 7.133781
-3.775084 -26.366390 7.133781
-3.484613 -26.455846 7.133781
-3.411564 -26.477382 7.133781
-3.048043 -26.648063 7.133781
-2.828704 -26.798119 7.133781
-2.684523 -26.914575 7.133781
-2.455407 -27.140392 7.133781
-2.321002 -27.325158 7.133781
-2.208528 -27.482664 7.133781
-2.049119 -27.824937 7.133781
-1.965845 -28.167210 7.133781
-1.957482 -28.296606 7.133781
-1.940036 -28.509483 7.133781
-1.957482 -28.623361 7.133781
-1.987087 -28.851756 7.133781
-2.117518 -29.194028 7.133781
-2.321002 -29.469741 7.133781
-2.383879 -29.536301 7.133781
-2.684523 -29.753640 7.133781
-3.043838 -29.878574 7.133781
-2.834670 -29.536301 7.400336
-3.048043 -29.639162 7.400336
-3.411564 -29.690143 7.400336
-3.775084 -29.637938 7.400336
-4.033303 -29.536301 7.400336
-4.138605 -29.496170 7.400336
-4.502125 -29.271228 7.400336
-4.595855 -29.194028 7.400336
-4.865646 -28.939812 7.400336
-4.945822 -28.851756 7.400336
-5.185492 -28.509483 7.400336
-5.229166 -28.414081 7.400336
-5.342976 -28.167210 7.400336
-5.415348 -27.824937 7.400336
-5.396368 -27.482664 7.400336
-5.258796 -27.140392 7.400336
-5.229166 -27.100307 7.400336
-4.876820 -26.798119 7.400336
-4.865646 -26.791427 7.400336
-4.502125 -26.681499 7.400336
-4.138605 -26.678885 7.400336
-3.775084 -26.763364 7.400336
-3.697545 -26.798119 7.400336
-3.411564 -26.927065 7.400336
-3.105174 -27.140392 7.400336
-3.048043 -27.186921 7.400336
-2.760735 -27.482664 7.400336
-2.684523 -27.590973 7.400336
-2.529125 -27.824937 7.400336
-2.389730 -28.167210 7.400336
-2.328371 -28.509483 7.400336
-2.349201 -28.851756 7.400336
-2.482023 -29.194028 7.400336
-2.684523 -29.432605 7.400336
-2.834670 -29.536301 7.400336
-3.021521 -29.194028 7.666891
-3.048043 -29.217515 7.666891
-3.411564 -29.360523 7.666891
-3.775084 -29.337654 7.666891
-4.138605 -29.200510 7.666891
-4.148588 -29.194028 7.666891
-4.502125 -28.942255 7.666891
-4.598291 -28.851756 7.666891
-4.865646 -28.530719 7.666891
-4.881315 -28.509483 7.666891
-5.040981 -28.167210 7.666891
-5.096121 -27.824937 7.666891
-5.010690 -27.482664 7.666891
-4.865646 -27.305372 7.666891
-4.524025 -27.140392 7.666891
-4.502125 -27.133664 7.666891
-4.341329 -27.140392 7.666891
-4.138605 -27.148778 7.666891
-3.775084 -27.281610 7.666891
-3.461307 -27.482664 7.666891
-3.411564 -27.520999 7.666891
-3.122484 -27.824937 7.666891
-3.048043 -27.938240 7.666891
-2.914023 -28.167210 7.666891
-2.813514 -28.509483 7.666891
-2.828197 -28.851756 7.666891
-3.021521 -29.194028 7.666891
-3.691232 -28.509483 7.933445
-3.775084 -28.618042 7.933445
-4.138605 -28.560228 7.933445
-4.195675 -28.509483 7.933445
-4.343193 -28.167210 7.933445
-4.138605 -28.008171 7.933445
-3.807258 -28.167210 7.933445
-3.775084 -28.214216 7.933445
-3.691232 -28.509483 7.933445
