ply
format ascii 1.0
element vertex 1623
property float x
property float y
property float z
end_header
-3.622956 -28.167210 0.203360
-3.775084 -28.243231 0.203360
-4.138605 -28.331327 0.203360
-4.502125 -28.249393 0.203360
-4.581584 -28.167210 0.203360
-4.642010 -27.824937 0.203360
-4.502125 -27.583332 0.203360
-4.268069 -27.482664 0.203360
-4.138605 -27.453421 0.203360
-3.934188 -27.482664 0.203360
-3.775084 -27.555740 0.203360
-3.510101 -27.824937 0.203360
-3.622956 -28.167210 0.203360
-3.306864 -28.509483 0.469915
-3.411564 -28.555156 0.469915
-3.775084 -28.675372 0.469915
-4.138605 -28.737276 0.469915
-4.502125 -28.721053 0.469915
-4.865646 -28.591494 0.469915
-4.957701 -28.509483 0.469915
-5.202802 -28.167210 0.469915
-5.229166 -27.912941 0.469915
-5.233050 -27.824937 0.469915
-5.229166 -27.810273 0.469915
-5.048631 -27.482664 0.469915
-4.865646 -27.278534 0.469915
-4.590824 -27.140392 0.469915
-4.502125 -27.105720 0.469915
-4.138605 -27.083230 0.469915
-3.775084 -27.132058 0.469915
-3.739126 -27.140392 0.469915
-3.411564 -27.314499 0.469915
-3.173410 -27.482664 0.469915
-3.048043 -27.737961 0.469915
-3.009740 -27.824937 0.469915
-3.031497 -28.167210 0.469915
-3.048043 -28.192279 0.469915
-3.306864 -28.509483 0.469915
-3.116284 -28.851756 0.736470
-3.411564 -28.939175 0.736470
-3.775084 -29.002693 0.736470
-4.138605 -29.032666 0.736470
-4.502125 -29.024556 0.736470
-4.865646 -28.955175 0.736470
-5.080204 -28.851756 0.736470
-5.229166 -28.763011 0.736470
-5.442828 -28.509483 0.736470
-5.592687 -28.247269 0.736470
-5.617531 -28.167210 0.736470
-5.628071 -27.824937 0.736470
-5.592687 -27.685407 0.736470
-5.496117 -27.482664 0.736470
-5.240162 -27.140392 0.736470
-5.229166 -27.128207 0.736470
-4.865646 -26.916192 0.736470
-4.502125 -26.812217 0.736470
-4.138605 -26.799331 0.736470
-3.775084 -26.860010 0.736470
-3.411564 -26.982168 0.736470
-3.082722 -27.140392 0.736470
-3.048043 -27.178414 0.736470
-2.804657 -27.482664 0.736470
-2.685754 -27.824937 0.736470
-2.684523 -27.846108 0.736470
-2.669545 -28.167210 0.736470
-2.684523 -28.231982 0.736470
-2.767055 -28.509483 0.736470
-3.048043 -28.800394 0.736470
-3.116284 -28.851756 0.736470
-2.929565 -29.194028 1.003024
-3.048043 -29.236980 1.003024
-3.411564 -29.298849 1.003024
-3.775084 -29.312737 1.003024
-4.138605 -29.306685 1.003024
-4.502125 -29.285943 1.003024
-4.865646 -29.234001 1.003024
-4.982355 -29.194028 1.003024
-5.229166 -29.096766 1.003024
-5.575772 -28.851756 1.003024
-5.592687 -28.838000 1.003024
-5.816677 -28.509483 1.003024
-5.956207 -28.213743 1.003024
-5.969538 -28.167210 1.003024
-5.978200 -27.824937 1.003024
-5.956207 -27.735024 1.003024
-5.852303 -27.482664 1.003024
-5.626859 -27.140392 1.003024
-5.592687 -27.096204 1.003024
-5.229166 -26.800993 1.003024
-5.222477 -26.798119 1.003024
-4.865646 -26.653777 1.003024
-4.502125 -26.587943 1.003024
-4.138605 -26.582278 1.003024
-3.775084 -26.621517 1.003024
-3.411564 -26.701014 1.003024
-3.119474 -26.798119 1.003024
-3.048043 -26.849185 1.003024
-2.722528 -27.140392 1.003024
-2.684523 -27.210632 1.003024
-2.559367 -27.482664 1.003024
-2.470360 -27.824937 1.003024
-2.425199 -28.167210 1.003024
-2.439717 -28.509483 1.003024
-2.559065 -28.851756 1.003024
-2.684523 -28.996044 1.003024
-2.929565 -29.194028 1.003024
-2.733914 -29.536301 1.269579
-3.048043 -29.631828 1.269579
-3.411564 -29.655263 1.269579
-3.775084 -29.625354 1.269579
-4.138605 -29.582076 1.269579
-4.502125 -29.538230 1.269579
-4.513076 -29.536301 1.269579
-4.865646 -29.462378 1.269579
-5.229166 -29.347132 1.269579
-5.513734 -29.194028 1.269579
-5.592687 -29.149160 1.269579
-5.903037 -28.851756 1.269579
-5.956207 -28.795354 1.269579
-6.123402 -28.509483 1.269579
-6.257203 -28.167210 1.269579
-6.270066 -27.824937 1.269579
-6.151520 -27.482664 1.269579
-5.956207 -27.142732 1.269579
-5.954033 -27.140392 1.269579
-5.605164 -26.798119 1.269579
-5.592687 -26.785469 1.269579
-5.229166 -26.561902 1.269579
-4.946369 -26.455846 1.269579
-4.865646 -26.427325 1.269579
-4.502125 -26.374910 1.269579
-4.138605 -26.364098 1.269579
-3.775084 -26.382634 1.269579
-3.411564 -26.431093 1.269579
-3.302327 -26.455846 1.269579
-3.048043 -26.572953 1.269579
-2.711052 -26.798119 1.269579
-2.684523 -26.835086 1.269579
-2.499378 -27.140392 1.269579
-2.378299 -27.482664 1.269579
-2.321002 -27.708971 1.269579
-2.297676 -27.824937 1.269579
-2.241434 -28.167210 1.269579
-2.210364 -28.509483 1.269579
-2.238067 -28.851756 1.269579
-2.321002 -29.077756 1.269579
-2.373117 -29.194028 1.269579
-2.684523 -29.503838 1.269579
-2.733914 -29.536301 1.269579
-2.616143 -29.878574 1.536134
-2.684523 -29.913840 1.536134
-3.048043 -30.009200 1.536134
-3.411564 -30.004516 1.536134
-3.775084 -29.940209 1.536134
-4.057015 -29.878574 1.536134
-4.138605 -29.854447 1.536134
-4.502125 -29.753360 1.536134
-4.865646 -29.666931 1.536134
-5.229166 -29.562434 1.536134
-5.282950 -29.536301 1.536134
-5.592687 -29.379330 1.536134
-5.829815 -29.194028 1.536134
-5.956207 -29.095251 1.536134
-6.158166 -28.851756 1.536134
-6.319728 -28.638090 1.536134
-6.387223 -28.509483 1.536134
-6.499838 -28.167210 1.536134
-6.511324 -27.824937 1.536134
-6.412471 -27.482664 1.536134
-6.319728 -27.305110 1.536134
-6.194752 -27.140392 1.536134
-5.956207 -26.857719 1.536134
-5.880149 -26.798119 1.536134
-5.592687 -26.560246 1.536134
-5.399875 -26.455846 1.536134
-5.229166 -26.359610 1.536134
-4.865646 -26.243118 1.536134
-4.502125 -26.179194 1.536134
-4.138605 -26.150976 1.536134
-3.775084 -26.154132 1.536134
-3.411564 -26.201303 1.536134
-3.048043 -26.313885 1.536134
-2.766927 -26.455846 1.536134
-2.684523 -26.540589 1.536134
-2.481281 -26.798119 1.536134
-2.335134 -27.140392 1.536134
-2.321002 -27.195332 1.536134
-2.257426 -27.482664 1.536134
-2.185915 -27.824937 1.536134
-2.104951 -28.167210 1.536134
-2.033337 -28.509483 1.536134
-2.011670 -28.851756 1.536134
-2.076893 -29.194028 1.536134
-2.247166 -29.536301 1.536134
-2.321002 -29.614761 1.536134
-2.616143 -29.878574 1.536134
-2.576786 -30.220847 1.802688
-2.684523 -30.274186 1.802688
-3.048043 -30.357290 1.802688
-3.411564 -30.334811 1.802688
-3.775084 -30.248408 1.802688
-3.863904 -30.220847 1.802688
-4.138605 -30.105993 1.802688
-4.502125 -29.978504 1.802688
-4.847301 -29.878574 1.802688
-4.865646 -29.872371 1.802688
-5.229166 -29.736061 1.802688
-5.592687 -29.568555 1.802688
-5.637078 -29.536301 1.802688
-5.956207 -29.310067 1.802688
-6.067635 -29.194028 1.802688
-6.319728 -28.937636 1.802688
-6.379956 -28.851756 1.802688
-6.589337 -28.509483 1.802688
-6.683248 -28.277030 1.802688
-6.716152 -28.167210 1.802688
-6.727129 -27.824937 1.802688
-6.683248 -27.651512 1.802688
-6.623799 -27.482664 1.802688
-6.410826 -27.140392 1.802688
-6.319728 -27.016330 1.802688
-6.098390 -26.798119 1.802688
-5.956207 -26.650220 1.802688
-5.689779 -26.455846 1.802688
-5.592687 -26.377354 1.802688
-5.229166 -26.187330 1.802688
-5.010878 -26.113573 1.802688
-4.865646 -26.067876 1.802688
-4.502125 -26.005046 1.802688
-4.138605 -25.969821 1.802688
-3.775084 -25.958594 1.802688
-3.411564 -25.982935 1.802688
-3.048043 -26.061992 1.802688
-2.914404 -26.113573 1.802688
-2.684523 -26.282610 1.802688
-2.504535 -26.455846 1.802688
-2.321002 -26.794307 1.802688
-2.319199 -26.798119 1.802688
-2.238007 -27.140392 1.802688
-2.177006 -27.482664 1.802688
-2.100345 -27.824937 1.802688
-1.995181 -28.167210 1.802688
-1.957482 -28.279770 1.802688
-1.902450 -28.509483 1.802688
-1.850149 -28.851756 1.802688
-1.862046 -29.194028 1.802688
-1.956618 -29.536301 1.802688
-1.957482 -29.537662 1.802688
-2.179634 -29.878574 1.802688
-2.321002 -30.014298 1.802688
-2.576786 -30.220847 1.802688
-2.613465 -30.563119 2.069243
-2.684523 -30.596674 2.069243
-3.048043 -30.669181 2.069243
-3.411564 -30.637236 2.069243
-3.680779 -30.563119 2.069243
-3.775084 -30.526911 2.069243
-4.138605 -30.356965 2.069243
-4.476087 -30.220847 2.069243
-4.502125 -30.207405 2.069243
-4.865646 -30.042185 2.069243
-5.229166 -29.900479 2.069243
-5.273648 -29.878574 2.069243
-5.592687 -29.715349 2.069243
-5.853979 -29.536301 2.069243
-5.956207 -29.469963 2.069243
-6.248532 -29.194028 2.069243
-6.319728 -29.129215 2.069243
-6.534061 -28.851756 2.069243
-6.683248 -28.637878 2.069243
-6.751230 -28.509483 2.069243
-6.864394 -28.167210 2.069243
-6.878035 -27.824937 2.069243
-6.782131 -27.482664 2.069243
-6.683248 -27.295242 2.069243
-6.573909 -27.140392 2.069243
-6.319728 -26.828883 2.069243
-6.284458 -26.798119 2.069243
-5.956207 -26.493659 2.069243
-5.898121 -26.455846 2.069243
-5.592687 -26.231060 2.069243
-5.365816 -26.113573 2.069243
-5.229166 -26.040898 2.069243
-4.865646 -25.919564 2.069243
-4.502125 -25.835032 2.069243
-4.138605 -25.773465 2.069243
-4.113119 -25.771301 2.069243
-3.775084 -25.750539 2.069243
-3.411564 -25.759928 2.069243
-3.335084 -25.771301 2.069243
-3.048043 -25.848558 2.069243
-2.684523 -26.039656 2.069243
-2.583613 -26.113573 2.069243
-2.332358 -26.455846 2.069243
-2.321002 -26.489339 2.069243
-2.227009 -26.798119 2.069243
-2.173337 -27.140392 2.069243
-2.124264 -27.482664 2.069243
-2.043508 -27.824937 2.069243
-1.957482 -28.060052 2.069243
-1.925815 -28.167210 2.069243
-1.810915 -28.509483 2.069243
-1.722735 -28.851756 2.069243
-1.700464 -29.194028 2.069243
-1.762472 -29.536301 2.069243
-1.909956 -29.878574 2.069243
-1.957482 -29.940519 2.069243
-2.170114 -30.220847 2.069243
-2.321002 -30.353100 2.069243
-2.613465 -30.563119 2.069243
-2.821364 -30.905392 2.335798
-3.048043 -30.944738 2.335798
-3.411564 -30.908497 2.335798
-3.421755 -30.905392 2.335798
-3.775084 -30.765482 2.335798
-4.138605 -30.599519 2.335798
-4.218496 -30.563119 2.335798
-4.502125 -30.396505 2.335798
-4.865646 -30.224424 2.335798
-4.873506 -30.220847 2.335798
-5.229166 -30.033879 2.335798
-5.521506 -29.878574 2.335798
-5.592687 -29.840566 2.335798
-5.956207 -29.588838 2.335798
-6.010500 -29.536301 2.335798
-6.319728 -29.260355 2.335798
-6.374271 -29.194028 2.335798
-6.662596 -28.851756 2.335798
-6.683248 -28.824134 2.335798
-6.859289 -28.509483 2.335798
-6.983363 -28.167210 2.335798
-6.999418 -27.824937 2.335798
-6.895912 -27.482664 2.335798
-6.703381 -27.140392 2.335798
-6.683248 -27.111780 2.335798
-6.402002 -26.798119 2.335798
-6.319728 -26.703312 2.335798
-6.035216 -26.455846 2.335798
-5.956207 -26.376986 2.335798
-5.596520 -26.113573 2.335798
-5.592687 -26.110473 2.335798
-5.229166 -25.916288 2.335798
-4.865839 -25.771301 2.335798
-4.865646 -25.771233 2.335798
-4.502125 -25.687689 2.335798
-4.138605 -25.627444 2.335798
-3.775084 -25.591468 2.335798
-3.411564 -25.595618 2.335798
-3.048043 -25.662682 2.335798
-2.768153 -25.771301 2.335798
-2.684523 -25.830915 2.335798
-2.393812 -26.113573 2.335798
-2.321002 -26.256762 2.335798
-2.231527 -26.455846 2.335798
-2.164551 -26.798119 2.335798
-2.133488 -27.140392 2.335798
-2.094889 -27.482664 2.335798
-2.012400 -27.824937 2.335798
-1.957482 -27.960516 2.335798
-1.886157 -28.167210 2.335798
-1.742709 -28.509483 2.335798
-1.621343 -28.851756 2.335798
-1.593961 -29.016159 2.335798
-1.572911 -29.194028 2.335798
-1.593961 -29.427227 2.335798
-1.603805 -29.536301 2.335798
-1.724133 -29.878574 2.335798
-1.920998 -30.220847 2.335798
-1.957482 -30.261622 2.335798
-2.222982 -30.563119 2.335798
-2.321002 -30.641961 2.335798
-2.684523 -30.868752 2.335798
-2.821364 -30.905392 2.335798
-2.348119 -30.905392 2.602352
-2.684523 -31.087133 2.602352
-3.048043 -31.163643 2.602352
-3.411564 -31.114092 2.602352
-3.775084 -30.984463 2.602352
-3.949017 -30.905392 2.602352
-4.138605 -30.794150 2.602352
-4.502125 -30.590872 2.602352
-4.556674 -30.563119 2.602352
-4.865646 -30.365404 2.602352
-5.131476 -30.220847 2.602352
-5.229166 -30.160409 2.602352
-5.592687 -29.937007 2.602352
-5.670200 -29.878574 2.602352
-5.956207 -29.671944 2.602352
-6.097481 -29.536301 2.602352
-6.319728 -29.342213 2.602352
-6.445284 -29.194028 2.602352
-6.683248 -28.922815 2.602352
-6.731724 -28.851756 2.602352
-6.932164 -28.509483 2.602352
-7.046769 -28.209240 2.602352
-7.060000 -28.167210 2.602352
-7.074044 -27.824937 2.602352
-7.046769 -27.716310 2.602352
-6.973156 -27.482664 2.602352
-6.771381 -27.140392 2.602352
-6.683248 -27.019216 2.602352
-6.477586 -26.798119 2.602352
-6.319728 -26.622398 2.602352
-6.122479 -26.455846 2.602352
-5.956207 -26.293626 2.602352
-5.709347 -26.113573 2.602352
-5.592687 -26.018429 2.602352
-5.229166 -25.804196 2.602352
-5.153808 -25.771301 2.602352
-4.865646 -25.660669 2.602352
-4.502125 -25.556868 2.602352
-4.138605 -25.475101 2.602352
-3.826463 -25.429028 2.602352
-3.775084 -25.423430 2.602352
-3.411564 -25.420593 2.602352
-3.345200 -25.429028 2.602352
-3.048043 -25.491941 2.602352
-2.684523 -25.664947 2.602352
-2.532047 -25.771301 2.602352
-2.321002 -26.038548 2.602352
-2.270147 -26.113573 2.602352
-2.162071 -26.455846 2.602352
-2.123499 -26.798119 2.602352
-2.110100 -27.140392 2.602352
-2.080626 -27.482664 2.602352
-1.999557 -27.824937 2.602352
-1.957482 -27.924378 2.602352
-1.865351 -28.167210 2.602352
-1.699096 -28.509483 2.602352
-1.593961 -28.742524 2.602352
-1.556547 -28.851756 2.602352
-1.487298 -29.194028 2.602352
-1.494477 -29.536301 2.602352
-1.582152 -29.878574 2.602352
-1.593961 -29.899895 2.602352
-1.753844 -30.220847 2.602352
-1.957482 -30.505996 2.602352
-1.996885 -30.563119 2.602352
-2.321002 -30.883840 2.602352
-2.348119 -30.905392 2.602352
-2.617004 -31.247665 2.868907
-2.684523 -31.280238 2.868907
-3.048043 -31.345391 2.868907
-3.411564 -31.299984 2.868907
-3.564362 -31.247665 2.868907
-3.775084 -31.159139 2.868907
-4.138605 -30.967872 2.868907
-4.255108 -30.905392 2.868907
-4.502125 -30.735652 2.868907
-4.788827 -30.563119 2.868907
-4.865646 -30.504490 2.868907
-5.229166 -30.263996 2.868907
-5.294836 -30.220847 2.868907
-5.592687 -30.008671 2.868907
-5.753558 -29.878574 2.868907
-5.956207 -29.724024 2.868907
-6.147258 -29.536301 2.868907
-6.319728 -29.383804 2.868907
-6.480657 -29.194028 2.868907
-6.683248 -28.964327 2.868907
-6.760688 -28.851756 2.868907
-6.964646 -28.509483 2.868907
-7.046769 -28.296425 2.868907
-7.087784 -28.167210 2.868907
-7.102494 -27.824937 2.868907
-7.046769 -27.604525 2.868907
-7.008065 -27.482664 2.868907
-6.803482 -27.140392 2.868907
-6.683248 -26.976295 2.868907
-6.516841 -26.798119 2.868907
-6.319728 -26.579220 2.868907
-6.174824 -26.455846 2.868907
-5.956207 -26.239926 2.868907
-5.788609 -26.113573 2.868907
-5.592687 -25.947499 2.868907
-5.318409 -25.771301 2.868907
-5.229166 -25.717010 2.868907
-4.865646 -25.557965 2.868907
-4.502125 -25.430209 2.868907
-4.497708 -25.429028 2.868907
-4.138605 -25.356883 2.868907
-3.775084 -25.309993 2.868907
-3.411564 -25.303132 2.868907
-3.048043 -25.356550 2.868907
-2.836222 -25.429028 2.868907
-2.684523 -25.516022 2.868907
-2.379390 -25.771301 2.868907
-2.321002 -25.865567 2.868907
-2.188493 -26.113573 2.868907
-2.111504 -26.455846 2.868907
-2.093562 -26.798119 2.868907
-2.092771 -27.140392 2.868907
-2.070860 -27.482664 2.868907
-1.994500 -27.824937 2.868907
-1.957482 -27.913652 2.868907
-1.857748 -28.167210 2.868907
-1.677440 -28.509483 2.868907
-1.593961 -28.669025 2.868907
-1.517538 -28.851756 2.868907
-1.425697 -29.194028 2.868907
-1.414650 -29.536301 2.868907
-1.485829 -29.878574 2.868907
-1.593961 -30.120869 2.868907
-1.633204 -30.220847 2.868907
-1.848993 -30.563119 2.868907
-1.957482 -30.688040 2.868907
-2.144479 -30.905392 2.868907
-2.321002 -31.056655 2.868907
-2.617004 -31.247665 2.868907
-2.383325 -31.247665 3.135461
-2.684523 -31.410319 3.135461
-3.048043 -31.482278 3.135461
-3.411564 -31.431224 3.135461
-3.775084 -31.298396 3.135461
-3.879511 -31.247665 3.135461
-4.138605 -31.093523 3.135461
-4.453906 -30.905392 3.135461
-4.502125 -30.867893 3.135461
-4.865646 -30.611184 3.135461
-4.941434 -30.563119 3.135461
-5.229166 -30.338379 3.135461
-5.387188 -30.220847 3.135461
-5.592687 -30.055920 3.135461
-5.793415 -29.878574 3.135461
-5.956207 -29.744179 3.135461
-6.157166 -29.536301 3.135461
-6.319728 -29.386025 3.135461
-6.478148 -29.194028 3.135461
-6.683248 -28.955919 3.135461
-6.753873 -28.851756 3.135461
-6.954797 -28.509483 3.135461
-7.046769 -28.268269 3.135461
-7.078670 -28.167210 3.135461
-7.093500 -27.824937 3.135461
-7.046769 -27.637507 3.135461
-6.998603 -27.482664 3.135461
-6.798081 -27.140392 3.135461
-6.683248 -26.980738 3.135461
-6.517591 -26.798119 3.135461
-6.319728 -26.571733 3.135461
-6.189706 -26.455846 3.135461
-5.956207 -26.214375 3.135461
-5.831190 -26.113573 3.135461
-5.592687 -25.897859 3.135461
-5.412564 -25.771301 3.135461
-5.229166 -25.650058 3.135461
-4.865646 -25.467999 3.135461
-4.767643 -25.429028 3.135461
-4.502125 -25.347749 3.135461
-4.138605 -25.262922 3.135461
-3.775084 -25.206721 3.135461
-3.411564 -25.195243 3.135461
-3.048043 -25.251484 3.135461
-2.684523 -25.391244 3.135461
-2.619766 -25.429028 3.135461
-2.321002 -25.717622 3.135461
-2.275098 -25.771301 3.135461
-2.124508 -26.113573 3.135461
-2.068648 -26.455846 3.135461
-2.063666 -26.798119 3.135461
-2.070272 -27.140392 3.135461
-2.053980 -27.482664 3.135461
-1.985212 -27.824937 3.135461
-1.957482 -27.896824 3.135461
-1.854179 -28.167210 3.135461
-1.671602 -28.509483 3.135461
-1.593961 -28.649526 3.135461
-1.498760 -28.851756 3.135461
-1.389642 -29.194028 3.135461
-1.364769 -29.536301 3.135461
-1.423907 -29.878574 3.135461
-1.556604 -30.220847 3.135461
-1.593961 -30.278221 3.135461
-1.754252 -30.563119 3.135461
-1.957482 -30.829519 3.135461
-2.014146 -30.905392 3.135461
-2.321002 -31.201486 3.135461
-2.383325 -31.247665 3.135461
-2.269975 -31.247665 3.402016
-2.321002 -31.289666 3.402016
-2.684523 -31.503248 3.402016
-3.048043 -31.582031 3.402016
-3.411564 -31.527757 3.402016
-3.775084 -31.385264 3.402016
-4.045946 -31.247665 3.402016
-4.138605 -31.189277 3.402016
-4.502125 -30.951461 3.402016
-4.577282 -30.905392 3.402016
-4.865646 -30.677957 3.402016
-5.028244 -30.563119 3.402016
-5.229166 -30.387036 3.402016
-5.428864 -30.220847 3.402016
-5.592687 -30.073298 3.402016
-5.792419 -29.878574 3.402016
-5.956207 -29.729461 3.402016
-6.129405 -29.536301 3.402016
-6.319728 -29.346973 3.402016
-6.439333 -29.194028 3.402016
-6.683248 -28.895933 3.402016
-6.712124 -28.851756 3.402016
-6.903907 -28.509483 3.402016
-7.029726 -28.167210 3.402016
-7.046769 -27.843727 3.402016
-7.047578 -27.824937 3.402016
-7.046769 -27.821572 3.402016
-6.946596 -27.482664 3.402016
-6.756747 -27.140392 3.402016
-6.683248 -27.033552 3.402016
-6.482556 -26.798119 3.402016
-6.319728 -26.600107 3.402016
-6.170487 -26.455846 3.402016
-5.956207 -26.216717 3.402016
-5.840013 -26.113573 3.402016
-5.592687 -25.870172 3.402016
-5.465607 -25.771301 3.402016
-5.229166 -25.600811 3.402016
-4.921742 -25.429028 3.402016
-4.865646 -25.404196 3.402016
-4.502125 -25.281066 3.402016
-4.138605 -25.185774 3.402016
-3.775084 -25.121470 3.402016
-3.411564 -25.105335 3.402016
-3.048043 -25.161954 3.402016
-2.684523 -25.309204 3.402016
-2.494744 -25.429028 3.402016
-2.321002 -25.613540 3.402016
-2.198796 -25.771301 3.402016
-2.066671 -26.113573 3.402016
-2.022230 -26.455846 3.402016
-2.022701 -26.798119 3.402016
-2.031548 -27.140392 3.402016
-2.018735 -27.482664 3.402016
-1.959819 -27.824937 3.402016
-1.957482 -27.832052 3.402016
-1.842996 -28.167210 3.402016
-1.672363 -28.509483 3.402016
-1.593961 -28.655705 3.402016
-1.497973 -28.851756 3.402016
-1.379927 -29.194028 3.402016
-1.346801 -29.536301 3.402016
-1.398130 -29.878574 3.402016
-1.521364 -30.220847 3.402016
-1.593961 -30.342747 3.402016
-1.705720 -30.563119 3.402016
-1.944019 -30.905392 3.402016
-1.957482 -30.919831 3.402016
-2.269975 -31.247665 3.402016
-2.866768 -31.589938 3.668571
-3.048043 -31.623439 3.668571
-3.321062 -31.589938 3.668571
-3.411564 -31.577245 3.668571
-3.775084 -31.430565 3.668571
-4.127154 -31.247665 3.668571
-4.138605 -31.240249 3.668571
-4.502125 -30.989121 3.668571
-4.631513 -30.905392 3.668571
-4.865646 -30.709312 3.668571
-5.057834 -30.563119 3.668571
-5.229166 -30.400084 3.668571
-5.425745 -30.220847 3.668571
-5.592687 -30.054279 3.668571
-5.755977 -29.878574 3.668571
-5.956207 -29.675354 3.668571
-6.069879 -29.536301 3.668571
-6.319728 -29.262275 3.668571
-6.369156 -29.194028 3.668571
-6.623772 -28.851756 3.668571
-6.683248 -28.762833 3.668571
-6.816462 -28.509483 3.668571
-6.932526 -28.167210 3.668571
-6.949594 -27.824937 3.668571
-6.857733 -27.482664 3.668571
-6.684177 -27.140392 3.668571
-6.683248 -27.138943 3.668571
-6.418868 -26.798119 3.668571
-6.319728 -26.666240 3.668571
-6.125300 -26.455846 3.668571
-5.956207 -26.247249 3.668571
-5.822368 -26.113573 3.668571
-5.592687 -25.865053 3.668571
-5.484195 -25.771301 3.668571
-5.229166 -25.571693 3.668571
-4.994604 -25.429028 3.668571
-4.865646 -25.367547 3.668571
-4.502125 -25.234368 3.668571
-4.138605 -25.131284 3.668571
-3.903146 -25.086755 3.668571
-3.775084 -25.067711 3.668571
-3.411564 -25.053090 3.668571
-3.099958 -25.086755 3.668571
-3.048043 -25.094992 3.668571
-2.684523 -25.242580 3.668571
-2.398685 -25.429028 3.668571
-2.321002 -25.514051 3.668571
-2.129518 -25.771301 3.668571
-2.003733 -26.113573 3.668571
-1.961349 -26.455846 3.668571
-1.960360 -26.798119 3.668571
-1.966997 -27.140392 3.668571
-1.957482 -27.438877 3.668571
-1.956021 -27.482664 3.668571
-1.908774 -27.824937 3.668571
-1.811897 -28.167210 3.668571
-1.668319 -28.509483 3.668571
-1.593961 -28.670472 3.668571
-1.510512 -28.851756 3.668571
-1.396833 -29.194028 3.668571
-1.363647 -29.536301 3.668571
-1.411974 -29.878574 3.668571
-1.529286 -30.220847 3.668571
-1.593961 -30.334093 3.668571
-1.703729 -30.563119 3.668571
-1.929977 -30.905392 3.668571
-1.957482 -30.936369 3.668571
-2.237839 -31.247665 3.668571
-2.321002 -31.319535 3.668571
-2.684523 -31.545958 3.668571
-2.866768 -31.589938 3.668571
-2.927301 -31.589938 3.935125
-3.048043 -31.613655 3.935125
-3.255256 -31.589938 3.935125
-3.411564 -31.569548 3.935125
-3.775084 -31.425498 3.935125
-4.118216 -31.247665 3.935125
-4.138605 -31.234563 3.935125
-4.502125 -30.982745 3.935125
-4.619595 -30.905392 3.935125
-4.865646 -30.695925 3.935125
-5.034119 -30.563119 3.935125
-5.229166 -30.369578 3.935125
-5.382518 -30.220847 3.935125
-5.592687 -29.993670 3.935125
-5.690630 -29.878574 3.935125
-5.956207 -29.577522 3.935125
-5.986675 -29.536301 3.935125
-6.259312 -29.194028 3.935125
-6.319728 -29.121770 3.935125
-6.497945 -28.851756 3.935125
-6.683248 -28.543783 3.935125
-6.700006 -28.509483 3.935125
-6.804724 -28.167210 3.935125
-6.821245 -27.824937 3.935125
-6.741327 -27.482664 3.935125
-6.683248 -27.355552 3.935125
-6.562616 -27.140392 3.935125
-6.336870 -26.798119 3.935125
-6.319728 -26.772561 3.935125
-6.064979 -26.455846 3.935125
-5.956207 -26.305264 3.935125
-5.787694 -26.113573 3.935125
-5.592687 -25.881777 3.935125
-5.476717 -25.771301 3.935125
-5.229166 -25.563735 3.935125
-5.021260 -25.429028 3.935125
-4.865646 -25.350592 3.935125
-4.502125 -25.210313 3.935125
-4.138605 -25.102846 3.935125
-4.055552 -25.086755 3.935125
-3.775084 -25.043362 3.935125
-3.411564 -25.026134 3.935125
-3.048043 -25.062965 3.935125
-2.960551 -25.086755 3.935125
-2.684523 -25.194729 3.935125
-2.321002 -25.427195 3.935125
-2.318744 -25.429028 3.935125
-2.056518 -25.771301 3.935125
-1.957482 -26.027433 3.935125
-1.927267 -26.113573 3.935125
-1.880375 -26.455846 3.935125
-1.871071 -26.798119 3.935125
-1.870789 -27.140392 3.935125
-1.859125 -27.482664 3.935125
-1.822052 -27.824937 3.935125
-1.751180 -28.167210 3.935125
-1.648145 -28.509483 3.935125
-1.593961 -28.673193 3.935125
-1.528704 -28.851756 3.935125
-1.439553 -29.194028 3.935125
-1.419115 -29.536301 3.935125
-1.471071 -29.878574 3.935125
-1.586043 -30.220847 3.935125
-1.593961 -30.234505 3.935125
-1.751426 -30.563119 3.935125
-1.957482 -30.885007 3.935125
-1.969904 -30.905392 3.935125
-2.269576 -31.247665 3.935125
-2.321002 -31.293206 3.935125
-2.684523 -31.527507 3.935125
-2.927301 -31.589938 3.935125
-2.385843 -31.247665 4.201680
-2.684523 -31.441675 4.201680
-3.048043 -31.539846 4.201680
-3.411564 -31.499471 4.201680
-3.775084 -31.365509 4.201680
-4.009052 -31.247665 4.201680
-4.138605 -31.168137 4.201680
-4.502125 -30.928601 4.201680
-4.538106 -30.905392 4.201680
-4.865646 -30.634885 4.201680
-4.957137 -30.563119 4.201680
-5.229166 -30.294138 4.201680
-5.302746 -30.220847 4.201680
-5.592687 -29.891587 4.201680
-5.603042 -29.878574 4.201680
-5.870160 -29.536301 4.201680
-5.956207 -29.432939 4.201680
-6.122467 -29.194028 4.201680
-6.319728 -28.920279 4.201680
-6.360084 -28.851756 4.201680
-6.534964 -28.509483 4.201680
-6.652050 -28.167210 4.201680
-6.673766 -27.824937 4.201680
-6.592029 -27.482664 4.201680
-6.435898 -27.140392 4.201680
-6.319728 -26.933272 4.201680
-6.229864 -26.798119 4.201680
-6.000579 -26.455846 4.201680
-5.956207 -26.386710 4.201680
-5.745400 -26.113573 4.201680
-5.592687 -25.916718 4.201680
-5.451666 -25.771301 4.201680
-5.229166 -25.575383 4.201680
-5.011406 -25.429028 4.201680
-4.865646 -25.352916 4.201680
-4.502125 -25.208585 4.201680
-4.138605 -25.099998 4.201680
-4.070950 -25.086755 4.201680
-3.775084 -25.039325 4.201680
-3.411564 -25.019384 4.201680
-3.048043 -25.051480 4.201680
-2.909214 -25.086755 4.201680
-2.684523 -25.166200 4.201680
-2.321002 -25.379423 4.201680
-2.255810 -25.429028 4.201680
-1.969923 -25.771301 4.201680
-1.957482 -25.798683 4.201680
-1.829759 -26.113573 4.201680
-1.767168 -26.455846 4.201680
-1.744762 -26.798119 4.201680
-1.735795 -27.140392 4.201680
-1.723430 -27.482664 4.201680
-1.698638 -27.824937 4.201680
-1.658145 -28.167210 4.201680
-1.604697 -28.509483 4.201680
-1.593961 -28.579030 4.201680
-1.541922 -28.851756 4.201680
-1.504586 -29.194028 4.201680
-1.516528 -29.536301 4.201680
-1.582634 -29.878574 4.201680
-1.593961 -29.906785 4.201680
-1.694003 -30.220847 4.201680
-1.854330 -30.563119 4.201680
-1.957482 -30.719189 4.201680
-2.073888 -30.905392 4.201680
-2.321002 -31.188447 4.201680
-2.385843 -31.247665 4.201680
-2.618996 -31.247665 4.468235
-2.684523 -31.289225 4.468235
-3.048043 -31.394852 4.468235
-3.411564 -31.368950 4.468235
-3.775084 -31.252067 4.468235
-3.784312 -31.247665 4.468235
-4.138605 -31.047510 4.468235
-4.371838 -30.905392 4.468235
-4.502125 -30.806712 4.468235
-4.823110 -30.563119 4.468235
-4.865646 -30.523181 4.468235
-5.186450 -30.220847 4.468235
-5.229166 -30.174263 4.468235
-5.485096 -29.878574 4.468235
-5.592687 -29.748056 4.468235
-5.746804 -29.536301 4.468235
-5.956207 -29.252462 4.468235
-5.992721 -29.194028 4.468235
-6.201507 -28.851756 4.468235
-6.319728 -28.631445 4.468235
-6.374634 -28.509483 4.468235
-6.475459 -28.167210 4.468235
-6.499710 -27.824937 4.468235
-6.441350 -27.482664 4.468235
-6.319728 -27.141782 4.468235
-6.319154 -27.140392 4.468235
-6.134449 -26.798119 4.468235
-5.956207 -26.483707 4.468235
-5.937864 -26.455846 4.468235
-5.702949 -26.113573 4.468235
-5.592687 -25.962983 4.468235
-5.416246 -25.771301 4.468235
-5.229166 -25.602333 4.468235
-4.973434 -25.429028 4.468235
-4.865646 -25.371861 4.468235
-4.502125 -25.225870 4.468235
-4.138605 -25.118511 4.468235
-3.975756 -25.086755 4.468235
-3.775084 -25.053593 4.468235
-3.411564 -25.030793 4.468235
-3.048043 -25.056536 4.468235
-2.913195 -25.086755 4.468235
-2.684523 -25.155006 4.468235
-2.321002 -25.340127 4.468235
-2.189927 -25.429028 4.468235
-1.957482 -25.665834 4.468235
-1.869554 -25.771301 4.468235
-1.701334 -26.113573 4.468235
-1.617723 -26.455846 4.468235
-1.593961 -26.677349 4.468235
-1.580420 -26.798119 4.468235
-1.562140 -27.140392 4.468235
-1.549312 -27.482664 4.468235
-1.536240 -27.824937 4.468235
-1.524565 -28.167210 4.468235
-1.522034 -28.509483 4.468235
-1.539315 -28.851756 4.468235
-1.583620 -29.194028 4.468235
-1.593961 -29.239540 4.468235
-1.645486 -29.536301 4.468235
-1.734240 -29.878574 4.468235
-1.856315 -30.220847 4.468235
-1.957482 -30.422952 4.468235
-2.020330 -30.563119 4.468235
-2.245842 -30.905392 4.468235
-2.321002 -30.987766 4.468235
-2.618996 -31.247665 4.468235
-2.532772 -30.905392 4.734789
-2.684523 -31.027581 4.734789
-3.048043 -31.178219 4.734789
-3.411564 -31.171142 4.734789
-3.775084 -31.056579 4.734789
-4.098308 -30.905392 4.734789
-4.138605 -30.883327 4.734789
-4.502125 -30.646718 4.734789
-4.624646 -30.563119 4.734789
-4.865646 -30.366439 4.734789
-5.033316 -30.220847 4.734789
-5.229166 -30.024353 4.734789
-5.359438 -29.878574 4.734789
-5.592687 -29.593337 4.734789
-5.633006 -29.536301 4.734789
-5.865516 -29.194028 4.734789
-5.956207 -29.050364 4.734789
-6.065251 -28.851756 4.734789
-6.224035 -28.509483 4.734789
-6.319728 -28.199529 4.734789
-6.328545 -28.167210 4.734789
-6.357680 -27.824937 4.734789
-6.319728 -27.496383 4.734789
-6.317982 -27.482664 4.734789
-6.210273 -27.140392 4.734789
-6.061800 -26.798119 4.734789
-5.956207 -26.586602 4.734789
-5.881653 -26.455846 4.734789
-5.664443 -26.113573 4.734789
-5.592687 -26.012715 4.734789
-5.375065 -25.771301 4.734789
-5.229166 -25.639222 4.734789
-4.913461 -25.429028 4.734789
-4.865646 -25.403703 4.734789
-4.502125 -25.257388 4.734789
-4.138605 -25.152412 4.734789
-3.796379 -25.086755 4.734789
-3.775084 -25.083149 4.734789
-3.411564 -25.057394 4.734789
-3.048043 -25.075772 4.734789
-2.988908 -25.086755 4.734789
-2.684523 -25.158400 4.734789
-2.321002 -25.311496 4.734789
-2.117788 -25.429028 4.734789
-1.957482 -25.560806 4.734789
-1.746572 -25.771301 4.734789
-1.593961 -26.019822 4.734789
-1.541756 -26.113573 4.734789
-1.429309 -26.455846 4.734789
-1.367716 -26.798119 4.734789
-1.335202 -27.140392 4.734789
-1.320369 -27.482664 4.734789
-1.321808 -27.824937 4.734789
-1.346899 -28.167210 4.734789
-1.408555 -28.509483 4.734789
-1.516414 -28.851756 4.734789
-1.593961 -29.033781 4.734789
-1.644991 -29.194028 4.734789
-1.773929 -29.536301 4.734789
-1.915919 -29.878574 4.734789
-1.957482 -29.964626 4.734789
-2.064944 -30.220847 4.734789
-2.249665 -30.563119 4.734789
-2.321002 -30.659897 4.734789
-2.532772 -30.905392 4.734789
-3.234961 -30.905392 5.001344
-3.411564 -30.916942 5.001344
-3.463177 -30.905392 5.001344
-3.775084 -30.830327 5.001344
-4.138605 -30.674160 5.001344
-4.343423 -30.563119 5.001344
-4.502125 -30.468996 5.001344
-4.854600 -30.220847 5.001344
-4.865646 -30.212402 5.001344
-5.229166 -29.881850 5.001344
-5.232249 -29.878574 5.001344
-5.524545 -29.536301 5.001344
-5.592687 -29.447972 5.001344
-5.762438 -29.194028 5.001344
-5.956207 -28.860690 5.001344
-5.960846 -28.851756 5.001344
-6.109719 -28.509483 5.001344
-6.208652 -28.167210 5.001344
-6.246393 -27.824937 5.001344
-6.220255 -27.482664 5.001344
-6.137293 -27.140392 5.001344
-6.010437 -26.798119 5.001344
-5.956207 -26.679196 5.001344
-5.841474 -26.455846 5.001344
-5.629961 -26.113573 5.001344
-5.592687 -26.061174 5.001344
-5.329085 -25.771301 5.001344
-5.229166 -25.682359 5.001344
-4.865646 -25.447183 5.001344
-4.826972 -25.429028 5.001344
-4.502125 -25.299277 5.001344
-4.138605 -25.196862 5.001344
-3.775084 -25.129431 5.001344
-3.411564 -25.098156 5.001344
-3.048043 -25.110371 5.001344
-2.684523 -25.175019 5.001344
-2.321002 -25.296744 5.001344
-2.042991 -25.429028 5.001344
-1.957482 -25.483852 5.001344
-1.602530 -25.771301 5.001344
-1.593961 -25.781922 5.001344
-1.357944 -26.113573 5.001344
-1.230441 -26.410181 5.001344
-1.210683 -26.455846 5.001344
-1.114117 -26.798119 5.001344
-1.049204 -27.140392 5.001344
-1.015854 -27.482664 5.001344
-1.030738 -27.824937 5.001344
-1.128453 -28.167210 5.001344
-1.230441 -28.338910 5.001344
-1.292991 -28.509483 5.001344
-1.481532 -28.851756 5.001344
-1.593961 -29.010815 5.001344
-1.687958 -29.194028 5.001344
-1.890763 -29.536301 5.001344
-1.957482 -29.642284 5.001344
-2.087085 -29.878574 5.001344
-2.293864 -30.220847 5.001344
-2.321002 -30.259784 5.001344
-2.559090 -30.563119 5.001344
-2.684523 -30.684332 5.001344
-3.048043 -30.888483 5.001344
-3.234961 -30.905392 5.001344
2.404764 -27.889381 5.267899
2.041243 -27.917140 5.267899
1.677723 -27.949937 5.267899
1.314202 -27.994479 5.267899
0.950682 -28.054883 5.267899
0.587161 -28.110665 5.267899
0.223641 -28.049094 5.267899
-0.139880 -27.825511 5.267899
-0.503400 -27.844519 5.267899
-0.866920 -28.167162 5.267899
-0.866945 -28.167210 5.267899
-1.183886 -28.509483 5.267899
-1.230441 -28.544790 5.267899
-1.453738 -28.851756 5.267899
-1.593961 -29.005048 5.267899
-1.717982 -29.194028 5.267899
-1.957482 -29.504124 5.267899
-1.979471 -29.536301 5.267899
-2.232522 -29.878574 5.267899
-2.321002 -29.988801 5.267899
-2.530340 -30.220847 5.267899
-2.684523 -30.370978 5.267899
-2.997884 -30.563119 5.267899
-3.048043 -30.588619 5.267899
-3.411564 -30.651736 5.267899
-3.775084 -30.606821 5.267899
-3.905768 -30.563119 5.267899
-4.138605 -30.486797 5.267899
-4.502125 -30.308408 5.267899
-4.642235 -30.220847 5.267899
-4.865646 -30.072711 5.267899
-5.097388 -29.878574 5.267899
-5.229166 -29.757466 5.267899
-5.427069 -29.536301 5.267899
-5.592687 -29.323887 5.267899
-5.680498 -29.194028 5.267899
-5.879007 -28.851756 5.267899
-5.956207 -28.680257 5.267899
-6.029143 -28.509483 5.267899
-6.128638 -28.167210 5.267899
-6.171899 -27.824937 5.267899
-6.157603 -27.482664 5.267899
-6.089332 -27.140392 5.267899
-5.974039 -26.798119 5.267899
-5.956207 -26.756962 5.267899
-5.810850 -26.455846 5.267899
-5.595764 -26.113573 5.267899
-5.592687 -26.109346 5.267899
-5.275131 -25.771301 5.267899
-5.229166 -25.731617 5.267899
-4.865646 -25.500138 5.267899
-4.703920 -25.429028 5.267899
-4.502125 -25.350505 5.267899
-4.138605 -25.250275 5.267899
-3.775084 -25.185221 5.267899
-3.411564 -25.153384 5.267899
-3.048043 -25.158476 5.267899
-2.684523 -25.206289 5.267899
-2.321002 -25.300362 5.267899
-1.982548 -25.429028 5.267899
-1.957482 -25.441287 5.267899
-1.593961 -25.669084 5.267899
-1.462860 -25.771301 5.267899
-1.230441 -26.032785 5.267899
-1.167259 -26.113573 5.267899
-0.974511 -26.455846 5.267899
-0.866920 -26.720677 5.267899
-0.828209 -26.798119 5.267899
-0.681478 -27.140392 5.267899
-0.536831 -27.482664 5.267899
-0.503400 -27.749879 5.267899
-0.139880 -27.824579 5.267899
0.223641 -27.731189 5.267899
0.587161 -27.669244 5.267899
0.950682 -27.628735 5.267899
1.314202 -27.597073 5.267899
1.677723 -27.567181 5.267899
2.041243 -27.541208 5.267899
2.404764 -27.537022 5.267899
2.404764 -27.981899 5.534453
2.041243 -28.050041 5.534453
1.677723 -28.139557 5.534453
1.579270 -28.167210 5.534453
1.314202 -28.205888 5.534453
0.950682 -28.262783 5.534453
0.587161 -28.311328 5.534453
0.223641 -28.319199 5.534453
-0.139880 -28.266328 5.534453
-0.503400 -28.216974 5.534453
-0.866920 -28.302243 5.534453
-1.111896 -28.509483 5.534453
-1.230441 -28.584972 5.534453
-1.452727 -28.851756 5.534453
-1.593961 -28.989338 5.534453
-1.745138 -29.194028 5.534453
-1.957482 -29.436020 5.534453
-2.037127 -29.536301 5.534453
-2.321002 -29.849866 5.534453
-2.350427 -29.878574 5.534453
-2.684523 -30.176825 5.534453
-2.759469 -30.220847 5.534453
-3.048043 -30.379605 5.534453
-3.411564 -30.456734 5.534453
-3.775084 -30.435265 5.534453
-4.138605 -30.338706 5.534453
-4.405114 -30.220847 5.534453
-4.502125 -30.179292 5.534453
-4.865646 -29.957237 5.534453
-4.965394 -29.878574 5.534453
-5.229166 -29.650392 5.534453
-5.335860 -29.536301 5.534453
-5.592687 -29.214687 5.534453
-5.607079 -29.194028 5.534453
-5.815050 -28.851756 5.534453
-5.956207 -28.533264 5.534453
-5.966510 -28.509483 5.534453
-6.071083 -28.167210 5.534453
-6.120234 -27.824937 5.534453
-6.114066 -27.482664 5.534453
-6.054275 -27.140392 5.534453
-5.956207 -26.834810 5.534453
-5.943843 -26.798119 5.534453
-5.781291 -26.455846 5.534453
-5.592687 -26.164353 5.534453
-5.552176 -26.113573 5.534453
-5.229166 -25.790498 5.534453
-5.202584 -25.771301 5.534453
-4.865646 -25.561009 5.534453
-4.542978 -25.429028 5.534453
-4.502125 -25.413643 5.534453
-4.138605 -25.315043 5.534453
-3.775084 -25.252514 5.534453
-3.411564 -25.221324 5.534453
-3.048043 -25.221934 5.534453
-2.684523 -25.257065 5.534453
-2.321002 -25.328687 5.534453
-1.980706 -25.429028 5.534453
-1.957482 -25.437519 5.534453
-1.593961 -25.612917 5.534453
-1.345762 -25.771301 5.534453
-1.230441 -25.874223 5.534453
-1.004246 -26.113573 5.534453
-0.866920 -26.311567 5.534453
-0.767224 -26.455846 5.534453
-0.549213 -26.798119 5.534453
-0.503400 -26.880474 5.534453
-0.240195 -27.140392 5.534453
-0.139880 -27.229025 5.534453
0.223641 -27.352936 5.534453
0.587161 -27.393959 5.534453
0.950682 -27.414395 5.534453
1.314202 -27.427107 5.534453
1.677723 -27.436581 5.534453
2.041243 -27.446249 5.534453
2.404764 -27.459532 5.534453
2.404764 -27.967343 5.801008
2.041243 -28.063166 5.801008
1.721616 -28.167210 5.801008
1.677723 -28.174108 5.801008
1.314202 -28.232233 5.801008
0.950682 -28.291282 5.801008
0.587161 -28.330818 5.801008
0.223641 -28.318786 5.801008
-0.139880 -28.250509 5.801008
-0.503400 -28.197359 5.801008
-0.866920 -28.272920 5.801008
-1.168259 -28.509483 5.801008
-1.230441 -28.547675 5.801008
-1.491419 -28.851756 5.801008
-1.593961 -28.949216 5.801008
-1.781348 -29.194028 5.801008
-1.957482 -29.384571 5.801008
-2.087397 -29.536301 5.801008
-2.321002 -29.771131 5.801008
-2.446141 -29.878574 5.801008
-2.684523 -30.065519 5.801008
-2.999217 -30.220847 5.801008
-3.048043 -30.244141 5.801008
-3.411564 -30.323820 5.801008
-3.775084 -30.310607 5.801008
-4.138605 -30.221165 5.801008
-4.139363 -30.220847 5.801008
-4.502125 -30.076340 5.801008
-4.826751 -29.878574 5.801008
-4.865646 -29.854186 5.801008
-5.229166 -29.547557 5.801008
-5.240094 -29.536301 5.801008
-5.533526 -29.194028 5.801008
-5.592687 -29.107671 5.801008
-5.754220 -28.851756 5.801008
-5.912256 -28.509483 5.801008
-5.956207 -28.366871 5.801008
-6.020542 -28.167210 5.801008
-6.076140 -27.824937 5.801008
-6.075950 -27.482664 5.801008
-6.020582 -27.140392 5.801008
-5.956207 -26.935235 5.801008
-5.911511 -26.798119 5.801008
-5.743517 -26.455846 5.801008
-5.592687 -26.232050 5.801008
-5.493367 -26.113573 5.801008
-5.229166 -25.862132 5.801008
-5.094068 -25.771301 5.801008
-4.865646 -25.635279 5.801008
-4.502125 -25.490916 5.801008
-4.259779 -25.429028 5.801008
-4.138605 -25.397523 5.801008
-3.775084 -25.338164 5.801008
-3.411564 -25.309567 5.801008
-3.048043 -25.309146 5.801008
-2.684523 -25.336456 5.801008
-2.321002 -25.391315 5.801008
-2.148316 -25.429028 5.801008
-1.957482 -25.479333 5.801008
-1.593961 -25.616082 5.801008
-1.297485 -25.771301 5.801008
-1.230441 -25.819494 5.801008
-0.903500 -26.113573 5.801008
-0.866920 -26.159010 5.801008
-0.637943 -26.455846 5.801008
-0.503400 -26.650151 5.801008
-0.376876 -26.798119 5.801008
-0.139880 -27.041454 5.801008
0.042882 -27.140392 5.801008
0.223641 -27.234852 5.801008
0.587161 -27.332686 5.801008
0.950682 -27.385085 5.801008
1.314202 -27.419897 5.801008
1.677723 -27.446657 5.801008
2.041243 -27.470980 5.801008
2.202262 -27.482664 5.801008
2.404764 -27.539829 5.801008
-2.537534 -29.878574 6.067563
-2.684523 -29.984390 6.067563
-3.048043 -30.153202 6.067563
-3.411564 -30.220828 6.067563
-3.775084 -30.209377 6.067563
-4.138605 -30.129795 6.067563
-4.502125 -29.980048 6.067563
-4.670399 -29.878574 6.067563
-4.865646 -29.758321 6.067563
-5.131908 -29.536301 6.067563
-5.229166 -29.444435 6.067563
-5.451122 -29.194028 6.067563
-5.592687 -28.991922 6.067563
-5.684531 -28.851756 6.067563
-5.854435 -28.509483 6.067563
-5.956207 -28.191011 6.067563
-5.964362 -28.167210 6.067563
-6.027313 -27.824937 6.067563
-6.031807 -27.482664 6.067563
-5.977788 -27.140392 6.067563
-5.956207 -27.071497 6.067563
-5.867824 -26.798119 6.067563
-5.687706 -26.455846 6.067563
-5.592687 -26.321504 6.067563
-5.407585 -26.113573 6.067563
-5.229166 -25.952744 6.067563
-4.937002 -25.771301 6.067563
-4.865646 -25.731024 6.067563
-4.502125 -25.587184 6.067563
-4.138605 -25.500061 6.067563
-3.775084 -25.451298 6.067563
-3.411564 -25.431056 6.067563
-3.048043 -25.434336 6.067563
-2.684523 -25.459283 6.067563
-2.321002 -25.506768 6.067563
-1.957482 -25.581085 6.067563
-1.593961 -25.691133 6.067563
-1.405951 -25.771301 6.067563
-1.230441 -25.873474 6.067563
-0.924059 -26.113573 6.067563
-0.866920 -26.176803 6.067563
-0.636917 -26.455846 6.067563
-0.503400 -26.648538 6.067563
-0.381669 -26.798119 6.067563
-0.139880 -27.073714 6.067563
-0.039012 -27.140392 6.067563
0.223641 -27.311424 6.067563
0.587161 -27.409775 6.067563
0.950682 -27.464597 6.067563
1.098222 -27.482664 6.067563
1.314202 -27.542121 6.067563
1.677723 -27.640356 6.067563
2.041243 -27.748401 6.067563
2.255934 -27.824937 6.067563
2.041243 -27.887875 6.067563
1.677723 -28.005324 6.067563
1.314202 -28.139457 6.067563
1.214255 -28.167210 6.067563
0.950682 -28.198455 6.067563
0.587161 -28.208428 6.067563
0.239774 -28.167210 6.067563
0.223641 -28.162461 6.067563
-0.139880 -28.022820 6.067563
-0.503400 -27.976683 6.067563
-0.866920 -28.104494 6.067563
-0.922508 -28.167210 6.067563
-1.230441 -28.416771 6.067563
-1.289714 -28.509483 6.067563
-1.576805 -28.851756 6.067563
-1.593961 -28.868654 6.067563
-1.837496 -29.194028 6.067563
-1.957482 -29.323668 6.067563
-2.143679 -29.536301 6.067563
-2.321002 -29.706550 6.067563
-2.537534 -29.878574 6.067563
-2.642905 -29.878574 6.334117
-2.684523 -29.906937 6.334117
-3.048043 -30.074159 6.334117
-3.411564 -30.139465 6.334117
-3.775084 -30.124595 6.334117
-4.138605 -30.038550 6.334117
-4.497200 -29.878574 6.334117
-4.502125 -29.876473 6.334117
-4.865646 -29.651637 6.334117
-5.004896 -29.536301 6.334117
-5.229166 -29.326914 6.334117
-5.349809 -29.194028 6.334117
-5.592687 -28.856054 6.334117
-5.595622 -28.851756 6.334117
-5.782373 -28.509483 6.334117
-5.900914 -28.167210 6.334117
-5.956207 -27.859525 6.334117
-5.963292 -27.824937 6.334117
-5.971588 -27.482664 6.334117
-5.956207 -27.383348 6.334117
-5.919928 -27.140392 6.334117
-5.803216 -26.798119 6.334117
-5.602632 -26.455846 6.334117
-5.592687 -26.442515 6.334117
-5.278641 -26.113573 6.334117
-5.229166 -26.071570 6.334117
-4.865646 -25.849864 6.334117
-4.654171 -25.771301 6.334117
-4.502125 -25.714395 6.334117
-4.138605 -25.631968 6.334117
-3.775084 -25.592656 6.334117
-3.411564 -25.585590 6.334117
-3.048043 -25.604296 6.334117
-2.684523 -25.644239 6.334117
-2.321002 -25.701638 6.334117
-1.972293 -25.771301 6.334117
-1.957482 -25.775085 6.334117
-1.593961 -25.890697 6.334117
-1.230441 -26.072705 6.334117
-1.171516 -26.113573 6.334117
-0.866920 -26.423097 6.334117
-0.839407 -26.455846 6.334117
-0.640559 -26.798119 6.334117
-0.530036 -27.140392 6.334117
-0.624982 -27.482664 6.334117
-0.866920 -27.665820 6.334117
-0.959228 -27.824937 6.334117
-1.230441 -28.138835 6.334117
-1.242613 -28.167210 6.334117
-1.443163 -28.509483 6.334117
-1.593961 -28.705057 6.334117
-1.673325 -28.851756 6.334117
-1.923405 -29.194028 6.334117
-1.957482 -29.232195 6.334117
-2.218981 -29.536301 6.334117
-2.321002 -29.633110 6.334117
-2.642905 -29.878574 6.334117
-2.805990 -29.878574 6.600672
-3.048043 -29.986423 6.600672
-3.411564 -30.050995 6.600672
-3.775084 -30.030934 6.600672
-4.138605 -29.934015 6.600672
-4.257307 -29.878574 6.600672
-4.502125 -29.770032 6.600672
-4.848752 -29.536301 6.600672
-4.865646 -29.524122 6.600672
-5.220433 -29.194028 6.600672
-5.229166 -29.184157 6.600672
-5.491580 -28.851756 6.600672
-5.592687 -28.673737 6.600672
-5.686741 -28.509483 6.600672
-5.818112 -28.167210 6.600672
-5.885969 -27.824937 6.600672
-5.894391 -27.482664 6.600672
-5.838915 -27.140392 6.600672
-5.706455 -26.798119 6.600672
-5.592687 -26.614656 6.600672
-5.472086 -26.455846 6.600672
-5.229166 -26.222919 6.600672
-5.060190 -26.113573 6.600672
-4.865646 -26.001078 6.600672
-4.502125 -25.872610 6.600672
-4.138605 -25.808564 6.600672
-3.775084 -25.789297 6.600672
-3.411564 -25.804613 6.600672
-3.048043 -25.850011 6.600672
-2.684523 -25.924821 6.600672
-2.321002 -26.031013 6.600672
-2.081688 -26.113573 6.600672
-1.957482 -26.174562 6.600672
-1.593961 -26.405282 6.600672
-1.526916 -26.455846 6.600672
-1.313430 -26.798119 6.600672
-1.275051 -27.140392 6.600672
-1.308586 -27.482664 6.600672
-1.384332 -27.824937 6.600672
-1.501215 -28.167210 6.600672
-1.593961 -28.352563 6.600672
-1.644597 -28.509483 6.600672
-1.807875 -28.851756 6.600672
-1.957482 -29.073502 6.600672
-2.031369 -29.194028 6.600672
-2.321002 -29.531357 6.600672
-2.326009 -29.536301 6.600672
-2.684523 -29.820176 6.600672
-2.805990 -29.878574 6.600672
-3.069317 -29.878574 6.867227
-3.411564 -29.941160 6.867227
-3.775084 -29.915068 6.867227
-3.896144 -29.878574 6.867227
-4.138605 -29.813308 6.867227
-4.502125 -29.637570 6.867227
-4.648580 -29.536301 6.867227
-4.865646 -29.377104 6.867227
-5.062785 -29.194028 6.867227
-5.229166 -29.007968 6.867227
-5.355756 -28.851756 6.867227
-5.561110 -28.509483 6.867227
-5.592687 -28.430564 6.867227
-5.704972 -28.167210 6.867227
-5.780143 -27.824937 6.867227
-5.787431 -27.482664 6.867227
-5.720580 -27.140392 6.867227
-5.592687 -26.856976 6.867227
-5.561699 -26.798119 6.867227
-5.270236 -26.455846 6.867227
-5.229166 -26.419442 6.867227
-4.865646 -26.196240 6.867227
-4.610616 -26.113573 6.867227
-4.502125 -26.078283 6.867227
-4.138605 -26.026742 6.867227
-3.775084 -26.032868 6.867227
-3.411564 -26.090081 6.867227
-3.322793 -26.113573 6.867227
-3.048043 -26.186753 6.867227
-2.684523 -26.338280 6.867227
-2.478034 -26.455846 6.867227
-2.321002 -26.575360 6.867227
-2.086981 -26.798119 6.867227
-1.957482 -27.022999 6.867227
-1.890305 -27.140392 6.867227
-1.785636 -27.482664 6.867227
-1.757002 -27.824937 6.867227
-1.781702 -28.167210 6.867227
-1.858875 -28.509483 6.867227
-1.957482 -28.751877 6.867227
-1.991289 -28.851756 6.867227
-2.177368 -29.194028 6.867227
-2.321002 -29.373701 6.867227
-2.476135 -29.536301 6.867227
-2.684523 -29.703620 6.867227
-3.048043 -29.874614 6.867227
-3.069317 -29.878574 6.867227
-2.695498 -29.536301 7.133781
-3.048043 -29.731500 7.133781
-3.411564 -29.801912 7.133781
-3.775084 -29.775370 7.133781
-4.138605 -29.665002 7.133781
-4.379366 -29.536301 7.133781
-4.502125 -29.470265 7.133781
-4.859603 -29.194028 7.133781
-4.865646 -29.188647 7.133781
-5.177214 -28.851756 7.133781
-5.229166 -28.776906 7.133781
-5.405870 -28.509483 7.133781
-5.552389 -28.167210 7.133781
-5.592687 -27.981337 7.133781
-5.630750 -27.824937 7.133781
-5.633100 -27.482664 7.133781
-5.592687 -27.314507 7.133781
-5.546537 -27.140392 7.133781
-5.339383 -26.798119 7.133781
-5.229166 -26.683078 7.133781
-4.885135 -26.455846 7.133781
-4.865646 -26.445198 7.133781
-4.502125 -26.332934 7.133781
-4.138605 -26.306484 7.133781
-3.775084 -26.348475 7.133781
-3.421576 -26.455846 7.133781
-3.411564 -26.458806 7.133781
-3.048043 -26.627414 7.133781
-2.804486 -26.798119 7.133781
-2.684523 -26.902869 7.133781
-2.464065 -27.140392 7.133781
-2.321002 -27.382651 7.133781
-2.263346 -27.482664 7.133781
-2.143290 -27.824937 7.133781
-2.099307 -28.167210 7.133781
-2.118581 -28.509483 7.133781
-2.206711 -28.851756 7.133781
-2.321002 -29.080891 7.133781
-2.382339 -29.194028 7.133781
-2.684523 -29.528447 7.133781
-2.695498 -29.536301 7.133781
-3.118706 -29.536301 7.400336
-3.411564 -29.610527 7.400336
-3.775084 -29.586458 7.400336
-3.921723 -29.536301 7.400336
-4.138605 -29.465376 7.400336
-4.502125 -29.255593 7.400336
-4.580008 -29.194028 7.400336
-4.865646 -28.936976 7.400336
-4.945356 -28.851756 7.400336
-5.191903 -28.509483 7.400336
-5.229166 -28.430597 7.400336
-5.353293 -28.167210 7.400336
-5.428589 -27.824937 7.400336
-5.412843 -27.482664 7.400336
-5.279693 -27.140392 7.400336
-5.229166 -27.071937 7.400336
-4.909751 -26.798119 7.400336
-4.865646 -26.771750 7.400336
-4.502125 -26.665357 7.400336
-4.138605 -26.664878 7.400336
-3.775084 -26.750997 7.400336
-3.671684 -26.798119 7.400336
-3.411564 -26.919441 7.400336
-3.106601 -27.140392 7.400336
-3.048043 -27.191700 7.400336
-2.786626 -27.482664 7.400336
-2.684523 -27.650488 7.400336
-2.584652 -27.824937 7.400336
-2.473705 -28.167210 7.400336
-2.443340 -28.509483 7.400336
-2.497683 -28.851756 7.400336
-2.664619 -29.194028 7.400336
-2.684523 -29.218946 7.400336
-3.048043 -29.513994 7.400336
-3.118706 -29.536301 7.400336
-3.178255 -29.194028 7.666891
-3.411564 -29.302556 7.666891
-3.775084 -29.305590 7.666891
-4.110307 -29.194028 7.666891
-4.138605 -29.184022 7.666891
-4.502125 -28.939736 7.666891
-4.598593 -28.851756 7.666891
-4.865646 -28.541878 7.666891
-4.890061 -28.509483 7.666891
-5.054474 -28.167210 7.666891
-5.114359 -27.824937 7.666891
-5.034903 -27.482664 7.666891
-4.865646 -27.275615 7.666891
-4.582234 -27.140392 7.666891
-4.502125 -27.116131 7.666891
-4.138605 -27.135083 7.666891
-4.124310 -27.140392 7.666891
-3.775084 -27.274231 7.666891
-3.463608 -27.482664 7.666891
-3.411564 -27.525435 7.666891
-3.144919 -27.824937 7.666891
-3.048043 -27.989154 7.666891
-2.954632 -28.167210 7.666891
-2.876641 -28.509483 7.666891
-2.915653 -28.851756 7.666891
-3.048043 -29.082471 7.666891
-3.178255 -29.194028 7.666891
-3.694909 -28.509483 7.933445
-3.775084 -28.615475 7.933445
-4.138605 -28.574148 7.933445
-4.215085 -28.509483 7.933445
-4.394451 -28.167210 7.933445
-4.138605 -27.972640 7.933445
-3.778999 -28.167210 7.933445
-3.775084 -28.174277 7.933445
-3.694909 -28.509483 7.933445
