ply
format ascii 1.0
element vertex 1608
property float x
property float y
property float z
end_header
-3.618249 -28.167210 0.203360
-3.775084 -28.245680 0.203360
-4.138605 -28.332254 0.203360
-4.502125 -28.249188 0.203360
-4.581290 -28.167210 0.203360
-4.641861 -27.824937 0.203360
-4.502125 -27.582787 0.203360
-4.269903 -27.482664 0.203360
-4.138605 -27.452952 0.203360
-3.932935 -27.482664 0.203360
-3.775084 -27.555451 0.203360
-3.509914 -27.824937 0.203360
-3.618249 -28.167210 0.203360
-3.288518 -28.509483 0.469915
-3.411564 -28.563437 0.469915
-3.775084 -28.680808 0.469915
-4.138605 -28.739893 0.469915
-4.502125 -28.721942 0.469915
-4.865646 -28.591626 0.469915
-4.957802 -28.509483 0.469915
-5.202824 -28.167210 0.469915
-5.229166 -27.914999 0.469915
-5.233174 -27.824937 0.469915
-5.229166 -27.809770 0.469915
-5.049443 -27.482664 0.469915
-4.865646 -27.277071 0.469915
-4.594575 -27.140392 0.469915
-4.502125 -27.104137 0.469915
-4.138605 -27.081380 0.469915
-3.775084 -27.130818 0.469915
-3.734772 -27.140392 0.469915
-3.411564 -27.315427 0.469915
-3.179736 -27.482664 0.469915
-3.048043 -27.746439 0.469915
-3.013117 -27.824937 0.469915
-3.025758 -28.167210 0.469915
-3.048043 -28.203174 0.469915
-3.288518 -28.509483 0.469915
-3.074332 -28.851756 0.736470
-3.411564 -28.950411 0.736470
-3.775084 -29.009389 0.736470
-4.138605 -29.035919 0.736470
-4.502125 -29.025836 0.736470
-4.865646 -28.955541 0.736470
-5.080608 -28.851756 0.736470
-5.229166 -28.763078 0.736470
-5.442871 -28.509483 0.736470
-5.592687 -28.247349 0.736470
-5.617569 -28.167210 0.736470
-5.628209 -27.824937 0.736470
-5.592687 -27.684590 0.736470
-5.496749 -27.482664 0.736470
-5.241209 -27.140392 0.736470
-5.229166 -27.127017 0.736470
-4.865646 -26.913905 0.736470
-4.502125 -26.808793 0.736470
-4.201466 -26.798119 0.736470
-4.138605 -26.796384 0.736470
-4.118140 -26.798119 0.736470
-3.775084 -26.856907 0.736470
-3.411564 -26.982919 0.736470
-3.096998 -27.140392 0.736470
-3.048043 -27.195287 0.736470
-2.825273 -27.482664 0.736470
-2.701763 -27.824937 0.736470
-2.684523 -28.003228 0.736470
-2.671865 -28.167210 0.736470
-2.684523 -28.235247 0.736470
-2.751804 -28.509483 0.736470
-3.048043 -28.831688 0.736470
-3.074332 -28.851756 0.736470
-2.880951 -29.194028 1.003024
-3.048043 -29.254439 1.003024
-3.411564 -29.311249 1.003024
-3.775084 -29.319845 1.003024
-4.138605 -29.310147 1.003024
-4.502125 -29.287361 1.003024
-4.865646 -29.234448 1.003024
-4.983362 -29.194028 1.003024
-5.229166 -29.096865 1.003024
-5.575745 -28.851756 1.003024
-5.592687 -28.837967 1.003024
-5.816683 -28.509483 1.003024
-5.956207 -28.213799 1.003024
-5.969560 -28.167210 1.003024
-5.978295 -27.824937 1.003024
-5.956207 -27.734504 1.003024
-5.852716 -27.482664 1.003024
-5.627586 -27.140392 1.003024
-5.592687 -27.095182 1.003024
-5.229166 -26.798755 1.003024
-5.227693 -26.798119 1.003024
-4.865646 -26.650929 1.003024
-4.502125 -26.584049 1.003024
-4.138605 -26.577914 1.003024
-3.775084 -26.618216 1.003024
-3.411564 -26.701672 1.003024
-3.137798 -26.798119 1.003024
-3.048043 -26.865740 1.003024
-2.758820 -27.140392 1.003024
-2.684523 -27.281042 1.003024
-2.594677 -27.482664 1.003024
-2.501400 -27.824937 1.003024
-2.442663 -28.167210 1.003024
-2.437853 -28.509483 1.003024
-2.538163 -28.851756 1.003024
-2.684523 -29.031097 1.003024
-2.880951 -29.194028 1.003024
-2.674823 -29.536301 1.269579
-2.684523 -29.541599 1.269579
-3.048043 -29.649421 1.269579
-3.411564 -29.667088 1.269579
-3.775084 -29.632061 1.269579
-4.138605 -29.585377 1.269579
-4.502125 -29.539603 1.269579
-4.520630 -29.536301 1.269579
-4.865646 -29.462980 1.269579
-5.229166 -29.347214 1.269579
-5.513720 -29.194028 1.269579
-5.592687 -29.149103 1.269579
-5.902981 -28.851756 1.269579
-5.956207 -28.795281 1.269579
-6.123386 -28.509483 1.269579
-6.257216 -28.167210 1.269579
-6.270160 -27.824937 1.269579
-6.151779 -27.482664 1.269579
-5.956207 -27.141808 1.269579
-5.954894 -27.140392 1.269579
-5.606577 -26.798119 1.269579
-5.592687 -26.784004 1.269579
-5.229166 -26.559181 1.269579
-4.955187 -26.455846 1.269579
-4.865646 -26.424021 1.269579
-4.502125 -26.370728 1.269579
-4.138605 -26.359665 1.269579
-3.775084 -26.379379 1.269579
-3.411564 -26.431553 1.269579
-3.312131 -26.455846 1.269579
-3.048043 -26.587402 1.269579
-2.756413 -26.798119 1.269579
-2.684523 -26.905427 1.269579
-2.552522 -27.140392 1.269579
-2.437874 -27.482664 1.269579
-2.344375 -27.824937 1.269579
-2.321002 -27.913057 1.269579
-2.269997 -28.167210 1.269579
-2.221217 -28.509483 1.269579
-2.230197 -28.851756 1.269579
-2.321002 -29.142783 1.269579
-2.341226 -29.194028 1.269579
-2.674823 -29.536301 1.269579
-2.577299 -29.878574 1.536134
-2.684523 -29.933356 1.536134
-3.048043 -30.024358 1.536134
-3.411564 -30.014307 1.536134
-3.775084 -29.945756 1.536134
-4.073871 -29.878574 1.536134
-4.138605 -29.858871 1.536134
-4.502125 -29.755119 1.536134
-4.865646 -29.667442 1.536134
-5.229166 -29.562464 1.536134
-5.283000 -29.536301 1.536134
-5.592687 -29.379232 1.536134
-5.829724 -29.194028 1.536134
-5.956207 -29.095154 1.536134
-6.158115 -28.851756 1.536134
-6.319728 -28.638015 1.536134
-6.387192 -28.509483 1.536134
-6.499834 -28.167210 1.536134
-6.511375 -27.824937 1.536134
-6.412630 -27.482664 1.536134
-6.319728 -27.304635 1.536134
-6.195299 -27.140392 1.536134
-5.956207 -26.856578 1.536134
-5.881810 -26.798119 1.536134
-5.592687 -26.558114 1.536134
-5.404696 -26.455846 1.536134
-5.229166 -26.356389 1.536134
-4.865646 -26.238397 1.536134
-4.502125 -26.173069 1.536134
-4.138605 -26.144258 1.536134
-3.775084 -26.148929 1.536134
-3.411564 -26.201618 1.536134
-3.048043 -26.325544 1.536134
-2.811092 -26.455846 1.536134
-2.684523 -26.599137 1.536134
-2.542477 -26.798119 1.536134
-2.414428 -27.140392 1.536134
-2.326917 -27.482664 1.536134
-2.321002 -27.504816 1.536134
-2.249289 -27.824937 1.536134
-2.154226 -28.167210 1.536134
-2.061279 -28.509483 1.536134
-2.015334 -28.851756 1.536134
-2.060103 -29.194028 1.536134
-2.218893 -29.536301 1.536134
-2.321002 -29.648749 1.536134
-2.577299 -29.878574 1.536134
-2.540707 -30.220847 1.802688
-2.684523 -30.290567 1.802688
-3.048043 -30.368838 1.802688
-3.411564 -30.341924 1.802688
-3.775084 -30.252356 1.802688
-3.875238 -30.220847 1.802688
-4.138605 -30.109207 1.802688
-4.502125 -29.979813 1.802688
-4.848767 -29.878574 1.802688
-4.865646 -29.872810 1.802688
-5.229166 -29.736012 1.802688
-5.592687 -29.568403 1.802688
-5.636892 -29.536301 1.802688
-5.956207 -29.309940 1.802688
-6.067546 -29.194028 1.802688
-6.319728 -28.937548 1.802688
-6.379903 -28.851756 1.802688
-6.589295 -28.509483 1.802688
-6.683248 -28.276944 1.802688
-6.716133 -28.167210 1.802688
-6.727150 -27.824937 1.802688
-6.683248 -27.651286 1.802688
-6.623947 -27.482664 1.802688
-6.411185 -27.140392 1.802688
-6.319728 -27.015693 1.802688
-6.099451 -26.798119 1.802688
-5.956207 -26.648788 1.802688
-5.692642 -26.455846 1.802688
-5.592687 -26.374732 1.802688
-5.229166 -26.182998 1.802688
-5.025359 -26.113573 1.802688
-4.865646 -26.062907 1.802688
-4.502125 -25.999079 1.802688
-4.138605 -25.963678 1.802688
-3.775084 -25.954008 1.802688
-3.411564 -25.982900 1.802688
-3.048043 -26.070754 1.802688
-2.945868 -26.113573 1.802688
-2.684523 -26.326475 1.802688
-2.563100 -26.455846 1.802688
-2.405188 -26.798119 1.802688
-2.324824 -27.140392 1.802688
-2.321002 -27.161411 1.802688
-2.268802 -27.482664 1.802688
-2.187099 -27.824937 1.802688
-2.066644 -28.167210 1.802688
-1.957482 -28.440588 1.802688
-1.937549 -28.509483 1.802688
-1.863573 -28.851756 1.802688
-1.855294 -29.194028 1.802688
-1.935061 -29.536301 1.802688
-1.957482 -29.574464 1.802688
-2.147648 -29.878574 1.802688
-2.321002 -30.046649 1.802688
-2.540707 -30.220847 1.802688
-2.583849 -30.563119 2.069243
-2.684523 -30.609399 2.069243
-3.048043 -30.677283 2.069243
-3.411564 -30.641841 2.069243
-3.692107 -30.563119 2.069243
-3.775084 -30.530706 2.069243
-4.138605 -30.358890 2.069243
-4.478278 -30.220847 2.069243
-4.502125 -30.208434 2.069243
-4.865646 -30.042393 2.069243
-5.229166 -29.900316 2.069243
-5.273331 -29.878574 2.069243
-5.592687 -29.715114 2.069243
-5.853739 -29.536301 2.069243
-5.956207 -29.469789 2.069243
-6.248422 -29.194028 2.069243
-6.319728 -29.129107 2.069243
-6.534006 -28.851756 2.069243
-6.683248 -28.637795 2.069243
-6.751192 -28.509483 2.069243
-6.864374 -28.167210 2.069243
-6.878054 -27.824937 2.069243
-6.782234 -27.482664 2.069243
-6.683248 -27.294901 2.069243
-6.574284 -27.140392 2.069243
-6.319728 -26.827975 2.069243
-6.285579 -26.798119 2.069243
-5.956207 -26.491784 2.069243
-5.901235 -26.455846 2.069243
-5.592687 -26.227691 2.069243
-5.373781 -26.113573 2.069243
-5.229166 -26.036132 2.069243
-4.865646 -25.913083 2.069243
-4.502125 -25.827076 2.069243
-4.170978 -25.771301 2.069243
-4.138605 -25.767131 2.069243
-3.775084 -25.746413 2.069243
-3.411564 -25.759443 2.069243
-3.339740 -25.771301 2.069243
-3.048043 -25.859827 2.069243
-2.684523 -26.070827 2.069243
-2.631091 -26.113573 2.069243
-2.413787 -26.455846 2.069243
-2.321002 -26.788797 2.069243
-2.318670 -26.798119 2.069243
-2.281390 -27.140392 2.069243
-2.238281 -27.482664 2.069243
-2.152145 -27.824937 2.069243
-2.009317 -28.167210 2.069243
-1.957482 -28.266913 2.069243
-1.861304 -28.509483 2.069243
-1.747315 -28.851756 2.069243
-1.700106 -29.194028 2.069243
-1.743453 -29.536301 2.069243
-1.881252 -29.878574 2.069243
-1.957482 -29.981909 2.069243
-2.137718 -30.220847 2.069243
-2.321002 -30.380088 2.069243
-2.583849 -30.563119 2.069243
-2.774073 -30.905392 2.335798
-3.048043 -30.950129 2.335798
-3.411564 -30.911113 2.335798
-3.430124 -30.905392 2.335798
-3.775084 -30.767428 2.335798
-4.138605 -30.600269 2.335798
-4.219904 -30.563119 2.335798
-4.502125 -30.396881 2.335798
-4.865646 -30.224284 2.335798
-4.873199 -30.220847 2.335798
-5.229166 -30.033563 2.335798
-5.520942 -29.878574 2.335798
-5.592687 -29.840226 2.335798
-5.956207 -29.588633 2.335798
-6.010322 -29.536301 2.335798
-6.319728 -29.260243 2.335798
-6.374194 -29.194028 2.335798
-6.662532 -28.851756 2.335798
-6.683248 -28.824045 2.335798
-6.859255 -28.509483 2.335798
-6.983339 -28.167210 2.335798
-6.999432 -27.824937 2.335798
-6.896022 -27.482664 2.335798
-6.703654 -27.140392 2.335798
-6.683248 -27.111365 2.335798
-6.402795 -26.798119 2.335798
-6.319728 -26.702227 2.335798
-6.037256 -26.455846 2.335798
-5.956207 -26.374691 2.335798
-5.601356 -26.113573 2.335798
-5.592687 -26.106526 2.335798
-5.229166 -25.910352 2.335798
-4.883745 -25.771301 2.335798
-4.865646 -25.764939 2.335798
-4.502125 -25.680609 2.335798
-4.138605 -25.620493 2.335798
-3.775084 -25.586335 2.335798
-3.411564 -25.595083 2.335798
-3.048043 -25.670817 2.335798
-2.809708 -25.771301 2.335798
-2.684523 -25.871500 2.335798
-2.461304 -26.113573 2.335798
-2.321002 -26.446545 2.335798
-2.317520 -26.455846 2.335798
-2.275580 -26.798119 2.335798
-2.261646 -27.140392 2.335798
-2.228765 -27.482664 2.335798
-2.139922 -27.824937 2.335798
-1.979637 -28.167210 2.335798
-1.957482 -28.203281 2.335798
-1.806526 -28.509483 2.335798
-1.654859 -28.851756 2.335798
-1.593961 -29.094421 2.335798
-1.575958 -29.194028 2.335798
-1.585939 -29.536301 2.335798
-1.593961 -29.561705 2.335798
-1.693212 -29.878574 2.335798
-1.888156 -30.220847 2.335798
-1.957482 -30.299158 2.335798
-2.193807 -30.563119 2.335798
-2.321002 -30.663478 2.335798
-2.684523 -30.883081 2.335798
-2.774073 -30.905392 2.335798
-2.317277 -30.905392 2.602352
-2.321002 -30.908100 2.602352
-2.684523 -31.097500 2.602352
-3.048043 -31.168679 2.602352
-3.411564 -31.116228 2.602352
-3.775084 -30.985114 2.602352
-3.949737 -30.905392 2.602352
-4.138605 -30.794254 2.602352
-4.502125 -30.590580 2.602352
-4.556090 -30.563119 2.602352
-4.865646 -30.364973 2.602352
-5.130674 -30.220847 2.602352
-5.229166 -30.159846 2.602352
-5.592687 -29.936614 2.602352
-5.669770 -29.878574 2.602352
-5.956207 -29.671707 2.602352
-6.097329 -29.536301 2.602352
-6.319728 -29.342099 2.602352
-6.445225 -29.194028 2.602352
-6.683248 -28.922752 2.602352
-6.731687 -28.851756 2.602352
-6.932137 -28.509483 2.602352
-7.046769 -28.209182 2.602352
-7.059984 -28.167210 2.602352
-7.074061 -27.824937 2.602352
-7.046769 -27.716161 2.602352
-6.973278 -27.482664 2.602352
-6.771693 -27.140392 2.602352
-6.683248 -27.018657 2.602352
-6.478465 -26.798119 2.602352
-6.319728 -26.621057 2.602352
-6.124698 -26.455846 2.602352
-5.956207 -26.290853 2.602352
-5.714454 -26.113573 2.602352
-5.592687 -26.013690 2.602352
-5.229166 -25.797008 2.602352
-5.170778 -25.771301 2.602352
-4.865646 -25.653169 2.602352
-4.502125 -25.548390 2.602352
-4.138605 -25.466690 2.602352
-3.870035 -25.429028 2.602352
-3.775084 -25.419210 2.602352
-3.411564 -25.419993 2.602352
-3.348200 -25.429028 2.602352
-3.048043 -25.501699 2.602352
-2.684523 -25.692765 2.602352
-2.580791 -25.771301 2.602352
-2.346605 -26.113573 2.602352
-2.321002 -26.213219 2.602352
-2.264802 -26.455846 2.602352
-2.252598 -26.798119 2.602352
-2.256604 -27.140392 2.602352
-2.232004 -27.482664 2.602352
-2.142732 -27.824937 2.602352
-1.971428 -28.167210 2.602352
-1.957482 -28.187766 2.602352
-1.772872 -28.509483 2.602352
-1.593961 -28.838472 2.602352
-1.588378 -28.851756 2.602352
-1.491097 -29.194028 2.602352
-1.476092 -29.536301 2.602352
-1.549348 -29.878574 2.602352
-1.593961 -29.966151 2.602352
-1.715711 -30.220847 2.602352
-1.957482 -30.559478 2.602352
-1.960067 -30.563119 2.602352
-2.317277 -30.905392 2.602352
-2.598233 -31.247665 2.868907
-2.684523 -31.287960 2.868907
-3.048043 -31.348762 2.868907
-3.411564 -31.300926 2.868907
-3.565718 -31.247665 2.868907
-3.775084 -31.159079 2.868907
-4.138605 -30.967313 2.868907
-4.253986 -30.905392 2.868907
-4.502125 -30.734886 2.868907
-4.787583 -30.563119 2.868907
-4.865646 -30.503537 2.868907
-5.229166 -30.263335 2.868907
-5.293940 -30.220847 2.868907
-5.592687 -30.008201 2.868907
-5.753188 -29.878574 2.868907
-5.956207 -29.723778 2.868907
-6.147148 -29.536301 2.868907
-6.319728 -29.383709 2.868907
-6.480628 -29.194028 2.868907
-6.683248 -28.964288 2.868907
-6.760672 -28.851756 2.868907
-6.964636 -28.509483 2.868907
-7.046769 -28.296405 2.868907
-7.087784 -28.167210 2.868907
-7.102532 -27.824937 2.868907
-7.046769 -27.604194 2.868907
-7.008216 -27.482664 2.868907
-6.803847 -27.140392 2.868907
-6.683248 -26.975596 2.868907
-6.517822 -26.798119 2.868907
-6.319728 -26.577619 2.868907
-6.177216 -26.455846 2.868907
-5.956207 -26.236662 2.868907
-5.793881 -26.113573 2.868907
-5.592687 -25.941957 2.868907
-5.329118 -25.771301 2.868907
-5.229166 -25.710024 2.868907
-4.865646 -25.549322 2.868907
-4.524801 -25.429028 2.868907
-4.502125 -25.422822 2.868907
-4.138605 -25.350479 2.868907
-3.775084 -25.305707 2.868907
-3.411564 -25.303224 2.868907
-3.048043 -25.364278 2.868907
-2.872856 -25.429028 2.868907
-2.684523 -25.549848 2.868907
-2.444516 -25.771301 2.868907
-2.321002 -26.012673 2.868907
-2.275755 -26.113573 2.868907
-2.230431 -26.455846 2.868907
-2.239909 -26.798119 2.868907
-2.256443 -27.140392 2.868907
-2.238087 -27.482664 2.868907
-2.150811 -27.824937 2.868907
-1.975981 -28.167210 2.868907
-1.957482 -28.193297 2.868907
-1.757097 -28.509483 2.868907
-1.593961 -28.766626 2.868907
-1.550087 -28.851756 2.868907
-1.425423 -29.194028 2.868907
-1.389681 -29.536301 2.868907
-1.446043 -29.878574 2.868907
-1.587041 -30.220847 2.868907
-1.593961 -30.230543 2.868907
-1.810102 -30.563119 2.868907
-1.957482 -30.729704 2.868907
-2.114692 -30.905392 2.868907
-2.321002 -31.076517 2.868907
-2.598233 -31.247665 2.868907
-2.355343 -31.247665 3.135461
-2.684523 -31.418547 3.135461
-3.048043 -31.485398 3.135461
-3.411564 -31.431853 3.135461
-3.775084 -31.297836 3.135461
-3.878104 -31.247665 3.135461
-4.138605 -31.092504 3.135461
-4.452000 -30.905392 3.135461
-4.502125 -30.866423 3.135461
-4.865646 -30.610141 3.135461
-4.939925 -30.563119 3.135461
-5.229166 -30.337547 3.135461
-5.386380 -30.220847 3.135461
-5.592687 -30.055404 3.135461
-5.793134 -29.878574 3.135461
-5.956207 -29.743970 3.135461
-6.157129 -29.536301 3.135461
-6.319728 -29.385982 3.135461
-6.478170 -29.194028 3.135461
-6.683248 -28.955928 3.135461
-6.753891 -28.851756 3.135461
-6.954821 -28.509483 3.135461
-7.046769 -28.268337 3.135461
-7.078698 -28.167210 3.135461
-7.093570 -27.824937 3.135461
-7.046769 -27.637049 3.135461
-6.998811 -27.482664 3.135461
-6.798525 -27.140392 3.135461
-6.683248 -26.979901 3.135461
-6.518710 -26.798119 3.135461
-6.319728 -26.569871 3.135461
-6.192284 -26.455846 3.135461
-5.956207 -26.210624 3.135461
-5.836558 -26.113573 3.135461
-5.592687 -25.891554 3.135461
-5.422853 -25.771301 3.135461
-5.229166 -25.642268 3.135461
-4.865646 -25.458420 3.135461
-4.791833 -25.429028 3.135461
-4.502125 -25.340279 3.135461
-4.138605 -25.256361 3.135461
-3.775084 -25.202705 3.135461
-3.411564 -25.196351 3.135461
-3.048043 -25.261686 3.135461
-2.684523 -25.415599 3.135461
-2.662997 -25.429028 3.135461
-2.348265 -25.771301 3.135461
-2.321002 -25.840513 3.135461
-2.226296 -26.113573 3.135461
-2.203810 -26.455846 3.135461
-2.227014 -26.798119 3.135461
-2.250569 -27.140392 3.135461
-2.236192 -27.482664 3.135461
-2.153154 -27.824937 3.135461
-1.982806 -28.167210 3.135461
-1.957482 -28.203261 3.135461
-1.753451 -28.509483 3.135461
-1.593961 -28.739802 3.135461
-1.527273 -28.851756 3.135461
-1.379364 -29.194028 3.135461
-1.327431 -29.536301 3.135461
-1.372206 -29.878574 3.135461
-1.501817 -30.220847 3.135461
-1.593961 -30.365538 3.135461
-1.706922 -30.563119 3.135461
-1.957482 -30.881045 3.135461
-1.976668 -30.905392 3.135461
-2.321002 -31.223582 3.135461
-2.355343 -31.247665 3.135461
-2.244481 -31.247665 3.402016
-2.321002 -31.308322 3.402016
-2.684523 -31.512041 3.402016
-3.048043 -31.584905 3.402016
-3.411564 -31.528078 3.402016
-3.775084 -31.384527 3.402016
-4.043703 -31.247665 3.402016
-4.138605 -31.187775 3.402016
-4.502125 -30.950104 3.402016
-4.575161 -30.905392 3.402016
-4.865646 -30.676695 3.402016
-5.026792 -30.563119 3.402016
-5.229166 -30.386073 3.402016
-5.428170 -30.220847 3.402016
-5.592687 -30.072813 3.402016
-5.792279 -29.878574 3.402016
-5.956207 -29.729363 3.402016
-6.129485 -29.536301 3.402016
-6.319728 -29.347038 3.402016
-6.439435 -29.194028 3.402016
-6.683248 -28.896032 3.402016
-6.712193 -28.851756 3.402016
-6.903993 -28.509483 3.402016
-7.029819 -28.167210 3.402016
-7.046769 -27.846486 3.402016
-7.047700 -27.824937 3.402016
-7.046769 -27.821060 3.402016
-6.946901 -27.482664 3.402016
-6.757304 -27.140392 3.402016
-6.683248 -27.032580 3.402016
-6.483853 -26.798119 3.402016
-6.319728 -26.597983 3.402016
-6.173264 -26.455846 3.402016
-5.956207 -26.212502 3.402016
-5.845414 -26.113573 3.402016
-5.592687 -25.863219 3.402016
-5.475390 -25.771301 3.402016
-5.229166 -25.592458 3.402016
-4.938512 -25.429028 3.402016
-4.865646 -25.396590 3.402016
-4.502125 -25.273569 3.402016
-4.138605 -25.179522 3.402016
-3.775084 -25.118236 3.402016
-3.411564 -25.107970 3.402016
-3.048043 -25.175127 3.402016
-2.684523 -25.339356 3.402016
-2.553031 -25.429028 3.402016
-2.321002 -25.714254 3.402016
-2.281788 -25.771301 3.402016
-2.183804 -26.113573 3.402016
-2.174134 -26.455846 3.402016
-2.203116 -26.798119 3.402016
-2.228129 -27.140392 3.402016
-2.215288 -27.482664 3.402016
-2.138388 -27.824937 3.402016
-1.980468 -28.167210 3.402016
-1.957482 -28.202290 3.402016
-1.753804 -28.509483 3.402016
-1.593961 -28.734924 3.402016
-1.517676 -28.851756 3.402016
-1.353019 -29.194028 3.402016
-1.290520 -29.536301 3.402016
-1.329047 -29.878574 3.402016
-1.452749 -30.220847 3.402016
-1.593961 -30.459877 3.402016
-1.647976 -30.563119 3.402016
-1.903125 -30.905392 3.402016
-1.957482 -30.961557 3.402016
-2.244481 -31.247665 3.402016
-2.837791 -31.589938 3.668571
-3.048043 -31.626253 3.668571
-3.327831 -31.589938 3.668571
-3.411564 -31.577549 3.668571
-3.775084 -31.429808 3.668571
-4.124454 -31.247665 3.668571
-4.138605 -31.238483 3.668571
-4.502125 -30.987670 3.668571
-4.629437 -30.905392 3.668571
-4.865646 -30.707942 3.668571
-5.056477 -30.563119 3.668571
-5.229166 -30.399118 3.668571
-5.425217 -30.220847 3.668571
-5.592687 -30.053955 3.668571
-5.756029 -29.878574 3.668571
-5.956207 -29.675480 3.668571
-6.070119 -29.536301 3.668571
-6.319728 -29.262535 3.668571
-6.369371 -29.194028 3.668571
-6.624008 -28.851756 3.668571
-6.683248 -28.763152 3.668571
-6.816647 -28.509483 3.668571
-6.932736 -28.167210 3.668571
-6.949879 -27.824937 3.668571
-6.858185 -27.482664 3.668571
-6.684889 -27.140392 3.668571
-6.683248 -27.137828 3.668571
-6.420380 -26.798119 3.668571
-6.319728 -26.663847 3.668571
-6.128264 -26.455846 3.668571
-5.956207 -26.242616 3.668571
-5.827718 -26.113573 3.668571
-5.592687 -25.857664 3.668571
-5.493373 -25.771301 3.668571
-5.229166 -25.563150 3.668571
-5.009670 -25.429028 3.668571
-4.865646 -25.360073 3.668571
-4.502125 -25.227349 3.668571
-4.138605 -25.125962 3.668571
-3.918946 -25.086755 3.668571
-3.775084 -25.066581 3.668571
-3.411564 -25.057088 3.668571
-3.178724 -25.086755 3.668571
-3.048043 -25.111865 3.668571
-2.684523 -25.279071 3.668571
-2.474014 -25.429028 3.668571
-2.321002 -25.627416 3.668571
-2.227452 -25.771301 3.668571
-2.137508 -26.113573 3.668571
-2.130627 -26.455846 3.668571
-2.157635 -26.798119 3.668571
-2.178878 -27.140392 3.668571
-2.165367 -27.482664 3.668571
-2.096313 -27.824937 3.668571
-1.958117 -28.167210 3.668571
-1.957482 -28.168331 3.668571
-1.747881 -28.509483 3.668571
-1.593961 -28.738074 3.668571
-1.517374 -28.851756 3.668571
-1.346654 -29.194028 3.668571
-1.281498 -29.536301 3.668571
-1.319800 -29.878574 3.668571
-1.442730 -30.220847 3.668571
-1.593961 -30.483357 3.668571
-1.634088 -30.563119 3.668571
-1.881531 -30.905392 3.668571
-1.957482 -30.986846 3.668571
-2.207473 -31.247665 3.668571
-2.321002 -31.341423 3.668571
-2.684523 -31.555899 3.668571
-2.837791 -31.589938 3.668571
-2.898079 -31.589938 3.935125
-3.048043 -31.617321 3.935125
-3.271434 -31.589938 3.935125
-3.411564 -31.570412 3.935125
-3.775084 -31.425015 3.935125
-4.115810 -31.247665 3.935125
-4.138605 -31.232976 3.935125
-4.502125 -30.981366 3.935125
-4.617643 -30.905392 3.935125
-4.865646 -30.694647 3.935125
-5.032911 -30.563119 3.935125
-5.229166 -30.368807 3.935125
-5.382189 -30.220847 3.935125
-5.592687 -29.993678 3.935125
-5.690889 -29.878574 3.935125
-5.956207 -29.578029 3.935125
-5.987096 -29.536301 3.935125
-6.259884 -29.194028 3.935125
-6.319728 -29.122397 3.935125
-6.498403 -28.851756 3.935125
-6.683248 -28.544448 3.935125
-6.700334 -28.509483 3.935125
-6.805108 -28.167210 3.935125
-6.821724 -27.824937 3.935125
-6.741983 -27.482664 3.935125
-6.683248 -27.353885 3.935125
-6.563867 -27.140392 3.935125
-6.338620 -26.798119 3.935125
-6.319728 -26.769871 3.935125
-6.068089 -26.455846 3.935125
-5.956207 -26.300279 3.935125
-5.792882 -26.113573 3.935125
-5.592687 -25.874254 3.935125
-5.485160 -25.771301 3.935125
-5.229166 -25.555473 3.935125
-5.034527 -25.429028 3.935125
-4.865646 -25.343689 3.935125
-4.502125 -25.204336 3.935125
-4.138605 -25.099148 3.935125
-4.070050 -25.086755 3.935125
-3.775084 -25.044192 3.935125
-3.411564 -25.033039 3.935125
-3.048043 -25.079094 3.935125
-3.022445 -25.086755 3.935125
-2.684523 -25.237910 3.935125
-2.414028 -25.429028 3.935125
-2.321002 -25.546349 3.935125
-2.171691 -25.771301 3.935125
-2.076996 -26.113573 3.935125
-2.063234 -26.455846 3.935125
-2.081450 -26.798119 3.935125
-2.094956 -27.140392 3.935125
-2.079682 -27.482664 3.935125
-2.020471 -27.824937 3.935125
-1.957482 -28.022561 3.935125
-1.902867 -28.167210 3.935125
-1.724568 -28.509483 3.935125
-1.593961 -28.736149 3.935125
-1.520285 -28.851756 3.935125
-1.360858 -29.194028 3.935125
-1.304939 -29.536301 3.935125
-1.350594 -29.878574 3.935125
-1.477926 -30.220847 3.935125
-1.593961 -30.415752 3.935125
-1.669411 -30.563119 3.935125
-1.913055 -30.905392 3.935125
-1.957482 -30.953382 3.935125
-2.235434 -31.247665 3.935125
-2.321002 -31.319531 3.935125
-2.684523 -31.539758 3.935125
-2.898079 -31.589938 3.935125
-2.338620 -31.247665 4.201680
-2.684523 -31.457680 4.201680
-3.048043 -31.546293 4.201680
-3.411564 -31.501556 4.201680
-3.775084 -31.365596 4.201680
-4.008011 -31.247665 4.201680
-4.138605 -31.167183 4.201680
-4.502125 -30.927434 4.201680
-4.536333 -30.905392 4.201680
-4.865646 -30.633872 4.201680
-4.956071 -30.563119 4.201680
-5.229166 -30.293722 4.201680
-5.302569 -30.220847 4.201680
-5.592687 -29.892074 4.201680
-5.603461 -29.878574 4.201680
-5.871105 -29.536301 4.201680
-5.956207 -29.434028 4.201680
-6.123393 -29.194028 4.201680
-6.319728 -28.921462 4.201680
-6.360802 -28.851756 4.201680
-6.535742 -28.509483 4.201680
-6.652857 -28.167210 4.201680
-6.674703 -27.824937 4.201680
-6.593242 -27.482664 4.201680
-6.437483 -27.140392 4.201680
-6.319728 -26.929859 4.201680
-6.232435 -26.798119 4.201680
-6.003782 -26.455846 4.201680
-5.956207 -26.381425 4.201680
-5.750318 -26.113573 4.201680
-5.592687 -25.909398 4.201680
-5.459238 -25.771301 4.201680
-5.229166 -25.567869 4.201680
-5.022656 -25.429028 4.201680
-4.865646 -25.346993 4.201680
-4.502125 -25.204149 4.201680
-4.138605 -25.098530 4.201680
-4.073417 -25.086755 4.201680
-3.775084 -25.042613 4.201680
-3.411564 -25.029776 4.201680
-3.048043 -25.072431 4.201680
-2.997751 -25.086755 4.201680
-2.684523 -25.215987 4.201680
-2.363516 -25.429028 4.201680
-2.321002 -25.476992 4.201680
-2.105261 -25.771301 4.201680
-1.993121 -26.113573 4.201680
-1.964278 -26.455846 4.201680
-1.969255 -26.798119 4.201680
-1.973729 -27.140392 4.201680
-1.957830 -27.482664 4.201680
-1.957482 -27.485310 4.201680
-1.903483 -27.824937 4.201680
-1.807583 -28.167210 4.201680
-1.675433 -28.509483 4.201680
-1.593961 -28.705013 4.201680
-1.517988 -28.851756 4.201680
-1.396126 -29.194028 4.201680
-1.367459 -29.536301 4.201680
-1.430908 -29.878574 4.201680
-1.568458 -30.220847 4.201680
-1.593961 -30.259901 4.201680
-1.761358 -30.563119 4.201680
-1.957482 -30.832460 4.201680
-2.008589 -30.905392 4.201680
-2.321002 -31.233062 4.201680
-2.338620 -31.247665 4.201680
-2.578902 -31.247665 4.468235
-2.684523 -31.309999 4.468235
-3.048043 -31.404261 4.468235
-3.411564 -31.372597 4.468235
-3.775084 -31.252800 4.468235
-3.785782 -31.247665 4.468235
-4.138605 -31.047307 4.468235
-4.370965 -30.905392 4.468235
-4.502125 -30.805875 4.468235
-4.822209 -30.563119 4.468235
-4.865646 -30.522349 4.468235
-5.186414 -30.220847 4.468235
-5.229166 -30.174280 4.468235
-5.485937 -29.878574 4.468235
-5.592687 -29.749211 4.468235
-5.748044 -29.536301 4.468235
-5.956207 -29.254298 4.468235
-5.993928 -29.194028 4.468235
-6.202885 -28.851756 4.468235
-6.319728 -28.633934 4.468235
-6.375790 -28.509483 4.468235
-6.476719 -28.167210 4.468235
-6.501116 -27.824937 4.468235
-6.442985 -27.482664 4.468235
-6.321179 -27.140392 4.468235
-6.319728 -27.137322 4.468235
-6.137210 -26.798119 4.468235
-5.956207 -26.477813 4.468235
-5.941781 -26.455846 4.468235
-5.707539 -26.113573 4.468235
-5.592687 -25.956134 4.468235
-5.422861 -25.771301 4.468235
-5.229166 -25.595893 4.468235
-4.982408 -25.429028 4.468235
-4.865646 -25.367192 4.468235
-4.502125 -25.223275 4.468235
-4.138605 -25.119594 4.468235
-3.954274 -25.086755 4.468235
-3.775084 -25.059672 4.468235
-3.411564 -25.045034 4.468235
-3.048043 -25.082623 4.468235
-3.031987 -25.086755 4.468235
-2.684523 -25.210709 4.468235
-2.321002 -25.425672 4.468235
-2.316386 -25.429028 4.468235
-2.020898 -25.771301 4.468235
-1.957482 -25.917771 4.468235
-1.876090 -26.113573 4.468235
-1.819038 -26.455846 4.468235
-1.803932 -26.798119 4.468235
-1.796777 -27.140392 4.468235
-1.777741 -27.482664 4.468235
-1.738108 -27.824937 4.468235
-1.676833 -28.167210 4.468235
-1.600107 -28.509483 4.468235
-1.593961 -28.538790 4.468235
-1.501668 -28.851756 4.468235
-1.451557 -29.194028 4.468235
-1.475948 -29.536301 4.468235
-1.572625 -29.878574 4.468235
-1.593961 -29.919544 4.468235
-1.721022 -30.220847 4.468235
-1.919778 -30.563119 4.468235
-1.957482 -30.610551 4.468235
-2.181464 -30.905392 4.468235
-2.321002 -31.044486 4.468235
-2.578902 -31.247665 4.468235
2.404764 -27.883666 4.734789
2.184452 -27.824937 4.734789
2.404764 -27.663997 4.734789
-2.466846 -30.905392 4.734789
-2.684523 -31.063507 4.734789
-3.048043 -31.194430 4.734789
-3.411564 -31.177842 4.734789
-3.775084 -31.058914 4.734789
-4.099276 -30.905392 4.734789
-4.138605 -30.883587 4.734789
-4.502125 -30.646307 4.734789
-4.624106 -30.563119 4.734789
-4.865646 -30.366083 4.734789
-5.033358 -30.220847 4.734789
-5.229166 -30.024786 4.734789
-5.360284 -29.878574 4.734789
-5.592687 -29.595000 4.734789
-5.634311 -29.536301 4.734789
-5.867253 -29.194028 4.734789
-5.956207 -29.053198 4.734789
-6.066973 -28.851756 4.734789
-6.225874 -28.509483 4.734789
-6.319728 -28.205690 4.734789
-6.330242 -28.167210 4.734789
-6.359536 -27.824937 4.734789
-6.320220 -27.482664 4.734789
-6.319728 -27.480949 4.734789
-6.212866 -27.140392 4.734789
-6.064717 -26.798119 4.734789
-5.956207 -26.580236 4.734789
-5.885385 -26.455846 4.734789
-5.668717 -26.113573 4.734789
-5.592687 -26.006443 4.734789
-5.380731 -25.771301 4.734789
-5.229166 -25.633941 4.734789
-4.919964 -25.429028 4.734789
-4.865646 -25.400360 4.734789
-4.502125 -25.256651 4.734789
-4.138605 -25.155985 4.734789
-3.775084 -25.092974 4.734789
-3.653692 -25.086755 4.734789
-3.411564 -25.075530 4.734789
-3.275855 -25.086755 4.734789
-3.048043 -25.110915 4.734789
-2.684523 -25.218855 4.734789
-2.321002 -25.400356 4.734789
-2.274766 -25.429028 4.734789
-1.957482 -25.727263 4.734789
-1.914892 -25.771301 4.734789
-1.721478 -26.113573 4.734789
-1.632551 -26.455846 4.734789
-1.598737 -26.798119 4.734789
-1.593961 -26.910531 4.734789
-1.580841 -27.140392 4.734789
-1.560181 -27.482664 4.734789
-1.529381 -27.824937 4.734789
-1.492402 -28.167210 4.734789
-1.464497 -28.509483 4.734789
-1.468216 -28.851756 4.734789
-1.522940 -29.194028 4.734789
-1.593961 -29.410186 4.734789
-1.624744 -29.536301 4.734789
-1.759383 -29.878574 4.734789
-1.937743 -30.220847 4.734789
-1.957482 -30.249076 4.734789
-2.157516 -30.563119 4.734789
-2.321002 -30.757885 4.734789
-2.466846 -30.905392 4.734789
2.404764 -27.943804 5.001344
2.041243 -27.878307 5.001344
1.677723 -27.831106 5.001344
1.557411 -27.824937 5.001344
1.677723 -27.812085 5.001344
2.041243 -27.700378 5.001344
2.404764 -27.529279 5.001344
-3.034363 -30.905392 5.001344
-3.048043 -30.910273 5.001344
-3.411564 -30.924486 5.001344
-3.492211 -30.905392 5.001344
-3.775084 -30.833238 5.001344
-4.138605 -30.674457 5.001344
-4.343096 -30.563119 5.001344
-4.502125 -30.468341 5.001344
-4.853891 -30.220847 5.001344
-4.865646 -30.211859 5.001344
-5.229166 -29.882295 5.001344
-5.232681 -29.878574 5.001344
-5.525906 -29.536301 5.001344
-5.592687 -29.449942 5.001344
-5.764245 -29.194028 5.001344
-5.956207 -28.864420 5.001344
-5.962797 -28.851756 5.001344
-6.111883 -28.509483 5.001344
-6.210937 -28.167210 5.001344
-6.248814 -27.824937 5.001344
-6.222862 -27.482664 5.001344
-6.140124 -27.140392 5.001344
-6.013523 -26.798119 5.001344
-5.956207 -26.672234 5.001344
-5.845094 -26.455846 5.001344
-5.634008 -26.113573 5.001344
-5.592687 -26.055411 5.001344
-5.333918 -25.771301 5.001344
-5.229166 -25.678090 5.001344
-4.865646 -25.444840 5.001344
-4.831201 -25.429028 5.001344
-4.502125 -25.300155 5.001344
-4.138605 -25.202544 5.001344
-3.775084 -25.142536 5.001344
-3.411564 -25.122513 5.001344
-3.048043 -25.151366 5.001344
-2.684523 -25.239025 5.001344
-2.321002 -25.387476 5.001344
-2.239681 -25.429028 5.001344
-1.957482 -25.633520 5.001344
-1.788938 -25.771301 5.001344
-1.593961 -26.031028 5.001344
-1.530620 -26.113573 5.001344
-1.376517 -26.455846 5.001344
-1.296656 -26.798119 5.001344
-1.258728 -27.140392 5.001344
-1.242188 -27.482664 5.001344
-1.240516 -27.824937 5.001344
-1.259949 -28.167210 5.001344
-1.316239 -28.509483 5.001344
-1.427786 -28.851756 5.001344
-1.593961 -29.177726 5.001344
-1.599703 -29.194028 5.001344
-1.764537 -29.536301 5.001344
-1.957482 -29.850953 5.001344
-1.972314 -29.878574 5.001344
-2.193889 -30.220847 5.001344
-2.321002 -30.381865 5.001344
-2.482825 -30.563119 5.001344
-2.684523 -30.736171 5.001344
-3.034363 -30.905392 5.001344
2.404764 -27.870695 5.267899
2.041243 -27.834736 5.267899
1.677723 -27.835169 5.267899
1.314202 -27.890094 5.267899
0.950682 -28.015292 5.267899
0.644070 -28.167210 5.267899
0.587161 -28.182757 5.267899
0.223641 -28.255787 5.267899
-0.139880 -28.271578 5.267899
-0.503400 -28.203385 5.267899
-0.866920 -28.200332 5.267899
-1.166800 -28.509483 5.267899
-1.230441 -28.557377 5.267899
-1.402434 -28.851756 5.267899
-1.593961 -29.089831 5.267899
-1.650841 -29.194028 5.267899
-1.892490 -29.536301 5.267899
-1.957482 -29.614398 5.267899
-2.153203 -29.878574 5.267899
-2.321002 -30.072807 5.267899
-2.464785 -30.220847 5.267899
-2.684523 -30.415439 5.267899
-2.952600 -30.563119 5.267899
-3.048043 -30.606916 5.267899
-3.411564 -30.658088 5.267899
-3.775084 -30.607858 5.267899
-3.906694 -30.563119 5.267899
-4.138605 -30.485743 5.267899
-4.502125 -30.306945 5.267899
-4.640234 -30.220847 5.267899
-4.865646 -30.071789 5.267899
-5.097193 -29.878574 5.267899
-5.229166 -29.757777 5.267899
-5.428126 -29.536301 5.267899
-5.592687 -29.326038 5.267899
-5.682256 -29.194028 5.267899
-5.881161 -28.851756 5.267899
-5.956207 -28.685465 5.267899
-6.031551 -28.509483 5.267899
-6.131206 -28.167210 5.267899
-6.174608 -27.824937 5.267899
-6.160479 -27.482664 5.267899
-6.092407 -27.140392 5.267899
-5.977342 -26.798119 5.267899
-5.956207 -26.749304 5.267899
-5.814471 -26.455846 5.267899
-5.599725 -26.113573 5.267899
-5.592687 -26.103902 5.267899
-5.279326 -25.771301 5.267899
-5.229166 -25.728063 5.267899
-4.865646 -25.498873 5.267899
-4.702823 -25.429028 5.267899
-4.502125 -25.352607 5.267899
-4.138605 -25.257534 5.267899
-3.775084 -25.200351 5.267899
-3.411564 -25.180307 5.267899
-3.048043 -25.202459 5.267899
-2.684523 -25.273081 5.267899
-2.321002 -25.392634 5.267899
-2.232328 -25.429028 5.267899
-1.957482 -25.580104 5.267899
-1.660105 -25.771301 5.267899
-1.593961 -25.835631 5.267899
-1.308824 -26.113573 5.267899
-1.230441 -26.237438 5.267899
-1.066779 -26.455846 5.267899
-0.870446 -26.798119 5.267899
-0.866920 -26.807415 5.267899
-0.544524 -27.140392 5.267899
-0.503400 -27.178350 5.267899
-0.139880 -27.282070 5.267899
0.223641 -27.350643 5.267899
0.587161 -27.427685 5.267899
0.855885 -27.482664 5.267899
0.950682 -27.533156 5.267899
1.314202 -27.710771 5.267899
1.677723 -27.804858 5.267899
2.041243 -27.804107 5.267899
2.404764 -27.723181 5.267899
-2.724383 -30.220847 5.534453
-3.048043 -30.387711 5.534453
-3.411564 -30.457555 5.534453
-3.775084 -30.433190 5.534453
-4.138605 -30.335880 5.534453
-4.399347 -30.220847 5.534453
-4.502125 -30.176952 5.534453
-4.865646 -29.955862 5.534453
-4.964133 -29.878574 5.534453
-5.229166 -29.650605 5.534453
-5.336530 -29.536301 5.534453
-5.592687 -29.217050 5.534453
-5.608786 -29.194028 5.534453
-5.817258 -28.851756 5.534453
-5.956207 -28.539278 5.534453
-5.969152 -28.509483 5.534453
-6.073909 -28.167210 5.534453
-6.123212 -27.824937 5.534453
-6.117214 -27.482664 5.534453
-6.057626 -27.140392 5.534453
-5.956207 -26.824259 5.534453
-5.947390 -26.798119 5.534453
-5.785040 -26.455846 5.534453
-5.592687 -26.158851 5.534453
-5.556399 -26.113573 5.534453
-5.229166 -25.787321 5.534453
-5.206727 -25.771301 5.534453
-4.865646 -25.560345 5.534453
-4.536037 -25.429028 5.534453
-4.502125 -25.416549 5.534453
-4.138605 -25.323365 5.534453
-3.775084 -25.269069 5.534453
-3.411564 -25.250186 5.534453
-3.048043 -25.268428 5.534453
-2.684523 -25.326654 5.534453
-2.321002 -25.423376 5.534453
-2.303460 -25.429028 5.534453
-1.957482 -25.571752 5.534453
-1.593961 -25.755078 5.534453
-1.563680 -25.771301 5.534453
-1.230441 -26.020423 5.534453
-1.110711 -26.113573 5.534453
-0.866920 -26.363060 5.534453
-0.769579 -26.455846 5.534453
-0.503400 -26.715886 5.534453
-0.399143 -26.798119 5.534453
-0.139880 -26.976826 5.534453
0.199736 -27.140392 5.534453
0.223641 -27.152430 5.534453
0.587161 -27.348849 5.534453
0.920294 -27.482664 5.534453
0.950682 -27.515741 5.534453
1.260506 -27.824937 5.534453
0.950682 -28.003970 5.534453
0.709926 -28.167210 5.534453
0.587161 -28.212136 5.534453
0.223641 -28.317993 5.534453
-0.139880 -28.364213 5.534453
-0.503400 -28.340063 5.534453
-0.866920 -28.363414 5.534453
-1.059837 -28.509483 5.534453
-1.230441 -28.609147 5.534453
-1.413156 -28.851756 5.534453
-1.593961 -29.035487 5.534453
-1.700245 -29.194028 5.534453
-1.957482 -29.492177 5.534453
-1.991315 -29.536301 5.534453
-2.306669 -29.878574 5.534453
-2.321002 -29.892448 5.534453
-2.684523 -30.198688 5.534453
-2.724383 -30.220847 5.534453
-2.999358 -30.220847 5.801008
-3.048043 -30.243080 5.801008
-3.411564 -30.319626 5.801008
-3.775084 -30.305782 5.801008
-4.122027 -30.220847 5.801008
-4.138605 -30.217250 5.801008
-4.502125 -30.073400 5.801008
-4.824089 -29.878574 5.801008
-4.865646 -29.852726 5.801008
-5.229166 -29.547848 5.801008
-5.240429 -29.536301 5.801008
-5.535100 -29.194028 5.801008
-5.592687 -29.110379 5.801008
-5.756518 -28.851756 5.801008
-5.914870 -28.509483 5.801008
-5.956207 -28.375850 5.801008
-6.023648 -28.167210 5.801008
-6.079408 -27.824937 5.801008
-6.079403 -27.482664 5.801008
-6.024263 -27.140392 5.801008
-5.956207 -26.923527 5.801008
-5.915274 -26.798119 5.801008
-5.747522 -26.455846 5.801008
-5.592687 -26.226443 5.801008
-5.497595 -26.113573 5.801008
-5.229166 -25.859051 5.801008
-5.097080 -25.771301 5.801008
-4.865646 -25.634804 5.801008
-4.502125 -25.494036 5.801008
-4.230498 -25.429028 5.801008
-4.138605 -25.406518 5.801008
-3.775084 -25.355788 5.801008
-3.411564 -25.340165 5.801008
-3.048043 -25.358366 5.801008
-2.684523 -25.409891 5.801008
-2.591714 -25.429028 5.801008
-2.321002 -25.495156 5.801008
-1.957482 -25.615504 5.801008
-1.593961 -25.760830 5.801008
-1.569655 -25.771301 5.801008
-1.230441 -25.970461 5.801008
-1.010794 -26.113573 5.801008
-0.866920 -26.238160 5.801008
-0.615461 -26.455846 5.801008
-0.503400 -26.562432 5.801008
-0.227467 -26.798119 5.801008
-0.139880 -26.868656 5.801008
0.223641 -27.123425 5.801008
0.248964 -27.140392 5.801008
0.587161 -27.399044 5.801008
0.717123 -27.482664 5.801008
0.892739 -27.824937 5.801008
0.587161 -28.088338 5.801008
0.454932 -28.167210 5.801008
0.223641 -28.243961 5.801008
-0.139880 -28.289931 5.801008
-0.503400 -28.275200 5.801008
-0.866920 -28.311957 5.801008
-1.144644 -28.509483 5.801008
-1.230441 -28.557750 5.801008
-1.470424 -28.851756 5.801008
-1.593961 -28.969588 5.801008
-1.756955 -29.194028 5.801008
-1.957482 -29.409580 5.801008
-2.064434 -29.536301 5.801008
-2.321002 -29.787288 5.801008
-2.429266 -29.878574 5.801008
-2.684523 -30.071129 5.801008
-2.999358 -30.220847 5.801008
-2.540061 -29.878574 6.067563
-2.684523 -29.979677 6.067563
-3.048043 -30.146449 6.067563
-3.411564 -30.214167 6.067563
-3.775084 -30.203602 6.067563
-4.138605 -30.125240 6.067563
-4.502125 -29.976879 6.067563
-4.666403 -29.878574 6.067563
-4.865646 -29.756999 6.067563
-5.131875 -29.536301 6.067563
-5.229166 -29.445039 6.067563
-5.452665 -29.194028 6.067563
-5.592687 -28.995151 6.067563
-5.686992 -28.851756 6.067563
-5.857230 -28.509483 6.067563
-5.956207 -28.200944 6.067563
-5.967803 -28.167210 6.067563
-6.030924 -27.824937 6.067563
-6.035625 -27.482664 6.067563
-5.981874 -27.140392 6.067563
-5.956207 -27.058486 6.067563
-5.871903 -26.798119 6.067563
-5.692105 -26.455846 6.067563
-5.592687 -26.315529 6.067563
-5.411981 -26.113573 6.067563
-5.229166 -25.949433 6.067563
-4.938829 -25.771301 6.067563
-4.865646 -25.730402 6.067563
-4.502125 -25.590230 6.067563
-4.138605 -25.508462 6.067563
-3.775084 -25.467942 6.067563
-3.411564 -25.460567 6.067563
-3.048043 -25.483548 6.067563
-2.684523 -25.536858 6.067563
-2.321002 -25.619947 6.067563
-1.957482 -25.727318 6.067563
-1.816721 -25.771301 6.067563
-1.593961 -25.866766 6.067563
-1.230441 -26.044190 6.067563
-1.107295 -26.113573 6.067563
-0.866920 -26.297279 6.067563
-0.675950 -26.455846 6.067563
-0.503400 -26.623629 6.067563
-0.322877 -26.798119 6.067563
-0.139880 -26.976679 6.067563
0.036309 -27.140392 6.067563
0.223641 -27.343550 6.067563
0.351693 -27.482664 6.067563
0.375900 -27.824937 6.067563
0.223641 -27.933186 6.067563
-0.139880 -28.025939 6.067563
-0.503400 -28.026400 6.067563
-0.866920 -28.104908 6.067563
-0.927233 -28.167210 6.067563
-1.230441 -28.394838 6.067563
-1.298347 -28.509483 6.067563
-1.577145 -28.851756 6.067563
-1.593961 -28.868116 6.067563
-1.830717 -29.194028 6.067563
-1.957482 -29.328691 6.067563
-2.138506 -29.536301 6.067563
-2.321002 -29.707014 6.067563
-2.540061 -29.878574 6.067563
-2.658867 -29.878574 6.334117
-2.684523 -29.895731 6.334117
-3.048043 -30.063921 6.334117
-3.411564 -30.131117 6.334117
-3.775084 -30.118150 6.334117
-4.138605 -30.033867 6.334117
-4.490899 -29.878574 6.334117
-4.502125 -29.873852 6.334117
-4.865646 -29.650743 6.334117
-5.004617 -29.536301 6.334117
-5.229166 -29.328104 6.334117
-5.351430 -29.194028 6.334117
-5.592687 -28.860019 6.334117
-5.598351 -28.851756 6.334117
-5.785432 -28.509483 6.334117
-5.904200 -28.167210 6.334117
-5.956207 -27.879050 6.334117
-5.967332 -27.824937 6.334117
-5.975864 -27.482664 6.334117
-5.956207 -27.355662 6.334117
-5.924054 -27.140392 6.334117
-5.807739 -26.798119 6.334117
-5.607595 -26.455846 6.334117
-5.592687 -26.435900 6.334117
-5.283380 -26.113573 6.334117
-5.229166 -26.067734 6.334117
-4.865646 -25.848856 6.334117
-4.650688 -25.771301 6.334117
-4.502125 -25.717122 6.334117
-4.138605 -25.640234 6.334117
-3.775084 -25.609607 6.334117
-3.411564 -25.616482 6.334117
-3.048043 -25.657267 6.334117
-2.684523 -25.730160 6.334117
-2.518081 -25.771301 6.334117
-2.321002 -25.829530 6.334117
-1.957482 -25.961265 6.334117
-1.606242 -26.113573 6.334117
-1.593961 -26.121935 6.334117
-1.230441 -26.359112 6.334117
-1.089441 -26.455846 6.334117
-0.866920 -26.720576 6.334117
-0.795644 -26.798119 6.334117
-0.641881 -27.140392 6.334117
-0.808439 -27.482664 6.334117
-0.866920 -27.513299 6.334117
-1.055306 -27.824937 6.334117
-1.230441 -28.021958 6.334117
-1.284776 -28.167210 6.334117
-1.470776 -28.509483 6.334117
-1.593961 -28.673308 6.334117
-1.683719 -28.851756 6.334117
-1.931198 -29.194028 6.334117
-1.957482 -29.222859 6.334117
-2.227062 -29.536301 6.334117
-2.321002 -29.623419 6.334117
-2.658867 -29.878574 6.334117
-2.833869 -29.878574 6.600672
-3.048043 -29.974368 6.600672
-3.411564 -30.042032 6.600672
-3.775084 -30.024516 6.600672
-4.138605 -29.929681 6.600672
-4.249296 -29.878574 6.600672
-4.502125 -29.768005 6.600672
-4.848382 -29.536301 6.600672
-4.865646 -29.523967 6.600672
-5.222177 -29.194028 6.600672
-5.229166 -29.186178 6.600672
-5.494237 -28.851756 6.600672
-5.592687 -28.679203 6.600672
-5.690187 -28.509483 6.600672
-5.821771 -28.167210 6.600672
-5.889864 -27.824937 6.600672
-5.898601 -27.482664 6.600672
-5.843542 -27.140392 6.600672
-5.711607 -26.798119 6.600672
-5.592687 -26.606671 6.600672
-5.477631 -26.455846 6.600672
-5.229166 -26.218520 6.600672
-5.065133 -26.113573 6.600672
-4.865646 -25.999344 6.600672
-4.502125 -25.874372 6.600672
-4.138605 -25.815323 6.600672
-3.775084 -25.803991 6.600672
-3.411564 -25.832584 6.600672
-3.048043 -25.900694 6.600672
-2.684523 -26.014234 6.600672
-2.445475 -26.113573 6.600672
-2.321002 -26.178545 6.600672
-1.957482 -26.421991 6.600672
-1.908243 -26.455846 6.600672
-1.630165 -26.798119 6.600672
-1.593961 -26.902238 6.600672
-1.490487 -27.140392 6.600672
-1.450905 -27.482664 6.600672
-1.480579 -27.824937 6.600672
-1.567259 -28.167210 6.600672
-1.593961 -28.226225 6.600672
-1.672347 -28.509483 6.600672
-1.827032 -28.851756 6.600672
-1.957482 -29.046949 6.600672
-2.044903 -29.194028 6.600672
-2.321002 -29.514766 6.600672
-2.342575 -29.536301 6.600672
-2.684523 -29.806150 6.600672
-2.833869 -29.878574 6.600672
-3.127972 -29.878574 6.867227
-3.411564 -29.932411 6.867227
-3.775084 -29.909260 6.867227
-3.879032 -29.878574 6.867227
-4.138605 -29.810320 6.867227
-4.502125 -29.636484 6.867227
-4.648002 -29.536301 6.867227
-4.865646 -29.377981 6.867227
-5.064694 -29.194028 6.867227
-5.229166 -29.011144 6.867227
-5.358804 -28.851756 6.867227
-5.564611 -28.509483 6.867227
-5.592687 -28.439599 6.867227
-5.709173 -28.167210 6.867227
-5.784593 -27.824937 6.867227
-5.792254 -27.482664 6.867227
-5.725936 -27.140392 6.867227
-5.592687 -26.845493 6.867227
-5.567656 -26.798119 6.867227
-5.276594 -26.455846 6.867227
-5.229166 -26.413962 6.867227
-4.865646 -26.193714 6.867227
-4.610963 -26.113573 6.867227
-4.502125 -26.079125 6.867227
-4.138605 -26.032782 6.867227
-3.775084 -26.047443 6.867227
-3.439483 -26.113573 6.867227
-3.411564 -26.118718 6.867227
-3.048043 -26.233668 6.867227
-2.684523 -26.427140 6.867227
-2.639436 -26.455846 6.867227
-2.321002 -26.724945 6.867227
-2.247754 -26.798119 6.867227
-2.022585 -27.140392 6.867227
-1.957482 -27.323515 6.867227
-1.893138 -27.482664 6.867227
-1.828565 -27.824937 6.867227
-1.829927 -28.167210 6.867227
-1.892484 -28.509483 6.867227
-1.957482 -28.679314 6.867227
-2.011217 -28.851756 6.867227
-2.195479 -29.194028 6.867227
-2.321002 -29.350599 6.867227
-2.496323 -29.536301 6.867227
-2.684523 -29.687342 6.867227
-3.048043 -29.863099 6.867227
-3.127972 -29.878574 6.867227
-2.720040 -29.536301 7.133781
-3.048043 -29.720304 7.133781
-3.411564 -29.794971 7.133781
-3.775084 -29.771421 7.133781
-4.138605 -29.663310 7.133781
-4.378509 -29.536301 7.133781
-4.502125 -29.470543 7.133781
-4.862161 -29.194028 7.133781
-4.865646 -29.190946 7.133781
-5.180671 -28.851756 7.133781
-5.229166 -28.782222 7.133781
-5.409956 -28.509483 7.133781
-5.556827 -28.167210 7.133781
-5.592687 -28.002469 7.133781
-5.636026 -27.824937 7.133781
-5.638840 -27.482664 7.133781
-5.592687 -27.290737 7.133781
-5.552748 -27.140392 7.133781
-5.346433 -26.798119 7.133781
-5.229166 -26.676092 7.133781
-4.892493 -26.455846 7.133781
-4.865646 -26.441306 7.133781
-4.502125 -26.332347 7.133781
-4.138605 -26.310411 7.133781
-3.775084 -26.359715 7.133781
-3.485514 -26.455846 7.133781
-3.411564 -26.479737 7.133781
-3.048043 -26.667823 7.133781
-2.873275 -26.798119 7.133781
-2.684523 -26.972056 7.133781
-2.533133 -27.140392 7.133781
-2.329581 -27.482664 7.133781
-2.321002 -27.505219 7.133781
-2.192340 -27.824937 7.133781
-2.134490 -28.167210 7.133781
-2.144325 -28.509483 7.133781
-2.227357 -28.851756 7.133781
-2.321002 -29.042696 7.133781
-2.400714 -29.194028 7.133781
-2.684523 -29.510403 7.133781
-2.720040 -29.536301 7.133781
-3.147640 -29.536301 7.400336
-3.411564 -29.605454 7.400336
-3.775084 -29.584440 7.400336
-3.918309 -29.536301 7.400336
-4.138605 -29.465617 7.400336
-4.502125 -29.257740 7.400336
-4.583124 -29.194028 7.400336
-4.865646 -28.941219 7.400336
-4.949616 -28.851756 7.400336
-5.196829 -28.509483 7.400336
-5.229166 -28.441300 7.400336
-5.358691 -28.167210 7.400336
-5.434486 -27.824937 7.400336
-5.419500 -27.482664 7.400336
-5.287419 -27.140392 7.400336
-5.229166 -27.061649 7.400336
-4.919466 -26.798119 7.400336
-4.865646 -26.766166 7.400336
-4.502125 -26.662960 7.400336
-4.138605 -26.666361 7.400336
-3.775084 -26.758339 7.400336
-3.691800 -26.798119 7.400336
-3.411564 -26.934897 7.400336
-3.137496 -27.140392 7.400336
-3.048043 -27.221081 7.400336
-2.817401 -27.482664 7.400336
-2.684523 -27.701998 7.400336
-2.613550 -27.824937 7.400336
-2.496747 -28.167210 7.400336
-2.461711 -28.509483 7.400336
-2.513195 -28.851756 7.400336
-2.679663 -29.194028 7.400336
-2.684523 -29.200150 7.400336
-3.048043 -29.503723 7.400336
-3.147640 -29.536301 7.400336
-3.186419 -29.194028 7.666891
-3.411564 -29.300897 7.666891
-3.775084 -29.306825 7.666891
-4.120114 -29.194028 7.666891
-4.138605 -29.187610 7.666891
-4.502125 -28.944944 7.666891
-4.604702 -28.851756 7.666891
-4.865646 -28.550254 7.666891
-4.896454 -28.509483 7.666891
-5.061593 -28.167210 7.666891
-5.122612 -27.824937 7.666891
-5.044808 -27.482664 7.666891
-4.865646 -27.264301 7.666891
-4.601373 -27.140392 7.666891
-4.502125 -27.110846 7.666891
-4.138605 -27.133111 7.666891
-4.119576 -27.140392 7.666891
-3.775084 -27.276270 7.666891
-3.472889 -27.482664 7.666891
-3.411564 -27.533945 7.666891
-3.155500 -27.824937 7.666891
-3.048043 -28.007831 7.666891
-2.964270 -28.167210 7.666891
-2.885182 -28.509483 7.666891
-2.923055 -28.851756 7.666891
-3.048043 -29.072504 7.666891
-3.186419 -29.194028 7.666891
-3.681642 -28.509483 7.933445
-3.775084 -28.634681 7.933445
-4.138605 -28.589079 7.933445
-4.233313 -28.509483 7.933445
-4.426479 -28.167210 7.933445
-4.138605 -27.951263 7.933445
-3.775084 -28.157504 7.933445
-3.766666 -28.167210 7.933445
-3.681642 -28.509483 7.933445
