ply
format ascii 1.0
element vertex 1663
property float x
property float y
property float z
end_header
-3.625406 -28.167210 0.203360
-3.775084 -28.243520 0.203360
-4.138605 -28.334031 0.203360
-4.502125 -28.252847 0.203360
-4.585036 -28.167210 0.203360
-4.646070 -27.824937 0.203360
-4.502125 -27.575442 0.203360
-4.285814 -27.482664 0.203360
-4.138605 -27.449533 0.203360
-3.913275 -27.482664 0.203360
-3.775084 -27.548481 0.203360
-3.511166 -27.824937 0.203360
-3.625406 -28.167210 0.203360
-3.329133 -28.509483 0.469915
-3.411564 -28.546228 0.469915
-3.775084 -28.671637 0.469915
-4.138605 -28.736732 0.469915
-4.502125 -28.721872 0.469915
-4.865646 -28.592584 0.469915
-4.958903 -28.509483 0.469915
-5.204332 -28.167210 0.469915
-5.229166 -27.929074 0.469915
-5.233786 -27.824937 0.469915
-5.229166 -27.807466 0.469915
-5.050498 -27.482664 0.469915
-4.865646 -27.276050 0.469915
-4.596130 -27.140392 0.469915
-4.502125 -27.103589 0.469915
-4.138605 -27.081077 0.469915
-3.775084 -27.130925 0.469915
-3.735278 -27.140392 0.469915
-3.411564 -27.318234 0.469915
-3.185314 -27.482664 0.469915
-3.048043 -27.775921 0.469915
-3.027160 -27.824937 0.469915
-3.048043 -28.107580 0.469915
-3.052771 -28.167210 0.469915
-3.329133 -28.509483 0.469915
-3.159049 -28.851756 0.736470
-3.411564 -28.928837 0.736470
-3.775084 -28.997765 0.736470
-4.138605 -29.031142 0.736470
-4.502125 -29.024613 0.736470
-4.865646 -28.955713 0.736470
-5.081352 -28.851756 0.736470
-5.229166 -28.763774 0.736470
-5.443377 -28.509483 0.736470
-5.592687 -28.248259 0.736470
-5.617834 -28.167210 0.736470
-5.628422 -27.824937 0.736470
-5.592687 -27.683849 0.736470
-5.496982 -27.482664 0.736470
-5.241216 -27.140392 0.736470
-5.229166 -27.127020 0.736470
-4.865646 -26.914281 0.736470
-4.502125 -26.809650 0.736470
-4.169207 -26.798119 0.736470
-4.138605 -26.797295 0.736470
-4.128910 -26.798119 0.736470
-3.775084 -26.859216 0.736470
-3.411564 -26.985998 0.736470
-3.100915 -27.140392 0.736470
-3.048043 -27.200999 0.736470
-2.828908 -27.482664 0.736470
-2.714077 -27.824937 0.736470
-2.696426 -28.167210 0.736470
-2.799682 -28.509483 0.736470
-3.048043 -28.765675 0.736470
-3.159049 -28.851756 0.736470
-2.970331 -29.194028 1.003024
-3.048043 -29.222122 1.003024
-3.411564 -29.288938 1.003024
-3.775084 -29.307812 1.003024
-4.138605 -29.304958 1.003024
-4.502125 -29.285784 1.003024
-4.865646 -29.234390 1.003024
-4.983524 -29.194028 1.003024
-5.229166 -29.097335 1.003024
-5.576393 -28.851756 1.003024
-5.592687 -28.838507 1.003024
-5.816926 -28.509483 1.003024
-5.956207 -28.214264 1.003024
-5.969686 -28.167210 1.003024
-5.978377 -27.824937 1.003024
-5.956207 -27.734228 1.003024
-5.852723 -27.482664 1.003024
-5.627439 -27.140392 1.003024
-5.592687 -27.095402 1.003024
-5.229166 -26.799443 1.003024
-5.226091 -26.798119 1.003024
-4.865646 -26.651964 1.003024
-4.502125 -26.585688 1.003024
-4.138605 -26.580214 1.003024
-3.775084 -26.621049 1.003024
-3.411564 -26.704371 1.003024
-3.140857 -26.798119 1.003024
-3.048043 -26.868005 1.003024
-2.754165 -27.140392 1.003024
-2.684523 -27.274235 1.003024
-2.588407 -27.482664 1.003024
-2.498004 -27.824937 1.003024
-2.449197 -28.167210 1.003024
-2.461154 -28.509483 1.003024
-2.583225 -28.851756 1.003024
-2.684523 -28.962673 1.003024
-2.970331 -29.194028 1.003024
-2.774930 -29.536301 1.269579
-3.048043 -29.619613 1.269579
-3.411564 -29.647245 1.269579
-3.775084 -29.621326 1.269579
-4.138605 -29.580657 1.269579
-4.502125 -29.538157 1.269579
-4.512736 -29.536301 1.269579
-4.865646 -29.462936 1.269579
-5.229166 -29.347706 1.269579
-5.514559 -29.194028 1.269579
-5.592687 -29.149626 1.269579
-5.903326 -28.851756 1.269579
-5.956207 -28.795652 1.269579
-6.123520 -28.509483 1.269579
-6.257320 -28.167210 1.269579
-6.270215 -27.824937 1.269579
-6.151741 -27.482664 1.269579
-5.956207 -27.142077 1.269579
-5.954643 -27.140392 1.269579
-5.606056 -26.798119 1.269579
-5.592687 -26.784545 1.269579
-5.229166 -26.560267 1.269579
-4.951529 -26.455846 1.269579
-4.865646 -26.425407 1.269579
-4.502125 -26.372660 1.269579
-4.138605 -26.362078 1.269579
-3.775084 -26.381981 1.269579
-3.411564 -26.433622 1.269579
-3.318608 -26.455846 1.269579
-3.048043 -26.588646 1.269579
-2.748796 -26.798119 1.269579
-2.684523 -26.892632 1.269579
-2.536885 -27.140392 1.269579
-2.416686 -27.482664 1.269579
-2.323994 -27.824937 1.269579
-2.321002 -27.837314 1.269579
-2.254993 -28.167210 1.269579
-2.212908 -28.509483 1.269579
-2.239956 -28.851756 1.269579
-2.321002 -29.049447 1.269579
-2.388144 -29.194028 1.269579
-2.684523 -29.476143 1.269579
-2.774930 -29.536301 1.269579
-2.634029 -29.878574 1.536134
-2.684523 -29.903975 1.536134
-3.048043 -30.000667 1.536134
-3.411564 -29.999251 1.536134
-3.775084 -29.937697 1.536134
-4.051147 -29.878574 1.536134
-4.138605 -29.853239 1.536134
-4.502125 -29.753529 1.536134
-4.865646 -29.667594 1.536134
-5.229166 -29.563094 1.536134
-5.284221 -29.536301 1.536134
-5.592687 -29.379852 1.536134
-5.830247 -29.194028 1.536134
-5.956207 -29.095550 1.536134
-6.158308 -28.851756 1.536134
-6.319728 -28.638238 1.536134
-6.387285 -28.509483 1.536134
-6.499894 -28.167210 1.536134
-6.511399 -27.824937 1.536134
-6.412598 -27.482664 1.536134
-6.319728 -27.304772 1.536134
-6.195096 -27.140392 1.536134
-5.956207 -26.857033 1.536134
-5.881127 -26.798119 1.536134
-5.592687 -26.559006 1.536134
-5.402647 -26.455846 1.536134
-5.229166 -26.357760 1.536134
-4.865646 -26.240470 1.536134
-4.502125 -26.175898 1.536134
-4.138605 -26.147720 1.536134
-3.775084 -26.152610 1.536134
-3.411564 -26.204734 1.536134
-3.048043 -26.326528 1.536134
-2.806356 -26.455846 1.536134
-2.684523 -26.589943 1.536134
-2.526646 -26.798119 1.536134
-2.386926 -27.140392 1.536134
-2.321002 -27.388232 1.536134
-2.297411 -27.482664 1.536134
-2.213435 -27.824937 1.536134
-2.109246 -28.167210 1.536134
-2.013307 -28.509483 1.536134
-1.983124 -28.851756 1.536134
-2.059651 -29.194028 1.536134
-2.249987 -29.536301 1.536134
-2.321002 -29.605273 1.536134
-2.634029 -29.878574 1.536134
-2.589980 -30.220847 1.802688
-2.684523 -30.267189 1.802688
-3.048043 -30.352288 1.802688
-3.411564 -30.332266 1.802688
-3.775084 -30.247582 1.802688
-3.861891 -30.220847 1.802688
-4.138605 -30.105896 1.802688
-4.502125 -29.979107 1.802688
-4.850725 -29.878574 1.802688
-4.865646 -29.873555 1.802688
-5.229166 -29.736998 1.802688
-5.592687 -29.569171 1.802688
-5.637855 -29.536301 1.802688
-5.956207 -29.310414 1.802688
-6.067879 -29.194028 1.802688
-6.319728 -28.937785 1.802688
-6.380038 -28.851756 1.802688
-6.589382 -28.509483 1.802688
-6.683248 -28.277137 1.802688
-6.716182 -28.167210 1.802688
-6.727173 -27.824937 1.802688
-6.683248 -27.651268 1.802688
-6.623912 -27.482664 1.802688
-6.411042 -27.140392 1.802688
-6.319728 -27.015952 1.802688
-6.098986 -26.798119 1.802688
-5.956207 -26.649408 1.802688
-5.691394 -26.455846 1.802688
-5.592687 -26.375865 1.802688
-5.229166 -26.184861 1.802688
-5.019138 -26.113573 1.802688
-4.865646 -26.065057 1.802688
-4.502125 -26.001772 1.802688
-4.138605 -25.966727 1.802688
-3.775084 -25.957047 1.802688
-3.411564 -25.985407 1.802688
-3.048043 -26.071971 1.802688
-2.947288 -26.113573 1.802688
-2.684523 -26.322649 1.802688
-2.553982 -26.455846 1.802688
-2.381871 -26.798119 1.802688
-2.321002 -27.031943 1.802688
-2.293837 -27.140392 1.802688
-2.228721 -27.482664 1.802688
-2.135054 -27.824937 1.802688
-1.994935 -28.167210 1.802688
-1.957482 -28.249850 1.802688
-1.862367 -28.509483 1.802688
-1.789578 -28.851756 1.802688
-1.813770 -29.194028 1.802688
-1.937923 -29.536301 1.802688
-1.957482 -29.562005 1.802688
-2.180473 -29.878574 1.802688
-2.321002 -30.005275 1.802688
-2.589980 -30.220847 1.802688
-2.623447 -30.563119 2.069243
-2.684523 -30.592011 2.069243
-3.048043 -30.666804 2.069243
-3.411564 -30.636771 2.069243
-3.682044 -30.563119 2.069243
-3.775084 -30.527654 2.069243
-4.138605 -30.357895 2.069243
-4.479291 -30.220847 2.069243
-4.502125 -30.209090 2.069243
-4.865646 -30.043524 2.069243
-5.229166 -29.901551 2.069243
-5.275709 -29.878574 2.069243
-5.592687 -29.716147 2.069243
-5.854731 -29.536301 2.069243
-5.956207 -29.470405 2.069243
-6.248761 -29.194028 2.069243
-6.319728 -29.129405 2.069243
-6.534126 -28.851756 2.069243
-6.683248 -28.637945 2.069243
-6.751254 -28.509483 2.069243
-6.864413 -28.167210 2.069243
-6.878068 -27.824937 2.069243
-6.782204 -27.482664 2.069243
-6.683248 -27.295026 2.069243
-6.574121 -27.140392 2.069243
-6.319728 -26.828380 2.069243
-6.285074 -26.798119 2.069243
-5.956207 -26.492618 2.069243
-5.899847 -26.455846 2.069243
-5.592687 -26.229159 2.069243
-5.370363 -26.113573 2.069243
-5.229166 -26.038165 2.069243
-4.865646 -25.915845 2.069243
-4.502125 -25.830495 2.069243
-4.151351 -25.771301 2.069243
-4.138605 -25.769657 2.069243
-3.775084 -25.748822 2.069243
-3.411564 -25.761538 2.069243
-3.352066 -25.771301 2.069243
-3.048043 -25.862727 2.069243
-2.684523 -26.071447 2.069243
-2.630960 -26.113573 2.069243
-2.402004 -26.455846 2.069243
-2.321002 -26.712451 2.069243
-2.295330 -26.798119 2.069243
-2.245597 -27.140392 2.069243
-2.193441 -27.482664 2.069243
-2.093738 -27.824937 2.069243
-1.957482 -28.101866 2.069243
-1.926049 -28.167210 2.069243
-1.742737 -28.509483 2.069243
-1.618811 -28.851756 2.069243
-1.610773 -29.194028 2.069243
-1.711798 -29.536301 2.069243
-1.896376 -29.878574 2.069243
-1.957482 -29.948269 2.069243
-2.174555 -30.220847 2.069243
-2.321002 -30.344748 2.069243
-2.623447 -30.563119 2.069243
-2.832850 -30.905392 2.335798
-3.048043 -30.944043 2.335798
-3.411564 -30.909414 2.335798
-3.424853 -30.905392 2.335798
-3.775084 -30.767166 2.335798
-4.138605 -30.601260 2.335798
-4.222249 -30.563119 2.335798
-4.502125 -30.398431 2.335798
-4.865646 -30.225997 2.335798
-4.876931 -30.220847 2.335798
-5.229166 -30.035264 2.335798
-5.523430 -29.878574 2.335798
-5.592687 -29.841559 2.335798
-5.956207 -29.589334 2.335798
-6.010942 -29.536301 2.335798
-6.319728 -29.260559 2.335798
-6.374406 -29.194028 2.335798
-6.662652 -28.851756 2.335798
-6.683248 -28.824206 2.335798
-6.859302 -28.509483 2.335798
-6.983374 -28.167210 2.335798
-6.999444 -27.824937 2.335798
-6.895978 -27.482664 2.335798
-6.703531 -27.140392 2.335798
-6.683248 -27.111553 2.335798
-6.402418 -26.798119 2.335798
-6.319728 -26.702734 2.335798
-6.036319 -26.455846 2.335798
-5.956207 -26.375729 2.335798
-5.599272 -26.113573 2.335798
-5.592687 -26.108230 2.335798
-5.229166 -25.912854 2.335798
-4.876484 -25.771301 2.335798
-4.865646 -25.767503 2.335798
-4.502125 -25.683526 2.335798
-4.138605 -25.623541 2.335798
-3.775084 -25.589291 2.335798
-3.411564 -25.597922 2.335798
-3.048043 -25.673888 2.335798
-2.818163 -25.771301 2.335798
-2.684523 -25.877383 2.335798
-2.463139 -26.113573 2.335798
-2.321002 -26.424076 2.335798
-2.307645 -26.455846 2.335798
-2.250792 -26.798119 2.335798
-2.225650 -27.140392 2.335798
-2.186843 -27.482664 2.335798
-2.086835 -27.824937 2.335798
-1.957482 -28.062497 2.335798
-1.896270 -28.167210 2.335798
-1.656623 -28.509483 2.335798
-1.593961 -28.620504 2.335798
-1.491721 -28.851756 2.335798
-1.455900 -29.194028 2.335798
-1.532152 -29.536301 2.335798
-1.593961 -29.650559 2.335798
-1.694292 -29.878574 2.335798
-1.920361 -30.220847 2.335798
-1.957482 -30.259056 2.335798
-2.231338 -30.563119 2.335798
-2.321002 -30.634262 2.335798
-2.684523 -30.863855 2.335798
-2.832850 -30.905392 2.335798
-2.361014 -30.905392 2.602352
-2.684523 -31.083328 2.602352
-3.048043 -31.163501 2.602352
-3.411564 -31.115722 2.602352
-3.775084 -30.986650 2.602352
-3.953990 -30.905392 2.602352
-4.138605 -30.796910 2.602352
-4.502125 -30.593054 2.602352
-4.560799 -30.563119 2.602352
-4.865646 -30.367439 2.602352
-5.134473 -30.220847 2.602352
-5.229166 -30.162170 2.602352
-5.592687 -29.938022 2.602352
-5.671351 -29.878574 2.602352
-5.956207 -29.672487 2.602352
-6.097853 -29.536301 2.602352
-6.319728 -29.342428 2.602352
-6.445386 -29.194028 2.602352
-6.683248 -28.922871 2.602352
-6.731749 -28.851756 2.602352
-6.932165 -28.509483 2.602352
-7.046769 -28.209253 2.602352
-7.060004 -28.167210 2.602352
-7.074060 -27.824937 2.602352
-7.046769 -27.716205 2.602352
-6.973218 -27.482664 2.602352
-6.771533 -27.140392 2.602352
-6.683248 -27.018936 2.602352
-6.478020 -26.798119 2.602352
-6.319728 -26.621707 2.602352
-6.123640 -26.455846 2.602352
-5.956207 -26.292124 2.602352
-5.712202 -26.113573 2.602352
-5.592687 -26.015740 2.602352
-5.229166 -25.799959 2.602352
-5.163902 -25.771301 2.602352
-4.865646 -25.656167 2.602352
-4.502125 -25.551742 2.602352
-4.138605 -25.470145 2.602352
-3.847625 -25.429028 2.602352
-3.775084 -25.421476 2.602352
-3.411564 -25.422356 2.602352
-3.365443 -25.429028 2.602352
-3.048043 -25.506629 2.602352
-2.684523 -25.700186 2.602352
-2.591903 -25.771301 2.602352
-2.352404 -26.113573 2.602352
-2.321002 -26.220638 2.602352
-2.256781 -26.455846 2.602352
-2.229473 -26.798119 2.602352
-2.224413 -27.140392 2.602352
-2.198630 -27.482664 2.602352
-2.104373 -27.824937 2.602352
-1.957482 -28.083352 2.602352
-1.901637 -28.167210 2.602352
-1.613229 -28.509483 2.602352
-1.593961 -28.535076 2.602352
-1.394420 -28.851756 2.602352
-1.332400 -29.194028 2.602352
-1.398254 -29.536301 2.602352
-1.544634 -29.878574 2.602352
-1.593961 -29.947948 2.602352
-1.749106 -30.220847 2.602352
-1.957482 -30.491958 2.602352
-2.007241 -30.563119 2.602352
-2.321002 -30.872765 2.602352
-2.361014 -30.905392 2.602352
-2.624884 -31.247665 2.868907
-2.684523 -31.277037 2.868907
-3.048043 -31.345402 2.868907
-3.411564 -31.301769 2.868907
-3.570629 -31.247665 2.868907
-3.775084 -31.162051 2.868907
-4.138605 -30.970507 2.868907
-4.259819 -30.905392 2.868907
-4.502125 -30.738347 2.868907
-4.792504 -30.563119 2.868907
-4.865646 -30.507128 2.868907
-5.229166 -30.265596 2.868907
-5.297030 -30.220847 2.868907
-5.592687 -30.009724 2.868907
-5.754450 -29.878574 2.868907
-5.956207 -29.724543 2.868907
-6.147525 -29.536301 2.868907
-6.319728 -29.383986 2.868907
-6.480711 -29.194028 2.868907
-6.683248 -28.964360 2.868907
-6.760690 -28.851756 2.868907
-6.964633 -28.509483 2.868907
-7.046769 -28.296413 2.868907
-7.087779 -28.167210 2.868907
-7.102505 -27.824937 2.868907
-7.046769 -27.604391 2.868907
-7.008124 -27.482664 2.868907
-6.803637 -27.140392 2.868907
-6.683248 -26.975977 2.868907
-6.517292 -26.798119 2.868907
-6.319728 -26.578428 2.868907
-6.176029 -26.455846 2.868907
-5.956207 -26.238185 2.868907
-5.791505 -26.113573 2.868907
-5.592687 -25.944353 2.868907
-5.324759 -25.771301 2.868907
-5.229166 -25.712843 2.868907
-4.865646 -25.552665 2.868907
-4.515257 -25.429028 2.868907
-4.502125 -25.425436 2.868907
-4.138605 -25.352985 2.868907
-3.775084 -25.308079 2.868907
-3.411564 -25.305871 2.868907
-3.048043 -25.368473 2.868907
-2.888640 -25.429028 2.868907
-2.684523 -25.562179 2.868907
-2.462271 -25.771301 2.868907
-2.321002 -26.037916 2.868907
-2.285469 -26.113573 2.868907
-2.225855 -26.455846 2.868907
-2.220208 -26.798119 2.868907
-2.229784 -27.140392 2.868907
-2.215171 -27.482664 2.868907
-2.131269 -27.824937 2.868907
-1.957482 -28.134905 2.868907
-1.934519 -28.167210 2.868907
-1.613533 -28.509483 2.868907
-1.593961 -28.531344 2.868907
-1.334347 -28.851756 2.868907
-1.247097 -29.194028 2.868907
-1.305391 -29.536301 2.868907
-1.443007 -29.878574 2.868907
-1.593961 -30.139279 2.868907
-1.630949 -30.220847 2.868907
-1.861528 -30.563119 2.868907
-1.957482 -30.670358 2.868907
-2.158524 -30.905392 2.868907
-2.321002 -31.046011 2.868907
-2.624884 -31.247665 2.868907
-2.400000 -31.247665 3.135461
-2.684523 -31.405583 3.135461
-3.048043 -31.481821 3.135461
-3.411564 -31.432833 3.135461
-3.775084 -31.300814 3.135461
-3.884614 -31.247665 3.135461
-4.138605 -31.096359 3.135461
-4.458220 -30.905392 3.135461
-4.502125 -30.871134 3.135461
-4.865646 -30.613256 3.135461
-4.944412 -30.563119 3.135461
-5.229166 -30.339935 3.135461
-5.388721 -30.220847 3.135461
-5.592687 -30.056841 3.135461
-5.793956 -29.878574 3.135461
-5.956207 -29.744552 3.135461
-6.157262 -29.536301 3.135461
-6.319728 -29.386106 3.135461
-6.478123 -29.194028 3.135461
-6.683248 -28.955895 3.135461
-6.753840 -28.851756 3.135461
-6.954759 -28.509483 3.135461
-7.046769 -28.268216 3.135461
-7.078654 -28.167210 3.135461
-7.093503 -27.824937 3.135461
-7.046769 -27.637405 3.135461
-6.998657 -27.482664 3.135461
-6.798238 -27.140392 3.135461
-6.683248 -26.980403 3.135461
-6.518058 -26.798119 3.135461
-6.319728 -26.570867 3.135461
-6.190940 -26.455846 3.135461
-5.956207 -26.212422 3.135461
-5.834072 -26.113573 3.135461
-5.592687 -25.894283 3.135461
-5.418631 -25.771301 3.135461
-5.229166 -25.645367 3.135461
-4.865646 -25.461961 3.135461
-4.783040 -25.429028 3.135461
-4.502125 -25.342930 3.135461
-4.138605 -25.258790 3.135461
-3.775084 -25.204955 3.135461
-3.411564 -25.199046 3.135461
-3.048043 -25.266570 3.135461
-2.684523 -25.426271 3.135461
-2.680299 -25.429028 3.135461
-2.372761 -25.771301 3.135461
-2.321002 -25.896470 3.135461
-2.241324 -26.113573 3.135461
-2.203265 -26.455846 3.135461
-2.211007 -26.798119 3.135461
-2.228769 -27.140392 3.135461
-2.221667 -27.482664 3.135461
-2.150138 -27.824937 3.135461
-1.974332 -28.167210 3.135461
-1.957482 -28.189251 3.135461
-1.648722 -28.509483 3.135461
-1.593961 -28.566012 3.135461
-1.318017 -28.851756 3.135461
-1.230441 -29.095842 3.135461
-1.207096 -29.194028 3.135461
-1.230441 -29.339636 3.135461
-1.255454 -29.536301 3.135461
-1.385793 -29.878574 3.135461
-1.560936 -30.220847 3.135461
-1.593961 -30.265219 3.135461
-1.773180 -30.563119 3.135461
-1.957482 -30.800215 3.135461
-2.034839 -30.905392 3.135461
-2.321002 -31.186895 3.135461
-2.400000 -31.247665 3.135461
-2.288471 -31.247665 3.402016
-2.321002 -31.275090 3.402016
-2.684523 -31.496380 3.402016
-3.048043 -31.580681 3.402016
-3.411564 -31.528847 3.402016
-3.775084 -31.387201 3.402016
-4.050364 -31.247665 3.402016
-4.138605 -31.192017 3.402016
-4.502125 -30.953584 3.402016
-4.580545 -30.905392 3.402016
-4.865646 -30.679717 3.402016
-5.030178 -30.563119 3.402016
-5.229166 -30.388215 3.402016
-5.429606 -30.220847 3.402016
-5.592687 -30.073786 3.402016
-5.792442 -29.878574 3.402016
-5.956207 -29.729490 3.402016
-6.129221 -29.536301 3.402016
-6.319728 -29.346851 3.402016
-6.439178 -29.194028 3.402016
-6.683248 -28.895806 3.402016
-6.712035 -28.851756 3.402016
-6.903823 -28.509483 3.402016
-7.029680 -28.167210 3.402016
-7.046769 -27.843507 3.402016
-7.047570 -27.824937 3.402016
-7.046769 -27.821603 3.402016
-6.946638 -27.482664 3.402016
-6.756903 -27.140392 3.402016
-6.683248 -27.033239 3.402016
-6.483030 -26.798119 3.402016
-6.319728 -26.599214 3.402016
-6.171725 -26.455846 3.402016
-5.956207 -26.214612 3.402016
-5.842824 -26.113573 3.402016
-5.592687 -25.866253 3.402016
-5.471333 -25.771301 3.402016
-5.229166 -25.595726 3.402016
-4.932550 -25.429028 3.402016
-4.865646 -25.399273 3.402016
-4.502125 -25.276050 3.402016
-4.138605 -25.181604 3.402016
-3.775084 -25.120026 3.402016
-3.411564 -25.110289 3.402016
-3.048043 -25.180139 3.402016
-2.684523 -25.351624 3.402016
-2.576892 -25.429028 3.402016
-2.321002 -25.753001 3.402016
-2.308879 -25.771301 3.402016
-2.203957 -26.113573 3.402016
-2.177365 -26.455846 3.402016
-2.189932 -26.798119 3.402016
-2.208785 -27.140392 3.402016
-2.204229 -27.482664 3.402016
-2.144463 -27.824937 3.402016
-1.996136 -28.167210 3.402016
-1.957482 -28.225552 3.402016
-1.699810 -28.509483 3.402016
-1.593961 -28.620786 3.402016
-1.346637 -28.851756 3.402016
-1.230441 -29.119378 3.402016
-1.208991 -29.194028 3.402016
-1.230441 -29.353895 3.402016
-1.249247 -29.536301 3.402016
-1.372485 -29.878574 3.402016
-1.536508 -30.220847 3.402016
-1.593961 -30.305672 3.402016
-1.733652 -30.563119 3.402016
-1.957482 -30.884202 3.402016
-1.971324 -30.905392 3.402016
-2.288471 -31.247665 3.402016
-2.892603 -31.589938 3.668571
-3.048043 -31.620508 3.668571
-3.314028 -31.589938 3.668571
-3.411564 -31.577056 3.668571
-3.775084 -31.431453 3.668571
-4.130129 -31.247665 3.668571
-4.138605 -31.242177 3.668571
-4.502125 -30.990410 3.668571
-4.633260 -30.905392 3.668571
-4.865646 -30.710203 3.668571
-5.058454 -30.563119 3.668571
-5.229166 -30.400318 3.668571
-5.425403 -30.220847 3.668571
-5.592687 -30.053871 3.668571
-5.755237 -29.878574 3.668571
-5.956207 -29.674753 3.668571
-6.069265 -29.536301 3.668571
-6.319728 -29.261808 3.668571
-6.368798 -29.194028 3.668571
-6.623483 -28.851756 3.668571
-6.683248 -28.762491 3.668571
-6.816301 -28.509483 3.668571
-6.932417 -28.167210 3.668571
-6.949538 -27.824937 3.668571
-6.857747 -27.482664 3.668571
-6.684325 -27.140392 3.668571
-6.683248 -27.138710 3.668571
-6.419331 -26.798119 3.668571
-6.319728 -26.665395 3.668571
-6.126500 -26.455846 3.668571
-5.956207 -26.245098 3.668571
-5.825038 -26.113573 3.668571
-5.592687 -25.860955 3.668571
-5.489515 -25.771301 3.668571
-5.229166 -25.566435 3.668571
-5.004453 -25.429028 3.668571
-4.865646 -25.362572 3.668571
-4.502125 -25.229408 3.668571
-4.138605 -25.127358 3.668571
-3.913326 -25.086755 3.668571
-3.775084 -25.067183 3.668571
-3.411564 -25.057911 3.668571
-3.194732 -25.086755 3.668571
-3.048043 -25.116002 3.668571
-2.684523 -25.291362 3.668571
-2.502499 -25.429028 3.668571
-2.321002 -25.672564 3.668571
-2.259688 -25.771301 3.668571
-2.162032 -26.113573 3.668571
-2.136887 -26.455846 3.668571
-2.145932 -26.798119 3.668571
-2.159095 -27.140392 3.668571
-2.152145 -27.482664 3.668571
-2.102110 -27.824937 3.668571
-1.985604 -28.167210 3.668571
-1.957482 -28.221923 3.668571
-1.740258 -28.509483 3.668571
-1.593961 -28.685950 3.668571
-1.414177 -28.851756 3.668571
-1.255610 -29.194028 3.668571
-1.288918 -29.536301 3.668571
-1.404656 -29.878574 3.668571
-1.558539 -30.220847 3.668571
-1.593961 -30.275373 3.668571
-1.742062 -30.563119 3.668571
-1.957482 -30.893644 3.668571
-1.964586 -30.905392 3.668571
-2.262806 -31.247665 3.668571
-2.321002 -31.299487 3.668571
-2.684523 -31.535776 3.668571
-2.892603 -31.589938 3.668571
-2.962620 -31.589938 3.935125
-3.048043 -31.607925 3.935125
-3.219321 -31.589938 3.935125
-3.411564 -31.566788 3.935125
-3.775084 -31.424440 3.935125
-4.118029 -31.247665 3.935125
-4.138605 -31.234466 3.935125
-4.502125 -30.982476 3.935125
-4.619100 -30.905392 3.935125
-4.865646 -30.695145 3.935125
-5.032816 -30.563119 3.935125
-5.229166 -30.368105 3.935125
-5.380633 -30.220847 3.935125
-5.592687 -29.991778 3.935125
-5.688836 -29.878574 3.935125
-5.956207 -29.575928 3.935125
-5.985470 -29.536301 3.935125
-6.258278 -29.194028 3.935125
-6.319728 -29.120744 3.935125
-6.497360 -28.851756 3.935125
-6.683248 -28.543213 3.935125
-6.699732 -28.509483 3.935125
-6.804517 -28.167210 3.935125
-6.821115 -27.824937 3.935125
-6.741295 -27.482664 3.935125
-6.683248 -27.355506 3.935125
-6.562736 -27.140392 3.935125
-6.337297 -26.798119 3.935125
-6.319728 -26.771876 3.935125
-6.066091 -26.455846 3.935125
-5.956207 -26.303221 3.935125
-5.790142 -26.113573 3.935125
-5.592687 -25.877741 3.935125
-5.481552 -25.771301 3.935125
-5.229166 -25.558603 3.935125
-5.030139 -25.429028 3.935125
-4.865646 -25.345812 3.935125
-4.502125 -25.205704 3.935125
-4.138605 -25.099487 3.935125
-4.069287 -25.086755 3.935125
-3.775084 -25.043639 3.935125
-3.411564 -25.032356 3.935125
-3.048043 -25.080411 3.935125
-3.027971 -25.086755 3.935125
-2.684523 -25.247849 3.935125
-2.444119 -25.429028 3.935125
-2.321002 -25.590417 3.935125
-2.207331 -25.771301 3.935125
-2.104709 -26.113573 3.935125
-2.071604 -26.455846 3.935125
-2.070090 -26.798119 3.935125
-2.072685 -27.140392 3.935125
-2.060391 -27.482664 3.935125
-2.018702 -27.824937 3.935125
-1.957482 -28.083446 3.935125
-1.927370 -28.167210 3.935125
-1.744432 -28.509483 3.935125
-1.593961 -28.755465 3.935125
-1.502591 -28.851756 3.935125
-1.350822 -29.194028 3.935125
-1.379638 -29.536301 3.935125
-1.487878 -29.878574 3.935125
-1.593961 -30.110785 3.935125
-1.630278 -30.220847 3.935125
-1.800973 -30.563119 3.935125
-1.957482 -30.807208 3.935125
-2.015261 -30.905392 3.935125
-2.300962 -31.247665 3.935125
-2.321002 -31.266036 3.935125
-2.684523 -31.512086 3.935125
-2.962620 -31.589938 3.935125
-2.434604 -31.247665 4.201680
-2.684523 -31.418494 4.201680
-3.048043 -31.527111 4.201680
-3.411564 -31.492387 4.201680
-3.775084 -31.361326 4.201680
-4.002547 -31.247665 4.201680
-4.138605 -31.164512 4.201680
-4.502125 -30.925924 4.201680
-4.533989 -30.905392 4.201680
-4.865646 -30.631577 4.201680
-4.952896 -30.563119 4.201680
-5.229166 -30.290219 4.201680
-5.298720 -30.220847 4.201680
-5.592687 -29.887669 4.201680
-5.599914 -29.878574 4.201680
-5.867208 -29.536301 4.201680
-5.956207 -29.430009 4.201680
-6.120622 -29.194028 4.201680
-6.319728 -28.918623 4.201680
-6.359137 -28.851756 4.201680
-6.534246 -28.509483 4.201680
-6.651590 -28.167210 4.201680
-6.673471 -27.824937 4.201680
-6.591848 -27.482664 4.201680
-6.435916 -27.140392 4.201680
-6.319728 -26.932880 4.201680
-6.230267 -26.798119 4.201680
-6.001557 -26.455846 4.201680
-5.956207 -26.384948 4.201680
-5.747558 -26.113573 4.201680
-5.592687 -25.913018 4.201680
-5.455939 -25.771301 4.201680
-5.229166 -25.570692 4.201680
-5.019256 -25.429028 4.201680
-4.865646 -25.348572 4.201680
-4.502125 -25.204595 4.201680
-4.138605 -25.097476 4.201680
-4.080663 -25.086755 4.201680
-3.775084 -25.040474 4.201680
-3.411564 -25.026898 4.201680
-3.048043 -25.070848 4.201680
-2.995118 -25.086755 4.201680
-2.684523 -25.220841 4.201680
-2.390829 -25.429028 4.201680
-2.321002 -25.511127 4.201680
-2.141721 -25.771301 4.201680
-2.022247 -26.113573 4.201680
-1.973611 -26.455846 4.201680
-1.957551 -26.798119 4.201680
-1.957482 -26.800811 4.201680
-1.947184 -27.140392 4.201680
-1.926408 -27.482664 4.201680
-1.883315 -27.824937 4.201680
-1.808532 -28.167210 4.201680
-1.700272 -28.509483 4.201680
-1.593961 -28.825673 4.201680
-1.577852 -28.851756 4.201680
-1.487610 -29.194028 4.201680
-1.529803 -29.536301 4.201680
-1.593961 -29.719033 4.201680
-1.629171 -29.878574 4.201680
-1.755877 -30.220847 4.201680
-1.916635 -30.563119 4.201680
-1.957482 -30.624292 4.201680
-2.127654 -30.905392 4.201680
-2.321002 -31.136498 4.201680
-2.434604 -31.247665 4.201680
-2.672527 -31.247665 4.468235
-2.684523 -31.255689 4.468235
-3.048043 -31.373700 4.468235
-3.411564 -31.355666 4.468235
-3.760442 -31.247665 4.468235
-3.775084 -31.242213 4.468235
-4.138605 -31.039058 4.468235
-4.359652 -30.905392 4.468235
-4.502125 -30.798195 4.468235
-4.813600 -30.563119 4.468235
-4.865646 -30.514625 4.468235
-5.178551 -30.220847 4.468235
-5.229166 -30.166148 4.468235
-5.478716 -29.878574 4.468235
-5.592687 -29.741504 4.468235
-5.742328 -29.536301 4.468235
-5.956207 -29.248187 4.468235
-5.990099 -29.194028 4.468235
-6.199500 -28.851756 4.468235
-6.319728 -28.628818 4.468235
-6.373548 -28.509483 4.468235
-6.474652 -28.167210 4.468235
-6.499141 -27.824937 4.468235
-6.440994 -27.482664 4.468235
-6.319728 -27.142027 4.468235
-6.319054 -27.140392 4.468235
-6.134676 -26.798119 4.468235
-5.956207 -26.482310 4.468235
-5.938836 -26.455846 4.468235
-5.704781 -26.113573 4.468235
-5.592687 -25.959837 4.468235
-5.419913 -25.771301 4.468235
-5.229166 -25.598323 4.468235
-4.980197 -25.429028 4.468235
-4.865646 -25.368126 4.468235
-4.502125 -25.222662 4.468235
-4.138605 -25.116938 4.468235
-3.974862 -25.086755 4.468235
-3.775084 -25.055554 4.468235
-3.411564 -25.039297 4.468235
-3.048043 -25.076990 4.468235
-3.011876 -25.086755 4.468235
-2.684523 -25.208073 4.468235
-2.333930 -25.429028 4.468235
-2.321002 -25.441673 4.468235
-2.054082 -25.771301 4.468235
-1.957482 -25.990824 4.468235
-1.905801 -26.113573 4.468235
-1.830466 -26.455846 4.468235
-1.791763 -26.798119 4.468235
-1.765144 -27.140392 4.468235
-1.736679 -27.482664 4.468235
-1.700621 -27.824937 4.468235
-1.657698 -28.167210 4.468235
-1.616618 -28.509483 4.468235
-1.597775 -28.851756 4.468235
-1.626092 -29.194028 4.468235
-1.704764 -29.536301 4.468235
-1.814030 -29.878574 4.468235
-1.943150 -30.220847 4.468235
-1.957482 -30.247148 4.468235
-2.098278 -30.563119 4.468235
-2.309157 -30.905392 4.468235
-2.321002 -30.918875 4.468235
-2.672527 -31.247665 4.468235
-2.619271 -30.905392 4.734789
-2.684523 -30.961399 4.734789
-3.048043 -31.134999 4.734789
-3.411564 -31.142791 4.734789
-3.775084 -31.036857 4.734789
-4.063608 -30.905392 4.734789
-4.138605 -30.865349 4.734789
-4.502125 -30.633231 4.734789
-4.605933 -30.563119 4.734789
-4.865646 -30.353942 4.734789
-5.020035 -30.220847 4.734789
-5.229166 -30.013603 4.734789
-5.350364 -29.878574 4.734789
-5.592687 -29.585105 4.734789
-5.627279 -29.536301 4.734789
-5.861244 -29.194028 4.734789
-5.956207 -29.044944 4.734789
-6.062636 -28.851756 4.734789
-6.222208 -28.509483 4.734789
-6.319728 -28.195605 4.734789
-6.327500 -28.167210 4.734789
-6.356931 -27.824937 4.734789
-6.319728 -27.500639 4.734789
-6.317454 -27.482664 4.734789
-6.209980 -27.140392 4.734789
-6.061897 -26.798119 4.734789
-5.956207 -26.585754 4.734789
-5.882350 -26.455846 4.734789
-5.665957 -26.113573 4.734789
-5.592687 -26.010211 4.734789
-5.378133 -25.771301 4.734789
-5.229166 -25.635990 4.734789
-4.919133 -25.429028 4.734789
-4.865646 -25.400646 4.734789
-4.502125 -25.254976 4.734789
-4.138605 -25.151701 4.734789
-3.781493 -25.086755 4.734789
-3.775084 -25.085726 4.734789
-3.411564 -25.066409 4.734789
-3.158812 -25.086755 4.734789
-3.048043 -25.098065 4.734789
-2.684523 -25.207192 4.734789
-2.321002 -25.398386 4.734789
-2.275791 -25.429028 4.734789
-1.957482 -25.749915 4.734789
-1.938485 -25.771301 4.734789
-1.747941 -26.113573 4.734789
-1.644951 -26.455846 4.734789
-1.593961 -26.776283 4.734789
-1.589559 -26.798119 4.734789
-1.543456 -27.140392 4.734789
-1.503120 -27.482664 4.734789
-1.464093 -27.824937 4.734789
-1.435425 -28.167210 4.734789
-1.448624 -28.509483 4.734789
-1.561252 -28.851756 4.734789
-1.593961 -28.901508 4.734789
-1.700233 -29.194028 4.734789
-1.868198 -29.536301 4.734789
-1.957482 -29.704928 4.734789
-2.022639 -29.878574 4.734789
-2.169176 -30.220847 4.734789
-2.321002 -30.513384 4.734789
-2.347094 -30.563119 4.734789
-2.619271 -30.905392 4.734789
-2.676111 -30.563119 5.001344
-2.684523 -30.571740 5.001344
-3.048043 -30.813531 5.001344
-3.411564 -30.870437 5.001344
-3.775084 -30.796551 5.001344
-4.138605 -30.650053 5.001344
-4.303431 -30.563119 5.001344
-4.502125 -30.449094 5.001344
-4.833093 -30.220847 5.001344
-4.865646 -30.196645 5.001344
-5.220136 -29.878574 5.001344
-5.229166 -29.869814 5.001344
-5.516807 -29.536301 5.001344
-5.592687 -29.439290 5.001344
-5.757549 -29.194028 5.001344
-5.956207 -28.855122 5.001344
-5.957961 -28.851756 5.001344
-6.107625 -28.509483 5.001344
-6.207218 -28.167210 5.001344
-6.245420 -27.824937 5.001344
-6.219601 -27.482664 5.001344
-6.136937 -27.140392 5.001344
-6.010467 -26.798119 5.001344
-5.956207 -26.678794 5.001344
-5.841981 -26.455846 5.001344
-5.631203 -26.113573 5.001344
-5.592687 -26.059266 5.001344
-5.331616 -25.771301 5.001344
-5.229166 -25.679860 5.001344
-4.865646 -25.444563 5.001344
-4.832455 -25.429028 5.001344
-4.502125 -25.297545 5.001344
-4.138605 -25.196779 5.001344
-3.775084 -25.132777 5.001344
-3.411564 -25.108144 5.001344
-3.048043 -25.132509 5.001344
-2.684523 -25.217742 5.001344
-2.321002 -25.369935 5.001344
-2.213543 -25.429028 5.001344
-1.957482 -25.625792 5.001344
-1.792763 -25.771301 5.001344
-1.593961 -26.049191 5.001344
-1.545743 -26.113573 5.001344
-1.386965 -26.455846 5.001344
-1.297543 -26.798119 5.001344
-1.247853 -27.140392 5.001344
-1.230441 -27.347210 5.001344
-1.205993 -27.482664 5.001344
-1.168641 -27.824937 5.001344
-1.187890 -28.167210 5.001344
-1.230441 -28.255739 5.001344
-1.286618 -28.509483 5.001344
-1.490997 -28.851756 5.001344
-1.593961 -28.951853 5.001344
-1.738153 -29.194028 5.001344
-1.957482 -29.479439 5.001344
-1.990056 -29.536301 5.001344
-2.199605 -29.878574 5.001344
-2.321002 -30.066819 5.001344
-2.417979 -30.220847 5.001344
-2.676111 -30.563119 5.001344
1.067421 -27.482664 5.001344
0.950682 -27.562489 5.001344
0.587161 -27.791724 5.001344
0.542413 -27.482664 5.001344
0.587161 -27.471304 5.001344
0.950682 -27.465400 5.001344
1.067421 -27.482664 5.001344
2.404764 -27.911609 5.267899
2.041243 -27.887972 5.267899
1.677723 -27.879688 5.267899
1.314202 -27.899611 5.267899
0.950682 -27.960733 5.267899
0.587161 -28.077643 5.267899
0.347150 -28.167210 5.267899
0.223641 -28.208150 5.267899
-0.139880 -28.241244 5.267899
-0.386936 -28.167210 5.267899
-0.503400 -27.986093 5.267899
-0.721209 -28.167210 5.267899
-0.866920 -28.194819 5.267899
-1.106977 -28.509483 5.267899
-1.230441 -28.581388 5.267899
-1.436378 -28.851756 5.267899
-1.593961 -28.981207 5.267899
-1.752996 -29.194028 5.267899
-1.957482 -29.407637 5.267899
-2.054286 -29.536301 5.267899
-2.321002 -29.850823 5.267899
-2.344564 -29.878574 5.267899
-2.655672 -30.220847 5.267899
-2.684523 -30.249532 5.267899
-3.048043 -30.505127 5.267899
-3.263143 -30.563119 5.267899
-3.411564 -30.596588 5.267899
-3.775084 -30.568736 5.267899
-3.793159 -30.563119 5.267899
-4.138605 -30.458761 5.267899
-4.502125 -30.287722 5.267899
-4.611634 -30.220847 5.267899
-4.865646 -30.057327 5.267899
-5.082168 -29.878574 5.267899
-5.229166 -29.746158 5.267899
-5.418623 -29.536301 5.267899
-5.592687 -29.315854 5.267899
-5.675510 -29.194028 5.267899
-5.875818 -28.851756 5.267899
-5.956207 -28.674689 5.267899
-6.027074 -28.509483 5.267899
-6.127220 -28.167210 5.267899
-6.170945 -27.824937 5.267899
-6.156983 -27.482664 5.267899
-6.089010 -27.140392 5.267899
-5.974064 -26.798119 5.267899
-5.956207 -26.756805 5.267899
-5.811251 -26.455846 5.267899
-5.596802 -26.113573 5.267899
-5.592687 -26.107907 5.267899
-5.277232 -25.771301 5.267899
-5.229166 -25.729715 5.267899
-4.865646 -25.498261 5.267899
-4.707740 -25.429028 5.267899
-4.502125 -25.349268 5.267899
-4.138605 -25.250536 5.267899
-3.775084 -25.188519 5.267899
-3.411564 -25.162440 5.267899
-3.048043 -25.177760 5.267899
-2.684523 -25.242178 5.267899
-2.321002 -25.359390 5.267899
-2.159026 -25.429028 5.267899
-1.957482 -25.543709 5.267899
-1.623307 -25.771301 5.267899
-1.593961 -25.801346 5.267899
-1.286089 -26.113573 5.267899
-1.230441 -26.208756 5.267899
-1.045692 -26.455846 5.267899
-0.886433 -26.798119 5.267899
-0.866920 -26.882763 5.267899
-0.708280 -27.140392 5.267899
-0.534416 -27.482664 5.267899
-0.503400 -27.613911 5.267899
-0.435160 -27.482664 5.267899
-0.139880 -27.395595 5.267899
0.223641 -27.301605 5.267899
0.587161 -27.309428 5.267899
0.950682 -27.369911 5.267899
1.314202 -27.430376 5.267899
1.677723 -27.468935 5.267899
1.932985 -27.482664 5.267899
2.041243 -27.514298 5.267899
2.404764 -27.542278 5.267899
2.404764 -28.275113 5.534453
2.041243 -28.232724 5.534453
1.677723 -28.194316 5.534453
1.314202 -28.175374 5.534453
0.950682 -28.193830 5.534453
0.587161 -28.261055 5.534453
0.223641 -28.346508 5.534453
-0.139880 -28.333055 5.534453
-0.503400 -28.238290 5.534453
-0.866920 -28.326750 5.534453
-1.041415 -28.509483 5.534453
-1.230441 -28.619077 5.534453
-1.425285 -28.851756 5.534453
-1.593961 -28.985512 5.534453
-1.764775 -29.194028 5.534453
-1.957482 -29.376961 5.534453
-2.096337 -29.536301 5.534453
-2.321002 -29.760252 5.534453
-2.445831 -29.878574 5.534453
-2.684523 -30.087993 5.534453
-2.899677 -30.220847 5.534453
-3.048043 -30.307172 5.534453
-3.411564 -30.406024 5.534453
-3.775084 -30.399393 5.534453
-4.138605 -30.312575 5.534453
-4.355357 -30.220847 5.534453
-4.502125 -30.161158 5.534453
-4.865646 -29.943282 5.534453
-4.948843 -29.878574 5.534453
-5.229166 -29.640445 5.534453
-5.327369 -29.536301 5.534453
-5.592687 -29.207753 5.534453
-5.602297 -29.194028 5.534453
-5.812045 -28.851756 5.534453
-5.956207 -28.528836 5.534453
-5.964625 -28.509483 5.534453
-6.069824 -28.167210 5.534453
-6.119414 -27.824937 5.534453
-6.113562 -27.482664 5.534453
-6.054043 -27.140392 5.534453
-5.956207 -26.834728 5.534453
-5.943898 -26.798119 5.534453
-5.781654 -26.455846 5.534453
-5.592687 -26.163251 5.534453
-5.553119 -26.113573 5.534453
-5.229166 -25.789053 5.534453
-5.204602 -25.771301 5.534453
-4.865646 -25.559636 5.534453
-4.545574 -25.429028 5.534453
-4.502125 -25.412707 5.534453
-4.138605 -25.315394 5.534453
-3.775084 -25.255443 5.534453
-3.411564 -25.229078 5.534453
-3.048043 -25.238053 5.534453
-2.684523 -25.286181 5.534453
-2.321002 -25.374568 5.534453
-2.152577 -25.429028 5.534453
-1.957482 -25.508985 5.534453
-1.593961 -25.690638 5.534453
-1.442875 -25.771301 5.534453
-1.230441 -25.934846 5.534453
-0.986963 -26.113573 5.534453
-0.866920 -26.248543 5.534453
-0.633226 -26.455846 5.534453
-0.503400 -26.620778 5.534453
-0.280190 -26.798119 5.534453
-0.139880 -26.934225 5.534453
0.223641 -27.116317 5.534453
0.281748 -27.140392 5.534453
0.587161 -27.293340 5.534453
0.950682 -27.404465 5.534453
1.314202 -27.457497 5.534453
1.677723 -27.473028 5.534453
2.041243 -27.468649 5.534453
2.404764 -27.456902 5.534453
2.404764 -28.607911 5.801008
2.041243 -28.569058 5.801008
1.677723 -28.521977 5.801008
1.554737 -28.509483 5.801008
1.314202 -28.434640 5.801008
0.950682 -28.355542 5.801008
0.587161 -28.299335 5.801008
0.223641 -28.203852 5.801008
0.130804 -28.167210 5.801008
-0.139880 -28.044550 5.801008
-0.503400 -28.039075 5.801008
-0.703638 -28.167210 5.801008
-0.866920 -28.229172 5.801008
-1.139234 -28.509483 5.801008
-1.230441 -28.566687 5.801008
-1.466527 -28.851756 5.801008
-1.593961 -28.956474 5.801008
-1.790745 -29.194028 5.801008
-1.957482 -29.348671 5.801008
-2.132510 -29.536301 5.801008
-2.321002 -29.708218 5.801008
-2.526862 -29.878574 5.801008
-2.684523 -29.998823 5.801008
-3.048043 -30.189517 5.801008
-3.173812 -30.220847 5.801008
-3.411564 -30.281113 5.801008
-3.775084 -30.279651 5.801008
-4.036996 -30.220847 5.801008
-4.138605 -30.200782 5.801008
-4.502125 -30.060877 5.801008
-4.807918 -29.878574 5.801008
-4.865646 -29.843319 5.801008
-5.229166 -29.539131 5.801008
-5.231934 -29.536301 5.801008
-5.529099 -29.194028 5.801008
-5.592687 -29.102108 5.801008
-5.751515 -28.851756 5.801008
-5.910691 -28.509483 5.801008
-5.956207 -28.362773 5.801008
-6.019494 -28.167210 5.801008
-6.075495 -27.824937 5.801008
-6.075592 -27.482664 5.801008
-6.020465 -27.140392 5.801008
-5.956207 -26.935169 5.801008
-5.911617 -26.798119 5.801008
-5.743892 -26.455846 5.801008
-5.592687 -26.231192 5.801008
-5.494203 -26.113573 5.801008
-5.229166 -25.861050 5.801008
-5.095753 -25.771301 5.801008
-4.865646 -25.634210 5.801008
-4.502125 -25.490220 5.801008
-4.260033 -25.429028 5.801008
-4.138605 -25.397770 5.801008
-3.775084 -25.340526 5.801008
-3.411564 -25.315864 5.801008
-3.048043 -25.322131 5.801008
-2.684523 -25.359344 5.801008
-2.321002 -25.425668 5.801008
-2.306335 -25.429028 5.801008
-1.957482 -25.527153 5.801008
-1.593961 -25.658507 5.801008
-1.316003 -25.771301 5.801008
-1.230441 -25.820976 5.801008
-0.866920 -26.042787 5.801008
-0.758522 -26.113573 5.801008
-0.503400 -26.345339 5.801008
-0.379510 -26.455846 5.801008
-0.139880 -26.735397 5.801008
-0.080156 -26.798119 5.801008
0.188360 -27.140392 5.801008
0.223641 -27.204462 5.801008
0.527588 -27.482664 5.801008
0.587161 -27.537834 5.801008
0.950682 -27.663615 5.801008
1.314202 -27.650484 5.801008
1.677723 -27.595990 5.801008
2.041243 -27.531565 5.801008
2.327958 -27.482664 5.801008
2.404764 -27.476379 5.801008
2.404764 -28.919303 6.067563
2.041243 -28.895822 6.067563
1.677723 -28.856306 6.067563
1.640477 -28.851756 6.067563
1.314202 -28.727604 6.067563
0.983784 -28.509483 6.067563
1.024751 -28.167210 6.067563
1.314202 -27.944929 6.067563
1.463125 -27.824937 6.067563
1.677723 -27.758940 6.067563
2.041243 -27.652485 6.067563
2.404764 -27.566118 6.067563
-2.605630 -29.878574 6.067563
-2.684523 -29.933591 6.067563
-3.048043 -30.112705 6.067563
-3.411564 -30.190683 6.067563
-3.775084 -30.187135 6.067563
-4.138605 -30.113092 6.067563
-4.502125 -29.967113 6.067563
-4.651521 -29.878574 6.067563
-4.865646 -29.749443 6.067563
-5.123949 -29.536301 6.067563
-5.229166 -29.438178 6.067563
-5.447005 -29.194028 6.067563
-5.592687 -28.987690 6.067563
-5.682142 -28.851756 6.067563
-5.853083 -28.509483 6.067563
-5.956207 -28.188508 6.067563
-5.963531 -28.167210 6.067563
-6.026848 -27.824937 6.067563
-6.031601 -27.482664 6.067563
-5.977797 -27.140392 6.067563
-5.956207 -27.071355 6.067563
-5.868003 -26.798119 6.067563
-5.688134 -26.455846 6.067563
-5.592687 -26.320770 6.067563
-5.408406 -26.113573 6.067563
-5.229166 -25.951864 6.067563
-4.938587 -25.771301 6.067563
-4.865646 -25.730108 6.067563
-4.502125 -25.586568 6.067563
-4.138605 -25.500139 6.067563
-3.775084 -25.452839 6.067563
-3.411564 -25.435430 6.067563
-3.048043 -25.443692 6.067563
-2.684523 -25.476252 6.067563
-2.321002 -25.532607 6.067563
-1.957482 -25.610767 6.067563
-1.593961 -25.706231 6.067563
-1.374959 -25.771301 6.067563
-1.230441 -25.832970 6.067563
-0.866920 -26.018054 6.067563
-0.713283 -26.113573 6.067563
-0.503400 -26.312228 6.067563
-0.368817 -26.455846 6.067563
-0.172252 -26.798119 6.067563
-0.139880 -27.087880 6.067563
-0.133152 -27.140392 6.067563
-0.139880 -27.159785 6.067563
-0.333152 -27.482664 6.067563
-0.503400 -27.604103 6.067563
-0.713078 -27.824937 6.067563
-0.866920 -27.941262 6.067563
-1.009669 -28.167210 6.067563
-1.230441 -28.402109 6.067563
-1.287222 -28.509483 6.067563
-1.561818 -28.851756 6.067563
-1.593961 -28.880284 6.067563
-1.843045 -29.194028 6.067563
-1.957482 -29.302536 6.067563
-2.178718 -29.536301 6.067563
-2.321002 -29.661247 6.067563
-2.605630 -29.878574 6.067563
2.404764 -29.163100 6.334117
2.041243 -29.140331 6.334117
1.677723 -29.072648 6.334117
1.314202 -28.911877 6.334117
1.226409 -28.851756 6.334117
1.206003 -28.509483 6.334117
1.314202 -28.371731 6.334117
1.450021 -28.167210 6.334117
1.677723 -28.017616 6.334117
1.997641 -27.824937 6.334117
2.041243 -27.810242 6.334117
2.404764 -27.695521 6.334117
-2.704415 -29.878574 6.334117
-3.048043 -30.042151 6.334117
-3.411564 -30.115426 6.334117
-3.775084 -30.106697 6.334117
-4.138605 -30.024940 6.334117
-4.474660 -29.878574 6.334117
-4.502125 -29.867178 6.334117
-4.865646 -29.644479 6.334117
-4.997349 -29.536301 6.334117
-5.229166 -29.322051 6.334117
-5.346023 -29.194028 6.334117
-5.592687 -28.852982 6.334117
-5.593528 -28.851756 6.334117
-5.781225 -28.509483 6.334117
-5.900330 -28.167210 6.334117
-5.956207 -27.857962 6.334117
-5.963000 -27.824937 6.334117
-5.971532 -27.482664 6.334117
-5.956207 -27.383380 6.334117
-5.920037 -27.140392 6.334117
-5.803487 -26.798119 6.334117
-5.603150 -26.455846 6.334117
-5.592687 -26.441811 6.334117
-5.279545 -26.113573 6.334117
-5.229166 -26.070773 6.334117
-4.865646 -25.849115 6.334117
-4.656021 -25.771301 6.334117
-4.502125 -25.713745 6.334117
-4.138605 -25.631838 6.334117
-3.775084 -25.593634 6.334117
-3.411564 -25.588723 6.334117
-3.048043 -25.611175 6.334117
-2.684523 -25.656563 6.334117
-2.321002 -25.719119 6.334117
-2.042711 -25.771301 6.334117
-1.957482 -25.792171 6.334117
-1.593961 -25.885682 6.334117
-1.230441 -26.004940 6.334117
-0.972792 -26.113573 6.334117
-0.866920 -26.199952 6.334117
-0.619793 -26.455846 6.334117
-0.544991 -26.798119 6.334117
-0.694350 -27.140392 6.334117
-0.866920 -27.352839 6.334117
-0.924334 -27.482664 6.334117
-1.099806 -27.824937 6.334117
-1.230441 -28.030738 6.334117
-1.277761 -28.167210 6.334117
-1.445273 -28.509483 6.334117
-1.593961 -28.711127 6.334117
-1.667192 -28.851756 6.334117
-1.930848 -29.194028 6.334117
-1.957482 -29.220672 6.334117
-2.248634 -29.536301 6.334117
-2.321002 -29.599655 6.334117
-2.684523 -29.868548 6.334117
-2.704415 -29.878574 6.334117
2.404764 -29.280862 6.600672
2.041243 -29.247417 6.600672
1.791168 -29.194028 6.600672
1.677723 -29.119959 6.600672
1.456834 -28.851756 6.600672
1.561663 -28.509483 6.600672
1.677723 -28.393210 6.600672
1.892179 -28.167210 6.600672
2.041243 -28.079035 6.600672
2.404764 -27.888561 6.600672
-2.864889 -29.878574 6.600672
-3.048043 -29.960712 6.600672
-3.411564 -30.031692 6.600672
-3.775084 -30.016528 6.600672
-4.138605 -29.922967 6.600672
-4.235324 -29.878574 6.600672
-4.502125 -29.762677 6.600672
-4.841279 -29.536301 6.600672
-4.865646 -29.518942 6.600672
-5.217133 -29.194028 6.600672
-5.229166 -29.180529 6.600672
-5.489844 -28.851756 6.600672
-5.592687 -28.671573 6.600672
-5.685785 -28.509483 6.600672
-5.817663 -28.167210 6.600672
-5.885826 -27.824937 6.600672
-5.894447 -27.482664 6.600672
-5.839127 -27.140392 6.600672
-5.706843 -26.798119 6.600672
-5.592687 -26.613919 6.600672
-5.472712 -26.455846 6.600672
-5.229166 -26.222202 6.600672
-5.061372 -26.113573 6.600672
-4.865646 -26.000345 6.600672
-4.502125 -25.872001 6.600672
-4.138605 -25.808254 6.600672
-3.775084 -25.789663 6.600672
-3.411564 -25.806340 6.600672
-3.048043 -25.854174 6.600672
-2.684523 -25.932723 6.600672
-2.321002 -26.042903 6.600672
-2.107788 -26.113573 6.600672
-1.957482 -26.186800 6.600672
-1.593961 -26.408560 6.600672
-1.521927 -26.455846 6.600672
-1.343248 -26.798119 6.600672
-1.337031 -27.140392 6.600672
-1.373810 -27.482664 6.600672
-1.433965 -27.824937 6.600672
-1.526930 -28.167210 6.600672
-1.593961 -28.321837 6.600672
-1.647910 -28.509483 6.600672
-1.805884 -28.851756 6.600672
-1.957482 -29.066305 6.600672
-2.038205 -29.194028 6.600672
-2.321002 -29.506275 6.600672
-2.352369 -29.536301 6.600672
-2.684523 -29.791860 6.600672
-2.864889 -29.878574 6.600672
2.404764 -29.226499 6.867227
2.265561 -29.194028 6.867227
2.041243 -29.026830 6.867227
1.922098 -28.851756 6.867227
2.041243 -28.559727 6.867227
2.060120 -28.509483 6.867227
2.404764 -28.211086 6.867227
-3.166437 -29.878574 6.867227
-3.411564 -29.925539 6.867227
-3.775084 -29.903473 6.867227
-3.859910 -29.878574 6.867227
-4.138605 -29.805731 6.867227
-4.502125 -29.631842 6.867227
-4.641344 -29.536301 6.867227
-4.865646 -29.373254 6.867227
-5.059603 -29.194028 6.867227
-5.229166 -29.005496 6.867227
-5.354179 -28.851756 6.867227
-5.560408 -28.509483 6.867227
-5.592687 -28.429129 6.867227
-5.704665 -28.167210 6.867227
-5.780120 -27.824937 6.867227
-5.787604 -27.482664 6.867227
-5.720923 -27.140392 6.867227
-5.592687 -26.856004 6.867227
-5.562231 -26.798119 6.867227
-5.271064 -26.455846 6.867227
-5.229166 -26.418692 6.867227
-4.865646 -26.195552 6.867227
-4.612729 -26.113573 6.867227
-4.502125 -26.077596 6.867227
-4.138605 -26.026283 6.867227
-3.775084 -26.032905 6.867227
-3.411564 -26.091107 6.867227
-3.327698 -26.113573 6.867227
-3.048043 -26.189167 6.867227
-2.684523 -26.343583 6.867227
-2.488909 -26.455846 6.867227
-2.321002 -26.586213 6.867227
-2.102559 -26.798119 6.867227
-1.957482 -27.063546 6.867227
-1.916060 -27.140392 6.867227
-1.810474 -27.482664 6.867227
-1.776498 -27.824937 6.867227
-1.793028 -28.167210 6.867227
-1.863024 -28.509483 6.867227
-1.957482 -28.743185 6.867227
-1.993949 -28.851756 6.867227
-2.186397 -29.194028 6.867227
-2.321002 -29.354218 6.867227
-2.500037 -29.536301 6.867227
-2.684523 -29.680656 6.867227
-3.048043 -29.855594 6.867227
-3.166437 -29.878574 6.867227
-2.722945 -29.536301 7.133781
-3.048043 -29.716073 7.133781
-3.411564 -29.790728 7.133781
-3.775084 -29.767436 7.133781
-4.138605 -29.659244 7.133781
-4.370705 -29.536301 7.133781
-4.502125 -29.466331 7.133781
-4.856476 -29.194028 7.133781
-4.865646 -29.185912 7.133781
-5.175853 -28.851756 7.133781
-5.229166 -28.775267 7.133781
-5.405266 -28.509483 7.133781
-5.552241 -28.167210 7.133781
-5.592687 -27.981376 7.133781
-5.630876 -27.824937 7.133781
-5.633426 -27.482664 7.133781
-5.592687 -27.312889 7.133781
-5.547030 -27.140392 7.133781
-5.340114 -26.798119 7.133781
-5.229166 -26.682272 7.133781
-4.886493 -26.455846 7.133781
-4.865646 -26.444452 7.133781
-4.502125 -26.332300 7.133781
-4.138605 -26.306032 7.133781
-3.775084 -26.348374 7.133781
-3.423165 -26.455846 7.133781
-3.411564 -26.459299 7.133781
-3.048043 -26.629150 7.133781
-2.808499 -26.798119 7.133781
-2.684523 -26.907435 7.133781
-2.470587 -27.140392 7.133781
-2.321002 -27.397252 7.133781
-2.272535 -27.482664 7.133781
-2.151478 -27.824937 7.133781
-2.105099 -28.167210 7.133781
-2.122309 -28.509483 7.133781
-2.211473 -28.851756 7.133781
-2.321002 -29.063891 7.133781
-2.393316 -29.194028 7.133781
-2.684523 -29.509021 7.133781
-2.722945 -29.536301 7.133781
-3.157580 -29.536301 7.400336
-3.411564 -29.601980 7.400336
-3.775084 -29.580619 7.400336
-3.906486 -29.536301 7.400336
-4.138605 -29.461503 7.400336
-4.502125 -29.253009 7.400336
-4.577033 -29.194028 7.400336
-4.865646 -28.935429 7.400336
-4.944125 -28.851756 7.400336
-5.191455 -28.509483 7.400336
-5.229166 -28.429913 7.400336
-5.353265 -28.167210 7.400336
-5.428835 -27.824937 7.400336
-5.413311 -27.482664 7.400336
-5.280411 -27.140392 7.400336
-5.229166 -27.070937 7.400336
-4.911016 -26.798119 7.400336
-4.865646 -26.770988 7.400336
-4.502125 -26.664761 7.400336
-4.138605 -26.664500 7.400336
-3.775084 -26.750958 7.400336
-3.671890 -26.798119 7.400336
-3.411564 -26.919991 7.400336
-3.108397 -27.140392 7.400336
-3.048043 -27.193513 7.400336
-2.789414 -27.482664 7.400336
-2.684523 -27.655872 7.400336
-2.588107 -27.824937 7.400336
-2.476957 -28.167210 7.400336
-2.446728 -28.509483 7.400336
-2.503072 -28.851756 7.400336
-2.675741 -29.194028 7.400336
-2.684523 -29.204775 7.400336
-3.048043 -29.501206 7.400336
-3.157580 -29.536301 7.400336
-3.191266 -29.194028 7.666891
-3.411564 -29.296917 7.666891
-3.775084 -29.302111 7.666891
-4.103195 -29.194028 7.666891
-4.138605 -29.181630 7.666891
-4.502125 -28.938484 7.666891
-4.597471 -28.851756 7.666891
-4.865646 -28.541454 7.666891
-4.889789 -28.509483 7.666891
-5.054618 -28.167210 7.666891
-5.114835 -27.824937 7.666891
-5.035706 -27.482664 7.666891
-4.865646 -27.274555 7.666891
-4.584269 -27.140392 7.666891
-4.502125 -27.115538 7.666891
-4.138605 -27.134780 7.666891
-4.123530 -27.140392 7.666891
-3.775084 -27.274305 7.666891
-3.464314 -27.482664 7.666891
-3.411564 -27.526119 7.666891
-3.146019 -27.824937 7.666891
-3.048043 -27.991484 7.666891
-2.956039 -28.167210 7.666891
-2.878877 -28.509483 7.666891
-2.920132 -28.851756 7.666891
-3.048043 -29.071828 7.666891
-3.191266 -29.194028 7.666891
-3.694676 -28.509483 7.933445
-3.775084 -28.615349 7.933445
-4.138605 -28.574317 7.933445
-4.215463 -28.509483 7.933445
-4.396009 -28.167210 7.933445
-4.138605 -27.971431 7.933445
-3.777153 -28.167210 7.933445
-3.775084 -28.170970 7.933445
-3.694676 -28.509483 7.933445
