ply
format ascii 1.0
element vertex 1623
property float x
property float y
property float z
end_header
-3.623401 -28.167210 0.203360
-3.775084 -28.242563 0.203360
-4.138605 -28.330298 0.203360
-4.502125 -28.248396 0.203360
-4.580614 -28.167210 0.203360
-4.640956 -27.824937 0.203360
-4.502125 -27.585266 0.203360
-4.263898 -27.482664 0.203360
-4.138605 -27.454321 0.203360
-3.938901 -27.482664 0.203360
-3.775084 -27.557279 0.203360
-3.509871 -27.824937 0.203360
-3.623401 -28.167210 0.203360
-3.303161 -28.509483 0.469915
-3.411564 -28.556376 0.469915
-3.775084 -28.675566 0.469915
-4.138605 -28.737041 0.469915
-4.502125 -28.720714 0.469915
-4.865646 -28.591186 0.469915
-4.957362 -28.509483 0.469915
-5.202401 -28.167210 0.469915
-5.229166 -27.908830 0.469915
-5.232865 -27.824937 0.469915
-5.229166 -27.810976 0.469915
-5.048184 -27.482664 0.469915
-4.865646 -27.279096 0.469915
-4.589704 -27.140392 0.469915
-4.502125 -27.106159 0.469915
-4.138605 -27.083596 0.469915
-3.775084 -27.132023 0.469915
-3.738639 -27.140392 0.469915
-3.411564 -27.312543 0.469915
-3.168200 -27.482664 0.469915
-3.048043 -27.725070 0.469915
-3.003668 -27.824937 0.469915
-3.026007 -28.167210 0.469915
-3.048043 -28.200228 0.469915
-3.303161 -28.509483 0.469915
-3.108891 -28.851756 0.736470
-3.411564 -28.940510 0.736470
-3.775084 -29.003146 0.736470
-4.138605 -29.032689 0.736470
-4.502125 -29.024425 0.736470
-4.865646 -28.955023 0.736470
-5.079900 -28.851756 0.736470
-5.229166 -28.762827 0.736470
-5.442687 -28.509483 0.736470
-5.592687 -28.247023 0.736470
-5.617455 -28.167210 0.736470
-5.627984 -27.824937 0.736470
-5.592687 -27.685780 0.736470
-5.495915 -27.482664 0.736470
-5.239935 -27.140392 0.736470
-5.229166 -27.128462 0.736470
-4.865646 -26.916568 0.736470
-4.502125 -26.812650 0.736470
-4.138605 -26.799582 0.736470
-3.775084 -26.859522 0.736470
-3.411564 -26.980001 0.736470
-3.073934 -27.140392 0.736470
-3.048043 -27.168389 0.736470
-2.793223 -27.482664 0.736470
-2.684523 -27.792668 0.736470
-2.675371 -27.824937 0.736470
-2.660279 -28.167210 0.736470
-2.684523 -28.269631 0.736470
-2.757685 -28.509483 0.736470
-3.048043 -28.806548 0.736470
-3.108891 -28.851756 0.736470
-2.922840 -29.194028 1.003024
-3.048043 -29.239126 1.003024
-3.411564 -29.300012 1.003024
-3.775084 -29.313214 1.003024
-4.138605 -29.306790 1.003024
-4.502125 -29.285891 1.003024
-4.865646 -29.233909 1.003024
-4.982088 -29.194028 1.003024
-5.229166 -29.096656 1.003024
-5.575646 -28.851756 1.003024
-5.592687 -28.837898 1.003024
-5.816618 -28.509483 1.003024
-5.956207 -28.213620 1.003024
-5.969503 -28.167210 1.003024
-5.978158 -27.824937 1.003024
-5.956207 -27.735209 1.003024
-5.852207 -27.482664 1.003024
-5.626736 -27.140392 1.003024
-5.592687 -27.096371 1.003024
-5.229166 -26.801289 1.003024
-5.221785 -26.798119 1.003024
-4.865646 -26.654093 1.003024
-4.502125 -26.588262 1.003024
-4.138605 -26.582370 1.003024
-3.775084 -26.620909 1.003024
-3.411564 -26.698939 1.003024
-3.108404 -26.798119 1.003024
-3.048043 -26.840482 1.003024
-2.706829 -27.140392 1.003024
-2.684523 -27.180864 1.003024
-2.543610 -27.482664 1.003024
-2.453598 -27.824937 1.003024
-2.409857 -28.167210 1.003024
-2.427776 -28.509483 1.003024
-2.551148 -28.851756 1.003024
-2.684523 -29.003743 1.003024
-2.922840 -29.194028 1.003024
-2.727609 -29.536301 1.269579
-3.048043 -29.633271 1.269579
-3.411564 -29.656089 1.269579
-3.775084 -29.625722 1.269579
-4.138605 -29.582171 1.269579
-4.502125 -29.538196 1.269579
-4.512873 -29.536301 1.269579
-4.865646 -29.462280 1.269579
-5.229166 -29.347045 1.269579
-5.513605 -29.194028 1.269579
-5.592687 -29.149089 1.269579
-5.902985 -28.851756 1.269579
-5.956207 -28.795301 1.269579
-6.123377 -28.509483 1.269579
-6.257177 -28.167210 1.269579
-6.270032 -27.824937 1.269579
-6.151472 -27.482664 1.269579
-5.956207 -27.142866 1.269579
-5.953908 -27.140392 1.269579
-5.604993 -26.798119 1.269579
-5.592687 -26.785646 1.269579
-5.229166 -26.562194 1.269579
-4.945524 -26.455846 1.269579
-4.865646 -26.427632 1.269579
-4.502125 -26.375191 1.269579
-4.138605 -26.364147 1.269579
-3.775084 -26.382061 1.269579
-3.411564 -26.429294 1.269579
-3.292062 -26.455846 1.269579
-3.048043 -26.565691 1.269579
-2.692947 -26.798119 1.269579
-2.684523 -26.809564 1.269579
-2.479377 -27.140392 1.269579
-2.354269 -27.482664 1.269579
-2.321002 -27.613711 1.269579
-2.278792 -27.824937 1.269579
-2.224667 -28.167210 1.269579
-2.197765 -28.509483 1.269579
-2.230007 -28.851756 1.269579
-2.321002 -29.094954 1.269579
-2.366436 -29.194028 1.269579
-2.684523 -29.508267 1.269579
-2.727609 -29.536301 1.269579
-2.614057 -29.878574 1.536134
-2.684523 -29.914922 1.536134
-3.048043 -30.009981 1.536134
-3.411564 -30.004962 1.536134
-3.775084 -29.940403 1.536134
-4.057364 -29.878574 1.536134
-4.138605 -29.854506 1.536134
-4.502125 -29.753307 1.536134
-4.865646 -29.666841 1.536134
-5.229166 -29.562352 1.536134
-5.282790 -29.536301 1.536134
-5.592687 -29.379265 1.536134
-5.829757 -29.194028 1.536134
-5.956207 -29.095211 1.536134
-6.158143 -28.851756 1.536134
-6.319728 -28.638065 1.536134
-6.387211 -28.509483 1.536134
-6.499826 -28.167210 1.536134
-6.511307 -27.824937 1.536134
-6.412445 -27.482664 1.536134
-6.319728 -27.305179 1.536134
-6.194684 -27.140392 1.536134
-5.956207 -26.857850 1.536134
-5.879964 -26.798119 1.536134
-5.592687 -26.560472 1.536134
-5.399390 -26.455846 1.536134
-5.229166 -26.359925 1.536134
-4.865646 -26.243522 1.536134
-4.502125 -26.179583 1.536134
-4.138605 -26.151073 1.536134
-3.775084 -26.153367 1.536134
-3.411564 -26.198695 1.536134
-3.048043 -26.308127 1.536134
-2.749085 -26.455846 1.536134
-2.684523 -26.520359 1.536134
-2.459488 -26.798119 1.536134
-2.321002 -27.109779 1.536134
-2.309423 -27.140392 1.536134
-2.231168 -27.482664 1.536134
-2.158886 -27.824937 1.536134
-2.080880 -28.167210 1.536134
-2.015515 -28.509483 1.536134
-2.000995 -28.851756 1.536134
-2.071593 -29.194028 1.536134
-2.244513 -29.536301 1.536134
-2.321002 -29.617590 1.536134
-2.614057 -29.878574 1.536134
-2.576000 -30.220847 1.802688
-2.684523 -30.274623 1.802688
-3.048043 -30.357584 1.802688
-3.411564 -30.334945 1.802688
-3.775084 -30.248427 1.802688
-3.863920 -30.220847 1.802688
-4.138605 -30.105959 1.802688
-4.502125 -29.978423 1.802688
-4.846914 -29.878574 1.802688
-4.865646 -29.872238 1.802688
-5.229166 -29.735959 1.802688
-5.592687 -29.568488 1.802688
-5.636993 -29.536301 1.802688
-5.956207 -29.310028 1.802688
-6.067606 -29.194028 1.802688
-6.319728 -28.937617 1.802688
-6.379945 -28.851756 1.802688
-6.589329 -28.509483 1.802688
-6.683248 -28.277011 1.802688
-6.716147 -28.167210 1.802688
-6.727120 -27.824937 1.802688
-6.683248 -27.651560 1.802688
-6.623776 -27.482664 1.802688
-6.410784 -27.140392 1.802688
-6.319728 -27.016403 1.802688
-6.098278 -26.798119 1.802688
-5.956207 -26.650370 1.802688
-5.689491 -26.455846 1.802688
-5.592687 -26.377616 1.802688
-5.229166 -26.187739 1.802688
-5.009598 -26.113573 1.802688
-4.865646 -26.068296 1.802688
-4.502125 -26.005426 1.802688
-4.138605 -25.969930 1.802688
-3.775084 -25.958001 1.802688
-3.411564 -25.980933 1.802688
-3.048043 -26.057612 1.802688
-2.899931 -26.113573 1.802688
-2.684523 -26.267517 1.802688
-2.483630 -26.455846 1.802688
-2.321002 -26.744491 1.802688
-2.294765 -26.798119 1.802688
-2.207151 -27.140392 1.802688
-2.141504 -27.482664 1.802688
-2.063581 -27.824937 1.802688
-1.962122 -28.167210 1.802688
-1.957482 -28.181936 1.802688
-1.884728 -28.509483 1.802688
-1.840256 -28.851756 1.802688
-1.857901 -29.194028 1.802688
-1.955102 -29.536301 1.802688
-1.957482 -29.540056 1.802688
-2.178918 -29.878574 1.802688
-2.321002 -30.015281 1.802688
-2.576000 -30.220847 1.802688
-2.613430 -30.563119 2.069243
-2.684523 -30.596730 2.069243
-3.048043 -30.669183 2.069243
-3.411564 -30.637164 2.069243
-3.680381 -30.563119 2.069243
-3.775084 -30.526757 2.069243
-4.138605 -30.356846 2.069243
-4.475745 -30.220847 2.069243
-4.502125 -30.207226 2.069243
-4.865646 -30.042052 2.069243
-5.229166 -29.900374 2.069243
-5.273445 -29.878574 2.069243
-5.592687 -29.715270 2.069243
-5.853905 -29.536301 2.069243
-5.956207 -29.469919 2.069243
-6.248509 -29.194028 2.069243
-6.319728 -29.129195 2.069243
-6.534054 -28.851756 2.069243
-6.683248 -28.637870 2.069243
-6.751227 -28.509483 2.069243
-6.864391 -28.167210 2.069243
-6.878028 -27.824937 2.069243
-6.782116 -27.482664 2.069243
-6.683248 -27.295284 2.069243
-6.573868 -27.140392 2.069243
-6.319728 -26.828978 2.069243
-6.284343 -26.798119 2.069243
-5.956207 -26.493847 2.069243
-5.897812 -26.455846 2.069243
-5.592687 -26.231389 2.069243
-5.365060 -26.113573 2.069243
-5.229166 -26.041343 2.069243
-4.865646 -25.920110 2.069243
-4.502125 -25.835566 2.069243
-4.138605 -25.773720 2.069243
-4.110805 -25.771301 2.069243
-3.775084 -25.750159 2.069243
-3.411564 -25.758485 2.069243
-3.322887 -25.771301 2.069243
-3.048043 -25.842852 2.069243
-2.684523 -26.028746 2.069243
-2.565908 -26.113573 2.069243
-2.321002 -26.434356 2.069243
-2.306820 -26.455846 2.069243
-2.195086 -26.798119 2.069243
-2.133670 -27.140392 2.069243
-2.078832 -27.482664 2.069243
-1.996141 -27.824937 2.069243
-1.957482 -27.934981 2.069243
-1.892782 -28.167210 2.069243
-1.787550 -28.509483 2.069243
-1.710451 -28.851756 2.069243
-1.696537 -29.194028 2.069243
-1.762547 -29.536301 2.069243
-1.910650 -29.878574 2.069243
-1.957482 -29.940002 2.069243
-2.170491 -30.220847 2.069243
-2.321002 -30.353195 2.069243
-2.613430 -30.563119 2.069243
-2.822186 -30.905392 2.335798
-3.048043 -30.944587 2.335798
-3.411564 -30.908307 2.335798
-3.421130 -30.905392 2.335798
-3.775084 -30.765266 2.335798
-4.138605 -30.599338 2.335798
-4.218110 -30.563119 2.335798
-4.502125 -30.396325 2.335798
-4.865646 -30.224281 2.335798
-4.873194 -30.220847 2.335798
-5.229166 -30.033755 2.335798
-5.521335 -29.878574 2.335798
-5.592687 -29.840477 2.335798
-5.956207 -29.588794 2.335798
-6.010461 -29.536301 2.335798
-6.319728 -29.260337 2.335798
-6.374259 -29.194028 2.335798
-6.662592 -28.851756 2.335798
-6.683248 -28.824128 2.335798
-6.859288 -28.509483 2.335798
-6.983361 -28.167210 2.335798
-6.999413 -27.824937 2.335798
-6.895899 -27.482664 2.335798
-6.703352 -27.140392 2.335798
-6.683248 -27.111824 2.335798
-6.401924 -26.798119 2.335798
-6.319728 -26.703419 2.335798
-6.035018 -26.455846 2.335798
-5.956207 -26.377210 2.335798
-5.596049 -26.113573 2.335798
-5.592687 -26.110855 2.335798
-5.229166 -25.916841 2.335798
-4.865646 -25.771928 2.335798
-4.863423 -25.771301 2.335798
-4.502125 -25.688189 2.335798
-4.138605 -25.627678 2.335798
-3.775084 -25.591046 2.335798
-3.411564 -25.593873 2.335798
-3.048043 -25.658576 2.335798
-2.750587 -25.771301 2.335798
-2.684523 -25.816842 2.335798
-2.369327 -26.113573 2.335798
-2.321002 -26.203554 2.335798
-2.201588 -26.455846 2.335798
-2.124949 -26.798119 2.335798
-2.085080 -27.140392 2.335798
-2.039730 -27.482664 2.335798
-1.957482 -27.814006 2.335798
-1.955092 -27.824937 2.335798
-1.844111 -28.167210 2.335798
-1.712925 -28.509483 2.335798
-1.606252 -28.851756 2.335798
-1.593961 -28.942506 2.335798
-1.569933 -29.194028 2.335798
-1.593961 -29.425319 2.335798
-1.605573 -29.536301 2.335798
-1.726902 -29.878574 2.335798
-1.922576 -30.220847 2.335798
-1.957482 -30.260178 2.335798
-2.223655 -30.563119 2.335798
-2.321002 -30.641692 2.335798
-2.684523 -30.868587 2.335798
-2.822186 -30.905392 2.335798
-2.348836 -30.905392 2.602352
-2.684523 -31.086937 2.602352
-3.048043 -31.163396 2.602352
-3.411564 -31.113832 2.602352
-3.775084 -30.984223 2.602352
-3.948506 -30.905392 2.602352
-4.138605 -30.793893 2.602352
-4.502125 -30.590683 2.602352
-4.556318 -30.563119 2.602352
-4.865646 -30.365239 2.602352
-5.131236 -30.220847 2.602352
-5.229166 -30.160269 2.602352
-5.592687 -29.936926 2.602352
-5.670110 -29.878574 2.602352
-5.956207 -29.671902 2.602352
-6.097454 -29.536301 2.602352
-6.319728 -29.342198 2.602352
-6.445277 -29.194028 2.602352
-6.683248 -28.922812 2.602352
-6.731723 -28.851756 2.602352
-6.932165 -28.509483 2.602352
-7.046769 -28.209239 2.602352
-7.060000 -28.167210 2.602352
-7.074041 -27.824937 2.602352
-7.046769 -27.716330 2.602352
-6.973144 -27.482664 2.602352
-6.771352 -27.140392 2.602352
-6.683248 -27.019269 2.602352
-6.477506 -26.798119 2.602352
-6.319728 -26.622525 2.602352
-6.122272 -26.455846 2.602352
-5.956207 -26.293890 2.602352
-5.708860 -26.113573 2.602352
-5.592687 -26.018882 2.602352
-5.229166 -25.804873 2.602352
-5.152222 -25.771301 2.602352
-4.865646 -25.661327 2.602352
-4.502125 -25.557496 2.602352
-4.138605 -25.475471 2.602352
-3.827810 -25.429028 2.602352
-3.775084 -25.423211 2.602352
-3.411564 -25.419402 2.602352
-3.333374 -25.429028 2.602352
-3.048043 -25.487237 2.602352
-2.684523 -25.655252 2.602352
-2.513759 -25.771301 2.602352
-2.321002 -26.005202 2.602352
-2.244477 -26.113573 2.602352
-2.125749 -26.455846 2.602352
-2.076638 -26.798119 2.602352
-2.053706 -27.140392 2.602352
-2.016757 -27.482664 2.602352
-1.957482 -27.728878 2.602352
-1.936240 -27.824937 2.602352
-1.814201 -28.167210 2.602352
-1.662598 -28.509483 2.602352
-1.593961 -28.679581 2.602352
-1.541943 -28.851756 2.602352
-1.485031 -29.194028 2.602352
-1.498299 -29.536301 2.602352
-1.586747 -29.878574 2.602352
-1.593961 -29.891778 2.602352
-1.757305 -30.220847 2.602352
-1.957482 -30.503493 2.602352
-1.998552 -30.563119 2.602352
-2.321002 -30.883274 2.602352
-2.348836 -30.905392 2.602352
-2.617499 -31.247665 2.868907
-2.684523 -31.280033 2.868907
-3.048043 -31.345173 2.868907
-3.411564 -31.299737 2.868907
-3.563620 -31.247665 2.868907
-3.775084 -31.158850 2.868907
-4.138605 -30.967646 2.868907
-4.254713 -30.905392 2.868907
-4.502125 -30.735447 2.868907
-4.788560 -30.563119 2.868907
-4.865646 -30.504304 2.868907
-5.229166 -30.263889 2.868907
-5.294691 -30.220847 2.868907
-5.592687 -30.008605 2.868907
-5.753508 -29.878574 2.868907
-5.956207 -29.723994 2.868907
-6.147248 -29.536301 2.868907
-6.319728 -29.383797 2.868907
-6.480658 -29.194028 2.868907
-6.683248 -28.964328 2.868907
-6.760691 -28.851756 2.868907
-6.964649 -28.509483 2.868907
-7.046769 -28.296429 2.868907
-7.087784 -28.167210 2.868907
-7.102492 -27.824937 2.868907
-7.046769 -27.604552 2.868907
-7.008053 -27.482664 2.868907
-6.803452 -27.140392 2.868907
-6.683248 -26.976356 2.868907
-6.516757 -26.798119 2.868907
-6.319728 -26.579364 2.868907
-6.174610 -26.455846 2.868907
-5.956207 -26.240229 2.868907
-5.788119 -26.113573 2.868907
-5.592687 -25.948024 2.868907
-5.317388 -25.771301 2.868907
-5.229166 -25.717672 2.868907
-4.865646 -25.558741 2.868907
-4.502125 -25.431000 2.868907
-4.494779 -25.429028 2.868907
-4.138605 -25.357207 2.868907
-3.775084 -25.309755 2.868907
-3.411564 -25.301793 2.868907
-3.048043 -25.353218 2.868907
-2.821289 -25.429028 2.868907
-2.684523 -25.504939 2.868907
-2.355823 -25.771301 2.868907
-2.321002 -25.824436 2.868907
-2.157773 -26.113573 2.868907
-2.069330 -26.455846 2.868907
-2.040333 -26.798119 2.868907
-2.029649 -27.140392 2.868907
-1.999911 -27.482664 2.868907
-1.957482 -27.671289 2.868907
-1.924510 -27.824937 2.868907
-1.798242 -28.167210 2.868907
-1.634555 -28.509483 2.868907
-1.593961 -28.596498 2.868907
-1.500374 -28.851756 2.868907
-1.424337 -29.194028 2.868907
-1.421076 -29.536301 2.868907
-1.493280 -29.878574 2.868907
-1.593961 -30.107136 2.868907
-1.638534 -30.220847 2.868907
-1.851708 -30.563119 2.868907
-1.957482 -30.686044 2.868907
-2.145579 -30.905392 2.868907
-2.321002 -31.056234 2.868907
-2.617499 -31.247665 2.868907
-2.383888 -31.247665 3.135461
-2.684523 -31.410180 3.135461
-3.048043 -31.482089 3.135461
-3.411564 -31.431006 3.135461
-3.775084 -31.298178 3.135461
-3.879069 -31.247665 3.135461
-4.138605 -31.093315 3.135461
-4.453616 -30.905392 3.135461
-4.502125 -30.867683 3.135461
-4.865646 -30.611069 3.135461
-4.941275 -30.563119 3.135461
-5.229166 -30.338312 3.135461
-5.387138 -30.220847 3.135461
-5.592687 -30.055893 3.135461
-5.793418 -29.878574 3.135461
-5.956207 -29.744178 3.135461
-6.157183 -29.536301 3.135461
-6.319728 -29.386034 3.135461
-6.478161 -29.194028 3.135461
-6.683248 -28.955929 3.135461
-6.753881 -28.851756 3.135461
-6.954803 -28.509483 3.135461
-7.046769 -28.268278 3.135461
-7.078673 -28.167210 3.135461
-7.093498 -27.824937 3.135461
-7.046769 -27.637531 3.135461
-6.998591 -27.482664 3.135461
-6.798050 -27.140392 3.135461
-6.683248 -26.980801 3.135461
-6.517505 -26.798119 3.135461
-6.319728 -26.571889 3.135461
-6.189489 -26.455846 3.135461
-5.956207 -26.214711 3.135461
-5.830705 -26.113573 3.135461
-5.592687 -25.898449 3.135461
-5.411588 -25.771301 3.135461
-5.229166 -25.650798 3.135461
-4.865646 -25.468891 3.135461
-4.765440 -25.429028 3.135461
-4.502125 -25.348377 3.135461
-4.138605 -25.263296 3.135461
-3.775084 -25.206518 3.135461
-3.411564 -25.193877 3.135461
-3.048043 -25.247904 3.135461
-2.684523 -25.383788 3.135461
-2.605138 -25.429028 3.135461
-2.321002 -25.693175 3.135461
-2.251622 -25.771301 3.135461
-2.089309 -26.113573 3.135461
-2.021509 -26.455846 3.135461
-2.005288 -26.798119 3.135461
-2.002024 -27.140392 3.135461
-1.978023 -27.482664 3.135461
-1.957482 -27.585755 3.135461
-1.910409 -27.824937 3.135461
-1.787969 -28.167210 3.135461
-1.623372 -28.509483 3.135461
-1.593961 -28.569587 3.135461
-1.479102 -28.851756 3.135461
-1.389412 -29.194028 3.135461
-1.374017 -29.536301 3.135461
-1.434279 -29.878574 3.135461
-1.563853 -30.220847 3.135461
-1.593961 -30.268124 3.135461
-1.758205 -30.563119 3.135461
-1.957482 -30.827096 3.135461
-2.015747 -30.905392 3.135461
-2.321002 -31.201052 3.135461
-2.383888 -31.247665 3.135461
-2.270400 -31.247665 3.402016
-2.321002 -31.289458 3.402016
-2.684523 -31.503230 3.402016
-3.048043 -31.581913 3.402016
-3.411564 -31.527607 3.402016
-3.775084 -31.385125 3.402016
-4.045674 -31.247665 3.402016
-4.138605 -31.189127 3.402016
-4.502125 -30.951374 3.402016
-4.577155 -30.905392 3.402016
-4.865646 -30.677927 3.402016
-5.028236 -30.563119 3.402016
-5.229166 -30.387059 3.402016
-5.428931 -30.220847 3.402016
-5.592687 -30.073353 3.402016
-5.792501 -29.878574 3.402016
-5.956207 -29.729517 3.402016
-6.129465 -29.536301 3.402016
-6.319728 -29.347013 3.402016
-6.439367 -29.194028 3.402016
-6.683248 -28.895958 3.402016
-6.712140 -28.851756 3.402016
-6.903920 -28.509483 3.402016
-7.029732 -28.167210 3.402016
-7.046769 -27.843728 3.402016
-7.047578 -27.824937 3.402016
-7.046769 -27.821573 3.402016
-6.946586 -27.482664 3.402016
-6.756716 -27.140392 3.402016
-6.683248 -27.033613 3.402016
-6.482469 -26.798119 3.402016
-6.319728 -26.600266 3.402016
-6.170273 -26.455846 3.402016
-5.956207 -26.217073 3.402016
-5.839547 -26.113573 3.402016
-5.592687 -25.870811 3.402016
-5.464689 -25.771301 3.402016
-5.229166 -25.601609 3.402016
-4.920108 -25.429028 3.402016
-4.865646 -25.404932 3.402016
-4.502125 -25.281737 3.402016
-4.138605 -25.186204 3.402016
-3.775084 -25.121350 3.402016
-3.411564 -25.104075 3.402016
-3.048043 -25.158402 3.402016
-2.684523 -25.301382 3.402016
-2.476987 -25.429028 3.402016
-2.321002 -25.587537 3.402016
-2.172289 -25.771301 3.402016
-2.027887 -26.113573 3.402016
-1.971298 -26.455846 3.402016
-1.960667 -26.798119 3.402016
-1.960074 -27.140392 3.402016
-1.957482 -27.188061 3.402016
-1.941309 -27.482664 3.402016
-1.882906 -27.824937 3.402016
-1.772731 -28.167210 3.402016
-1.620666 -28.509483 3.402016
-1.593961 -28.566926 3.402016
-1.476052 -28.851756 3.402016
-1.380902 -29.194028 3.402016
-1.358841 -29.536301 3.402016
-1.411245 -29.878574 3.402016
-1.530626 -30.220847 3.402016
-1.593961 -30.330039 3.402016
-1.710682 -30.563119 3.402016
-1.945816 -30.905392 3.402016
-1.957482 -30.918027 3.402016
-2.270400 -31.247665 3.402016
-2.866179 -31.589938 3.668571
-3.048043 -31.623520 3.668571
-3.321187 -31.589938 3.668571
-3.411564 -31.577246 3.668571
-3.775084 -31.430574 3.668571
-4.127139 -31.247665 3.668571
-4.138605 -31.240242 3.668571
-4.502125 -30.989178 3.668571
-4.631616 -30.905392 3.668571
-4.865646 -30.709440 3.668571
-5.058025 -30.563119 3.668571
-5.229166 -30.400271 3.668571
-5.425975 -30.220847 3.668571
-5.592687 -30.054479 3.668571
-5.756176 -29.878574 3.668571
-5.956207 -29.675506 3.668571
-6.070006 -29.536301 3.668571
-6.319728 -29.262365 3.668571
-6.369221 -29.194028 3.668571
-6.623820 -28.851756 3.668571
-6.683248 -28.762890 3.668571
-6.816486 -28.509483 3.668571
-6.932541 -28.167210 3.668571
-6.949600 -27.824937 3.668571
-6.857726 -27.482664 3.668571
-6.684148 -27.140392 3.668571
-6.683248 -27.138989 3.668571
-6.418785 -26.798119 3.668571
-6.319728 -26.666388 3.668571
-6.125099 -26.455846 3.668571
-5.956207 -26.247605 3.668571
-5.821936 -26.113573 3.668571
-5.592687 -25.865711 3.668571
-5.483350 -25.771301 3.668571
-5.229166 -25.572514 3.668571
-4.993098 -25.429028 3.668571
-4.865646 -25.368297 3.668571
-4.502125 -25.235060 3.668571
-4.138605 -25.131765 3.668571
-3.902383 -25.086755 3.668571
-3.775084 -25.067674 3.668571
-3.411564 -25.052231 3.668571
-3.080833 -25.086755 3.668571
-3.048043 -25.091753 3.668571
-2.684523 -25.235019 3.668571
-2.378754 -25.429028 3.668571
-2.321002 -25.489303 3.668571
-2.100941 -25.771301 3.668571
-1.962580 -26.113573 3.668571
-1.957482 -26.145896 3.668571
-1.911724 -26.455846 3.668571
-1.900182 -26.798119 3.668571
-1.897474 -27.140392 3.668571
-1.880286 -27.482664 3.668571
-1.831391 -27.824937 3.668571
-1.741321 -28.167210 3.668571
-1.616007 -28.509483 3.668571
-1.593961 -28.566236 3.668571
-1.486803 -28.851756 3.668571
-1.398658 -29.194028 3.668571
-1.377797 -29.536301 3.668571
-1.427056 -29.878574 3.668571
-1.539779 -30.220847 3.668571
-1.593961 -30.318815 3.668571
-1.709222 -30.563119 3.668571
-1.931870 -30.905392 3.668571
-1.957482 -30.934575 3.668571
-2.238093 -31.247665 3.668571
-2.321002 -31.319593 3.668571
-2.684523 -31.546182 3.668571
-2.866179 -31.589938 3.668571
-2.925247 -31.589938 3.935125
-3.048043 -31.614030 3.935125
-3.257926 -31.589938 3.935125
-3.411564 -31.569855 3.935125
-3.775084 -31.425769 3.935125
-4.118651 -31.247665 3.935125
-4.138605 -31.234845 3.935125
-4.502125 -30.983040 3.935125
-4.620037 -30.905392 3.935125
-4.865646 -30.696311 3.935125
-5.034604 -30.563119 3.935125
-5.229166 -30.370030 3.935125
-5.382986 -30.220847 3.935125
-5.592687 -29.994096 3.935125
-5.690995 -29.878574 3.935125
-5.956207 -29.577822 3.935125
-5.986896 -29.536301 3.935125
-6.259487 -29.194028 3.935125
-6.319728 -29.121944 3.935125
-6.498038 -28.851756 3.935125
-6.683248 -28.543872 3.935125
-6.700048 -28.509483 3.935125
-6.804755 -28.167210 3.935125
-6.821263 -27.824937 3.935125
-6.741328 -27.482664 3.935125
-6.683248 -27.355568 3.935125
-6.562592 -27.140392 3.935125
-6.336797 -26.798119 3.935125
-6.319728 -26.772677 3.935125
-6.064801 -26.455846 3.935125
-5.956207 -26.305592 3.935125
-5.787312 -26.113573 3.935125
-5.592687 -25.882413 3.935125
-5.475961 -25.771301 3.935125
-5.229166 -25.564535 3.935125
-5.019885 -25.429028 3.935125
-4.865646 -25.351326 3.935125
-4.502125 -25.211000 3.935125
-4.138605 -25.103360 3.935125
-4.053472 -25.086755 3.935125
-3.775084 -25.043374 3.935125
-3.411564 -25.025398 3.935125
-3.048043 -25.060869 3.935125
-2.950935 -25.086755 3.935125
-2.684523 -25.188111 3.935125
-2.321002 -25.413662 3.935125
-2.301536 -25.429028 3.935125
-2.027219 -25.771301 3.935125
-1.957482 -25.934999 3.935125
-1.888795 -26.113573 3.935125
-1.830752 -26.455846 3.935125
-1.811293 -26.798119 3.935125
-1.802772 -27.140392 3.935125
-1.785929 -27.482664 3.935125
-1.748570 -27.824937 3.935125
-1.684999 -28.167210 3.935125
-1.599019 -28.509483 3.935125
-1.593961 -28.528826 3.935125
-1.504231 -28.851756 3.935125
-1.441160 -29.194028 3.935125
-1.433456 -29.536301 3.935125
-1.486167 -29.878574 3.935125
-1.593961 -30.213156 3.935125
-1.596021 -30.220847 3.935125
-1.756507 -30.563119 3.935125
-1.957482 -30.882559 3.935125
-1.971315 -30.905392 3.935125
-2.269230 -31.247665 3.935125
-2.321002 -31.293715 3.935125
-2.684523 -31.528187 3.935125
-2.925247 -31.589938 3.935125
-2.383844 -31.247665 4.201680
-2.684523 -31.443151 4.201680
-3.048043 -31.540947 4.201680
-3.411564 -31.500318 4.201680
-3.775084 -31.366201 4.201680
-4.010308 -31.247665 4.201680
-4.138605 -31.168904 4.201680
-4.502125 -30.929248 4.201680
-4.539098 -30.905392 4.201680
-4.865646 -30.635644 4.201680
-4.958080 -30.563119 4.201680
-5.229166 -30.294953 4.201680
-5.303554 -30.220847 4.201680
-5.592687 -29.892318 4.201680
-5.603623 -29.878574 4.201680
-5.870665 -29.536301 4.201680
-5.956207 -29.433446 4.201680
-6.122771 -29.194028 4.201680
-6.319728 -28.920551 4.201680
-6.360238 -28.851756 4.201680
-6.535078 -28.509483 4.201680
-6.652122 -28.167210 4.201680
-6.673812 -27.824937 4.201680
-6.592058 -27.482664 4.201680
-6.435896 -27.140392 4.201680
-6.319728 -26.933332 4.201680
-6.229806 -26.798119 4.201680
-6.000433 -26.455846 4.201680
-5.956207 -26.386976 4.201680
-5.745076 -26.113573 4.201680
-5.592687 -25.917287 4.201680
-5.451007 -25.771301 4.201680
-5.229166 -25.576115 4.201680
-5.010164 -25.429028 4.201680
-4.865646 -25.353605 4.201680
-4.502125 -25.209242 4.201680
-4.138605 -25.100531 4.201680
-4.068592 -25.086755 4.201680
-3.775084 -25.039437 4.201680
-3.411564 -25.018889 4.201680
-3.048043 -25.049877 4.201680
-2.900306 -25.086755 4.201680
-2.684523 -25.161151 4.201680
-2.321002 -25.368645 4.201680
-2.239620 -25.429028 4.201680
-1.957482 -25.752357 4.201680
-1.943144 -25.771301 4.201680
-1.793087 -26.113573 4.201680
-1.719926 -26.455846 4.201680
-1.688391 -26.798119 4.201680
-1.672739 -27.140392 4.201680
-1.657165 -27.482664 4.201680
-1.633939 -27.824937 4.201680
-1.601329 -28.167210 4.201680
-1.593961 -28.236189 4.201680
-1.557612 -28.509483 4.201680
-1.518779 -28.851756 4.201680
-1.504195 -29.194028 4.201680
-1.527349 -29.536301 4.201680
-1.593884 -29.878574 4.201680
-1.593961 -29.878776 4.201680
-1.701381 -30.220847 4.201680
-1.857311 -30.563119 4.201680
-1.957482 -30.717883 4.201680
-2.073843 -30.905392 4.201680
-2.321002 -31.190297 4.201680
-2.383844 -31.247665 4.201680
-2.614749 -31.247665 4.468235
-2.684523 -31.291955 4.468235
-3.048043 -31.397035 4.468235
-3.411564 -31.370634 4.468235
-3.775084 -31.253377 4.468235
-3.787046 -31.247665 4.468235
-4.138605 -31.048959 4.468235
-4.373999 -30.905392 4.468235
-4.502125 -30.808272 4.468235
-4.824864 -30.563119 4.468235
-4.865646 -30.524779 4.468235
-5.187875 -30.220847 4.468235
-5.229166 -30.175746 4.468235
-5.486204 -29.878574 4.468235
-5.592687 -29.749208 4.468235
-5.747563 -29.536301 4.468235
-5.956207 -29.253187 4.468235
-5.993162 -29.194028 4.468235
-6.201839 -28.851756 4.468235
-6.319728 -28.631883 4.468235
-6.374813 -28.509483 4.468235
-6.475593 -28.167210 4.468235
-6.499807 -27.824937 4.468235
-6.441414 -27.482664 4.468235
-6.319728 -27.141715 4.468235
-6.319182 -27.140392 4.468235
-6.134434 -26.798119 4.468235
-5.956207 -26.483892 4.468235
-5.937735 -26.455846 4.468235
-5.702685 -26.113573 4.468235
-5.592687 -25.963454 4.468235
-5.415683 -25.771301 4.468235
-5.229166 -25.602966 4.468235
-4.972311 -25.429028 4.468235
-4.865646 -25.372489 4.468235
-4.502125 -25.226489 4.468235
-4.138605 -25.119066 4.468235
-3.973400 -25.086755 4.468235
-3.775084 -25.053870 4.468235
-3.411564 -25.030675 4.468235
-3.048043 -25.055691 4.468235
-2.907532 -25.086755 4.468235
-2.684523 -25.152003 4.468235
-2.321002 -25.333179 4.468235
-2.176795 -25.429028 4.468235
-1.957482 -25.644208 4.468235
-1.847730 -25.771301 4.468235
-1.669383 -26.113573 4.468235
-1.593961 -26.388488 4.468235
-1.576114 -26.455846 4.468235
-1.528531 -26.798119 4.468235
-1.502415 -27.140392 4.468235
-1.485569 -27.482664 4.468235
-1.474261 -27.824937 4.468235
-1.471663 -28.167210 4.468235
-1.485063 -28.509483 4.468235
-1.520850 -28.851756 4.468235
-1.579442 -29.194028 4.468235
-1.593961 -29.253526 4.468235
-1.648769 -29.536301 4.468235
-1.738558 -29.878574 4.468235
-1.858021 -30.220847 4.468235
-1.957482 -30.424947 4.468235
-2.019100 -30.563119 4.468235
-2.242918 -30.905392 4.468235
-2.321002 -30.991608 4.468235
-2.614749 -31.247665 4.468235
-2.524510 -30.905392 4.734789
-2.684523 -31.034202 4.734789
-3.048043 -31.183226 4.734789
-3.411564 -31.174914 4.734789
-3.775084 -31.059529 4.734789
-4.103694 -30.905392 4.734789
-4.138605 -30.886226 4.734789
-4.502125 -30.649020 4.734789
-4.627817 -30.563119 4.734789
-4.865646 -30.368625 4.734789
-5.035606 -30.220847 4.734789
-5.229166 -30.026245 4.734789
-5.361007 -29.878574 4.734789
-5.592687 -29.594773 4.734789
-5.633996 -29.536301 4.734789
-5.866246 -29.194028 4.734789
-5.956207 -29.051304 4.734789
-6.065699 -28.851756 4.734789
-6.224351 -28.509483 4.734789
-6.319728 -28.200223 4.734789
-6.328730 -28.167210 4.734789
-6.357817 -27.824937 4.734789
-6.319728 -27.495542 4.734789
-6.318088 -27.482664 4.734789
-6.210348 -27.140392 4.734789
-6.061817 -26.798119 4.734789
-5.956207 -26.586677 4.734789
-5.881579 -26.455846 4.734789
-5.664232 -26.113573 4.734789
-5.592687 -26.013078 4.734789
-5.374585 -25.771301 4.734789
-5.229166 -25.639747 4.734789
-4.912421 -25.429028 4.734789
-4.865646 -25.404270 4.734789
-4.502125 -25.257978 4.734789
-4.138605 -25.153016 4.734789
-3.793313 -25.086755 4.734789
-3.775084 -25.083666 4.734789
-3.411564 -25.057792 4.734789
-3.048043 -25.075925 4.734789
-2.989372 -25.086755 4.734789
-2.684523 -25.157709 4.734789
-2.321002 -25.308858 4.734789
-2.110547 -25.429028 4.734789
-1.957482 -25.551613 4.734789
-1.731906 -25.771301 4.734789
-1.593961 -25.985058 4.734789
-1.519272 -26.113573 4.734789
-1.398195 -26.455846 4.734789
-1.328777 -26.798119 4.734789
-1.290899 -27.140392 4.734789
-1.274857 -27.482664 4.734789
-1.280497 -27.824937 4.734789
-1.315133 -28.167210 4.734789
-1.388961 -28.509483 4.734789
-1.506079 -28.851756 4.734789
-1.593961 -29.054424 4.734789
-1.640757 -29.194028 4.734789
-1.770850 -29.536301 4.734789
-1.910801 -29.878574 4.734789
-1.957482 -29.978186 4.734789
-2.059082 -30.220847 4.734789
-2.242752 -30.563119 4.734789
-2.321002 -30.670265 4.734789
-2.524510 -30.905392 4.734789
-3.132484 -30.905392 5.001344
-3.411564 -30.922704 5.001344
-3.488020 -30.905392 5.001344
-3.775084 -30.835501 5.001344
-4.138605 -30.678084 5.001344
-4.349830 -30.563119 5.001344
-4.502125 -30.472366 5.001344
-4.858226 -30.220847 5.001344
-4.865646 -30.215149 5.001344
-5.229166 -29.883973 5.001344
-5.234241 -29.878574 5.001344
-5.525903 -29.536301 5.001344
-5.592687 -29.449528 5.001344
-5.763304 -29.194028 5.001344
-5.956207 -28.861696 5.001344
-5.961365 -28.851756 5.001344
-6.110100 -28.509483 5.001344
-6.208921 -28.167210 5.001344
-6.246585 -27.824937 5.001344
-6.220397 -27.482664 5.001344
-6.137390 -27.140392 5.001344
-6.010471 -26.798119 5.001344
-5.956207 -26.679179 5.001344
-5.841435 -26.455846 5.001344
-5.629790 -26.113573 5.001344
-5.592687 -26.061444 5.001344
-5.328665 -25.771301 5.001344
-5.229166 -25.682789 5.001344
-4.865646 -25.447742 5.001344
-4.825744 -25.429028 5.001344
-4.502125 -25.299863 5.001344
-4.138605 -25.197553 5.001344
-3.775084 -25.130294 5.001344
-3.411564 -25.099278 5.001344
-3.048043 -25.111808 5.001344
-2.684523 -25.176695 5.001344
-2.321002 -25.298362 5.001344
-2.045525 -25.429028 5.001344
-1.957482 -25.484766 5.001344
-1.599114 -25.771301 5.001344
-1.593961 -25.777496 5.001344
-1.348406 -26.113573 5.001344
-1.230441 -26.374545 5.001344
-1.193844 -26.455846 5.001344
-1.089529 -26.798119 5.001344
-1.018271 -27.140392 5.001344
-0.983213 -27.482664 5.001344
-1.004042 -27.824937 5.001344
-1.113412 -28.167210 5.001344
-1.230441 -28.355932 5.001344
-1.290477 -28.509483 5.001344
-1.480509 -28.851756 5.001344
-1.593961 -29.017731 5.001344
-1.684213 -29.194028 5.001344
-1.881957 -29.536301 5.001344
-1.957482 -29.660569 5.001344
-2.076236 -29.878574 5.001344
-2.280628 -30.220847 5.001344
-2.321002 -30.279453 5.001344
-2.544790 -30.563119 5.001344
-2.684523 -30.697870 5.001344
-3.048043 -30.898187 5.001344
-3.132484 -30.905392 5.001344
2.404764 -27.887653 5.267899
2.041243 -27.915630 5.267899
1.677723 -27.954994 5.267899
1.314202 -28.011416 5.267899
0.950682 -28.082408 5.267899
0.587161 -28.122488 5.267899
0.223641 -28.000053 5.267899
-0.066497 -27.824937 5.267899
0.223641 -27.748469 5.267899
0.587161 -27.687165 5.267899
0.950682 -27.657797 5.267899
1.314202 -27.645773 5.267899
1.677723 -27.641843 5.267899
2.041243 -27.641611 5.267899
2.404764 -27.646123 5.267899
-2.973178 -30.563119 5.267899
-3.048043 -30.600761 5.267899
-3.411564 -30.660364 5.267899
-3.775084 -30.613041 5.267899
-3.922813 -30.563119 5.267899
-4.138605 -30.491542 5.267899
-4.502125 -30.312020 5.267899
-4.647463 -30.220847 5.267899
-4.865646 -30.075469 5.267899
-5.100088 -29.878574 5.267899
-5.229166 -29.759538 5.267899
-5.428605 -29.536301 5.267899
-5.592687 -29.325387 5.267899
-5.681423 -29.194028 5.267899
-5.879607 -28.851756 5.267899
-5.956207 -28.681331 5.267899
-6.029543 -28.509483 5.267899
-6.128923 -28.167210 5.267899
-6.172103 -27.824937 5.267899
-6.157751 -27.482664 5.267899
-6.089431 -27.140392 5.267899
-5.974079 -26.798119 5.267899
-5.956207 -26.756889 5.267899
-5.810827 -26.455846 5.267899
-5.595618 -26.113573 5.267899
-5.592687 -26.109549 5.267899
-5.274742 -25.771301 5.267899
-5.229166 -25.731975 5.267899
-4.865646 -25.500622 5.267899
-4.702595 -25.429028 5.267899
-4.502125 -25.351113 5.267899
-4.138605 -25.251088 5.267899
-3.775084 -25.186389 5.267899
-3.411564 -25.155143 5.267899
-3.048043 -25.161149 5.267899
-2.684523 -25.210239 5.267899
-2.321002 -25.305878 5.267899
-1.999899 -25.429028 5.267899
-1.957482 -25.449822 5.267899
-1.593961 -25.678152 5.267899
-1.474090 -25.771301 5.267899
-1.230441 -26.041512 5.267899
-1.173396 -26.113573 5.267899
-0.975881 -26.455846 5.267899
-0.866920 -26.714805 5.267899
-0.824318 -26.798119 5.267899
-0.673748 -27.140392 5.267899
-0.532766 -27.482664 5.267899
-0.510700 -27.824937 5.267899
-0.866920 -28.132697 5.267899
-0.885315 -28.167210 5.267899
-1.203712 -28.509483 5.267899
-1.230441 -28.530716 5.267899
-1.459790 -28.851756 5.267899
-1.593961 -29.005390 5.267899
-1.715235 -29.194028 5.267899
-1.957482 -29.518079 5.267899
-1.969788 -29.536301 5.267899
-2.217629 -29.878574 5.267899
-2.321002 -30.009393 5.267899
-2.512012 -30.220847 5.267899
-2.684523 -30.388619 5.267899
-2.973178 -30.563119 5.267899
2.404764 -27.943886 5.534453
2.041243 -28.030714 5.534453
1.677723 -28.152768 5.534453
1.638081 -28.167210 5.534453
1.314202 -28.221447 5.534453
0.950682 -28.282750 5.534453
0.587161 -28.324821 5.534453
0.223641 -28.314329 5.534453
-0.139880 -28.242689 5.534453
-0.503400 -28.185376 5.534453
-0.866920 -28.271231 5.534453
-1.144615 -28.509483 5.534453
-1.230441 -28.566476 5.534453
-1.461823 -28.851756 5.534453
-1.593961 -28.986491 5.534453
-1.743184 -29.194028 5.534453
-1.957482 -29.446594 5.534453
-2.027531 -29.536301 5.534453
-2.321002 -29.865971 5.534453
-2.333877 -29.878574 5.534453
-2.684523 -30.192185 5.534453
-2.733823 -30.220847 5.534453
-3.048043 -30.391962 5.534453
-3.411564 -30.465495 5.534453
-3.775084 -30.441578 5.534453
-4.138605 -30.343392 5.534453
-4.413655 -30.220847 5.534453
-4.502125 -30.182611 5.534453
-4.865646 -29.959841 5.534453
-4.968442 -29.878574 5.534453
-5.229166 -29.652292 5.534453
-5.337472 -29.536301 5.534453
-5.592687 -29.216048 5.534453
-5.608013 -29.194028 5.534453
-5.815648 -28.851756 5.534453
-5.956207 -28.534184 5.534453
-5.966901 -28.509483 5.534453
-6.071357 -28.167210 5.534453
-6.120428 -27.824937 5.534453
-6.114202 -27.482664 5.534453
-6.054364 -27.140392 5.534453
-5.956207 -26.834686 5.534453
-5.943879 -26.798119 5.534453
-5.781270 -26.455846 5.534453
-5.592687 -26.164508 5.534453
-5.552033 -26.113573 5.534453
-5.229166 -25.790803 5.534453
-5.202140 -25.771301 5.534453
-4.865646 -25.561448 5.534453
-4.541308 -25.429028 5.534453
-4.502125 -25.414296 5.534453
-4.138605 -25.316001 5.534453
-3.775084 -25.254008 5.534453
-3.411564 -25.223733 5.534453
-3.048043 -25.225821 5.534453
-2.684523 -25.263153 5.534453
-2.321002 -25.337706 5.534453
-2.018539 -25.429028 5.534453
-1.957482 -25.451790 5.534453
-1.593961 -25.630679 5.534453
-1.374407 -25.771301 5.534453
-1.230441 -25.899112 5.534453
-1.025801 -26.113573 5.534453
-0.866920 -26.337781 5.534453
-0.783643 -26.455846 5.534453
-0.562321 -26.798119 5.534453
-0.503400 -26.900486 5.534453
-0.252883 -27.140392 5.534453
-0.139880 -27.237996 5.534453
0.223641 -27.357990 5.534453
0.587161 -27.402842 5.534453
0.950682 -27.431499 5.534453
1.314202 -27.454702 5.534453
1.677723 -27.474751 5.534453
1.832712 -27.482664 5.534453
2.041243 -27.516756 5.534453
2.404764 -27.589107 5.534453
2.404764 -27.887698 5.801008
2.041243 -28.024001 5.801008
1.744340 -28.167210 5.801008
1.677723 -28.181029 5.801008
1.314202 -28.255869 5.801008
0.950682 -28.325070 5.801008
0.587161 -28.361733 5.801008
0.223641 -28.333651 5.801008
-0.139880 -28.245768 5.801008
-0.503400 -28.177969 5.801008
-0.866920 -28.246510 5.801008
-1.199691 -28.509483 5.801008
-1.230441 -28.528888 5.801008
-1.500146 -28.851756 5.801008
-1.593961 -28.944619 5.801008
-1.779543 -29.194028 5.801008
-1.957482 -29.392720 5.801008
-2.078142 -29.536301 5.801008
-2.321002 -29.784571 5.801008
-2.429912 -29.878574 5.801008
-2.684523 -30.078826 5.801008
-2.974722 -30.220847 5.801008
-3.048043 -30.255501 5.801008
-3.411564 -30.331949 5.801008
-3.775084 -30.316494 5.801008
-4.138605 -30.225566 5.801008
-4.149777 -30.220847 5.801008
-4.502125 -30.079323 5.801008
-4.830325 -29.878574 5.801008
-4.865646 -29.856317 5.801008
-5.229166 -29.549247 5.801008
-5.241717 -29.536301 5.801008
-5.534431 -29.194028 5.801008
-5.592687 -29.108832 5.801008
-5.754794 -28.851756 5.801008
-5.912604 -28.509483 5.801008
-5.956207 -28.367817 5.801008
-6.020793 -28.167210 5.801008
-6.076312 -27.824937 5.801008
-6.076067 -27.482664 5.801008
-6.020655 -27.140392 5.801008
-5.956207 -26.935095 5.801008
-5.911539 -26.798119 5.801008
-5.743489 -26.455846 5.801008
-5.592687 -26.232170 5.801008
-5.493220 -26.113573 5.801008
-5.229166 -25.862388 5.801008
-5.093561 -25.771301 5.801008
-4.865646 -25.635696 5.801008
-4.502125 -25.491564 5.801008
-4.256020 -25.429028 5.801008
-4.138605 -25.398639 5.801008
-3.775084 -25.339997 5.801008
-3.411564 -25.312634 5.801008
-3.048043 -25.314241 5.801008
-2.684523 -25.344627 5.801008
-2.321002 -25.403634 5.801008
-2.209686 -25.429028 5.801008
-1.957482 -25.498300 5.801008
-1.593961 -25.640546 5.801008
-1.346378 -25.771301 5.801008
-1.230441 -25.854704 5.801008
-0.939212 -26.113573 5.801008
-0.866920 -26.201026 5.801008
-0.663367 -26.455846 5.801008
-0.503400 -26.675970 5.801008
-0.393200 -26.798119 5.801008
-0.139880 -27.043402 5.801008
0.050433 -27.140392 5.801008
0.223641 -27.224725 5.801008
0.587161 -27.326322 5.801008
0.950682 -27.389875 5.801008
1.314202 -27.439655 5.801008
1.677723 -27.482614 5.801008
1.678162 -27.482664 5.801008
2.041243 -27.599683 5.801008
2.404764 -27.735509 5.801008
-3.372582 -30.220847 6.067563
-3.411564 -30.228208 6.067563
-3.581835 -30.220847 6.067563
-3.775084 -30.213983 6.067563
-4.138605 -30.133214 6.067563
-4.502125 -29.982688 6.067563
-4.674190 -29.878574 6.067563
-4.865646 -29.760154 6.067563
-5.133560 -29.536301 6.067563
-5.229166 -29.445763 6.067563
-5.452012 -29.194028 6.067563
-5.592687 -28.992871 6.067563
-5.685073 -28.851756 6.067563
-5.854761 -28.509483 6.067563
-5.956207 -28.191684 6.067563
-5.964587 -28.167210 6.067563
-6.027462 -27.824937 6.067563
-6.031904 -27.482664 6.067563
-5.977842 -27.140392 6.067563
-5.956207 -27.071352 6.067563
-5.867839 -26.798119 6.067563
-5.687663 -26.455846 6.067563
-5.592687 -26.321605 6.067563
-5.407411 -26.113573 6.067563
-5.229166 -25.952971 6.067563
-4.936338 -25.771301 6.067563
-4.865646 -25.731436 6.067563
-4.502125 -25.587848 6.067563
-4.138605 -25.501182 6.067563
-3.775084 -25.453240 6.067563
-3.411564 -25.434455 6.067563
-3.048043 -25.440244 6.067563
-2.684523 -25.469278 6.067563
-2.321002 -25.522803 6.067563
-1.957482 -25.604666 6.067563
-1.593961 -25.721807 6.067563
-1.479242 -25.771301 6.067563
-1.230441 -25.916749 6.067563
-0.974607 -26.113573 6.067563
-0.866920 -26.228511 6.067563
-0.668960 -26.455846 6.067563
-0.503400 -26.677043 6.067563
-0.394812 -26.798119 6.067563
-0.139880 -27.059017 6.067563
0.001751 -27.140392 6.067563
0.223641 -27.264811 6.067563
0.587161 -27.372395 6.067563
0.950682 -27.443936 6.067563
1.166643 -27.482664 6.067563
1.314202 -27.536719 6.067563
1.677723 -27.681026 6.067563
2.015275 -27.824937 6.067563
1.677723 -28.020722 6.067563
1.435682 -28.167210 6.067563
1.314202 -28.194806 6.067563
0.950682 -28.252331 6.067563
0.587161 -28.263785 6.067563
0.223641 -28.206421 6.067563
0.081331 -28.167210 6.067563
-0.139880 -28.054432 6.067563
-0.503400 -27.969888 6.067563
-0.866920 -28.077345 6.067563
-0.948029 -28.167210 6.067563
-1.230441 -28.394513 6.067563
-1.302860 -28.509483 6.067563
-1.583360 -28.851756 6.067563
-1.593961 -28.862575 6.067563
-1.835147 -29.194028 6.067563
-1.957482 -29.330106 6.067563
-2.134641 -29.536301 6.067563
-2.321002 -29.718061 6.067563
-2.521863 -29.878574 6.067563
-2.684523 -29.996003 6.067563
-3.048043 -30.161992 6.067563
-3.372582 -30.220847 6.067563
-2.627805 -29.878574 6.334117
-2.684523 -29.917310 6.334117
-3.048043 -30.081950 6.334117
-3.411564 -30.145061 6.334117
-3.775084 -30.128627 6.334117
-4.138605 -30.041542 6.334117
-4.501950 -29.878574 6.334117
-4.502125 -29.878499 6.334117
-4.865646 -29.653205 6.334117
-5.006552 -29.536301 6.334117
-5.229166 -29.328015 6.334117
-5.350676 -29.194028 6.334117
-5.592687 -28.856808 6.334117
-5.596135 -28.851756 6.334117
-5.782678 -28.509483 6.334117
-5.901096 -28.167210 6.334117
-5.956207 -27.860173 6.334117
-5.963418 -27.824937 6.334117
-5.971664 -27.482664 6.334117
-5.956207 -27.382937 6.334117
-5.919962 -27.140392 6.334117
-5.803214 -26.798119 6.334117
-5.602566 -26.455846 6.334117
-5.592687 -26.442606 6.334117
-5.278414 -26.113573 6.334117
-5.229166 -26.071780 6.334117
-4.865646 -25.850222 6.334117
-4.652676 -25.771301 6.334117
-4.502125 -25.715085 6.334117
-4.138605 -25.633164 6.334117
-3.775084 -25.594785 6.334117
-3.411564 -25.589420 6.334117
-3.048043 -25.611149 6.334117
-2.684523 -25.656189 6.334117
-2.321002 -25.721336 6.334117
-2.088505 -25.771301 6.334117
-1.957482 -25.807209 6.334117
-1.593961 -25.936426 6.334117
-1.250013 -26.113573 6.334117
-1.230441 -26.129699 6.334117
-0.892427 -26.455846 6.334117
-0.866920 -26.500171 6.334117
-0.673425 -26.798119 6.334117
-0.538716 -27.140392 6.334117
-0.636638 -27.482664 6.334117
-0.866920 -27.628989 6.334117
-0.982894 -27.824937 6.334117
-1.230441 -28.105100 6.334117
-1.256689 -28.167210 6.334117
-1.454086 -28.509483 6.334117
-1.593961 -28.695417 6.334117
-1.676443 -28.851756 6.334117
-1.919952 -29.194028 6.334117
-1.957482 -29.237209 6.334117
-2.209860 -29.536301 6.334117
-2.321002 -29.643284 6.334117
-2.627805 -29.878574 6.334117
-2.788519 -29.878574 6.600672
-3.048043 -29.993491 6.600672
-3.411564 -30.056000 6.600672
-3.775084 -30.034501 6.600672
-4.138605 -29.936654 6.600672
-4.262426 -29.878574 6.600672
-4.502125 -29.771754 6.600672
-4.850489 -29.536301 6.600672
-4.865646 -29.525343 6.600672
-5.221237 -29.194028 6.600672
-5.229166 -29.185051 6.600672
-5.492037 -28.851756 6.600672
-5.592687 -28.674347 6.600672
-5.687027 -28.509483 6.600672
-5.818280 -28.167210 6.600672
-5.886066 -27.824937 6.600672
-5.894444 -27.482664 6.600672
-5.838934 -27.140392 6.600672
-5.706432 -26.798119 6.600672
-5.592687 -26.614733 6.600672
-5.471983 -26.455846 6.600672
-5.229166 -26.223097 6.600672
-5.059765 -26.113573 6.600672
-4.865646 -26.001417 6.600672
-4.502125 -25.873205 6.600672
-4.138605 -25.809637 6.600672
-3.775084 -25.791264 6.600672
-3.411564 -25.808270 6.600672
-3.048043 -25.856861 6.600672
-2.684523 -25.937644 6.600672
-2.321002 -26.054539 6.600672
-2.158213 -26.113573 6.600672
-1.957482 -26.216659 6.600672
-1.613911 -26.455846 6.600672
-1.593961 -26.483448 6.600672
-1.371576 -26.798119 6.600672
-1.311830 -27.140392 6.600672
-1.333618 -27.482664 6.600672
-1.402725 -27.824937 6.600672
-1.515066 -28.167210 6.600672
-1.593961 -28.328931 6.600672
-1.650448 -28.509483 6.600672
-1.809496 -28.851756 6.600672
-1.957482 -29.076785 6.600672
-2.027866 -29.194028 6.600672
-2.316627 -29.536301 6.600672
-2.321002 -29.540570 6.600672
-2.684523 -29.828763 6.600672
-2.788519 -29.878574 6.600672
-3.042673 -29.878574 6.867227
-3.048043 -29.880842 6.867227
-3.411564 -29.945754 6.867227
-3.775084 -29.918291 6.867227
-3.905756 -29.878574 6.867227
-4.138605 -29.815316 6.867227
-4.502125 -29.639040 6.867227
-4.650430 -29.536301 6.867227
-4.865646 -29.378097 6.867227
-5.063627 -29.194028 6.867227
-5.229166 -29.008651 6.867227
-5.356212 -28.851756 6.867227
-5.561353 -28.509483 6.867227
-5.592687 -28.431096 6.867227
-5.705126 -28.167210 6.867227
-5.780228 -27.824937 6.867227
-5.787471 -27.482664 6.867227
-5.720582 -27.140392 6.867227
-5.592687 -26.857048 6.867227
-5.561650 -26.798119 6.867227
-5.270070 -26.455846 6.867227
-5.229166 -26.419601 6.867227
-4.865646 -26.196521 6.867227
-4.609102 -26.113573 6.867227
-4.502125 -26.078859 6.867227
-4.138605 -26.027802 6.867227
-3.775084 -26.034878 6.867227
-3.411564 -26.093983 6.867227
-3.339380 -26.113573 6.867227
-3.048043 -26.193068 6.867227
-2.684523 -26.350769 6.867227
-2.504133 -26.455846 6.867227
-2.321002 -26.597876 6.867227
-2.113295 -26.798119 6.867227
-1.957482 -27.069209 6.867227
-1.916512 -27.140392 6.867227
-1.803081 -27.482664 6.867227
-1.768987 -27.824937 6.867227
-1.789719 -28.167210 6.867227
-1.863157 -28.509483 6.867227
-1.957482 -28.749159 6.867227
-1.991169 -28.851756 6.867227
-2.172991 -29.194028 6.867227
-2.321002 -29.381957 6.867227
-2.466926 -29.536301 6.867227
-2.684523 -29.711662 6.867227
-3.042673 -29.878574 6.867227
-2.684225 -29.536301 7.133781
-2.684523 -29.536549 7.133781
-3.048043 -29.737208 7.133781
-3.411564 -29.805768 7.133781
-3.775084 -29.777934 7.133781
-4.138605 -29.666753 7.133781
-4.381922 -29.536301 7.133781
-4.502125 -29.471416 7.133781
-4.860523 -29.194028 7.133781
-4.865646 -29.189458 7.133781
-5.177658 -28.851756 7.133781
-5.229166 -28.777462 7.133781
-5.406118 -28.509483 7.133781
-5.552519 -28.167210 7.133781
-5.592687 -27.981752 7.133781
-5.630821 -27.824937 7.133781
-5.633123 -27.482664 7.133781
-5.592687 -27.314494 7.133781
-5.546516 -27.140392 7.133781
-5.339291 -26.798119 7.133781
-5.229166 -26.683203 7.133781
-4.884702 -26.455846 7.133781
-4.865646 -26.445441 7.133781
-4.502125 -26.333372 7.133781
-4.138605 -26.307304 7.133781
-3.775084 -26.350054 7.133781
-3.430482 -26.455846 7.133781
-3.411564 -26.461495 7.133781
-3.048043 -26.632576 7.133781
-2.814097 -26.798119 7.133781
-2.684523 -26.912049 7.133781
-2.473896 -27.140392 7.133781
-2.321002 -27.399344 7.133781
-2.272957 -27.482664 7.133781
-2.150203 -27.824937 7.133781
-2.103735 -28.167210 7.133781
-2.120384 -28.509483 7.133781
-2.205303 -28.851756 7.133781
-2.321002 -29.088658 7.133781
-2.377194 -29.194028 7.133781
-2.684225 -29.536301 7.133781
-3.100438 -29.536301 7.400336
-3.411564 -29.614202 7.400336
-3.775084 -29.588820 7.400336
-3.927662 -29.536301 7.400336
-4.138605 -29.466843 7.400336
-4.502125 -29.256528 7.400336
-4.581091 -29.194028 7.400336
-4.865646 -28.937563 7.400336
-4.945843 -28.851756 7.400336
-5.192153 -28.509483 7.400336
-5.229166 -28.431048 7.400336
-5.353425 -28.167210 7.400336
-5.428649 -27.824937 7.400336
-5.412851 -27.482664 7.400336
-5.279642 -27.140392 7.400336
-5.229166 -27.072022 7.400336
-4.909493 -26.798119 7.400336
-4.865646 -26.771916 7.400336
-4.502125 -26.665656 7.400336
-4.138605 -26.665437 7.400336
-3.775084 -26.752068 7.400336
-3.674543 -26.798119 7.400336
-3.411564 -26.921288 7.400336
-3.110293 -27.140392 7.400336
-3.048043 -27.195043 7.400336
-2.790209 -27.482664 7.400336
-2.684523 -27.656038 7.400336
-2.587731 -27.824937 7.400336
-2.475502 -28.167210 7.400336
-2.443315 -28.509483 7.400336
-2.495185 -28.851756 7.400336
-2.658908 -29.194028 7.400336
-2.684523 -29.226337 7.400336
-3.048043 -29.519919 7.400336
-3.100438 -29.536301 7.400336
-3.169342 -29.194028 7.666891
-3.411564 -29.306170 7.666891
-3.775084 -29.307720 7.666891
-4.114442 -29.194028 7.666891
-4.138605 -29.185425 7.666891
-4.502125 -28.940470 7.666891
-4.599285 -28.851756 7.666891
-4.865646 -28.542289 7.666891
-4.890354 -28.509483 7.666891
-5.054627 -28.167210 7.666891
-5.114423 -27.824937 7.666891
-5.034895 -27.482664 7.666891
-4.865646 -27.275686 7.666891
-4.581847 -27.140392 7.666891
-4.502125 -27.116266 7.666891
-4.138605 -27.135336 7.666891
-4.125017 -27.140392 7.666891
-3.775084 -27.274679 7.666891
-3.464595 -27.482664 7.666891
-3.411564 -27.526229 7.666891
-3.145562 -27.824937 7.666891
-3.048043 -27.989590 7.666891
-2.954554 -28.167210 7.666891
-2.875276 -28.509483 7.666891
-2.912253 -28.851756 7.666891
-3.048043 -29.090035 7.666891
-3.169342 -29.194028 7.666891
-3.692300 -28.509483 7.933445
-3.775084 -28.619088 7.933445
-4.138605 -28.575526 7.933445
-4.216472 -28.509483 7.933445
-4.395544 -28.167210 7.933445
-4.138605 -27.971826 7.933445
-3.775770 -28.167210 7.933445
-3.775084 -28.168429 7.933445
-3.692300 -28.509483 7.933445
