ply
format ascii 1.0
element vertex 1633
property float x
property float y
property float z
end_header
-3.620185 -28.167210 0.203360
-3.775084 -28.243515 0.203360
-4.138605 -28.329556 0.203360
-4.502125 -28.246881 0.203360
-4.579092 -28.167210 0.203360
-4.639416 -27.824937 0.203360
-4.502125 -27.587624 0.203360
-4.259081 -27.482664 0.203360
-4.138605 -27.455344 0.203360
-3.945433 -27.482664 0.203360
-3.775084 -27.559543 0.203360
-3.509325 -27.824937 0.203360
-3.620185 -28.167210 0.203360
-3.282504 -28.509483 0.469915
-3.411564 -28.564525 0.469915
-3.775084 -28.679753 0.469915
-4.138605 -28.738453 0.469915
-4.502125 -28.720741 0.469915
-4.865646 -28.590774 0.469915
-4.956899 -28.509483 0.469915
-5.201837 -28.167210 0.469915
-5.229166 -27.904414 0.469915
-5.232687 -27.824937 0.469915
-5.229166 -27.811635 0.469915
-5.048079 -27.482664 0.469915
-4.865646 -27.278969 0.469915
-4.590405 -27.140392 0.469915
-4.502125 -27.105828 0.469915
-4.138605 -27.083086 0.469915
-3.775084 -27.131487 0.469915
-3.736467 -27.140392 0.469915
-3.411564 -27.311118 0.469915
-3.165611 -27.482664 0.469915
-3.048043 -27.712188 0.469915
-2.996336 -27.824937 0.469915
-3.011891 -28.167210 0.469915
-3.048043 -28.222741 0.469915
-3.282504 -28.509483 0.469915
-3.061581 -28.851756 0.736470
-3.411564 -28.950950 0.736470
-3.775084 -29.008512 0.736470
-4.138605 -29.034826 0.736470
-4.502125 -29.024944 0.736470
-4.865646 -28.954925 0.736470
-5.079542 -28.851756 0.736470
-5.229166 -28.762510 0.736470
-5.442476 -28.509483 0.736470
-5.592687 -28.246692 0.736470
-5.617364 -28.167210 0.736470
-5.627951 -27.824937 0.736470
-5.592687 -27.685784 0.736470
-5.496035 -27.482664 0.736470
-5.240276 -27.140392 0.736470
-5.229166 -27.128071 0.736470
-4.865646 -26.915690 0.736470
-4.502125 -26.811232 0.736470
-4.147087 -26.798119 0.736470
-4.138605 -26.797875 0.736470
-4.135624 -26.798119 0.736470
-3.775084 -26.857538 0.736470
-3.411564 -26.978435 0.736470
-3.073023 -27.140392 0.736470
-3.048043 -27.167162 0.736470
-2.790405 -27.482664 0.736470
-2.684523 -27.766574 0.736470
-2.666960 -27.824937 0.736470
-2.643521 -28.167210 0.736470
-2.684523 -28.361846 0.736470
-2.725318 -28.509483 0.736470
-3.048043 -28.841879 0.736470
-3.061581 -28.851756 0.736470
-2.868501 -29.194028 1.003024
-3.048043 -29.256587 1.003024
-3.411564 -29.310956 1.003024
-3.775084 -29.318818 1.003024
-4.138605 -29.309119 1.003024
-4.502125 -29.286561 1.003024
-4.865646 -29.233900 1.003024
-4.981925 -29.194028 1.003024
-5.229166 -29.096416 1.003024
-5.575336 -28.851756 1.003024
-5.592687 -28.837641 1.003024
-5.816514 -28.509483 1.003024
-5.956207 -28.213457 1.003024
-5.969462 -28.167210 1.003024
-5.978159 -27.824937 1.003024
-5.956207 -27.735143 1.003024
-5.852338 -27.482664 1.003024
-5.627025 -27.140392 1.003024
-5.592687 -27.095961 1.003024
-5.229166 -26.800317 1.003024
-5.224062 -26.798119 1.003024
-4.865646 -26.652802 1.003024
-4.502125 -26.586418 1.003024
-4.138605 -26.580118 1.003024
-3.775084 -26.618684 1.003024
-3.411564 -26.697556 1.003024
-3.108966 -26.798119 1.003024
-3.048043 -26.841183 1.003024
-2.710396 -27.140392 1.003024
-2.684523 -27.186259 1.003024
-2.543246 -27.482664 1.003024
-2.444831 -27.824937 1.003024
-2.389125 -28.167210 1.003024
-2.395379 -28.509483 1.003024
-2.512437 -28.851756 1.003024
-2.684523 -29.049746 1.003024
-2.868501 -29.194028 1.003024
-2.668032 -29.536301 1.269579
-2.684523 -29.545041 1.269579
-3.048043 -29.649550 1.269579
-3.411564 -29.665961 1.269579
-3.775084 -29.630776 1.269579
-4.138605 -29.584301 1.269579
-4.502125 -29.538805 1.269579
-4.516201 -29.536301 1.269579
-4.865646 -29.462244 1.269579
-5.229166 -29.346786 1.269579
-5.513175 -29.194028 1.269579
-5.592687 -29.148826 1.269579
-5.902814 -28.851756 1.269579
-5.956207 -28.795119 1.269579
-6.123315 -28.509483 1.269579
-6.257140 -28.167210 1.269579
-6.270042 -27.824937 1.269579
-6.151569 -27.482664 1.269579
-5.956207 -27.142469 1.269579
-5.954279 -27.140392 1.269579
-5.605639 -26.798119 1.269579
-5.592687 -26.784976 1.269579
-5.229166 -26.560923 1.269579
-4.949717 -26.455846 1.269579
-4.865646 -26.426063 1.269579
-4.502125 -26.373141 1.269579
-4.138605 -26.361819 1.269579
-3.775084 -26.379932 1.269579
-3.411564 -26.428168 1.269579
-3.289834 -26.455846 1.269579
-3.048043 -26.566930 1.269579
-2.701188 -26.798119 1.269579
-2.684523 -26.820816 1.269579
-2.487110 -27.140392 1.269579
-2.357590 -27.482664 1.269579
-2.321002 -27.611063 1.269579
-2.273178 -27.824937 1.269579
-2.207999 -28.167210 1.269579
-2.170185 -28.509483 1.269579
-2.195132 -28.851756 1.269579
-2.316536 -29.194028 1.269579
-2.321002 -29.199466 1.269579
-2.668032 -29.536301 1.269579
-2.573647 -29.878574 1.536134
-2.684523 -29.934036 1.536134
-3.048043 -30.023110 1.536134
-3.411564 -30.012605 1.536134
-3.775084 -29.944259 1.536134
-4.067765 -29.878574 1.536134
-4.138605 -29.857060 1.536134
-4.502125 -29.753965 1.536134
-4.865646 -29.666714 1.536134
-5.229166 -29.562026 1.536134
-5.282155 -29.536301 1.536134
-5.592687 -29.378954 1.536134
-5.829490 -29.194028 1.536134
-5.956207 -29.095012 1.536134
-6.158043 -28.851756 1.536134
-6.319728 -28.637953 1.536134
-6.387165 -28.509483 1.536134
-6.499802 -28.167210 1.536134
-6.511315 -27.824937 1.536134
-6.412508 -27.482664 1.536134
-6.319728 -27.304975 1.536134
-6.194933 -27.140392 1.536134
-5.956207 -26.857317 1.536134
-5.880749 -26.798119 1.536134
-5.592687 -26.559460 1.536134
-5.401701 -26.455846 1.536134
-5.229166 -26.358385 1.536134
-4.865646 -26.241242 1.536134
-4.502125 -26.176567 1.536134
-4.138605 -26.147596 1.536134
-3.775084 -26.150147 1.536134
-3.411564 -26.196969 1.536134
-3.048043 -26.309384 1.536134
-2.757980 -26.455846 1.536134
-2.684523 -26.530648 1.536134
-2.471590 -26.798119 1.536134
-2.321002 -27.137422 1.536134
-2.319881 -27.140392 1.536134
-2.237278 -27.482664 1.536134
-2.155256 -27.824937 1.536134
-2.063676 -28.167210 1.536134
-1.984269 -28.509483 1.536134
-1.959362 -28.851756 1.536134
-2.026624 -29.194028 1.536134
-2.203961 -29.536301 1.536134
-2.321002 -29.659714 1.536134
-2.573647 -29.878574 1.536134
-2.540768 -30.220847 1.802688
-2.684523 -30.289649 1.802688
-3.048043 -30.366947 1.802688
-3.411564 -30.340003 1.802688
-3.775084 -30.250783 1.802688
-3.870446 -30.220847 1.802688
-4.138605 -30.107477 1.802688
-4.502125 -29.978691 1.802688
-4.845840 -29.878574 1.802688
-4.865646 -29.871828 1.802688
-5.229166 -29.735461 1.802688
-5.592687 -29.568107 1.802688
-5.636511 -29.536301 1.802688
-5.956207 -29.309791 1.802688
-6.067436 -29.194028 1.802688
-6.319728 -28.937494 1.802688
-6.379873 -28.851756 1.802688
-6.589282 -28.509483 1.802688
-6.683248 -28.276914 1.802688
-6.716124 -28.167210 1.802688
-6.727120 -27.824937 1.802688
-6.683248 -27.651490 1.802688
-6.623837 -27.482664 1.802688
-6.410952 -27.140392 1.802688
-6.319728 -27.016103 1.802688
-6.098789 -26.798119 1.802688
-5.956207 -26.649682 1.802688
-5.690874 -26.455846 1.802688
-5.592687 -26.376356 1.802688
-5.229166 -26.185657 1.802688
-5.016615 -26.113573 1.802688
-4.865646 -26.065897 1.802688
-4.502125 -26.002498 1.802688
-4.138605 -25.966782 1.802688
-3.775084 -25.955249 1.802688
-3.411564 -25.979512 1.802688
-3.048043 -26.058563 1.802688
-2.905284 -26.113573 1.802688
-2.684523 -26.275154 1.802688
-2.495436 -26.455846 1.802688
-2.321002 -26.772547 1.802688
-2.308740 -26.798119 1.802688
-2.221881 -27.140392 1.802688
-2.151579 -27.482664 1.802688
-2.062565 -27.824937 1.802688
-1.957482 -28.131905 1.802688
-1.948431 -28.167210 1.802688
-1.860175 -28.509483 1.802688
-1.806003 -28.851756 1.802688
-1.818223 -29.194028 1.802688
-1.915458 -29.536301 1.802688
-1.957482 -29.603528 1.802688
-2.138660 -29.878574 1.802688
-2.321002 -30.050341 1.802688
-2.540768 -30.220847 1.802688
-2.586733 -30.563119 2.069243
-2.684523 -30.607778 2.069243
-3.048043 -30.675278 2.069243
-3.411564 -30.639978 2.069243
-3.685940 -30.563119 2.069243
-3.775084 -30.528387 2.069243
-4.138605 -30.357324 2.069243
-4.475216 -30.220847 2.069243
-4.502125 -30.206878 2.069243
-4.865646 -30.041477 2.069243
-5.229166 -29.899765 2.069243
-5.272267 -29.878574 2.069243
-5.592687 -29.714764 2.069243
-5.853411 -29.536301 2.069243
-5.956207 -29.469614 2.069243
-6.248333 -29.194028 2.069243
-6.319728 -29.129042 2.069243
-6.533987 -28.851756 2.069243
-6.683248 -28.637787 2.069243
-6.751192 -28.509483 2.069243
-6.864371 -28.167210 2.069243
-6.878030 -27.824937 2.069243
-6.782162 -27.482664 2.069243
-6.683248 -27.295127 2.069243
-6.574048 -27.140392 2.069243
-6.319728 -26.828538 2.069243
-6.284888 -26.798119 2.069243
-5.956207 -26.492938 2.069243
-5.899328 -26.455846 2.069243
-5.592687 -26.229763 2.069243
-5.368916 -26.113573 2.069243
-5.229166 -26.039051 2.069243
-4.865646 -25.916989 2.069243
-4.502125 -25.831710 2.069243
-4.147715 -25.771301 2.069243
-4.138605 -25.770113 2.069243
-3.775084 -25.747814 2.069243
-3.411564 -25.757233 2.069243
-3.317135 -25.771301 2.069243
-3.048043 -25.843826 2.069243
-2.684523 -26.033815 2.069243
-2.574427 -26.113573 2.069243
-2.321002 -26.453803 2.069243
-2.319678 -26.455846 2.069243
-2.212278 -26.798119 2.069243
-2.152335 -27.140392 2.069243
-2.092626 -27.482664 2.069243
-1.997633 -27.824937 2.069243
-1.957482 -27.924350 2.069243
-1.880375 -28.167210 2.069243
-1.761599 -28.509483 2.069243
-1.673159 -28.851756 2.069243
-1.652053 -29.194028 2.069243
-1.716822 -29.536301 2.069243
-1.869646 -29.878574 2.069243
-1.957482 -29.993137 2.069243
-2.134541 -30.220847 2.069243
-2.321002 -30.380228 2.069243
-2.586733 -30.563119 2.069243
-2.784988 -30.905392 2.335798
-3.048043 -30.948262 2.335798
-3.411564 -30.909434 2.335798
-3.424696 -30.905392 2.335798
-3.775084 -30.765562 2.335798
-4.138605 -30.598914 2.335798
-4.217086 -30.563119 2.335798
-4.502125 -30.395590 2.335798
-4.865646 -30.223456 2.335798
-4.871388 -30.220847 2.335798
-5.229166 -30.032934 2.335798
-5.520128 -29.878574 2.335798
-5.592687 -29.839833 2.335798
-5.956207 -29.588451 2.335798
-6.010155 -29.536301 2.335798
-6.319728 -29.260176 2.335798
-6.374150 -29.194028 2.335798
-6.662524 -28.851756 2.335798
-6.683248 -28.824037 2.335798
-6.859259 -28.509483 2.335798
-6.983342 -28.167210 2.335798
-6.999414 -27.824937 2.335798
-6.895951 -27.482664 2.335798
-6.703485 -27.140392 2.335798
-6.683248 -27.111622 2.335798
-6.402316 -26.798119 2.335798
-6.319728 -26.702886 2.335798
-6.036019 -26.455846 2.335798
-5.956207 -26.376092 2.335798
-5.598390 -26.113573 2.335798
-5.592687 -26.108952 2.335798
-5.229166 -25.913993 2.335798
-4.872855 -25.771301 2.335798
-4.865646 -25.768779 2.335798
-4.502125 -25.684788 2.335798
-4.138605 -25.624244 2.335798
-3.775084 -25.588171 2.335798
-3.411564 -25.592342 2.335798
-3.048043 -25.659170 2.335798
-2.756766 -25.771301 2.335798
-2.684523 -25.822372 2.335798
-2.380029 -26.113573 2.335798
-2.321002 -26.227552 2.335798
-2.215777 -26.455846 2.335798
-2.144762 -26.798119 2.335798
-2.107129 -27.140392 2.335798
-2.056680 -27.482664 2.335798
-1.957955 -27.824937 2.335798
-1.957482 -27.825993 2.335798
-1.831589 -28.167210 2.335798
-1.685658 -28.509483 2.335798
-1.593961 -28.766361 2.335798
-1.572088 -28.851756 2.335798
-1.530305 -29.194028 2.335798
-1.559887 -29.536301 2.335798
-1.593961 -29.633000 2.335798
-1.679313 -29.878574 2.335798
-1.884042 -30.220847 2.335798
-1.957482 -30.302159 2.335798
-2.194591 -30.563119 2.335798
-2.321002 -30.662118 2.335798
-2.684523 -30.880466 2.335798
-2.784988 -30.905392 2.335798
-2.319885 -30.905392 2.602352
-2.321002 -30.906202 2.602352
-2.684523 -31.095334 2.602352
-3.048043 -31.166551 2.602352
-3.411564 -31.114388 2.602352
-3.775084 -30.983640 2.602352
-3.946759 -30.905392 2.602352
-4.138605 -30.792731 2.602352
-4.502125 -30.589545 2.602352
-4.554140 -30.563119 2.602352
-4.865646 -30.364084 2.602352
-5.129442 -30.220847 2.602352
-5.229166 -30.159172 2.602352
-5.592687 -29.936256 2.602352
-5.669351 -29.878574 2.602352
-5.956207 -29.671527 2.602352
-6.097196 -29.536301 2.602352
-6.319728 -29.342034 2.602352
-6.445192 -29.194028 2.602352
-6.683248 -28.922745 2.602352
-6.731686 -28.851756 2.602352
-6.932145 -28.509483 2.602352
-7.046769 -28.209196 2.602352
-7.059988 -28.167210 2.602352
-7.074047 -27.824937 2.602352
-7.046769 -27.716264 2.602352
-6.973205 -27.482664 2.602352
-6.771509 -27.140392 2.602352
-6.683248 -27.018990 2.602352
-6.477947 -26.798119 2.602352
-6.319728 -26.621859 2.602352
-6.123372 -26.455846 2.602352
-5.956207 -26.292533 2.602352
-5.711348 -26.113573 2.602352
-5.592687 -26.016595 2.602352
-5.229166 -25.801446 2.602352
-5.160347 -25.771301 2.602352
-4.865646 -25.657766 2.602352
-4.502125 -25.553469 2.602352
-4.138605 -25.471403 2.602352
-3.849881 -25.429028 2.602352
-3.775084 -25.420925 2.602352
-3.411564 -25.418178 2.602352
-3.325985 -25.429028 2.602352
-3.048043 -25.487790 2.602352
-2.684523 -25.658706 2.602352
-2.519547 -25.771301 2.602352
-2.321002 -26.017389 2.602352
-2.253514 -26.113573 2.602352
-2.140736 -26.455846 2.602352
-2.098630 -26.798119 2.602352
-2.078718 -27.140392 2.602352
-2.036412 -27.482664 2.602352
-1.957482 -27.758254 2.602352
-1.940186 -27.824937 2.602352
-1.800972 -28.167210 2.602352
-1.633360 -28.509483 2.602352
-1.593961 -28.596132 2.602352
-1.507357 -28.851756 2.602352
-1.441862 -29.194028 2.602352
-1.449696 -29.536301 2.602352
-1.537540 -29.878574 2.602352
-1.593961 -29.984253 2.602352
-1.712041 -30.220847 2.602352
-1.957482 -30.558303 2.602352
-1.960954 -30.563119 2.602352
-2.319885 -30.905392 2.602352
-2.602121 -31.247665 2.868907
-2.684523 -31.286178 2.868907
-3.048043 -31.347159 2.868907
-3.411564 -31.299531 2.868907
-3.561848 -31.247665 2.868907
-3.775084 -31.157608 2.868907
-4.138605 -30.966231 2.868907
-4.252114 -30.905392 2.868907
-4.502125 -30.733888 2.868907
-4.786318 -30.563119 2.868907
-4.865646 -30.502666 2.868907
-5.229166 -30.262843 2.868907
-5.293255 -30.220847 2.868907
-5.592687 -30.007894 2.868907
-5.752912 -29.878574 2.868907
-5.956207 -29.723632 2.868907
-6.147064 -29.536301 2.868907
-6.319728 -29.383660 2.868907
-6.480612 -29.194028 2.868907
-6.683248 -28.964286 2.868907
-6.760676 -28.851756 2.868907
-6.964645 -28.509483 2.868907
-7.046769 -28.296418 2.868907
-7.087786 -28.167210 2.868907
-7.102513 -27.824937 2.868907
-7.046769 -27.604378 2.868907
-7.008133 -27.482664 2.868907
-6.803642 -27.140392 2.868907
-6.683248 -26.975998 2.868907
-6.517259 -26.798119 2.868907
-6.319728 -26.578561 2.868907
-6.175808 -26.455846 2.868907
-5.956207 -26.238626 2.868907
-5.790700 -26.113573 2.868907
-5.592687 -25.945351 2.868907
-5.322519 -25.771301 2.868907
-5.229166 -25.714352 2.868907
-4.865646 -25.554671 2.868907
-4.509004 -25.429028 2.868907
-4.502125 -25.427147 2.868907
-4.138605 -25.354146 2.868907
-3.775084 -25.307425 2.868907
-3.411564 -25.300743 2.868907
-3.048043 -25.353839 2.868907
-2.825206 -25.429028 2.868907
-2.684523 -25.508665 2.868907
-2.362090 -25.771301 2.868907
-2.321002 -25.835915 2.868907
-2.165990 -26.113573 2.868907
-2.084896 -26.455846 2.868907
-2.064357 -26.798119 2.868907
-2.057534 -27.140392 2.868907
-2.022258 -27.482664 2.868907
-1.957482 -27.717623 2.868907
-1.929685 -27.824937 2.868907
-1.783869 -28.167210 2.868907
-1.602323 -28.509483 2.868907
-1.593961 -28.525526 2.868907
-1.461906 -28.851756 2.868907
-1.376896 -29.194028 2.868907
-1.367348 -29.536301 2.868907
-1.438232 -29.878574 2.868907
-1.586327 -30.220847 2.868907
-1.593961 -30.231407 2.868907
-1.812117 -30.563119 2.868907
-1.957482 -30.726927 2.868907
-2.117630 -30.905392 2.868907
-2.321002 -31.074126 2.868907
-2.602121 -31.247665 2.868907
-2.359158 -31.247665 3.135461
-2.684523 -31.416933 3.135461
-3.048043 -31.483999 3.135461
-3.411564 -31.430675 3.135461
-3.775084 -31.296882 3.135461
-3.876238 -31.247665 3.135461
-4.138605 -31.091624 3.135461
-4.450865 -30.905392 3.135461
-4.502125 -30.865603 3.135461
-4.865646 -30.609679 3.135461
-4.939265 -30.563119 3.135461
-5.229166 -30.337242 3.135461
-5.386087 -30.220847 3.135461
-5.592687 -30.055245 3.135461
-5.793048 -29.878574 3.135461
-5.956207 -29.743913 3.135461
-6.157121 -29.536301 3.135461
-6.319728 -29.385975 3.135461
-6.478180 -29.194028 3.135461
-6.683248 -28.955940 3.135461
-6.753901 -28.851756 3.135461
-6.954830 -28.509483 3.135461
-7.046769 -28.268337 3.135461
-7.078695 -28.167210 3.135461
-7.093542 -27.824937 3.135461
-7.046769 -27.637267 3.135461
-6.998708 -27.482664 3.135461
-6.798289 -27.140392 3.135461
-6.683248 -26.980362 3.135461
-6.518089 -26.798119 3.135461
-6.319728 -26.570943 3.135461
-6.190795 -26.455846 3.135461
-5.956207 -26.212858 3.135461
-5.833348 -26.113573 3.135461
-5.592687 -25.895410 3.135461
-5.416520 -25.771301 3.135461
-5.229166 -25.647112 3.135461
-4.865646 -25.464433 3.135461
-4.776672 -25.429028 3.135461
-4.502125 -25.344918 3.135461
-4.138605 -25.260212 3.135461
-3.775084 -25.204344 3.135461
-3.411564 -25.193213 3.135461
-3.048043 -25.249213 3.135461
-2.684523 -25.386642 3.135461
-2.609650 -25.429028 3.135461
-2.321002 -25.699251 3.135461
-2.256005 -25.771301 3.135461
-2.096738 -26.113573 3.135461
-2.037736 -26.455846 3.135461
-2.031463 -26.798119 3.135461
-2.033009 -27.140392 3.135461
-2.003561 -27.482664 3.135461
-1.957482 -27.663714 3.135461
-1.917549 -27.824937 3.135461
-1.772802 -28.167210 3.135461
-1.593961 -28.497305 3.135461
-1.588242 -28.509483 3.135461
-1.435116 -28.851756 3.135461
-1.335973 -29.194028 3.135461
-1.313610 -29.536301 3.135461
-1.372081 -29.878574 3.135461
-1.506128 -30.220847 3.135461
-1.593961 -30.358502 3.135461
-1.711643 -30.563119 3.135461
-1.957482 -30.875978 3.135461
-1.980655 -30.905392 3.135461
-2.321002 -31.220873 3.135461
-2.359158 -31.247665 3.135461
-2.247186 -31.247665 3.402016
-2.321002 -31.306482 3.402016
-2.684523 -31.510850 3.402016
-3.048043 -31.583916 3.402016
-3.411564 -31.527303 3.402016
-3.775084 -31.383974 3.402016
-4.042813 -31.247665 3.402016
-4.138605 -31.187302 3.402016
-4.502125 -30.949873 3.402016
-4.574833 -30.905392 3.402016
-4.865646 -30.676638 3.402016
-5.026799 -30.563119 3.402016
-5.229166 -30.386155 3.402016
-5.428346 -30.220847 3.402016
-5.592687 -30.072956 3.402016
-5.792465 -29.878574 3.402016
-5.956207 -29.729483 3.402016
-6.129604 -29.536301 3.402016
-6.319728 -29.347109 3.402016
-6.439492 -29.194028 3.402016
-6.683248 -28.896066 3.402016
-6.712216 -28.851756 3.402016
-6.904002 -28.509483 3.402016
-7.029806 -28.167210 3.402016
-7.046769 -27.845548 3.402016
-7.047658 -27.824937 3.402016
-7.046769 -27.821239 3.402016
-6.946767 -27.482664 3.402016
-6.757025 -27.140392 3.402016
-6.683248 -27.033085 3.402016
-6.483161 -26.798119 3.402016
-6.319728 -26.599166 3.402016
-6.171700 -26.455846 3.402016
-5.956207 -26.214974 3.402016
-5.842222 -26.113573 3.402016
-5.592687 -25.867461 3.402016
-5.469376 -25.771301 3.402016
-5.229166 -25.597680 3.402016
-4.927884 -25.429028 3.402016
-4.865646 -25.401427 3.402016
-4.502125 -25.278326 3.402016
-4.138605 -25.183349 3.402016
-3.775084 -25.119626 3.402016
-3.411564 -25.104124 3.402016
-3.048043 -25.160781 3.402016
-2.684523 -25.305705 3.402016
-2.482536 -25.429028 3.402016
-2.321002 -25.594778 3.402016
-2.175577 -25.771301 3.402016
-2.034858 -26.113573 3.402016
-1.988448 -26.455846 3.402016
-1.989215 -26.798119 3.402016
-1.994526 -27.140392 3.402016
-1.969778 -27.482664 3.402016
-1.957482 -27.538088 3.402016
-1.893361 -27.824937 3.402016
-1.758319 -28.167210 3.402016
-1.593961 -28.485378 3.402016
-1.582473 -28.509483 3.402016
-1.424698 -28.851756 3.402016
-1.318843 -29.194028 3.402016
-1.289145 -29.536301 3.402016
-1.339680 -29.878574 3.402016
-1.464176 -30.220847 3.402016
-1.593961 -30.443451 3.402016
-1.656369 -30.563119 3.402016
-1.907965 -30.905392 3.402016
-1.957482 -30.957088 3.402016
-2.247186 -31.247665 3.402016
-2.839158 -31.589938 3.668571
-3.048043 -31.626120 3.668571
-3.327123 -31.589938 3.668571
-3.411564 -31.577476 3.668571
-3.775084 -31.429925 3.668571
-4.124827 -31.247665 3.668571
-4.138605 -31.238737 3.668571
-4.502125 -30.988092 3.668571
-4.630113 -30.905392 3.668571
-4.865646 -30.708580 3.668571
-5.057321 -30.563119 3.668571
-5.229166 -30.399874 3.668571
-5.426029 -30.220847 3.668571
-5.592687 -30.054624 3.668571
-5.756622 -29.878574 3.668571
-5.956207 -29.675900 3.668571
-6.070441 -29.536301 3.668571
-6.319728 -29.262730 3.668571
-6.369506 -29.194028 3.668571
-6.624078 -28.851756 3.668571
-6.683248 -28.763218 3.668571
-6.816659 -28.509483 3.668571
-6.932709 -28.167210 3.668571
-6.949796 -27.824937 3.668571
-6.858006 -27.482664 3.668571
-6.684553 -27.140392 3.668571
-6.683248 -27.138356 3.668571
-6.419609 -26.798119 3.668571
-6.319728 -26.665115 3.668571
-6.126644 -26.455846 3.668571
-5.956207 -26.245268 3.668571
-5.824602 -26.113573 3.668571
-5.592687 -25.862150 3.668571
-5.487740 -25.771301 3.668571
-5.229166 -25.568526 3.668571
-5.000010 -25.429028 3.668571
-4.865646 -25.364902 3.668571
-4.502125 -25.231955 3.668571
-4.138605 -25.129462 3.668571
-3.909375 -25.086755 3.668571
-3.775084 -25.067079 3.668571
-3.411564 -25.053306 3.668571
-3.104202 -25.086755 3.668571
-3.048043 -25.095764 3.668571
-2.684523 -25.241533 3.668571
-2.386851 -25.429028 3.668571
-2.321002 -25.498638 3.668571
-2.103928 -25.771301 3.668571
-1.969619 -26.113573 3.668571
-1.957482 -26.210047 3.668571
-1.927365 -26.455846 3.668571
-1.927989 -26.798119 3.668571
-1.932855 -27.140392 3.668571
-1.912150 -27.482664 3.668571
-1.846645 -27.824937 3.668571
-1.730317 -28.167210 3.668571
-1.593961 -28.469798 3.668571
-1.576228 -28.509483 3.668571
-1.426891 -28.851756 3.668571
-1.324867 -29.194028 3.668571
-1.295181 -29.536301 3.668571
-1.342897 -29.878574 3.668571
-1.462109 -30.220847 3.668571
-1.593961 -30.457501 3.668571
-1.646234 -30.563119 3.668571
-1.887443 -30.905392 3.668571
-1.957482 -30.981814 3.668571
-2.209786 -31.247665 3.668571
-2.321002 -31.340225 3.668571
-2.684523 -31.555534 3.668571
-2.839158 -31.589938 3.668571
-2.893094 -31.589938 3.935125
-3.048043 -31.618298 3.935125
-3.279384 -31.589938 3.935125
-3.411564 -31.571553 3.935125
-3.775084 -31.426218 3.935125
-4.118090 -31.247665 3.935125
-4.138605 -31.234457 3.935125
-4.502125 -30.982804 3.935125
-4.619770 -30.905392 3.935125
-4.865646 -30.696365 3.935125
-5.034969 -30.563119 3.935125
-5.229166 -30.370601 3.935125
-5.383927 -30.220847 3.935125
-5.592687 -29.995149 3.935125
-5.692079 -29.878574 3.935125
-5.956207 -29.578896 3.935125
-5.987722 -29.536301 3.935125
-6.260282 -29.194028 3.935125
-6.319728 -29.122771 3.935125
-6.498554 -28.851756 3.935125
-6.683248 -28.544496 3.935125
-6.700353 -28.509483 3.935125
-6.805063 -28.167210 3.935125
-6.821601 -27.824937 3.935125
-6.741744 -27.482664 3.935125
-6.683248 -27.354549 3.935125
-6.563335 -27.140392 3.935125
-6.337768 -26.798119 3.935125
-6.319728 -26.771195 3.935125
-6.066444 -26.455846 3.935125
-5.956207 -26.303031 3.935125
-5.789909 -26.113573 3.935125
-5.592687 -25.878780 3.935125
-5.479979 -25.771301 3.935125
-5.229166 -25.560716 3.935125
-5.025866 -25.429028 3.935125
-4.865646 -25.348261 3.935125
-4.502125 -25.208484 3.935125
-4.138605 -25.101967 3.935125
-4.058384 -25.086755 3.935125
-3.775084 -25.043838 3.935125
-3.411564 -25.027975 3.935125
-3.048043 -25.065780 3.935125
-2.970066 -25.086755 3.935125
-2.684523 -25.197678 3.935125
-2.321002 -25.422223 3.935125
-2.312029 -25.429028 3.935125
-2.031065 -25.771301 3.935125
-1.957482 -25.949029 3.935125
-1.892876 -26.113573 3.935125
-1.843316 -26.455846 3.935125
-1.837001 -26.798119 3.935125
-1.838062 -27.140392 3.935125
-1.820612 -27.482664 3.935125
-1.769534 -27.824937 3.935125
-1.680410 -28.167210 3.935125
-1.593961 -28.418180 3.935125
-1.560094 -28.509483 3.935125
-1.436443 -28.851756 3.935125
-1.352950 -29.194028 3.935125
-1.333644 -29.536301 3.935125
-1.385214 -29.878574 3.935125
-1.503818 -30.220847 3.935125
-1.593961 -30.381487 3.935125
-1.683876 -30.563119 3.935125
-1.918686 -30.905392 3.935125
-1.957482 -30.948372 3.935125
-2.236206 -31.247665 3.935125
-2.321002 -31.319627 3.935125
-2.684523 -31.540892 3.935125
-2.893094 -31.589938 3.935125
-2.334586 -31.247665 4.201680
-2.684523 -31.461422 4.201680
-3.048043 -31.549770 4.201680
-3.411564 -31.504733 4.201680
-3.775084 -31.368512 4.201680
-4.013535 -31.247665 4.201680
-4.138605 -31.170589 4.201680
-4.502125 -30.930353 4.201680
-4.540802 -30.905392 4.201680
-4.865646 -30.637105 4.201680
-4.960030 -30.563119 4.201680
-5.229166 -30.296921 4.201680
-5.305668 -30.220847 4.201680
-5.592687 -29.894614 4.201680
-5.605473 -29.878574 4.201680
-5.872611 -29.536301 4.201680
-5.956207 -29.435473 4.201680
-6.124145 -29.194028 4.201680
-6.319728 -28.921970 4.201680
-6.361067 -28.851756 4.201680
-6.535828 -28.509483 4.201680
-6.652777 -28.167210 4.201680
-6.674478 -27.824937 4.201680
-6.592853 -27.482664 4.201680
-6.436861 -27.140392 4.201680
-6.319728 -26.931355 4.201680
-6.231273 -26.798119 4.201680
-6.002141 -26.455846 4.201680
-5.956207 -26.384202 4.201680
-5.747543 -26.113573 4.201680
-5.592687 -25.913743 4.201680
-5.454576 -25.771301 4.201680
-5.229166 -25.572690 4.201680
-5.015076 -25.429028 4.201680
-4.865646 -25.351075 4.201680
-4.502125 -25.207568 4.201680
-4.138605 -25.100360 4.201680
-4.067044 -25.086755 4.201680
-3.775084 -25.041263 4.201680
-3.411564 -25.023373 4.201680
-3.048043 -25.057364 4.201680
-2.932100 -25.086755 4.201680
-2.684523 -25.174575 4.201680
-2.321002 -25.382007 4.201680
-2.254848 -25.429028 4.201680
-1.957482 -25.760393 4.201680
-1.948519 -25.771301 4.201680
-1.792811 -26.113573 4.201680
-1.726773 -26.455846 4.201680
-1.708900 -26.798119 4.201680
-1.705125 -27.140392 4.201680
-1.692861 -27.482664 4.201680
-1.660521 -27.824937 4.201680
-1.605416 -28.167210 4.201680
-1.593961 -28.222898 4.201680
-1.524490 -28.509483 4.201680
-1.446849 -28.851756 4.201680
-1.400932 -29.194028 4.201680
-1.406500 -29.536301 4.201680
-1.471414 -29.878574 4.201680
-1.593961 -30.216070 4.201680
-1.595474 -30.220847 4.201680
-1.774229 -30.563119 4.201680
-1.957482 -30.826737 4.201680
-2.011318 -30.905392 4.201680
-2.321002 -31.236340 4.201680
-2.334586 -31.247665 4.201680
-2.566018 -31.247665 4.468235
-2.684523 -31.318034 4.468235
-3.048043 -31.411613 4.468235
-3.411564 -31.378989 4.468235
-3.775084 -31.258272 4.468235
-3.797129 -31.247665 4.468235
-4.138605 -31.053437 4.468235
-4.380140 -30.905392 4.468235
-4.502125 -30.812498 4.468235
-4.829489 -30.563119 4.468235
-4.865646 -30.528982 4.468235
-5.191959 -30.220847 4.468235
-5.229166 -30.180028 4.468235
-5.489859 -29.878574 4.468235
-5.592687 -29.753146 4.468235
-5.750424 -29.536301 4.468235
-5.956207 -29.256256 4.468235
-5.995075 -29.194028 4.468235
-6.203517 -28.851756 4.468235
-6.319728 -28.634457 4.468235
-6.375939 -28.509483 4.468235
-6.476645 -28.167210 4.468235
-6.500842 -27.824937 4.468235
-6.442505 -27.482664 4.468235
-6.320451 -27.140392 4.468235
-6.319728 -27.138865 4.468235
-6.136030 -26.798119 4.468235
-5.956207 -26.480730 4.468235
-5.939830 -26.455846 4.468235
-5.704979 -26.113573 4.468235
-5.592687 -25.960133 4.468235
-5.418743 -25.771301 4.468235
-5.229166 -25.600093 4.468235
-4.975986 -25.429028 4.468235
-4.865646 -25.370632 4.468235
-4.502125 -25.225809 4.468235
-4.138605 -25.120294 4.468235
-3.960006 -25.086755 4.468235
-3.775084 -25.057291 4.468235
-3.411564 -25.037384 4.468235
-3.048043 -25.066198 4.468235
-2.957419 -25.086755 4.468235
-2.684523 -25.169809 4.468235
-2.321002 -25.352215 4.468235
-2.200212 -25.429028 4.468235
-1.957482 -25.660202 4.468235
-1.852448 -25.771301 4.468235
-1.663331 -26.113573 4.468235
-1.593961 -26.380114 4.468235
-1.573610 -26.455846 4.468235
-1.537982 -26.798119 4.468235
-1.528033 -27.140392 4.468235
-1.522102 -27.482664 4.468235
-1.508902 -27.824937 4.468235
-1.487188 -28.167210 4.468235
-1.463946 -28.509483 4.468235
-1.451716 -28.851756 4.468235
-1.464644 -29.194028 4.468235
-1.513970 -29.536301 4.468235
-1.593961 -29.829111 4.468235
-1.605525 -29.878574 4.468235
-1.739551 -30.220847 4.468235
-1.923460 -30.563119 4.468235
-1.957482 -30.608655 4.468235
-2.175905 -30.905392 4.468235
-2.321002 -31.053456 4.468235
-2.566018 -31.247665 4.468235
-2.441430 -30.905392 4.734789
-2.684523 -31.083352 4.734789
-3.048043 -31.211512 4.734789
-3.411564 -31.192056 4.734789
-3.775084 -31.070759 4.734789
-4.121208 -30.905392 4.734789
-4.138605 -30.895660 4.734789
-4.502125 -30.655928 4.734789
-4.637206 -30.563119 4.734789
-4.865646 -30.374990 4.734789
-5.042426 -30.220847 4.734789
-5.229166 -30.032033 4.734789
-5.366044 -29.878574 4.734789
-5.592687 -29.599813 4.734789
-5.637552 -29.536301 4.734789
-5.869236 -29.194028 4.734789
-5.956207 -29.055467 4.734789
-6.067864 -28.851756 4.734789
-6.226182 -28.509483 4.734789
-6.319728 -28.205365 4.734789
-6.330123 -28.167210 4.734789
-6.359165 -27.824937 4.734789
-6.319728 -27.483696 4.734789
-6.319597 -27.482664 4.734789
-6.211950 -27.140392 4.734789
-6.063493 -26.798119 4.734789
-5.956207 -26.583194 4.734789
-5.883572 -26.455846 4.734789
-5.666343 -26.113573 4.734789
-5.592687 -26.010047 4.734789
-5.377122 -25.771301 4.734789
-5.229166 -25.637471 4.734789
-4.914714 -25.429028 4.734789
-4.865646 -25.403126 4.734789
-4.502125 -25.258309 4.734789
-4.138605 -25.155632 4.734789
-3.775084 -25.089115 4.734789
-3.739789 -25.086755 4.734789
-3.411564 -25.066898 4.734789
-3.092882 -25.086755 4.734789
-3.048043 -25.090263 4.734789
-2.684523 -25.180033 4.734789
-2.321002 -25.333968 4.734789
-2.147229 -25.429028 4.734789
-1.957482 -25.576602 4.734789
-1.737403 -25.771301 4.734789
-1.593961 -25.977252 4.734789
-1.502074 -26.113573 4.734789
-1.371498 -26.455846 4.734789
-1.310652 -26.798119 4.734789
-1.291865 -27.140392 4.734789
-1.295523 -27.482664 4.734789
-1.311825 -27.824937 4.734789
-1.339588 -28.167210 4.734789
-1.383080 -28.509483 4.734789
-1.447942 -28.851756 4.734789
-1.537466 -29.194028 4.734789
-1.593961 -29.359334 4.734789
-1.643587 -29.536301 4.734789
-1.771441 -29.878574 4.734789
-1.934215 -30.220847 4.734789
-1.957482 -30.257534 4.734789
-2.143321 -30.563119 4.734789
-2.321002 -30.782820 4.734789
-2.441430 -30.905392 4.734789
-2.956247 -30.905392 5.001344
-3.048043 -30.937654 5.001344
-3.411564 -30.946461 5.001344
-3.579603 -30.905392 5.001344
-3.775084 -30.853907 5.001344
-4.138605 -30.690666 5.001344
-4.369213 -30.563119 5.001344
-4.502125 -30.482367 5.001344
-4.865646 -30.222973 5.001344
-4.868315 -30.220847 5.001344
-5.229166 -29.890423 5.001344
-5.240286 -29.878574 5.001344
-5.530484 -29.536301 5.001344
-5.592687 -29.455002 5.001344
-5.766676 -29.194028 5.001344
-5.956207 -28.866416 5.001344
-5.963808 -28.851756 5.001344
-6.112240 -28.509483 5.001344
-6.210798 -28.167210 5.001344
-6.248320 -27.824937 5.001344
-6.222097 -27.482664 5.001344
-6.139103 -27.140392 5.001344
-6.012205 -26.798119 5.001344
-5.956207 -26.675365 5.001344
-5.843336 -26.455846 5.001344
-5.631747 -26.113573 5.001344
-5.592687 -26.058691 5.001344
-5.330718 -25.771301 5.001344
-5.229166 -25.681040 5.001344
-4.865646 -25.447202 5.001344
-4.826376 -25.429028 5.001344
-4.502125 -25.301091 5.001344
-4.138605 -25.201388 5.001344
-3.775084 -25.137897 5.001344
-3.411564 -25.112068 5.001344
-3.048043 -25.131248 5.001344
-2.684523 -25.203388 5.001344
-2.321002 -25.329591 5.001344
-2.103276 -25.429028 5.001344
-1.957482 -25.519034 5.001344
-1.609787 -25.771301 5.001344
-1.593961 -25.788825 5.001344
-1.315615 -26.113573 5.001344
-1.230441 -26.280230 5.001344
-1.134549 -26.455846 5.001344
-1.016529 -26.798119 5.001344
-0.955139 -27.140392 5.001344
-0.955529 -27.482664 5.001344
-1.025316 -27.824937 5.001344
-1.162699 -28.167210 5.001344
-1.230441 -28.289126 5.001344
-1.299394 -28.509483 5.001344
-1.439406 -28.851756 5.001344
-1.593961 -29.158912 5.001344
-1.607514 -29.194028 5.001344
-1.765689 -29.536301 5.001344
-1.954832 -29.878574 5.001344
-1.957482 -29.882722 5.001344
-2.163289 -30.220847 5.001344
-2.321002 -30.431615 5.001344
-2.437418 -30.563119 5.001344
-2.684523 -30.777066 5.001344
-2.956247 -30.905392 5.001344
2.404764 -27.888432 5.267899
2.041243 -27.906581 5.267899
1.677723 -27.943048 5.267899
1.314202 -28.005266 5.267899
0.950682 -28.088572 5.267899
0.587161 -28.155946 5.267899
0.223641 -28.138594 5.267899
-0.139880 -28.021798 5.267899
-0.503400 -27.934253 5.267899
-0.866920 -28.071263 5.267899
-0.931499 -28.167210 5.267899
-1.230441 -28.494103 5.267899
-1.237588 -28.509483 5.267899
-1.437448 -28.851756 5.267899
-1.593961 -29.073030 5.267899
-1.657788 -29.194028 5.267899
-1.874975 -29.536301 5.267899
-1.957482 -29.649949 5.267899
-2.115731 -29.878574 5.267899
-2.321002 -30.132826 5.267899
-2.404972 -30.220847 5.267899
-2.684523 -30.472078 5.267899
-2.854290 -30.563119 5.267899
-3.048043 -30.650046 5.267899
-3.411564 -30.691216 5.267899
-3.775084 -30.633124 5.267899
-3.973445 -30.563119 5.267899
-4.138605 -30.505598 5.267899
-4.502125 -30.322150 5.267899
-4.661845 -30.220847 5.267899
-4.865646 -30.083113 5.267899
-5.107753 -29.878574 5.267899
-5.229166 -29.765650 5.267899
-5.433476 -29.536301 5.267899
-5.592687 -29.330677 5.267899
-5.684879 -29.194028 5.267899
-5.882319 -28.851756 5.267899
-5.956207 -28.686858 5.267899
-6.031817 -28.509483 5.267899
-6.130945 -28.167210 5.267899
-6.173972 -27.824937 5.267899
-6.159555 -27.482664 5.267899
-6.091221 -27.140392 5.267899
-5.975873 -26.798119 5.267899
-5.956207 -26.752762 5.267899
-5.812677 -26.455846 5.267899
-5.597480 -26.113573 5.267899
-5.592687 -26.106995 5.267899
-5.276391 -25.771301 5.267899
-5.229166 -25.730612 5.267899
-4.865646 -25.500633 5.267899
-4.700137 -25.429028 5.267899
-4.502125 -25.353050 5.267899
-4.138605 -25.255889 5.267899
-3.775084 -25.195355 5.267899
-3.411564 -25.169920 5.267899
-3.048043 -25.183489 5.267899
-2.684523 -25.241098 5.267899
-2.321002 -25.343198 5.267899
-2.090897 -25.429028 5.267899
-1.957482 -25.493411 5.267899
-1.593961 -25.703985 5.267899
-1.491318 -25.771301 5.267899
-1.230441 -26.014352 5.267899
-1.131666 -26.113573 5.267899
-0.881042 -26.455846 5.267899
-0.866920 -26.484863 5.267899
-0.666753 -26.798119 5.267899
-0.503400 -27.053893 5.267899
-0.391898 -27.140392 5.267899
-0.139880 -27.324223 5.267899
0.223641 -27.397116 5.267899
0.587161 -27.440320 5.267899
0.950682 -27.475606 5.267899
1.036551 -27.482664 5.267899
1.314202 -27.546248 5.267899
1.677723 -27.605743 5.267899
2.041243 -27.637248 5.267899
2.404764 -27.642216 5.267899
2.404764 -27.949831 5.534453
2.041243 -28.023640 5.534453
1.677723 -28.131236 5.534453
1.574216 -28.167210 5.534453
1.314202 -28.210030 5.534453
0.950682 -28.271518 5.534453
0.587161 -28.316977 5.534453
0.223641 -28.315152 5.534453
-0.139880 -28.250648 5.534453
-0.503400 -28.174132 5.534453
-0.866920 -28.219060 5.534453
-1.205983 -28.509483 5.534453
-1.230441 -28.527332 5.534453
-1.456375 -28.851756 5.534453
-1.593961 -29.015451 5.534453
-1.704427 -29.194028 5.534453
-1.957482 -29.523536 5.534453
-1.966684 -29.536301 5.534453
-2.253251 -29.878574 5.534453
-2.321002 -29.949168 5.534453
-2.639707 -30.220847 5.534453
-2.684523 -30.254969 5.534453
-3.048043 -30.433876 5.534453
-3.411564 -30.492446 5.534453
-3.775084 -30.459500 5.534453
-4.138605 -30.355907 5.534453
-4.435219 -30.220847 5.534453
-4.502125 -30.191180 5.534453
-4.865646 -29.966632 5.534453
-4.976462 -29.878574 5.534453
-5.229166 -29.657726 5.534453
-5.342279 -29.536301 5.534453
-5.592687 -29.220942 5.534453
-5.611402 -29.194028 5.534453
-5.818335 -28.851756 5.534453
-5.956207 -28.539584 5.534453
-5.969229 -28.509483 5.534453
-6.073447 -28.167210 5.534453
-6.122371 -27.824937 5.534453
-6.116081 -27.482664 5.534453
-6.056230 -27.140392 5.534453
-5.956207 -26.829128 5.534453
-5.945738 -26.798119 5.534453
-5.783125 -26.455846 5.534453
-5.592687 -26.161960 5.534453
-5.553941 -26.113573 5.534453
-5.229166 -25.789651 5.534453
-5.203549 -25.771301 5.534453
-4.865646 -25.561777 5.534453
-4.535278 -25.429028 5.534453
-4.502125 -25.416735 5.534453
-4.138605 -25.321519 5.534453
-3.775084 -25.264057 5.534453
-3.411564 -25.240221 5.534453
-3.048043 -25.250874 5.534453
-2.684523 -25.298201 5.534453
-2.321002 -25.381366 5.534453
-2.161356 -25.429028 5.534453
-1.957482 -25.505081 5.534453
-1.593961 -25.673806 5.534453
-1.415109 -25.771301 5.534453
-1.230441 -25.910222 5.534453
-0.988402 -26.113573 5.534453
-0.866920 -26.250984 5.534453
-0.681127 -26.455846 5.534453
-0.503400 -26.665912 5.534453
-0.359728 -26.798119 5.534453
-0.139880 -26.975394 5.534453
0.223641 -27.131492 5.534453
0.249315 -27.140392 5.534453
0.587161 -27.264306 5.534453
0.950682 -27.353155 5.534453
1.314202 -27.415872 5.534453
1.677723 -27.459766 5.534453
1.953620 -27.482664 5.534453
2.041243 -27.506203 5.534453
2.404764 -27.583987 5.534453
2.404764 -27.897024 5.801008
2.041243 -28.021985 5.801008
1.719826 -28.167210 5.801008
1.677723 -28.175301 5.801008
1.314202 -28.247760 5.801008
0.950682 -28.316724 5.801008
0.587161 -28.355999 5.801008
0.223641 -28.333942 5.801008
-0.139880 -28.246142 5.801008
-0.455863 -28.167210 5.801008
-0.503400 -28.148505 5.801008
-0.665407 -28.167210 5.801008
-0.866920 -28.184180 5.801008
-1.230441 -28.469775 5.801008
-1.253830 -28.509483 5.801008
-1.508172 -28.851756 5.801008
-1.593961 -28.947387 5.801008
-1.756524 -29.194028 5.801008
-1.957482 -29.436888 5.801008
-2.035666 -29.536301 5.801008
-2.321002 -29.835334 5.801008
-2.370785 -29.878574 5.801008
-2.684523 -30.120677 5.801008
-2.898905 -30.220847 5.801008
-3.048043 -30.287484 5.801008
-3.411564 -30.353141 5.801008
-3.775084 -30.331015 5.801008
-4.138605 -30.236030 5.801008
-4.173929 -30.220847 5.801008
-4.502125 -30.086346 5.801008
-4.838911 -29.878574 5.801008
-4.865646 -29.861551 5.801008
-5.229166 -29.554000 5.801008
-5.246294 -29.536301 5.801008
-5.537604 -29.194028 5.801008
-5.592687 -29.113249 5.801008
-5.757414 -28.851756 5.801008
-5.914771 -28.509483 5.801008
-5.956207 -28.374633 5.801008
-6.022937 -28.167210 5.801008
-6.078324 -27.824937 5.801008
-6.078028 -27.482664 5.801008
-6.022619 -27.140392 5.801008
-5.956207 -26.929035 5.801008
-5.913447 -26.798119 5.801008
-5.745409 -26.455846 5.801008
-5.592687 -26.229599 5.801008
-5.495050 -26.113573 5.801008
-5.229166 -25.861284 5.801008
-5.094191 -25.771301 5.801008
-4.865646 -25.636143 5.801008
-4.502125 -25.494126 5.801008
-4.235980 -25.429028 5.801008
-4.138605 -25.404690 5.801008
-3.775084 -25.350966 5.801008
-3.411564 -25.330763 5.801008
-3.048043 -25.342161 5.801008
-2.684523 -25.384399 5.801008
-2.445711 -25.429028 5.801008
-2.321002 -25.456191 5.801008
-1.957482 -25.562673 5.801008
-1.593961 -25.701419 5.801008
-1.440519 -25.771301 5.801008
-1.230441 -25.901207 5.801008
-0.936819 -26.113573 5.801008
-0.866920 -26.181955 5.801008
-0.587832 -26.455846 5.801008
-0.503400 -26.548490 5.801008
-0.217720 -26.798119 5.801008
-0.139880 -26.860331 5.801008
0.223641 -27.065159 5.801008
0.422652 -27.140392 5.801008
0.587161 -27.206018 5.801008
0.950682 -27.324651 5.801008
1.314202 -27.409379 5.801008
1.677723 -27.472672 5.801008
1.748873 -27.482664 5.801008
2.041243 -27.597787 5.801008
2.404764 -27.728045 5.801008
-3.277199 -30.220847 6.067563
-3.411564 -30.244337 6.067563
-3.775084 -30.224269 6.067563
-3.788173 -30.220847 6.067563
-4.138605 -30.140419 6.067563
-4.502125 -29.988392 6.067563
-4.682512 -29.878574 6.067563
-4.865646 -29.764472 6.067563
-5.137920 -29.536301 6.067563
-5.229166 -29.449576 6.067563
-5.455070 -29.194028 6.067563
-5.592687 -28.996891 6.067563
-5.687653 -28.851756 6.067563
-5.856934 -28.509483 6.067563
-5.956207 -28.198185 6.067563
-5.966809 -28.167210 6.067563
-6.029568 -27.824937 6.067563
-6.033977 -27.482664 6.067563
-5.979944 -27.140392 6.067563
-5.956207 -27.064716 6.067563
-5.869848 -26.798119 6.067563
-5.689715 -26.455846 6.067563
-5.592687 -26.318879 6.067563
-5.409225 -26.113573 6.067563
-5.229166 -25.951757 6.067563
-4.936064 -25.771301 6.067563
-4.865646 -25.731838 6.067563
-4.502125 -25.590410 6.067563
-4.138605 -25.506928 6.067563
-3.775084 -25.463848 6.067563
-3.411564 -25.452502 6.067563
-3.048043 -25.469366 6.067563
-2.684523 -25.513791 6.067563
-2.321002 -25.585780 6.067563
-1.957482 -25.683540 6.067563
-1.684608 -25.771301 6.067563
-1.593961 -25.811044 6.067563
-1.230441 -26.000773 6.067563
-1.053523 -26.113573 6.067563
-0.866920 -26.277039 6.067563
-0.671275 -26.455846 6.067563
-0.503400 -26.634563 6.067563
-0.316853 -26.798119 6.067563
-0.139880 -26.944900 6.067563
0.223641 -27.125438 6.067563
0.258669 -27.140392 6.067563
0.587161 -27.287503 6.067563
0.950682 -27.400067 6.067563
1.294216 -27.482664 6.067563
1.314202 -27.492789 6.067563
1.677723 -27.676090 6.067563
2.011145 -27.824937 6.067563
1.677723 -28.015646 6.067563
1.422234 -28.167210 6.067563
1.314202 -28.191383 6.067563
0.950682 -28.250979 6.067563
0.587161 -28.266793 6.067563
0.223641 -28.212822 6.067563
0.070162 -28.167210 6.067563
-0.139880 -28.057016 6.067563
-0.503400 -27.925309 6.067563
-0.866920 -27.972560 6.067563
-1.057056 -28.167210 6.067563
-1.230441 -28.305755 6.067563
-1.347204 -28.509483 6.067563
-1.593961 -28.842372 6.067563
-1.598763 -28.851756 6.067563
-1.824075 -29.194028 6.067563
-1.957482 -29.352411 6.067563
-2.106674 -29.536301 6.067563
-2.321002 -29.750234 6.067563
-2.480059 -29.878574 6.067563
-2.684523 -30.024642 6.067563
-3.048043 -30.182194 6.067563
-3.277199 -30.220847 6.067563
-2.599086 -29.878574 6.334117
-2.684523 -29.936670 6.334117
-3.048043 -30.096081 6.334117
-3.411564 -30.155157 6.334117
-3.775084 -30.135974 6.334117
-4.138605 -30.047177 6.334117
-4.502125 -29.883195 6.334117
-4.509647 -29.878574 6.334117
-4.865646 -29.656880 6.334117
-5.010702 -29.536301 6.334117
-5.229166 -29.331419 6.334117
-5.353662 -29.194028 6.334117
-5.592687 -28.860619 6.334117
-5.598735 -28.851756 6.334117
-5.784905 -28.509483 6.334117
-5.903118 -28.167210 6.334117
-5.956207 -27.871188 6.334117
-5.965667 -27.824937 6.334117
-5.973901 -27.482664 6.334117
-5.956207 -27.368676 6.334117
-5.922027 -27.140392 6.334117
-5.805389 -26.798119 6.334117
-5.604832 -26.455846 6.334117
-5.592687 -26.439591 6.334117
-5.280272 -26.113573 6.334117
-5.229166 -26.070317 6.334117
-4.865646 -25.850365 6.334117
-4.648413 -25.771301 6.334117
-4.502125 -25.717540 6.334117
-4.138605 -25.638956 6.334117
-3.775084 -25.605829 6.334117
-3.411564 -25.608840 6.334117
-3.048043 -25.643698 6.334117
-2.684523 -25.708134 6.334117
-2.416365 -25.771301 6.334117
-2.321002 -25.797958 6.334117
-1.957482 -25.918269 6.334117
-1.593961 -26.075847 6.334117
-1.512547 -26.113573 6.334117
-1.230441 -26.324755 6.334117
-1.066821 -26.455846 6.334117
-0.866920 -26.745888 6.334117
-0.821743 -26.798119 6.334117
-0.711438 -27.140392 6.334117
-0.866920 -27.325915 6.334117
-0.918772 -27.482664 6.334117
-1.140632 -27.824937 6.334117
-1.230441 -27.923087 6.334117
-1.324808 -28.167210 6.334117
-1.502786 -28.509483 6.334117
-1.593961 -28.643004 6.334117
-1.692144 -28.851756 6.334117
-1.917156 -29.194028 6.334117
-1.957482 -29.243086 6.334117
-2.192520 -29.536301 6.334117
-2.321002 -29.662695 6.334117
-2.599086 -29.878574 6.334117
0.791836 -27.824937 6.334117
0.587161 -27.836462 6.334117
0.549378 -27.824937 6.334117
0.587161 -27.799746 6.334117
0.791836 -27.824937 6.334117
-2.764344 -29.878574 6.600672
-3.048043 -30.003394 6.600672
-3.411564 -30.063385 6.600672
-3.775084 -30.040126 6.600672
-4.138605 -29.941207 6.600672
-4.271437 -29.878574 6.600672
-4.502125 -29.775163 6.600672
-4.854691 -29.536301 6.600672
-4.865646 -29.528359 6.600672
-5.224073 -29.194028 6.600672
-5.229166 -29.188254 6.600672
-5.494433 -28.851756 6.600672
-5.592687 -28.678476 6.600672
-5.689378 -28.509483 6.600672
-5.820441 -28.167210 6.600672
-5.888169 -27.824937 6.600672
-5.896592 -27.482664 6.600672
-5.841201 -27.140392 6.600672
-5.708861 -26.798119 6.600672
-5.592687 -26.611048 6.600672
-5.474439 -26.455846 6.600672
-5.229166 -26.221317 6.600672
-5.061338 -26.113573 6.600672
-4.865646 -26.001191 6.600672
-4.502125 -25.875042 6.600672
-4.138605 -25.814522 6.600672
-3.775084 -25.801049 6.600672
-3.411564 -25.826282 6.600672
-3.048043 -25.888995 6.600672
-2.684523 -25.994106 6.600672
-2.390669 -26.113573 6.600672
-2.321002 -26.149074 6.600672
-1.957482 -26.379290 6.600672
-1.852298 -26.455846 6.600672
-1.609826 -26.798119 6.600672
-1.593961 -26.850048 6.600672
-1.487063 -27.140392 6.600672
-1.463957 -27.482664 6.600672
-1.501663 -27.824937 6.600672
-1.588967 -28.167210 6.600672
-1.593961 -28.178854 6.600672
-1.682696 -28.509483 6.600672
-1.826875 -28.851756 6.600672
-1.957482 -29.064864 6.600672
-2.029681 -29.194028 6.600672
-2.306422 -29.536301 6.600672
-2.321002 -29.550823 6.600672
-2.684523 -29.840242 6.600672
-2.764344 -29.878574 6.600672
-3.025855 -29.878574 6.867227
-3.048043 -29.887927 6.867227
-3.411564 -29.951372 6.867227
-3.775084 -29.922835 6.867227
-3.919712 -29.878574 6.867227
-4.138605 -29.818665 6.867227
-4.502125 -29.642105 6.867227
-4.654641 -29.536301 6.867227
-4.865646 -29.380947 6.867227
-5.066577 -29.194028 6.867227
-5.229166 -29.011837 6.867227
-5.358772 -28.851756 6.867227
-5.563614 -28.509483 6.867227
-5.592687 -28.436732 6.867227
-5.707514 -28.167210 6.867227
-5.782570 -27.824937 6.867227
-5.789884 -27.482664 6.867227
-5.723162 -27.140392 6.867227
-5.592687 -26.851673 6.867227
-5.564412 -26.798119 6.867227
-5.272799 -26.455846 6.867227
-5.229166 -26.417272 6.867227
-4.865646 -26.195817 6.867227
-4.606597 -26.113573 6.867227
-4.502125 -26.080236 6.867227
-4.138605 -26.032357 6.867227
-3.775084 -26.044774 6.867227
-3.411564 -26.113470 6.867227
-3.411222 -26.113573 6.867227
-3.048043 -26.223595 6.867227
-2.684523 -26.409124 6.867227
-2.610654 -26.455846 6.867227
-2.321002 -26.699553 6.867227
-2.224135 -26.798119 6.867227
-2.011300 -27.140392 6.867227
-1.957482 -27.299087 6.867227
-1.888477 -27.482664 6.867227
-1.830937 -27.824937 6.867227
-1.834173 -28.167210 6.867227
-1.893164 -28.509483 6.867227
-1.957482 -28.691572 6.867227
-2.004526 -28.851756 6.867227
-2.176462 -29.194028 6.867227
-2.321002 -29.383684 6.867227
-2.461049 -29.536301 6.867227
-2.684523 -29.718593 6.867227
-3.025855 -29.878574 6.867227
-2.679704 -29.536301 7.133781
-2.684523 -29.540371 7.133781
-3.048043 -29.741840 7.133781
-3.411564 -29.809871 7.133781
-3.775084 -29.781416 7.133781
-4.138605 -29.669862 7.133781
-4.387331 -29.536301 7.133781
-4.502125 -29.474231 7.133781
-4.863916 -29.194028 7.133781
-4.865646 -29.192484 7.133781
-5.180366 -28.851756 7.133781
-5.229166 -28.781350 7.133781
-5.408671 -28.509483 7.133781
-5.554965 -28.167210 7.133781
-5.592687 -27.992976 7.133781
-5.633534 -27.824937 7.133781
-5.635948 -27.482664 7.133781
-5.592687 -27.302990 7.133781
-5.549469 -27.140392 7.133781
-5.342502 -26.798119 7.133781
-5.229166 -26.680079 7.133781
-4.887435 -26.455846 7.133781
-4.865646 -26.444012 7.133781
-4.502125 -26.333835 7.133781
-4.138605 -26.310501 7.133781
-3.775084 -26.357834 7.133781
-3.473556 -26.455846 7.133781
-3.411564 -26.475429 7.133781
-3.048043 -26.659373 7.133781
-2.860487 -26.798119 7.133781
-2.684523 -26.959026 7.133781
-2.522139 -27.140392 7.133781
-2.322247 -27.482664 7.133781
-2.321002 -27.485963 7.133781
-2.187882 -27.824937 7.133781
-2.131453 -28.167210 7.133781
-2.139324 -28.509483 7.133781
-2.216109 -28.851756 7.133781
-2.321002 -29.077753 7.133781
-2.380008 -29.194028 7.133781
-2.679704 -29.536301 7.133781
-3.086968 -29.536301 7.400336
-3.411564 -29.618042 7.400336
-3.775084 -29.592337 7.400336
-3.937621 -29.536301 7.400336
-4.138605 -29.470010 7.400336
-4.502125 -29.259641 7.400336
-4.584993 -29.194028 7.400336
-4.865646 -28.940972 7.400336
-4.949022 -28.851756 7.400336
-5.195119 -28.509483 7.400336
-5.229166 -28.437317 7.400336
-5.356352 -28.167210 7.400336
-5.431653 -27.824937 7.400336
-5.416104 -27.482664 7.400336
-5.283289 -27.140392 7.400336
-5.229166 -27.067195 7.400336
-4.913712 -26.798119 7.400336
-4.865646 -26.769514 7.400336
-4.502125 -26.665006 7.400336
-4.138605 -26.667061 7.400336
-3.775084 -26.757297 7.400336
-3.688606 -26.798119 7.400336
-3.411564 -26.931609 7.400336
-3.131010 -27.140392 7.400336
-3.048043 -27.214576 7.400336
-2.811174 -27.482664 7.400336
-2.684523 -27.690900 7.400336
-2.607601 -27.824937 7.400336
-2.491083 -28.167210 7.400336
-2.454138 -28.509483 7.400336
-2.500908 -28.851756 7.400336
-2.659143 -29.194028 7.400336
-2.684523 -29.226659 7.400336
-3.048043 -29.523996 7.400336
-3.086968 -29.536301 7.400336
-3.161416 -29.194028 7.666891
-3.411564 -29.310787 7.666891
-3.775084 -29.311950 7.666891
-4.126914 -29.194028 7.666891
-4.138605 -29.189864 7.666891
-4.502125 -28.944569 7.666891
-4.603738 -28.851756 7.666891
-4.865646 -28.547332 7.666891
-4.894145 -28.509483 7.666891
-5.058467 -28.167210 7.666891
-5.118621 -27.824937 7.666891
-5.039746 -27.482664 7.666891
-4.865646 -27.270255 7.666891
-4.590520 -27.140392 7.666891
-4.502125 -27.113895 7.666891
-4.138605 -27.134762 7.666891
-4.123737 -27.140392 7.666891
-3.775084 -27.276356 7.666891
-3.470725 -27.482664 7.666891
-3.411564 -27.531669 7.666891
-3.152007 -27.824937 7.666891
-3.048043 -28.000031 7.666891
-2.959696 -28.167210 7.666891
-2.878310 -28.509483 7.666891
-2.911991 -28.851756 7.666891
-3.048043 -29.095075 7.666891
-3.161416 -29.194028 7.666891
-3.681701 -28.509483 7.933445
-3.775084 -28.634396 7.933445
-4.138605 -28.585448 7.933445
-4.228011 -28.509483 7.933445
-4.413545 -28.167210 7.933445
-4.138605 -27.959616 7.933445
-3.775084 -28.160059 7.933445
-3.768825 -28.167210 7.933445
-3.681701 -28.509483 7.933445
